{"accessors":[{"bufferView":0,"componentType":5126,"count":3,"max":[0,0,0],"min":[0,0,0],"type":"VEC3"},{"bufferView":1,"componentType":5123,"count":3,"type":"SCALAR"}],"asset":{"copyright":"Original Web Geometry contributors; repository license","generator":"Web Geometry examples recipe v1","version":"2.0"},"bufferViews":[{"buffer":0,"byteLength":36,"byteOffset":0},{"buffer":0,"byteLength":6,"byteOffset":36}],"buffers":[{"byteLength":44,"uri":"scene.bin"}],"materials":[{"doubleSided":true,"name":"Graphite slab","pbrMetallicRoughness":{"baseColorFactor":[0.08,0.08,0.09,1],"metallicFactor":0,"roughnessFactor":0.9}},{"doubleSided":true,"name":"Copper r0 m0","pbrMetallicRoughness":{"baseColorFactor":[0.92,0.55,0.32,1],"metallicFactor":0,"roughnessFactor":0.08}},{"doubleSided":true,"name":"Copper r1 m0","pbrMetallicRoughness":{"baseColorFactor":[0.92,0.55,0.32,1],"metallicFactor":0,"roughnessFactor":0.305}},{"doubleSided":true,"name":"Copper r2 m0","pbrMetallicRoughness":{"baseColorFactor":[0.92,0.55,0.32,1],"metallicFactor":0,"roughnessFactor":0.53}},{"doubleSided":true,"name":"Copper r3 m0","pbrMetallicRoughness":{"baseColorFactor":[0.92,0.55,0.32,1],"metallicFactor":0,"roughnessFactor":0.755}},{"doubleSided":true,"name":"Copper r4 m0","pbrMetallicRoughness":{"baseColorFactor":[0.92,0.55,0.32,1],"metallicFactor":0,"roughnessFactor":0.98}},{"doubleSided":true,"name":"Copper r0 m1","pbrMetallicRoughness":{"baseColorFactor":[0.92,0.55,0.32,1],"metallicFactor":0.25,"roughnessFactor":0.08}},{"doubleSided":true,"name":"Copper r1 m1","pbrMetallicRoughness":{"baseColorFactor":[0.92,0.55,0.32,1],"metallicFactor":0.25,"roughnessFactor":0.305}},{"doubleSided":true,"name":"Copper r2 m1","pbrMetallicRoughness":{"baseColorFactor":[0.92,0.55,0.32,1],"metallicFactor":0.25,"roughnessFactor":0.53}},{"doubleSided":true,"name":"Copper r3 m1","pbrMetallicRoughness":{"baseColorFactor":[0.92,0.55,0.32,1],"metallicFactor":0.25,"roughnessFactor":0.755}},{"doubleSided":true,"name":"Copper r4 m1","pbrMetallicRoughness":{"baseColorFactor":[0.92,0.55,0.32,1],"metallicFactor":0.25,"roughnessFactor":0.98}},{"doubleSided":true,"name":"Copper r0 m2","pbrMetallicRoughness":{"baseColorFactor":[0.92,0.55,0.32,1],"metallicFactor":0.5,"roughnessFactor":0.08}},{"doubleSided":true,"name":"Copper r1 m2","pbrMetallicRoughness":{"baseColorFactor":[0.92,0.55,0.32,1],"metallicFactor":0.5,"roughnessFactor":0.305}},{"doubleSided":true,"name":"Copper r2 m2","pbrMetallicRoughness":{"baseColorFactor":[0.92,0.55,0.32,1],"metallicFactor":0.5,"roughnessFactor":0.53}},{"doubleSided":true,"name":"Copper r3 m2","pbrMetallicRoughness":{"baseColorFactor":[0.92,0.55,0.32,1],"metallicFactor":0.5,"roughnessFactor":0.755}},{"doubleSided":true,"name":"Copper r4 m2","pbrMetallicRoughness":{"baseColorFactor":[0.92,0.55,0.32,1],"metallicFactor":0.5,"roughnessFactor":0.98}},{"doubleSided":true,"name":"Copper r0 m3","pbrMetallicRoughness":{"baseColorFactor":[0.92,0.55,0.32,1],"metallicFactor":0.75,"roughnessFactor":0.08}},{"doubleSided":true,"name":"Copper r1 m3","pbrMetallicRoughness":{"baseColorFactor":[0.92,0.55,0.32,1],"metallicFactor":0.75,"roughnessFactor":0.305}},{"doubleSided":true,"name":"Copper r2 m3","pbrMetallicRoughness":{"baseColorFactor":[0.92,0.55,0.32,1],"metallicFactor":0.75,"roughnessFactor":0.53}},{"doubleSided":true,"name":"Copper r3 m3","pbrMetallicRoughness":{"baseColorFactor":[0.92,0.55,0.32,1],"metallicFactor":0.75,"roughnessFactor":0.755}},{"doubleSided":true,"name":"Copper r4 m3","pbrMetallicRoughness":{"baseColorFactor":[0.92,0.55,0.32,1],"metallicFactor":0.75,"roughnessFactor":0.98}},{"doubleSided":true,"name":"Copper r0 m4","pbrMetallicRoughness":{"baseColorFactor":[0.92,0.55,0.32,1],"metallicFactor":1,"roughnessFactor":0.08}},{"doubleSided":true,"name":"Copper r1 m4","pbrMetallicRoughness":{"baseColorFactor":[0.92,0.55,0.32,1],"metallicFactor":1,"roughnessFactor":0.305}},{"doubleSided":true,"name":"Copper r2 m4","pbrMetallicRoughness":{"baseColorFactor":[0.92,0.55,0.32,1],"metallicFactor":1,"roughnessFactor":0.53}},{"doubleSided":true,"name":"Copper r3 m4","pbrMetallicRoughness":{"baseColorFactor":[0.92,0.55,0.32,1],"metallicFactor":1,"roughnessFactor":0.755}},{"doubleSided":true,"name":"Copper r4 m4","pbrMetallicRoughness":{"baseColorFactor":[0.92,0.55,0.32,1],"metallicFactor":1,"roughnessFactor":0.98}}],"meshes":[{"name":"From clay to chrome","primitives":[{"attributes":{"POSITION":0},"indices":1,"material":0,"mode":4},{"attributes":{"POSITION":0},"indices":1,"material":1,"mode":4},{"attributes":{"POSITION":0},"indices":1,"material":2,"mode":4},{"attributes":{"POSITION":0},"indices":1,"material":3,"mode":4},{"attributes":{"POSITION":0},"indices":1,"material":4,"mode":4},{"attributes":{"POSITION":0},"indices":1,"material":5,"mode":4},{"attributes":{"POSITION":0},"indices":1,"material":6,"mode":4},{"attributes":{"POSITION":0},"indices":1,"material":7,"mode":4},{"attributes":{"POSITION":0},"indices":1,"material":8,"mode":4},{"attributes":{"POSITION":0},"indices":1,"material":9,"mode":4},{"attributes":{"POSITION":0},"indices":1,"material":10,"mode":4},{"attributes":{"POSITION":0},"indices":1,"material":11,"mode":4},{"attributes":{"POSITION":0},"indices":1,"material":12,"mode":4},{"attributes":{"POSITION":0},"indices":1,"material":13,"mode":4},{"attributes":{"POSITION":0},"indices":1,"material":14,"mode":4},{"attributes":{"POSITION":0},"indices":1,"material":15,"mode":4},{"attributes":{"POSITION":0},"indices":1,"material":16,"mode":4},{"attributes":{"POSITION":0},"indices":1,"material":17,"mode":4},{"attributes":{"POSITION":0},"indices":1,"material":18,"mode":4},{"attributes":{"POSITION":0},"indices":1,"material":19,"mode":4},{"attributes":{"POSITION":0},"indices":1,"material":20,"mode":4},{"attributes":{"POSITION":0},"indices":1,"material":21,"mode":4},{"attributes":{"POSITION":0},"indices":1,"material":22,"mode":4},{"attributes":{"POSITION":0},"indices":1,"material":23,"mode":4},{"attributes":{"POSITION":0},"indices":1,"material":24,"mode":4},{"attributes":{"POSITION":0},"indices":1,"material":25,"mode":4}]}],"nodes":[{"mesh":0,"name":"From clay to chrome"}],"scene":0,"scenes":[{"nodes":[0]}]}