{"accessors":[{"bufferView":0,"componentType":5126,"count":24,"max":[3.5,0,3.5],"min":[-3.5,-0.3,-3.5],"type":"VEC3"},{"bufferView":1,"componentType":5126,"count":24,"max":[1,1,1],"min":[-1,-1,-1],"type":"VEC3"},{"bufferView":2,"componentType":5125,"count":36,"type":"SCALAR"},{"bufferView":3,"componentType":5126,"count":325,"max":[-2,1,-2],"min":[-3,0,-3],"type":"VEC3"},{"bufferView":4,"componentType":5126,"count":325,"max":[0.9999999993831502,0.9659217606181512,0.9999999993831502],"min":[-0.9999999993831502,-0.9659298916595936,-0.9999999993831502],"type":"VEC3"},{"bufferView":5,"componentType":5125,"count":1728,"type":"SCALAR"},{"bufferView":6,"componentType":5126,"count":325,"max":[-0.75,1,-2],"min":[-1.75,0,-3],"type":"VEC3"},{"bufferView":7,"componentType":5126,"count":325,"max":[0.9999999993831498,0.9659217606181508,0.9999999993831502],"min":[-0.9999999993831498,-0.9659298916595936,-0.9999999993831502],"type":"VEC3"},{"bufferView":8,"componentType":5125,"count":1728,"type":"SCALAR"},{"bufferView":9,"componentType":5126,"count":325,"max":[0.5,1,-2],"min":[-0.5,0,-3],"type":"VEC3"},{"bufferView":10,"componentType":5126,"count":325,"max":[0.9999999993831498,0.965921760618356,1],"min":[-0.9999999993831498,-0.99999999987663,-1],"type":"VEC3"},{"bufferView":11,"componentType":5125,"count":1728,"type":"SCALAR"},{"bufferView":12,"componentType":5126,"count":325,"max":[1.75,1,-2],"min":[0.75,0,-3],"type":"VEC3"},{"bufferView":13,"componentType":5126,"count":325,"max":[0.9999999993831498,0.9659217606181508,0.9999999993831502],"min":[-0.9999999993831498,-0.9659298916595936,-0.9999999993831502],"type":"VEC3"},{"bufferView":14,"componentType":5125,"count":1728,"type":"SCALAR"},{"bufferView":15,"componentType":5126,"count":325,"max":[3,1,-2],"min":[2,0,-3],"type":"VEC3"},{"bufferView":16,"componentType":5126,"count":325,"max":[0.9999999993831502,0.9659217606181512,0.9999999993831502],"min":[-0.9999999993831502,-0.9659298916595936,-0.9999999993831502],"type":"VEC3"},{"bufferView":17,"componentType":5125,"count":1728,"type":"SCALAR"},{"bufferView":18,"componentType":5126,"count":325,"max":[-2,1,-0.75],"min":[-3,0,-1.75],"type":"VEC3"},{"bufferView":19,"componentType":5126,"count":325,"max":[0.9999999993831502,0.965921760618024,0.9999999993831498],"min":[-0.9999999993831502,-0.9659298916595936,-0.9999999993831498],"type":"VEC3"},{"bufferView":20,"componentType":5125,"count":1728,"type":"SCALAR"},{"bufferView":21,"componentType":5126,"count":325,"max":[-0.75,1,-0.75],"min":[-1.75,0,-1.75],"type":"VEC3"},{"bufferView":22,"componentType":5126,"count":325,"max":[0.9999999993831498,0.965921760618387,0.9999999993831498],"min":[-0.9999999993831498,-0.9659298916596732,-0.9999999993831498],"type":"VEC3"},{"bufferView":23,"componentType":5125,"count":1728,"type":"SCALAR"},{"bufferView":24,"componentType":5126,"count":325,"max":[0.5,1,-0.75],"min":[-0.5,0,-1.75],"type":"VEC3"},{"bufferView":25,"componentType":5126,"count":325,"max":[0.9999999993831498,0.965921760618054,1],"min":[-0.9999999993831498,-0.99999999987663,-1],"type":"VEC3"},{"bufferView":26,"componentType":5125,"count":1728,"type":"SCALAR"},{"bufferView":27,"componentType":5126,"count":325,"max":[1.75,1,-0.75],"min":[0.75,0,-1.75],"type":"VEC3"},{"bufferView":28,"componentType":5126,"count":325,"max":[0.9999999993831498,0.965921760618387,0.9999999993831498],"min":[-0.9999999993831498,-0.9659298916596732,-0.9999999993831498],"type":"VEC3"},{"bufferView":29,"componentType":5125,"count":1728,"type":"SCALAR"},{"bufferView":30,"componentType":5126,"count":325,"max":[3,1,-0.75],"min":[2,0,-1.75],"type":"VEC3"},{"bufferView":31,"componentType":5126,"count":325,"max":[0.9999999993831502,0.965921760618024,0.9999999993831498],"min":[-0.9999999993831502,-0.9659298916595936,-0.9999999993831498],"type":"VEC3"},{"bufferView":32,"componentType":5125,"count":1728,"type":"SCALAR"},{"bufferView":33,"componentType":5126,"count":325,"max":[-2,1,0.5],"min":[-3,0,-0.5],"type":"VEC3"},{"bufferView":34,"componentType":5126,"count":325,"max":[1,0.965921760617622,0.9999999993831498],"min":[-1,-0.9999999998766298,-0.9999999993831498],"type":"VEC3"},{"bufferView":35,"componentType":5125,"count":1728,"type":"SCALAR"},{"bufferView":36,"componentType":5126,"count":325,"max":[-0.75,1,0.5],"min":[-1.75,0,-0.5],"type":"VEC3"},{"bufferView":37,"componentType":5126,"count":325,"max":[1,0.965921760618054,0.9999999993831498],"min":[-1,-0.9999999998766298,-0.9999999993831498],"type":"VEC3"},{"bufferView":38,"componentType":5125,"count":1728,"type":"SCALAR"},{"bufferView":39,"componentType":5126,"count":325,"max":[0.5,1,0.5],"min":[-0.5,0,-0.5],"type":"VEC3"},{"bufferView":40,"componentType":5126,"count":325,"max":[0.9999999993831498,0.96592176061753,0.9999999993831498],"min":[-0.9999999993831498,-0.99999999987663,-0.9999999993831498],"type":"VEC3"},{"bufferView":41,"componentType":5125,"count":1728,"type":"SCALAR"},{"bufferView":42,"componentType":5126,"count":325,"max":[1.75,1,0.5],"min":[0.75,0,-0.5],"type":"VEC3"},{"bufferView":43,"componentType":5126,"count":325,"max":[1,0.965921760618054,0.9999999993831498],"min":[-1,-0.9999999998766298,-0.9999999993831498],"type":"VEC3"},{"bufferView":44,"componentType":5125,"count":1728,"type":"SCALAR"},{"bufferView":45,"componentType":5126,"count":325,"max":[3,1,0.5],"min":[2,0,-0.5],"type":"VEC3"},{"bufferView":46,"componentType":5126,"count":325,"max":[1,0.965921760617622,0.9999999993831498],"min":[-1,-0.9999999998766298,-0.9999999993831498],"type":"VEC3"},{"bufferView":47,"componentType":5125,"count":1728,"type":"SCALAR"},{"bufferView":48,"componentType":5126,"count":325,"max":[-2,1,1.75],"min":[-3,0,0.75],"type":"VEC3"},{"bufferView":49,"componentType":5126,"count":325,"max":[0.9999999993831502,0.965921760618024,0.9999999993831498],"min":[-0.9999999993831502,-0.9659298916595936,-0.9999999993831498],"type":"VEC3"},{"bufferView":50,"componentType":5125,"count":1728,"type":"SCALAR"},{"bufferView":51,"componentType":5126,"count":325,"max":[-0.75,1,1.75],"min":[-1.75,0,0.75],"type":"VEC3"},{"bufferView":52,"componentType":5126,"count":325,"max":[0.9999999993831498,0.965921760618387,0.9999999993831498],"min":[-0.9999999993831498,-0.9659298916596732,-0.9999999993831498],"type":"VEC3"},{"bufferView":53,"componentType":5125,"count":1728,"type":"SCALAR"},{"bufferView":54,"componentType":5126,"count":325,"max":[0.5,1,1.75],"min":[-0.5,0,0.75],"type":"VEC3"},{"bufferView":55,"componentType":5126,"count":325,"max":[0.9999999993831498,0.965921760618054,1],"min":[-0.9999999993831498,-0.99999999987663,-1],"type":"VEC3"},{"bufferView":56,"componentType":5125,"count":1728,"type":"SCALAR"},{"bufferView":57,"componentType":5126,"count":325,"max":[1.75,1,1.75],"min":[0.75,0,0.75],"type":"VEC3"},{"bufferView":58,"componentType":5126,"count":325,"max":[0.9999999993831498,0.965921760618387,0.9999999993831498],"min":[-0.9999999993831498,-0.9659298916596732,-0.9999999993831498],"type":"VEC3"},{"bufferView":59,"componentType":5125,"count":1728,"type":"SCALAR"},{"bufferView":60,"componentType":5126,"count":325,"max":[3,1,1.75],"min":[2,0,0.75],"type":"VEC3"},{"bufferView":61,"componentType":5126,"count":325,"max":[0.9999999993831502,0.965921760618024,0.9999999993831498],"min":[-0.9999999993831502,-0.9659298916595936,-0.9999999993831498],"type":"VEC3"},{"bufferView":62,"componentType":5125,"count":1728,"type":"SCALAR"},{"bufferView":63,"componentType":5126,"count":325,"max":[-2,1,3],"min":[-3,0,2],"type":"VEC3"},{"bufferView":64,"componentType":5126,"count":325,"max":[0.9999999993831502,0.9659217606181512,0.9999999993831502],"min":[-0.9999999993831502,-0.9659298916595936,-0.9999999993831502],"type":"VEC3"},{"bufferView":65,"componentType":5125,"count":1728,"type":"SCALAR"},{"bufferView":66,"componentType":5126,"count":325,"max":[-0.75,1,3],"min":[-1.75,0,2],"type":"VEC3"},{"bufferView":67,"componentType":5126,"count":325,"max":[0.9999999993831498,0.9659217606181508,0.9999999993831502],"min":[-0.9999999993831498,-0.9659298916595936,-0.9999999993831502],"type":"VEC3"},{"bufferView":68,"componentType":5125,"count":1728,"type":"SCALAR"},{"bufferView":69,"componentType":5126,"count":325,"max":[0.5,1,3],"min":[-0.5,0,2],"type":"VEC3"},{"bufferView":70,"componentType":5126,"count":325,"max":[0.9999999993831498,0.965921760618356,1],"min":[-0.9999999993831498,-0.99999999987663,-1],"type":"VEC3"},{"bufferView":71,"componentType":5125,"count":1728,"type":"SCALAR"},{"bufferView":72,"componentType":5126,"count":325,"max":[1.75,1,3],"min":[0.75,0,2],"type":"VEC3"},{"bufferView":73,"componentType":5126,"count":325,"max":[0.9999999993831498,0.9659217606181508,0.9999999993831502],"min":[-0.9999999993831498,-0.9659298916595936,-0.9999999993831502],"type":"VEC3"},{"bufferView":74,"componentType":5125,"count":1728,"type":"SCALAR"},{"bufferView":75,"componentType":5126,"count":325,"max":[3,1,3],"min":[2,0,2],"type":"VEC3"},{"bufferView":76,"componentType":5126,"count":325,"max":[0.9999999993831502,0.9659217606181512,0.9999999993831502],"min":[-0.9999999993831502,-0.9659298916595936,-0.9999999993831502],"type":"VEC3"},{"bufferView":77,"componentType":5125,"count":1728,"type":"SCALAR"}],"asset":{"copyright":"Original Web Geometry contributors; repository license","generator":"Web Geometry examples recipe v1","version":"2.0"},"bufferViews":[{"buffer":0,"byteLength":288,"byteOffset":0,"target":34962},{"buffer":0,"byteLength":288,"byteOffset":288,"target":34962},{"buffer":0,"byteLength":144,"byteOffset":576,"target":34963},{"buffer":0,"byteLength":3900,"byteOffset":720,"target":34962},{"buffer":0,"byteLength":3900,"byteOffset":4620,"target":34962},{"buffer":0,"byteLength":6912,"byteOffset":8520,"target":34963},{"buffer":0,"byteLength":3900,"byteOffset":15432,"target":34962},{"buffer":0,"byteLength":3900,"byteOffset":19332,"target":34962},{"buffer":0,"byteLength":6912,"byteOffset":23232,"target":34963},{"buffer":0,"byteLength":3900,"byteOffset":30144,"target":34962},{"buffer":0,"byteLength":3900,"byteOffset":34044,"target":34962},{"buffer":0,"byteLength":6912,"byteOffset":37944,"target":34963},{"buffer":0,"byteLength":3900,"byteOffset":44856,"target":34962},{"buffer":0,"byteLength":3900,"byteOffset":48756,"target":34962},{"buffer":0,"byteLength":6912,"byteOffset":52656,"target":34963},{"buffer":0,"byteLength":3900,"byteOffset":59568,"target":34962},{"buffer":0,"byteLength":3900,"byteOffset":63468,"target":34962},{"buffer":0,"byteLength":6912,"byteOffset":67368,"target":34963},{"buffer":0,"byteLength":3900,"byteOffset":74280,"target":34962},{"buffer":0,"byteLength":3900,"byteOffset":78180,"target":34962},{"buffer":0,"byteLength":6912,"byteOffset":82080,"target":34963},{"buffer":0,"byteLength":3900,"byteOffset":88992,"target":34962},{"buffer":0,"byteLength":3900,"byteOffset":92892,"target":34962},{"buffer":0,"byteLength":6912,"byteOffset":96792,"target":34963},{"buffer":0,"byteLength":3900,"byteOffset":103704,"target":34962},{"buffer":0,"byteLength":3900,"byteOffset":107604,"target":34962},{"buffer":0,"byteLength":6912,"byteOffset":111504,"target":34963},{"buffer":0,"byteLength":3900,"byteOffset":118416,"target":34962},{"buffer":0,"byteLength":3900,"byteOffset":122316,"target":34962},{"buffer":0,"byteLength":6912,"byteOffset":126216,"target":34963},{"buffer":0,"byteLength":3900,"byteOffset":133128,"target":34962},{"buffer":0,"byteLength":3900,"byteOffset":137028,"target":34962},{"buffer":0,"byteLength":6912,"byteOffset":140928,"target":34963},{"buffer":0,"byteLength":3900,"byteOffset":147840,"target":34962},{"buffer":0,"byteLength":3900,"byteOffset":151740,"target":34962},{"buffer":0,"byteLength":6912,"byteOffset":155640,"target":34963},{"buffer":0,"byteLength":3900,"byteOffset":162552,"target":34962},{"buffer":0,"byteLength":3900,"byteOffset":166452,"target":34962},{"buffer":0,"byteLength":6912,"byteOffset":170352,"target":34963},{"buffer":0,"byteLength":3900,"byteOffset":177264,"target":34962},{"buffer":0,"byteLength":3900,"byteOffset":181164,"target":34962},{"buffer":0,"byteLength":6912,"byteOffset":185064,"target":34963},{"buffer":0,"byteLength":3900,"byteOffset":191976,"target":34962},{"buffer":0,"byteLength":3900,"byteOffset":195876,"target":34962},{"buffer":0,"byteLength":6912,"byteOffset":199776,"target":34963},{"buffer":0,"byteLength":3900,"byteOffset":206688,"target":34962},{"buffer":0,"byteLength":3900,"byteOffset":210588,"target":34962},{"buffer":0,"byteLength":6912,"byteOffset":214488,"target":34963},{"buffer":0,"byteLength":3900,"byteOffset":221400,"target":34962},{"buffer":0,"byteLength":3900,"byteOffset":225300,"target":34962},{"buffer":0,"byteLength":6912,"byteOffset":229200,"target":34963},{"buffer":0,"byteLength":3900,"byteOffset":236112,"target":34962},{"buffer":0,"byteLength":3900,"byteOffset":240012,"target":34962},{"buffer":0,"byteLength":6912,"byteOffset":243912,"target":34963},{"buffer":0,"byteLength":3900,"byteOffset":250824,"target":34962},{"buffer":0,"byteLength":3900,"byteOffset":254724,"target":34962},{"buffer":0,"byteLength":6912,"byteOffset":258624,"target":34963},{"buffer":0,"byteLength":3900,"byteOffset":265536,"target":34962},{"buffer":0,"byteLength":3900,"byteOffset":269436,"target":34962},{"buffer":0,"byteLength":6912,"byteOffset":273336,"target":34963},{"buffer":0,"byteLength":3900,"byteOffset":280248,"target":34962},{"buffer":0,"byteLength":3900,"byteOffset":284148,"target":34962},{"buffer":0,"byteLength":6912,"byteOffset":288048,"target":34963},{"buffer":0,"byteLength":3900,"byteOffset":294960,"target":34962},{"buffer":0,"byteLength":3900,"byteOffset":298860,"target":34962},{"buffer":0,"byteLength":6912,"byteOffset":302760,"target":34963},{"buffer":0,"byteLength":3900,"byteOffset":309672,"target":34962},{"buffer":0,"byteLength":3900,"byteOffset":313572,"target":34962},{"buffer":0,"byteLength":6912,"byteOffset":317472,"target":34963},{"buffer":0,"byteLength":3900,"byteOffset":324384,"target":34962},{"buffer":0,"byteLength":3900,"byteOffset":328284,"target":34962},{"buffer":0,"byteLength":6912,"byteOffset":332184,"target":34963},{"buffer":0,"byteLength":3900,"byteOffset":339096,"target":34962},{"buffer":0,"byteLength":3900,"byteOffset":342996,"target":34962},{"buffer":0,"byteLength":6912,"byteOffset":346896,"target":34963},{"buffer":0,"byteLength":3900,"byteOffset":353808,"target":34962},{"buffer":0,"byteLength":3900,"byteOffset":357708,"target":34962},{"buffer":0,"byteLength":6912,"byteOffset":361608,"target":34963}],"buffers":[{"byteLength":368520,"uri":"source.bin"}],"materials":[{"doubleSided":true,"name":"Graphite slab","pbrMetallicRoughness":{"baseColorFactor":[0.08,0.08,0.09,1],"metallicFactor":0,"roughnessFactor":0.9}},{"doubleSided":true,"name":"Copper r0 m0","pbrMetallicRoughness":{"baseColorFactor":[0.92,0.55,0.32,1],"metallicFactor":0,"roughnessFactor":0.08}},{"doubleSided":true,"name":"Copper r1 m0","pbrMetallicRoughness":{"baseColorFactor":[0.92,0.55,0.32,1],"metallicFactor":0,"roughnessFactor":0.305}},{"doubleSided":true,"name":"Copper r2 m0","pbrMetallicRoughness":{"baseColorFactor":[0.92,0.55,0.32,1],"metallicFactor":0,"roughnessFactor":0.53}},{"doubleSided":true,"name":"Copper r3 m0","pbrMetallicRoughness":{"baseColorFactor":[0.92,0.55,0.32,1],"metallicFactor":0,"roughnessFactor":0.755}},{"doubleSided":true,"name":"Copper r4 m0","pbrMetallicRoughness":{"baseColorFactor":[0.92,0.55,0.32,1],"metallicFactor":0,"roughnessFactor":0.98}},{"doubleSided":true,"name":"Copper r0 m1","pbrMetallicRoughness":{"baseColorFactor":[0.92,0.55,0.32,1],"metallicFactor":0.25,"roughnessFactor":0.08}},{"doubleSided":true,"name":"Copper r1 m1","pbrMetallicRoughness":{"baseColorFactor":[0.92,0.55,0.32,1],"metallicFactor":0.25,"roughnessFactor":0.305}},{"doubleSided":true,"name":"Copper r2 m1","pbrMetallicRoughness":{"baseColorFactor":[0.92,0.55,0.32,1],"metallicFactor":0.25,"roughnessFactor":0.53}},{"doubleSided":true,"name":"Copper r3 m1","pbrMetallicRoughness":{"baseColorFactor":[0.92,0.55,0.32,1],"metallicFactor":0.25,"roughnessFactor":0.755}},{"doubleSided":true,"name":"Copper r4 m1","pbrMetallicRoughness":{"baseColorFactor":[0.92,0.55,0.32,1],"metallicFactor":0.25,"roughnessFactor":0.98}},{"doubleSided":true,"name":"Copper r0 m2","pbrMetallicRoughness":{"baseColorFactor":[0.92,0.55,0.32,1],"metallicFactor":0.5,"roughnessFactor":0.08}},{"doubleSided":true,"name":"Copper r1 m2","pbrMetallicRoughness":{"baseColorFactor":[0.92,0.55,0.32,1],"metallicFactor":0.5,"roughnessFactor":0.305}},{"doubleSided":true,"name":"Copper r2 m2","pbrMetallicRoughness":{"baseColorFactor":[0.92,0.55,0.32,1],"metallicFactor":0.5,"roughnessFactor":0.53}},{"doubleSided":true,"name":"Copper r3 m2","pbrMetallicRoughness":{"baseColorFactor":[0.92,0.55,0.32,1],"metallicFactor":0.5,"roughnessFactor":0.755}},{"doubleSided":true,"name":"Copper r4 m2","pbrMetallicRoughness":{"baseColorFactor":[0.92,0.55,0.32,1],"metallicFactor":0.5,"roughnessFactor":0.98}},{"doubleSided":true,"name":"Copper r0 m3","pbrMetallicRoughness":{"baseColorFactor":[0.92,0.55,0.32,1],"metallicFactor":0.75,"roughnessFactor":0.08}},{"doubleSided":true,"name":"Copper r1 m3","pbrMetallicRoughness":{"baseColorFactor":[0.92,0.55,0.32,1],"metallicFactor":0.75,"roughnessFactor":0.305}},{"doubleSided":true,"name":"Copper r2 m3","pbrMetallicRoughness":{"baseColorFactor":[0.92,0.55,0.32,1],"metallicFactor":0.75,"roughnessFactor":0.53}},{"doubleSided":true,"name":"Copper r3 m3","pbrMetallicRoughness":{"baseColorFactor":[0.92,0.55,0.32,1],"metallicFactor":0.75,"roughnessFactor":0.755}},{"doubleSided":true,"name":"Copper r4 m3","pbrMetallicRoughness":{"baseColorFactor":[0.92,0.55,0.32,1],"metallicFactor":0.75,"roughnessFactor":0.98}},{"doubleSided":true,"name":"Copper r0 m4","pbrMetallicRoughness":{"baseColorFactor":[0.92,0.55,0.32,1],"metallicFactor":1,"roughnessFactor":0.08}},{"doubleSided":true,"name":"Copper r1 m4","pbrMetallicRoughness":{"baseColorFactor":[0.92,0.55,0.32,1],"metallicFactor":1,"roughnessFactor":0.305}},{"doubleSided":true,"name":"Copper r2 m4","pbrMetallicRoughness":{"baseColorFactor":[0.92,0.55,0.32,1],"metallicFactor":1,"roughnessFactor":0.53}},{"doubleSided":true,"name":"Copper r3 m4","pbrMetallicRoughness":{"baseColorFactor":[0.92,0.55,0.32,1],"metallicFactor":1,"roughnessFactor":0.755}},{"doubleSided":true,"name":"Copper r4 m4","pbrMetallicRoughness":{"baseColorFactor":[0.92,0.55,0.32,1],"metallicFactor":1,"roughnessFactor":0.98}}],"meshes":[{"name":"From clay to chrome","primitives":[{"attributes":{"NORMAL":1,"POSITION":0},"indices":2,"material":0},{"attributes":{"NORMAL":4,"POSITION":3},"indices":5,"material":1},{"attributes":{"NORMAL":7,"POSITION":6},"indices":8,"material":2},{"attributes":{"NORMAL":10,"POSITION":9},"indices":11,"material":3},{"attributes":{"NORMAL":13,"POSITION":12},"indices":14,"material":4},{"attributes":{"NORMAL":16,"POSITION":15},"indices":17,"material":5},{"attributes":{"NORMAL":19,"POSITION":18},"indices":20,"material":6},{"attributes":{"NORMAL":22,"POSITION":21},"indices":23,"material":7},{"attributes":{"NORMAL":25,"POSITION":24},"indices":26,"material":8},{"attributes":{"NORMAL":28,"POSITION":27},"indices":29,"material":9},{"attributes":{"NORMAL":31,"POSITION":30},"indices":32,"material":10},{"attributes":{"NORMAL":34,"POSITION":33},"indices":35,"material":11},{"attributes":{"NORMAL":37,"POSITION":36},"indices":38,"material":12},{"attributes":{"NORMAL":40,"POSITION":39},"indices":41,"material":13},{"attributes":{"NORMAL":43,"POSITION":42},"indices":44,"material":14},{"attributes":{"NORMAL":46,"POSITION":45},"indices":47,"material":15},{"attributes":{"NORMAL":49,"POSITION":48},"indices":50,"material":16},{"attributes":{"NORMAL":52,"POSITION":51},"indices":53,"material":17},{"attributes":{"NORMAL":55,"POSITION":54},"indices":56,"material":18},{"attributes":{"NORMAL":58,"POSITION":57},"indices":59,"material":19},{"attributes":{"NORMAL":61,"POSITION":60},"indices":62,"material":20},{"attributes":{"NORMAL":64,"POSITION":63},"indices":65,"material":21},{"attributes":{"NORMAL":67,"POSITION":66},"indices":68,"material":22},{"attributes":{"NORMAL":70,"POSITION":69},"indices":71,"material":23},{"attributes":{"NORMAL":73,"POSITION":72},"indices":74,"material":24},{"attributes":{"NORMAL":76,"POSITION":75},"indices":77,"material":25}]}],"nodes":[{"mesh":0,"name":"From clay to chrome"}],"scene":0,"scenes":[{"nodes":[0]}]}