{
  "accessors": [
    {
      "bufferView": 0,
      "componentType": 5126,
      "count": 16,
      "max": [11.0, 2.0, 0.0],
      "min": [0.0, 0.0, 0.0],
      "type": "VEC3"
    },
    {
      "bufferView": 1,
      "componentType": 5126,
      "count": 16,
      "max": [1.0, 1.0],
      "min": [0.0, 0.0],
      "type": "VEC2"
    },
    {
      "bufferView": 2,
      "componentType": 5125,
      "count": 6,
      "type": "SCALAR"
    },
    {
      "bufferView": 3,
      "componentType": 5125,
      "count": 6,
      "type": "SCALAR"
    },
    {
      "bufferView": 4,
      "componentType": 5125,
      "count": 6,
      "type": "SCALAR"
    },
    {
      "bufferView": 5,
      "componentType": 5125,
      "count": 6,
      "type": "SCALAR"
    }
  ],
  "asset": {
    "version": "2.0"
  },
  "bufferViews": [
    {
      "buffer": 0,
      "byteLength": 192,
      "byteOffset": 0
    },
    {
      "buffer": 0,
      "byteLength": 128,
      "byteOffset": 192
    },
    {
      "buffer": 0,
      "byteLength": 24,
      "byteOffset": 320
    },
    {
      "buffer": 0,
      "byteLength": 24,
      "byteOffset": 344
    },
    {
      "buffer": 0,
      "byteLength": 24,
      "byteOffset": 368
    },
    {
      "buffer": 0,
      "byteLength": 24,
      "byteOffset": 392
    },
    {
      "buffer": 0,
      "byteLength": 216,
      "byteOffset": 416
    }
  ],
  "buffers": [
    {
      "byteLength": 632,
      "uri": "atlas-couleur.bin"
    }
  ],
  "images": [
    {
      "uri": "base-degrade.png"
    },
    {
      "bufferView": 6,
      "mimeType": "image/png"
    },
    {
      "uri": "lueur.jpg"
    }
  ],
  "materials": [
    {
      "name": "beton",
      "pbrMetallicRoughness": {
        "baseColorTexture": {
          "index": 0
        }
      }
    },
    {
      "alphaCutoff": 0.25,
      "alphaMode": "MASK",
      "name": "grille",
      "pbrMetallicRoughness": {
        "baseColorTexture": {
          "index": 1
        }
      }
    },
    {
      "alphaMode": "BLEND",
      "name": "vitre",
      "pbrMetallicRoughness": {
        "baseColorTexture": {
          "index": 2
        }
      }
    },
    {
      "emissiveFactor": [1.0, 0.9, 0.6],
      "emissiveTexture": {
        "index": 2
      },
      "name": "lampe"
    }
  ],
  "meshes": [
    {
      "primitives": [
        {
          "attributes": {
            "POSITION": 0,
            "TEXCOORD_0": 1
          },
          "indices": 2,
          "material": 0
        },
        {
          "attributes": {
            "POSITION": 0,
            "TEXCOORD_0": 1
          },
          "indices": 3,
          "material": 1
        },
        {
          "attributes": {
            "POSITION": 0,
            "TEXCOORD_0": 1
          },
          "indices": 4,
          "material": 2
        },
        {
          "attributes": {
            "POSITION": 0,
            "TEXCOORD_0": 1
          },
          "indices": 5,
          "material": 3
        }
      ]
    }
  ],
  "nodes": [
    {
      "mesh": 0
    }
  ],
  "scene": 0,
  "scenes": [
    {
      "nodes": [0]
    }
  ],
  "textures": [
    {
      "source": 0
    },
    {
      "source": 1
    },
    {
      "source": 2
    }
  ]
}
