{"asset":{"version":"2.0","generator":"Web Geometry examples recipe v1","copyright":"Original Web Geometry contributors; repository license"},"scene":0,"scenes":[{"name":"Lamp in its glass","nodes":[0]}],"nodes":[{"name":"scene","mesh":0}],"meshes":[{"name":"scene","primitives":[{"material":0,"attributes":{"POSITION":0,"NORMAL":1},"indices":2},{"material":1,"attributes":{"POSITION":3,"NORMAL":4},"indices":5},{"material":2,"attributes":{"POSITION":6,"NORMAL":7},"indices":8},{"material":3,"attributes":{"POSITION":9,"NORMAL":10},"indices":11}]}],"materials":[{"name":"Pavement","doubleSided":true,"pbrMetallicRoughness":{"baseColorFactor":[0.45,0.44,0.42,1],"metallicFactor":0,"roughnessFactor":0.9}},{"name":"Iron post","doubleSided":true,"pbrMetallicRoughness":{"baseColorFactor":[0.12,0.12,0.13,1],"metallicFactor":0.8,"roughnessFactor":0.5}},{"name":"Bulb","doubleSided":true,"pbrMetallicRoughness":{"baseColorFactor":[1,0.9,0.7,1],"metallicFactor":0,"roughnessFactor":0.5},"emissiveFactor":[1,0.8,0.5]},{"name":"Glass globe","doubleSided":true,"pbrMetallicRoughness":{"baseColorFactor":[0.9,0.95,1,0.22],"metallicFactor":0,"roughnessFactor":0.1},"alphaMode":"BLEND"}],"buffers":[{"uri":"scene.bin","byteLength":50256}],"bufferViews":[{"buffer":0,"byteOffset":0,"byteLength":576,"target":34962},{"buffer":0,"byteOffset":576,"byteLength":576,"target":34962},{"buffer":0,"byteOffset":1152,"byteLength":288,"target":34963},{"buffer":0,"byteOffset":1440,"byteLength":4704,"target":34962},{"buffer":0,"byteOffset":6144,"byteLength":4704,"target":34962},{"buffer":0,"byteOffset":10848,"byteLength":6912,"target":34963},{"buffer":0,"byteOffset":17760,"byteLength":1836,"target":34962},{"buffer":0,"byteOffset":19596,"byteLength":1836,"target":34962},{"buffer":0,"byteOffset":21432,"byteLength":3072,"target":34963},{"buffer":0,"byteOffset":24504,"byteLength":6732,"target":34962},{"buffer":0,"byteOffset":31236,"byteLength":6732,"target":34962},{"buffer":0,"byteOffset":37968,"byteLength":12288,"target":34963}],"accessors":[{"bufferView":0,"componentType":5126,"type":"VEC3","count":48,"min":[-4,-0.3,-4],"max":[4,4,4]},{"bufferView":1,"componentType":5126,"type":"VEC3","count":48,"min":[-1,-1,-1],"max":[1,1,1]},{"bufferView":2,"componentType":5125,"type":"SCALAR","count":72},{"bufferView":3,"componentType":5126,"type":"VEC3","count":392,"min":[-0.3,0,-0.3],"max":[0.3,2.2,0.3]},{"bufferView":4,"componentType":5126,"type":"VEC3","count":392,"min":[-0.9999999995065199,-1,-0.9999999995065199],"max":[0.9999999995065199,0,0.9999999995065199]},{"bufferView":5,"componentType":5125,"type":"SCALAR","count":1728},{"bufferView":6,"componentType":5126,"type":"VEC3","count":153,"min":[-0.09,2.31,-0.09],"max":[0.09,2.4899999999999998,0.09]},{"bufferView":7,"componentType":5126,"type":"VEC3","count":153,"min":[-0.9999999993831499,-0.9999999998766318,-0.9999999993831499],"max":[0.9999999993831499,0.9238735211191345,0.9999999993831499]},{"bufferView":8,"componentType":5125,"type":"SCALAR","count":768},{"bufferView":9,"componentType":5126,"type":"VEC3","count":561,"min":[-0.32,2.08,-0.32],"max":[0.32,2.7199999999999998,0.32]},{"bufferView":10,"componentType":5126,"type":"VEC3","count":561,"min":[-0.9999999993831499,-0.99999999987663,-0.9999999993831499],"max":[0.9999999993831499,0.9807822157929263,0.9999999993831499]},{"bufferView":11,"componentType":5125,"type":"SCALAR","count":3072}]}