mtllib corner.mtl
vn 1 0 0
vn -1 0 0
vn 0 1 0
vn 0 -1 0
vn 0 0 1
vn 0 0 -1
usemtl road
v 6.0000 -0.3500 -6.0000
v 6.0000 -0.1500 -6.0000
v 6.0000 -0.1500 6.0000
v 6.0000 -0.3500 6.0000
f 1//1 2//1 3//1
f 1//1 3//1 4//1
v -6.0000 -0.1500 -6.0000
v -6.0000 -0.3500 -6.0000
v -6.0000 -0.3500 6.0000
v -6.0000 -0.1500 6.0000
f 5//2 6//2 7//2
f 5//2 7//2 8//2
v -6.0000 -0.1500 -6.0000
v -6.0000 -0.1500 6.0000
v 6.0000 -0.1500 6.0000
v 6.0000 -0.1500 -6.0000
f 9//3 10//3 11//3
f 9//3 11//3 12//3
v -6.0000 -0.3500 6.0000
v -6.0000 -0.3500 -6.0000
v 6.0000 -0.3500 -6.0000
v 6.0000 -0.3500 6.0000
f 13//4 14//4 15//4
f 13//4 15//4 16//4
v -6.0000 -0.3500 6.0000
v 6.0000 -0.3500 6.0000
v 6.0000 -0.1500 6.0000
v -6.0000 -0.1500 6.0000
f 17//5 18//5 19//5
f 17//5 19//5 20//5
v 6.0000 -0.3500 -6.0000
v -6.0000 -0.3500 -6.0000
v -6.0000 -0.1500 -6.0000
v 6.0000 -0.1500 -6.0000
f 21//6 22//6 23//6
f 21//6 23//6 24//6
usemtl pavement
v 5.5000 -0.2000 -3.0000
v 5.5000 0.0000 -3.0000
v 5.5000 0.0000 -1.3500
v 5.5000 -0.2000 -1.3500
f 25//1 26//1 27//1
f 25//1 27//1 28//1
v -4.0000 0.0000 -3.0000
v -4.0000 -0.2000 -3.0000
v -4.0000 -0.2000 -1.3500
v -4.0000 0.0000 -1.3500
f 29//2 30//2 31//2
f 29//2 31//2 32//2
v -4.0000 0.0000 -3.0000
v -4.0000 0.0000 -1.3500
v 5.5000 0.0000 -1.3500
v 5.5000 0.0000 -3.0000
f 33//3 34//3 35//3
f 33//3 35//3 36//3
v -4.0000 -0.2000 -1.3500
v -4.0000 -0.2000 -3.0000
v 5.5000 -0.2000 -3.0000
v 5.5000 -0.2000 -1.3500
f 37//4 38//4 39//4
f 37//4 39//4 40//4
v -4.0000 -0.2000 -1.3500
v 5.5000 -0.2000 -1.3500
v 5.5000 0.0000 -1.3500
v -4.0000 0.0000 -1.3500
f 41//5 42//5 43//5
f 41//5 43//5 44//5
v 5.5000 -0.2000 -3.0000
v -4.0000 -0.2000 -3.0000
v -4.0000 0.0000 -3.0000
v 5.5000 0.0000 -3.0000
f 45//6 46//6 47//6
f 45//6 47//6 48//6
usemtl pavement
v -2.3500 -0.2000 -1.3500
v -2.3500 0.0000 -1.3500
v -2.3500 0.0000 5.5000
v -2.3500 -0.2000 5.5000
f 49//1 50//1 51//1
f 49//1 51//1 52//1
v -4.0000 0.0000 -1.3500
v -4.0000 -0.2000 -1.3500
v -4.0000 -0.2000 5.5000
v -4.0000 0.0000 5.5000
f 53//2 54//2 55//2
f 53//2 55//2 56//2
v -4.0000 0.0000 -1.3500
v -4.0000 0.0000 5.5000
v -2.3500 0.0000 5.5000
v -2.3500 0.0000 -1.3500
f 57//3 58//3 59//3
f 57//3 59//3 60//3
v -4.0000 -0.2000 5.5000
v -4.0000 -0.2000 -1.3500
v -2.3500 -0.2000 -1.3500
v -2.3500 -0.2000 5.5000
f 61//4 62//4 63//4
f 61//4 63//4 64//4
v -4.0000 -0.2000 5.5000
v -2.3500 -0.2000 5.5000
v -2.3500 0.0000 5.5000
v -4.0000 0.0000 5.5000
f 65//5 66//5 67//5
f 65//5 67//5 68//5
v -2.3500 -0.2000 -1.3500
v -4.0000 -0.2000 -1.3500
v -4.0000 0.0000 -1.3500
v -2.3500 0.0000 -1.3500
f 69//6 70//6 71//6
f 69//6 71//6 72//6
usemtl kerb
v 5.5000 -0.2000 -1.3500
v 5.5000 0.0000 -1.3500
v 5.5000 0.0000 -1.2000
v 5.5000 -0.2000 -1.2000
f 73//1 74//1 75//1
f 73//1 75//1 76//1
v -2.2000 0.0000 -1.3500
v -2.2000 -0.2000 -1.3500
v -2.2000 -0.2000 -1.2000
v -2.2000 0.0000 -1.2000
f 77//2 78//2 79//2
f 77//2 79//2 80//2
v -2.2000 0.0000 -1.3500
v -2.2000 0.0000 -1.2000
v 5.5000 0.0000 -1.2000
v 5.5000 0.0000 -1.3500
f 81//3 82//3 83//3
f 81//3 83//3 84//3
v -2.2000 -0.2000 -1.2000
v -2.2000 -0.2000 -1.3500
v 5.5000 -0.2000 -1.3500
v 5.5000 -0.2000 -1.2000
f 85//4 86//4 87//4
f 85//4 87//4 88//4
v -2.2000 -0.2000 -1.2000
v 5.5000 -0.2000 -1.2000
v 5.5000 0.0000 -1.2000
v -2.2000 0.0000 -1.2000
f 89//5 90//5 91//5
f 89//5 91//5 92//5
v 5.5000 -0.2000 -1.3500
v -2.2000 -0.2000 -1.3500
v -2.2000 0.0000 -1.3500
v 5.5000 0.0000 -1.3500
f 93//6 94//6 95//6
f 93//6 95//6 96//6
usemtl kerb
v -2.2000 -0.2000 -1.3500
v -2.2000 0.0000 -1.3500
v -2.2000 0.0000 5.5000
v -2.2000 -0.2000 5.5000
f 97//1 98//1 99//1
f 97//1 99//1 100//1
v -2.3500 0.0000 -1.3500
v -2.3500 -0.2000 -1.3500
v -2.3500 -0.2000 5.5000
v -2.3500 0.0000 5.5000
f 101//2 102//2 103//2
f 101//2 103//2 104//2
v -2.3500 0.0000 -1.3500
v -2.3500 0.0000 5.5000
v -2.2000 0.0000 5.5000
v -2.2000 0.0000 -1.3500
f 105//3 106//3 107//3
f 105//3 107//3 108//3
v -2.3500 -0.2000 5.5000
v -2.3500 -0.2000 -1.3500
v -2.2000 -0.2000 -1.3500
v -2.2000 -0.2000 5.5000
f 109//4 110//4 111//4
f 109//4 111//4 112//4
v -2.3500 -0.2000 5.5000
v -2.2000 -0.2000 5.5000
v -2.2000 0.0000 5.5000
v -2.3500 0.0000 5.5000
f 113//5 114//5 115//5
f 113//5 115//5 116//5
v -2.2000 -0.2000 -1.3500
v -2.3500 -0.2000 -1.3500
v -2.3500 0.0000 -1.3500
v -2.2000 0.0000 -1.3500
f 117//6 118//6 119//6
f 117//6 119//6 120//6
usemtl wall
v 6.0000 -0.2000 -3.3000
v 6.0000 5.0000 -3.3000
v 6.0000 5.0000 -3.0000
v 6.0000 -0.2000 -3.0000
f 121//1 122//1 123//1
f 121//1 123//1 124//1
v -6.0000 5.0000 -3.3000
v -6.0000 -0.2000 -3.3000
v -6.0000 -0.2000 -3.0000
v -6.0000 5.0000 -3.0000
f 125//2 126//2 127//2
f 125//2 127//2 128//2
v -6.0000 5.0000 -3.3000
v -6.0000 5.0000 -3.0000
v 6.0000 5.0000 -3.0000
v 6.0000 5.0000 -3.3000
f 129//3 130//3 131//3
f 129//3 131//3 132//3
v -6.0000 -0.2000 -3.0000
v -6.0000 -0.2000 -3.3000
v 6.0000 -0.2000 -3.3000
v 6.0000 -0.2000 -3.0000
f 133//4 134//4 135//4
f 133//4 135//4 136//4
v -6.0000 -0.2000 -3.0000
v 6.0000 -0.2000 -3.0000
v 6.0000 5.0000 -3.0000
v -6.0000 5.0000 -3.0000
f 137//5 138//5 139//5
f 137//5 139//5 140//5
v 6.0000 -0.2000 -3.3000
v -6.0000 -0.2000 -3.3000
v -6.0000 5.0000 -3.3000
v 6.0000 5.0000 -3.3000
f 141//6 142//6 143//6
f 141//6 143//6 144//6
usemtl wall
v -4.0000 -0.2000 -3.0000
v -4.0000 5.0000 -3.0000
v -4.0000 5.0000 5.8000
v -4.0000 -0.2000 5.8000
f 145//1 146//1 147//1
f 145//1 147//1 148//1
v -4.3000 5.0000 -3.0000
v -4.3000 -0.2000 -3.0000
v -4.3000 -0.2000 5.8000
v -4.3000 5.0000 5.8000
f 149//2 150//2 151//2
f 149//2 151//2 152//2
v -4.3000 5.0000 -3.0000
v -4.3000 5.0000 5.8000
v -4.0000 5.0000 5.8000
v -4.0000 5.0000 -3.0000
f 153//3 154//3 155//3
f 153//3 155//3 156//3
v -4.3000 -0.2000 5.8000
v -4.3000 -0.2000 -3.0000
v -4.0000 -0.2000 -3.0000
v -4.0000 -0.2000 5.8000
f 157//4 158//4 159//4
f 157//4 159//4 160//4
v -4.3000 -0.2000 5.8000
v -4.0000 -0.2000 5.8000
v -4.0000 5.0000 5.8000
v -4.3000 5.0000 5.8000
f 161//5 162//5 163//5
f 161//5 163//5 164//5
v -4.0000 -0.2000 -3.0000
v -4.3000 -0.2000 -3.0000
v -4.3000 5.0000 -3.0000
v -4.0000 5.0000 -3.0000
f 165//6 166//6 167//6
f 165//6 167//6 168//6
usemtl wall
v 5.8000 -0.2000 -3.0000
v 5.8000 5.0000 -3.0000
v 5.8000 5.0000 5.8000
v 5.8000 -0.2000 5.8000
f 169//1 170//1 171//1
f 169//1 171//1 172//1
v 5.5000 5.0000 -3.0000
v 5.5000 -0.2000 -3.0000
v 5.5000 -0.2000 5.8000
v 5.5000 5.0000 5.8000
f 173//2 174//2 175//2
f 173//2 175//2 176//2
v 5.5000 5.0000 -3.0000
v 5.5000 5.0000 5.8000
v 5.8000 5.0000 5.8000
v 5.8000 5.0000 -3.0000
f 177//3 178//3 179//3
f 177//3 179//3 180//3
v 5.5000 -0.2000 5.8000
v 5.5000 -0.2000 -3.0000
v 5.8000 -0.2000 -3.0000
v 5.8000 -0.2000 5.8000
f 181//4 182//4 183//4
f 181//4 183//4 184//4
v 5.5000 -0.2000 5.8000
v 5.8000 -0.2000 5.8000
v 5.8000 5.0000 5.8000
v 5.5000 5.0000 5.8000
f 185//5 186//5 187//5
f 185//5 187//5 188//5
v 5.8000 -0.2000 -3.0000
v 5.5000 -0.2000 -3.0000
v 5.5000 5.0000 -3.0000
v 5.8000 5.0000 -3.0000
f 189//6 190//6 191//6
f 189//6 191//6 192//6
usemtl wall
v 5.5000 -0.2000 5.5000
v 5.5000 5.0000 5.5000
v 5.5000 5.0000 5.8000
v 5.5000 -0.2000 5.8000
f 193//1 194//1 195//1
f 193//1 195//1 196//1
v -4.0000 5.0000 5.5000
v -4.0000 -0.2000 5.5000
v -4.0000 -0.2000 5.8000
v -4.0000 5.0000 5.8000
f 197//2 198//2 199//2
f 197//2 199//2 200//2
v -4.0000 5.0000 5.5000
v -4.0000 5.0000 5.8000
v 5.5000 5.0000 5.8000
v 5.5000 5.0000 5.5000
f 201//3 202//3 203//3
f 201//3 203//3 204//3
v -4.0000 -0.2000 5.8000
v -4.0000 -0.2000 5.5000
v 5.5000 -0.2000 5.5000
v 5.5000 -0.2000 5.8000
f 205//4 206//4 207//4
f 205//4 207//4 208//4
v -4.0000 -0.2000 5.8000
v 5.5000 -0.2000 5.8000
v 5.5000 5.0000 5.8000
v -4.0000 5.0000 5.8000
f 209//5 210//5 211//5
f 209//5 211//5 212//5
v 5.5000 -0.2000 5.5000
v -4.0000 -0.2000 5.5000
v -4.0000 5.0000 5.5000
v 5.5000 5.0000 5.5000
f 213//6 214//6 215//6
f 213//6 215//6 216//6
usemtl door
v -0.6500 0.0000 -3.1000
v -0.6500 2.2000 -3.1000
v -0.6500 2.2000 -2.9500
v -0.6500 0.0000 -2.9500
f 217//1 218//1 219//1
f 217//1 219//1 220//1
v -1.7500 2.2000 -3.1000
v -1.7500 0.0000 -3.1000
v -1.7500 0.0000 -2.9500
v -1.7500 2.2000 -2.9500
f 221//2 222//2 223//2
f 221//2 223//2 224//2
v -1.7500 2.2000 -3.1000
v -1.7500 2.2000 -2.9500
v -0.6500 2.2000 -2.9500
v -0.6500 2.2000 -3.1000
f 225//3 226//3 227//3
f 225//3 227//3 228//3
v -1.7500 0.0000 -2.9500
v -1.7500 0.0000 -3.1000
v -0.6500 0.0000 -3.1000
v -0.6500 0.0000 -2.9500
f 229//4 230//4 231//4
f 229//4 231//4 232//4
v -1.7500 0.0000 -2.9500
v -0.6500 0.0000 -2.9500
v -0.6500 2.2000 -2.9500
v -1.7500 2.2000 -2.9500
f 233//5 234//5 235//5
f 233//5 235//5 236//5
v -0.6500 0.0000 -3.1000
v -1.7500 0.0000 -3.1000
v -1.7500 2.2000 -3.1000
v -0.6500 2.2000 -3.1000
f 237//6 238//6 239//6
f 237//6 239//6 240//6
