mtllib windows.mtl
vn 1 0 0
vn -1 0 0
vn 0 1 0
vn 0 -1 0
vn 0 0 1
vn 0 0 -1
usemtl frame
v 3.4000 0.6000 -3.0000
v 3.4000 2.2000 -3.0000
v 3.4000 2.2000 -2.9200
v 3.4000 0.6000 -2.9200
f 1//1 2//1 3//1
f 1//1 3//1 4//1
v 1.4000 2.2000 -3.0000
v 1.4000 0.6000 -3.0000
v 1.4000 0.6000 -2.9200
v 1.4000 2.2000 -2.9200
f 5//2 6//2 7//2
f 5//2 7//2 8//2
v 1.4000 2.2000 -3.0000
v 1.4000 2.2000 -2.9200
v 3.4000 2.2000 -2.9200
v 3.4000 2.2000 -3.0000
f 9//3 10//3 11//3
f 9//3 11//3 12//3
v 1.4000 0.6000 -2.9200
v 1.4000 0.6000 -3.0000
v 3.4000 0.6000 -3.0000
v 3.4000 0.6000 -2.9200
f 13//4 14//4 15//4
f 13//4 15//4 16//4
v 1.4000 0.6000 -2.9200
v 3.4000 0.6000 -2.9200
v 3.4000 2.2000 -2.9200
v 1.4000 2.2000 -2.9200
f 17//5 18//5 19//5
f 17//5 19//5 20//5
v 3.4000 0.6000 -3.0000
v 1.4000 0.6000 -3.0000
v 1.4000 2.2000 -3.0000
v 3.4000 2.2000 -3.0000
f 21//6 22//6 23//6
f 21//6 23//6 24//6
usemtl litPane
v 3.3000 0.7000 -2.9300
v 3.3000 2.1000 -2.9300
v 3.3000 2.1000 -2.9000
v 3.3000 0.7000 -2.9000
f 25//1 26//1 27//1
f 25//1 27//1 28//1
v 1.5000 2.1000 -2.9300
v 1.5000 0.7000 -2.9300
v 1.5000 0.7000 -2.9000
v 1.5000 2.1000 -2.9000
f 29//2 30//2 31//2
f 29//2 31//2 32//2
v 1.5000 2.1000 -2.9300
v 1.5000 2.1000 -2.9000
v 3.3000 2.1000 -2.9000
v 3.3000 2.1000 -2.9300
f 33//3 34//3 35//3
f 33//3 35//3 36//3
v 1.5000 0.7000 -2.9000
v 1.5000 0.7000 -2.9300
v 3.3000 0.7000 -2.9300
v 3.3000 0.7000 -2.9000
f 37//4 38//4 39//4
f 37//4 39//4 40//4
v 1.5000 0.7000 -2.9000
v 3.3000 0.7000 -2.9000
v 3.3000 2.1000 -2.9000
v 1.5000 2.1000 -2.9000
f 41//5 42//5 43//5
f 41//5 43//5 44//5
v 3.3000 0.7000 -2.9300
v 1.5000 0.7000 -2.9300
v 1.5000 2.1000 -2.9300
v 3.3000 2.1000 -2.9300
f 45//6 46//6 47//6
f 45//6 47//6 48//6
usemtl frame
v -0.5500 2.9500 -3.0000
v -0.5500 4.4500 -3.0000
v -0.5500 4.4500 -2.9200
v -0.5500 2.9500 -2.9200
f 49//1 50//1 51//1
f 49//1 51//1 52//1
v -1.8500 4.4500 -3.0000
v -1.8500 2.9500 -3.0000
v -1.8500 2.9500 -2.9200
v -1.8500 4.4500 -2.9200
f 53//2 54//2 55//2
f 53//2 55//2 56//2
v -1.8500 4.4500 -3.0000
v -1.8500 4.4500 -2.9200
v -0.5500 4.4500 -2.9200
v -0.5500 4.4500 -3.0000
f 57//3 58//3 59//3
f 57//3 59//3 60//3
v -1.8500 2.9500 -2.9200
v -1.8500 2.9500 -3.0000
v -0.5500 2.9500 -3.0000
v -0.5500 2.9500 -2.9200
f 61//4 62//4 63//4
f 61//4 63//4 64//4
v -1.8500 2.9500 -2.9200
v -0.5500 2.9500 -2.9200
v -0.5500 4.4500 -2.9200
v -1.8500 4.4500 -2.9200
f 65//5 66//5 67//5
f 65//5 67//5 68//5
v -0.5500 2.9500 -3.0000
v -1.8500 2.9500 -3.0000
v -1.8500 4.4500 -3.0000
v -0.5500 4.4500 -3.0000
f 69//6 70//6 71//6
f 69//6 71//6 72//6
usemtl litPane
v -0.6500 3.0500 -2.9300
v -0.6500 4.3500 -2.9300
v -0.6500 4.3500 -2.9000
v -0.6500 3.0500 -2.9000
f 73//1 74//1 75//1
f 73//1 75//1 76//1
v -1.7500 4.3500 -2.9300
v -1.7500 3.0500 -2.9300
v -1.7500 3.0500 -2.9000
v -1.7500 4.3500 -2.9000
f 77//2 78//2 79//2
f 77//2 79//2 80//2
v -1.7500 4.3500 -2.9300
v -1.7500 4.3500 -2.9000
v -0.6500 4.3500 -2.9000
v -0.6500 4.3500 -2.9300
f 81//3 82//3 83//3
f 81//3 83//3 84//3
v -1.7500 3.0500 -2.9000
v -1.7500 3.0500 -2.9300
v -0.6500 3.0500 -2.9300
v -0.6500 3.0500 -2.9000
f 85//4 86//4 87//4
f 85//4 87//4 88//4
v -1.7500 3.0500 -2.9000
v -0.6500 3.0500 -2.9000
v -0.6500 4.3500 -2.9000
v -1.7500 4.3500 -2.9000
f 89//5 90//5 91//5
f 89//5 91//5 92//5
v -0.6500 3.0500 -2.9300
v -1.7500 3.0500 -2.9300
v -1.7500 4.3500 -2.9300
v -0.6500 4.3500 -2.9300
f 93//6 94//6 95//6
f 93//6 95//6 96//6
usemtl frame
v 3.0500 2.9500 -3.0000
v 3.0500 4.4500 -3.0000
v 3.0500 4.4500 -2.9200
v 3.0500 2.9500 -2.9200
f 97//1 98//1 99//1
f 97//1 99//1 100//1
v 1.7500 4.4500 -3.0000
v 1.7500 2.9500 -3.0000
v 1.7500 2.9500 -2.9200
v 1.7500 4.4500 -2.9200
f 101//2 102//2 103//2
f 101//2 103//2 104//2
v 1.7500 4.4500 -3.0000
v 1.7500 4.4500 -2.9200
v 3.0500 4.4500 -2.9200
v 3.0500 4.4500 -3.0000
f 105//3 106//3 107//3
f 105//3 107//3 108//3
v 1.7500 2.9500 -2.9200
v 1.7500 2.9500 -3.0000
v 3.0500 2.9500 -3.0000
v 3.0500 2.9500 -2.9200
f 109//4 110//4 111//4
f 109//4 111//4 112//4
v 1.7500 2.9500 -2.9200
v 3.0500 2.9500 -2.9200
v 3.0500 4.4500 -2.9200
v 1.7500 4.4500 -2.9200
f 113//5 114//5 115//5
f 113//5 115//5 116//5
v 3.0500 2.9500 -3.0000
v 1.7500 2.9500 -3.0000
v 1.7500 4.4500 -3.0000
v 3.0500 4.4500 -3.0000
f 117//6 118//6 119//6
f 117//6 119//6 120//6
usemtl darkPane
v 2.9500 3.0500 -2.9300
v 2.9500 4.3500 -2.9300
v 2.9500 4.3500 -2.9000
v 2.9500 3.0500 -2.9000
f 121//1 122//1 123//1
f 121//1 123//1 124//1
v 1.8500 4.3500 -2.9300
v 1.8500 3.0500 -2.9300
v 1.8500 3.0500 -2.9000
v 1.8500 4.3500 -2.9000
f 125//2 126//2 127//2
f 125//2 127//2 128//2
v 1.8500 4.3500 -2.9300
v 1.8500 4.3500 -2.9000
v 2.9500 4.3500 -2.9000
v 2.9500 4.3500 -2.9300
f 129//3 130//3 131//3
f 129//3 131//3 132//3
v 1.8500 3.0500 -2.9000
v 1.8500 3.0500 -2.9300
v 2.9500 3.0500 -2.9300
v 2.9500 3.0500 -2.9000
f 133//4 134//4 135//4
f 133//4 135//4 136//4
v 1.8500 3.0500 -2.9000
v 2.9500 3.0500 -2.9000
v 2.9500 4.3500 -2.9000
v 1.8500 4.3500 -2.9000
f 137//5 138//5 139//5
f 137//5 139//5 140//5
v 2.9500 3.0500 -2.9300
v 1.8500 3.0500 -2.9300
v 1.8500 4.3500 -2.9300
v 2.9500 4.3500 -2.9300
f 141//6 142//6 143//6
f 141//6 143//6 144//6
usemtl frame
v -3.9200 0.7500 -0.1500
v -3.9200 2.2500 -0.1500
v -3.9200 2.2500 1.1500
v -3.9200 0.7500 1.1500
f 145//1 146//1 147//1
f 145//1 147//1 148//1
v -4.0000 2.2500 -0.1500
v -4.0000 0.7500 -0.1500
v -4.0000 0.7500 1.1500
v -4.0000 2.2500 1.1500
f 149//2 150//2 151//2
f 149//2 151//2 152//2
v -4.0000 2.2500 -0.1500
v -4.0000 2.2500 1.1500
v -3.9200 2.2500 1.1500
v -3.9200 2.2500 -0.1500
f 153//3 154//3 155//3
f 153//3 155//3 156//3
v -4.0000 0.7500 1.1500
v -4.0000 0.7500 -0.1500
v -3.9200 0.7500 -0.1500
v -3.9200 0.7500 1.1500
f 157//4 158//4 159//4
f 157//4 159//4 160//4
v -4.0000 0.7500 1.1500
v -3.9200 0.7500 1.1500
v -3.9200 2.2500 1.1500
v -4.0000 2.2500 1.1500
f 161//5 162//5 163//5
f 161//5 163//5 164//5
v -3.9200 0.7500 -0.1500
v -4.0000 0.7500 -0.1500
v -4.0000 2.2500 -0.1500
v -3.9200 2.2500 -0.1500
f 165//6 166//6 167//6
f 165//6 167//6 168//6
usemtl darkPane
v -3.9000 0.8500 -0.0500
v -3.9000 2.1500 -0.0500
v -3.9000 2.1500 1.0500
v -3.9000 0.8500 1.0500
f 169//1 170//1 171//1
f 169//1 171//1 172//1
v -3.9300 2.1500 -0.0500
v -3.9300 0.8500 -0.0500
v -3.9300 0.8500 1.0500
v -3.9300 2.1500 1.0500
f 173//2 174//2 175//2
f 173//2 175//2 176//2
v -3.9300 2.1500 -0.0500
v -3.9300 2.1500 1.0500
v -3.9000 2.1500 1.0500
v -3.9000 2.1500 -0.0500
f 177//3 178//3 179//3
f 177//3 179//3 180//3
v -3.9300 0.8500 1.0500
v -3.9300 0.8500 -0.0500
v -3.9000 0.8500 -0.0500
v -3.9000 0.8500 1.0500
f 181//4 182//4 183//4
f 181//4 183//4 184//4
v -3.9300 0.8500 1.0500
v -3.9000 0.8500 1.0500
v -3.9000 2.1500 1.0500
v -3.9300 2.1500 1.0500
f 185//5 186//5 187//5
f 185//5 187//5 188//5
v -3.9000 0.8500 -0.0500
v -3.9300 0.8500 -0.0500
v -3.9300 2.1500 -0.0500
v -3.9000 2.1500 -0.0500
f 189//6 190//6 191//6
f 189//6 191//6 192//6
usemtl frame
v -3.9200 2.9500 2.3500
v -3.9200 4.4500 2.3500
v -3.9200 4.4500 3.6500
v -3.9200 2.9500 3.6500
f 193//1 194//1 195//1
f 193//1 195//1 196//1
v -4.0000 4.4500 2.3500
v -4.0000 2.9500 2.3500
v -4.0000 2.9500 3.6500
v -4.0000 4.4500 3.6500
f 197//2 198//2 199//2
f 197//2 199//2 200//2
v -4.0000 4.4500 2.3500
v -4.0000 4.4500 3.6500
v -3.9200 4.4500 3.6500
v -3.9200 4.4500 2.3500
f 201//3 202//3 203//3
f 201//3 203//3 204//3
v -4.0000 2.9500 3.6500
v -4.0000 2.9500 2.3500
v -3.9200 2.9500 2.3500
v -3.9200 2.9500 3.6500
f 205//4 206//4 207//4
f 205//4 207//4 208//4
v -4.0000 2.9500 3.6500
v -3.9200 2.9500 3.6500
v -3.9200 4.4500 3.6500
v -4.0000 4.4500 3.6500
f 209//5 210//5 211//5
f 209//5 211//5 212//5
v -3.9200 2.9500 2.3500
v -4.0000 2.9500 2.3500
v -4.0000 4.4500 2.3500
v -3.9200 4.4500 2.3500
f 213//6 214//6 215//6
f 213//6 215//6 216//6
usemtl litPane
v -3.9000 3.0500 2.4500
v -3.9000 4.3500 2.4500
v -3.9000 4.3500 3.5500
v -3.9000 3.0500 3.5500
f 217//1 218//1 219//1
f 217//1 219//1 220//1
v -3.9300 4.3500 2.4500
v -3.9300 3.0500 2.4500
v -3.9300 3.0500 3.5500
v -3.9300 4.3500 3.5500
f 221//2 222//2 223//2
f 221//2 223//2 224//2
v -3.9300 4.3500 2.4500
v -3.9300 4.3500 3.5500
v -3.9000 4.3500 3.5500
v -3.9000 4.3500 2.4500
f 225//3 226//3 227//3
f 225//3 227//3 228//3
v -3.9300 3.0500 3.5500
v -3.9300 3.0500 2.4500
v -3.9000 3.0500 2.4500
v -3.9000 3.0500 3.5500
f 229//4 230//4 231//4
f 229//4 231//4 232//4
v -3.9300 3.0500 3.5500
v -3.9000 3.0500 3.5500
v -3.9000 4.3500 3.5500
v -3.9300 4.3500 3.5500
f 233//5 234//5 235//5
f 233//5 235//5 236//5
v -3.9000 3.0500 2.4500
v -3.9300 3.0500 2.4500
v -3.9300 4.3500 2.4500
v -3.9000 4.3500 2.4500
f 237//6 238//6 239//6
f 237//6 239//6 240//6
usemtl frame
v 5.5000 0.8500 -0.6500
v 5.5000 2.3500 -0.6500
v 5.5000 2.3500 0.6500
v 5.5000 0.8500 0.6500
f 241//1 242//1 243//1
f 241//1 243//1 244//1
v 5.4200 2.3500 -0.6500
v 5.4200 0.8500 -0.6500
v 5.4200 0.8500 0.6500
v 5.4200 2.3500 0.6500
f 245//2 246//2 247//2
f 245//2 247//2 248//2
v 5.4200 2.3500 -0.6500
v 5.4200 2.3500 0.6500
v 5.5000 2.3500 0.6500
v 5.5000 2.3500 -0.6500
f 249//3 250//3 251//3
f 249//3 251//3 252//3
v 5.4200 0.8500 0.6500
v 5.4200 0.8500 -0.6500
v 5.5000 0.8500 -0.6500
v 5.5000 0.8500 0.6500
f 253//4 254//4 255//4
f 253//4 255//4 256//4
v 5.4200 0.8500 0.6500
v 5.5000 0.8500 0.6500
v 5.5000 2.3500 0.6500
v 5.4200 2.3500 0.6500
f 257//5 258//5 259//5
f 257//5 259//5 260//5
v 5.5000 0.8500 -0.6500
v 5.4200 0.8500 -0.6500
v 5.4200 2.3500 -0.6500
v 5.5000 2.3500 -0.6500
f 261//6 262//6 263//6
f 261//6 263//6 264//6
usemtl litPane
v 5.4300 0.9500 -0.5500
v 5.4300 2.2500 -0.5500
v 5.4300 2.2500 0.5500
v 5.4300 0.9500 0.5500
f 265//1 266//1 267//1
f 265//1 267//1 268//1
v 5.4000 2.2500 -0.5500
v 5.4000 0.9500 -0.5500
v 5.4000 0.9500 0.5500
v 5.4000 2.2500 0.5500
f 269//2 270//2 271//2
f 269//2 271//2 272//2
v 5.4000 2.2500 -0.5500
v 5.4000 2.2500 0.5500
v 5.4300 2.2500 0.5500
v 5.4300 2.2500 -0.5500
f 273//3 274//3 275//3
f 273//3 275//3 276//3
v 5.4000 0.9500 0.5500
v 5.4000 0.9500 -0.5500
v 5.4300 0.9500 -0.5500
v 5.4300 0.9500 0.5500
f 277//4 278//4 279//4
f 277//4 279//4 280//4
v 5.4000 0.9500 0.5500
v 5.4300 0.9500 0.5500
v 5.4300 2.2500 0.5500
v 5.4000 2.2500 0.5500
f 281//5 282//5 283//5
f 281//5 283//5 284//5
v 5.4300 0.9500 -0.5500
v 5.4000 0.9500 -0.5500
v 5.4000 2.2500 -0.5500
v 5.4300 2.2500 -0.5500
f 285//6 286//6 287//6
f 285//6 287//6 288//6
usemtl frame
v 5.5000 2.9500 2.3500
v 5.5000 4.4500 2.3500
v 5.5000 4.4500 3.6500
v 5.5000 2.9500 3.6500
f 289//1 290//1 291//1
f 289//1 291//1 292//1
v 5.4200 4.4500 2.3500
v 5.4200 2.9500 2.3500
v 5.4200 2.9500 3.6500
v 5.4200 4.4500 3.6500
f 293//2 294//2 295//2
f 293//2 295//2 296//2
v 5.4200 4.4500 2.3500
v 5.4200 4.4500 3.6500
v 5.5000 4.4500 3.6500
v 5.5000 4.4500 2.3500
f 297//3 298//3 299//3
f 297//3 299//3 300//3
v 5.4200 2.9500 3.6500
v 5.4200 2.9500 2.3500
v 5.5000 2.9500 2.3500
v 5.5000 2.9500 3.6500
f 301//4 302//4 303//4
f 301//4 303//4 304//4
v 5.4200 2.9500 3.6500
v 5.5000 2.9500 3.6500
v 5.5000 4.4500 3.6500
v 5.4200 4.4500 3.6500
f 305//5 306//5 307//5
f 305//5 307//5 308//5
v 5.5000 2.9500 2.3500
v 5.4200 2.9500 2.3500
v 5.4200 4.4500 2.3500
v 5.5000 4.4500 2.3500
f 309//6 310//6 311//6
f 309//6 311//6 312//6
usemtl darkPane
v 5.4300 3.0500 2.4500
v 5.4300 4.3500 2.4500
v 5.4300 4.3500 3.5500
v 5.4300 3.0500 3.5500
f 313//1 314//1 315//1
f 313//1 315//1 316//1
v 5.4000 4.3500 2.4500
v 5.4000 3.0500 2.4500
v 5.4000 3.0500 3.5500
v 5.4000 4.3500 3.5500
f 317//2 318//2 319//2
f 317//2 319//2 320//2
v 5.4000 4.3500 2.4500
v 5.4000 4.3500 3.5500
v 5.4300 4.3500 3.5500
v 5.4300 4.3500 2.4500
f 321//3 322//3 323//3
f 321//3 323//3 324//3
v 5.4000 3.0500 3.5500
v 5.4000 3.0500 2.4500
v 5.4300 3.0500 2.4500
v 5.4300 3.0500 3.5500
f 325//4 326//4 327//4
f 325//4 327//4 328//4
v 5.4000 3.0500 3.5500
v 5.4300 3.0500 3.5500
v 5.4300 4.3500 3.5500
v 5.4000 4.3500 3.5500
f 329//5 330//5 331//5
f 329//5 331//5 332//5
v 5.4300 3.0500 2.4500
v 5.4000 3.0500 2.4500
v 5.4000 4.3500 2.4500
v 5.4300 4.3500 2.4500
f 333//6 334//6 335//6
f 333//6 335//6 336//6
usemtl frame
v -0.8500 0.8500 5.4200
v -0.8500 2.3500 5.4200
v -0.8500 2.3500 5.5000
v -0.8500 0.8500 5.5000
f 337//1 338//1 339//1
f 337//1 339//1 340//1
v -2.1500 2.3500 5.4200
v -2.1500 0.8500 5.4200
v -2.1500 0.8500 5.5000
v -2.1500 2.3500 5.5000
f 341//2 342//2 343//2
f 341//2 343//2 344//2
v -2.1500 2.3500 5.4200
v -2.1500 2.3500 5.5000
v -0.8500 2.3500 5.5000
v -0.8500 2.3500 5.4200
f 345//3 346//3 347//3
f 345//3 347//3 348//3
v -2.1500 0.8500 5.5000
v -2.1500 0.8500 5.4200
v -0.8500 0.8500 5.4200
v -0.8500 0.8500 5.5000
f 349//4 350//4 351//4
f 349//4 351//4 352//4
v -2.1500 0.8500 5.5000
v -0.8500 0.8500 5.5000
v -0.8500 2.3500 5.5000
v -2.1500 2.3500 5.5000
f 353//5 354//5 355//5
f 353//5 355//5 356//5
v -0.8500 0.8500 5.4200
v -2.1500 0.8500 5.4200
v -2.1500 2.3500 5.4200
v -0.8500 2.3500 5.4200
f 357//6 358//6 359//6
f 357//6 359//6 360//6
usemtl darkPane
v -0.9500 0.9500 5.4000
v -0.9500 2.2500 5.4000
v -0.9500 2.2500 5.4300
v -0.9500 0.9500 5.4300
f 361//1 362//1 363//1
f 361//1 363//1 364//1
v -2.0500 2.2500 5.4000
v -2.0500 0.9500 5.4000
v -2.0500 0.9500 5.4300
v -2.0500 2.2500 5.4300
f 365//2 366//2 367//2
f 365//2 367//2 368//2
v -2.0500 2.2500 5.4000
v -2.0500 2.2500 5.4300
v -0.9500 2.2500 5.4300
v -0.9500 2.2500 5.4000
f 369//3 370//3 371//3
f 369//3 371//3 372//3
v -2.0500 0.9500 5.4300
v -2.0500 0.9500 5.4000
v -0.9500 0.9500 5.4000
v -0.9500 0.9500 5.4300
f 373//4 374//4 375//4
f 373//4 375//4 376//4
v -2.0500 0.9500 5.4300
v -0.9500 0.9500 5.4300
v -0.9500 2.2500 5.4300
v -2.0500 2.2500 5.4300
f 377//5 378//5 379//5
f 377//5 379//5 380//5
v -0.9500 0.9500 5.4000
v -2.0500 0.9500 5.4000
v -2.0500 2.2500 5.4000
v -0.9500 2.2500 5.4000
f 381//6 382//6 383//6
f 381//6 383//6 384//6
usemtl frame
v 3.1500 0.8500 5.4200
v 3.1500 2.3500 5.4200
v 3.1500 2.3500 5.5000
v 3.1500 0.8500 5.5000
f 385//1 386//1 387//1
f 385//1 387//1 388//1
v 1.8500 2.3500 5.4200
v 1.8500 0.8500 5.4200
v 1.8500 0.8500 5.5000
v 1.8500 2.3500 5.5000
f 389//2 390//2 391//2
f 389//2 391//2 392//2
v 1.8500 2.3500 5.4200
v 1.8500 2.3500 5.5000
v 3.1500 2.3500 5.5000
v 3.1500 2.3500 5.4200
f 393//3 394//3 395//3
f 393//3 395//3 396//3
v 1.8500 0.8500 5.5000
v 1.8500 0.8500 5.4200
v 3.1500 0.8500 5.4200
v 3.1500 0.8500 5.5000
f 397//4 398//4 399//4
f 397//4 399//4 400//4
v 1.8500 0.8500 5.5000
v 3.1500 0.8500 5.5000
v 3.1500 2.3500 5.5000
v 1.8500 2.3500 5.5000
f 401//5 402//5 403//5
f 401//5 403//5 404//5
v 3.1500 0.8500 5.4200
v 1.8500 0.8500 5.4200
v 1.8500 2.3500 5.4200
v 3.1500 2.3500 5.4200
f 405//6 406//6 407//6
f 405//6 407//6 408//6
usemtl litPane
v 3.0500 0.9500 5.4000
v 3.0500 2.2500 5.4000
v 3.0500 2.2500 5.4300
v 3.0500 0.9500 5.4300
f 409//1 410//1 411//1
f 409//1 411//1 412//1
v 1.9500 2.2500 5.4000
v 1.9500 0.9500 5.4000
v 1.9500 0.9500 5.4300
v 1.9500 2.2500 5.4300
f 413//2 414//2 415//2
f 413//2 415//2 416//2
v 1.9500 2.2500 5.4000
v 1.9500 2.2500 5.4300
v 3.0500 2.2500 5.4300
v 3.0500 2.2500 5.4000
f 417//3 418//3 419//3
f 417//3 419//3 420//3
v 1.9500 0.9500 5.4300
v 1.9500 0.9500 5.4000
v 3.0500 0.9500 5.4000
v 3.0500 0.9500 5.4300
f 421//4 422//4 423//4
f 421//4 423//4 424//4
v 1.9500 0.9500 5.4300
v 3.0500 0.9500 5.4300
v 3.0500 2.2500 5.4300
v 1.9500 2.2500 5.4300
f 425//5 426//5 427//5
f 425//5 427//5 428//5
v 3.0500 0.9500 5.4000
v 1.9500 0.9500 5.4000
v 1.9500 2.2500 5.4000
v 3.0500 2.2500 5.4000
f 429//6 430//6 431//6
f 429//6 431//6 432//6
usemtl frame
v 1.1500 2.9500 5.4200
v 1.1500 4.4500 5.4200
v 1.1500 4.4500 5.5000
v 1.1500 2.9500 5.5000
f 433//1 434//1 435//1
f 433//1 435//1 436//1
v -0.1500 4.4500 5.4200
v -0.1500 2.9500 5.4200
v -0.1500 2.9500 5.5000
v -0.1500 4.4500 5.5000
f 437//2 438//2 439//2
f 437//2 439//2 440//2
v -0.1500 4.4500 5.4200
v -0.1500 4.4500 5.5000
v 1.1500 4.4500 5.5000
v 1.1500 4.4500 5.4200
f 441//3 442//3 443//3
f 441//3 443//3 444//3
v -0.1500 2.9500 5.5000
v -0.1500 2.9500 5.4200
v 1.1500 2.9500 5.4200
v 1.1500 2.9500 5.5000
f 445//4 446//4 447//4
f 445//4 447//4 448//4
v -0.1500 2.9500 5.5000
v 1.1500 2.9500 5.5000
v 1.1500 4.4500 5.5000
v -0.1500 4.4500 5.5000
f 449//5 450//5 451//5
f 449//5 451//5 452//5
v 1.1500 2.9500 5.4200
v -0.1500 2.9500 5.4200
v -0.1500 4.4500 5.4200
v 1.1500 4.4500 5.4200
f 453//6 454//6 455//6
f 453//6 455//6 456//6
usemtl litPane
v 1.0500 3.0500 5.4000
v 1.0500 4.3500 5.4000
v 1.0500 4.3500 5.4300
v 1.0500 3.0500 5.4300
f 457//1 458//1 459//1
f 457//1 459//1 460//1
v -0.0500 4.3500 5.4000
v -0.0500 3.0500 5.4000
v -0.0500 3.0500 5.4300
v -0.0500 4.3500 5.4300
f 461//2 462//2 463//2
f 461//2 463//2 464//2
v -0.0500 4.3500 5.4000
v -0.0500 4.3500 5.4300
v 1.0500 4.3500 5.4300
v 1.0500 4.3500 5.4000
f 465//3 466//3 467//3
f 465//3 467//3 468//3
v -0.0500 3.0500 5.4300
v -0.0500 3.0500 5.4000
v 1.0500 3.0500 5.4000
v 1.0500 3.0500 5.4300
f 469//4 470//4 471//4
f 469//4 471//4 472//4
v -0.0500 3.0500 5.4300
v 1.0500 3.0500 5.4300
v 1.0500 4.3500 5.4300
v -0.0500 4.3500 5.4300
f 473//5 474//5 475//5
f 473//5 475//5 476//5
v 1.0500 3.0500 5.4000
v -0.0500 3.0500 5.4000
v -0.0500 4.3500 5.4000
v 1.0500 4.3500 5.4000
f 477//6 478//6 479//6
f 477//6 479//6 480//6
usemtl bulb
v -0.4900 3.8900 -1.9600
v -0.4900 4.0100 -1.9600
v -0.4900 4.0100 -1.8400
v -0.4900 3.8900 -1.8400
f 481//1 482//1 483//1
f 481//1 483//1 484//1
v -0.6100 4.0100 -1.9600
v -0.6100 3.8900 -1.9600
v -0.6100 3.8900 -1.8400
v -0.6100 4.0100 -1.8400
f 485//2 486//2 487//2
f 485//2 487//2 488//2
v -0.6100 4.0100 -1.9600
v -0.6100 4.0100 -1.8400
v -0.4900 4.0100 -1.8400
v -0.4900 4.0100 -1.9600
f 489//3 490//3 491//3
f 489//3 491//3 492//3
v -0.6100 3.8900 -1.8400
v -0.6100 3.8900 -1.9600
v -0.4900 3.8900 -1.9600
v -0.4900 3.8900 -1.8400
f 493//4 494//4 495//4
f 493//4 495//4 496//4
v -0.6100 3.8900 -1.8400
v -0.4900 3.8900 -1.8400
v -0.4900 4.0100 -1.8400
v -0.6100 4.0100 -1.8400
f 497//5 498//5 499//5
f 497//5 499//5 500//5
v -0.4900 3.8900 -1.9600
v -0.6100 3.8900 -1.9600
v -0.6100 4.0100 -1.9600
v -0.4900 4.0100 -1.9600
f 501//6 502//6 503//6
f 501//6 503//6 504//6
