{"accessors":[{"bufferView":0,"componentType":5126,"count":3,"max":[0,0,0],"min":[0,0,0],"type":"VEC3"},{"bufferView":1,"componentType":5123,"count":3,"type":"SCALAR"}],"asset":{"copyright":"Original Web Geometry contributors; repository license","generator":"Web Geometry examples recipe v1","version":"2.0"},"bufferViews":[{"buffer":0,"byteLength":36,"byteOffset":0},{"buffer":0,"byteLength":6,"byteOffset":36}],"buffers":[{"byteLength":44,"uri":"scene.bin"}],"materials":[{"doubleSided":true,"name":"Limestone plaque","pbrMetallicRoughness":{"baseColorFactor":[0.78,0.74,0.66,1],"metallicFactor":0,"roughnessFactor":0.85}},{"doubleSided":true,"name":"Limestone letters","pbrMetallicRoughness":{"baseColorFactor":[0.8,0.76,0.68,1],"metallicFactor":0,"roughnessFactor":0.8}}],"meshes":[{"name":"Letters in relief","primitives":[{"attributes":{"POSITION":0},"indices":1,"material":0,"mode":4},{"attributes":{"POSITION":0},"indices":1,"material":1,"mode":4}]}],"nodes":[{"mesh":0,"name":"Letters in relief"}],"scene":0,"scenes":[{"nodes":[0]}]}