{"accessors":[{"bufferView":0,"componentType":5126,"count":48,"max":[3,2.27,3],"min":[-3,-0.3,-3],"type":"VEC3"},{"bufferView":1,"componentType":5126,"count":48,"max":[1,1,1],"min":[-1,-1,-1],"type":"VEC3"},{"bufferView":2,"componentType":5125,"count":72,"type":"SCALAR"},{"bufferView":3,"componentType":5126,"count":360,"max":[1.7600000000000002,1.87,0.2],"min":[-1.98,0.33000000000000007,0],"type":"VEC3"},{"bufferView":4,"componentType":5126,"count":360,"max":[1,1,1],"min":[-1,-1,-1],"type":"VEC3"},{"bufferView":5,"componentType":5125,"count":540,"type":"SCALAR"}],"asset":{"copyright":"Original Web Geometry contributors; repository license","generator":"Web Geometry examples recipe v1","version":"2.0"},"bufferViews":[{"buffer":0,"byteLength":576,"byteOffset":0,"target":34962},{"buffer":0,"byteLength":576,"byteOffset":576,"target":34962},{"buffer":0,"byteLength":288,"byteOffset":1152,"target":34963},{"buffer":0,"byteLength":4320,"byteOffset":1440,"target":34962},{"buffer":0,"byteLength":4320,"byteOffset":5760,"target":34962},{"buffer":0,"byteLength":2160,"byteOffset":10080,"target":34963}],"buffers":[{"byteLength":12240,"uri":"source.bin"}],"materials":[{"doubleSided":true,"name":"Limestone plaque","pbrMetallicRoughness":{"baseColorFactor":[0.78,0.74,0.66,1],"metallicFactor":0,"roughnessFactor":0.85}},{"doubleSided":true,"name":"Limestone letters","pbrMetallicRoughness":{"baseColorFactor":[0.8,0.76,0.68,1],"metallicFactor":0,"roughnessFactor":0.8}}],"meshes":[{"name":"Letters in relief","primitives":[{"attributes":{"NORMAL":1,"POSITION":0},"indices":2,"material":0},{"attributes":{"NORMAL":4,"POSITION":3},"indices":5,"material":1}]}],"nodes":[{"mesh":0,"name":"Letters in relief"}],"scene":0,"scenes":[{"nodes":[0]}]}