{"asset":{"version":"2.0","generator":"Web Geometry examples recipe v1","copyright":"Original Web Geometry contributors; repository license"},"scene":0,"scenes":[{"nodes":[0]}],"nodes":[{"name":"From clay to chrome","mesh":0}],"meshes":[{"name":"From clay to chrome","primitives":[{"material":0,"attributes":{"POSITION":0,"NORMAL":1},"indices":2},{"material":1,"attributes":{"POSITION":3,"NORMAL":4},"indices":5},{"material":2,"attributes":{"POSITION":6,"NORMAL":7},"indices":8},{"material":3,"attributes":{"POSITION":9,"NORMAL":10},"indices":11},{"material":4,"attributes":{"POSITION":12,"NORMAL":13},"indices":14},{"material":5,"attributes":{"POSITION":15,"NORMAL":16},"indices":17},{"material":6,"attributes":{"POSITION":18,"NORMAL":19},"indices":20},{"material":7,"attributes":{"POSITION":21,"NORMAL":22},"indices":23},{"material":8,"attributes":{"POSITION":24,"NORMAL":25},"indices":26},{"material":9,"attributes":{"POSITION":27,"NORMAL":28},"indices":29},{"material":10,"attributes":{"POSITION":30,"NORMAL":31},"indices":32},{"material":11,"attributes":{"POSITION":33,"NORMAL":34},"indices":35},{"material":12,"attributes":{"POSITION":36,"NORMAL":37},"indices":38},{"material":13,"attributes":{"POSITION":39,"NORMAL":40},"indices":41},{"material":14,"attributes":{"POSITION":42,"NORMAL":43},"indices":44},{"material":15,"attributes":{"POSITION":45,"NORMAL":46},"indices":47},{"material":16,"attributes":{"POSITION":48,"NORMAL":49},"indices":50},{"material":17,"attributes":{"POSITION":51,"NORMAL":52},"indices":53},{"material":18,"attributes":{"POSITION":54,"NORMAL":55},"indices":56},{"material":19,"attributes":{"POSITION":57,"NORMAL":58},"indices":59},{"material":20,"attributes":{"POSITION":60,"NORMAL":61},"indices":62},{"material":21,"attributes":{"POSITION":63,"NORMAL":64},"indices":65},{"material":22,"attributes":{"POSITION":66,"NORMAL":67},"indices":68},{"material":23,"attributes":{"POSITION":69,"NORMAL":70},"indices":71},{"material":24,"attributes":{"POSITION":72,"NORMAL":73},"indices":74},{"material":25,"attributes":{"POSITION":75,"NORMAL":76},"indices":77}]}],"materials":[{"name":"Graphite slab","doubleSided":true,"pbrMetallicRoughness":{"baseColorFactor":[0.08,0.08,0.09,1],"metallicFactor":0,"roughnessFactor":0.9}},{"name":"Copper r0 m0","doubleSided":true,"pbrMetallicRoughness":{"baseColorFactor":[0.92,0.55,0.32,1],"metallicFactor":0,"roughnessFactor":0.08}},{"name":"Copper r1 m0","doubleSided":true,"pbrMetallicRoughness":{"baseColorFactor":[0.92,0.55,0.32,1],"metallicFactor":0,"roughnessFactor":0.305}},{"name":"Copper r2 m0","doubleSided":true,"pbrMetallicRoughness":{"baseColorFactor":[0.92,0.55,0.32,1],"metallicFactor":0,"roughnessFactor":0.53}},{"name":"Copper r3 m0","doubleSided":true,"pbrMetallicRoughness":{"baseColorFactor":[0.92,0.55,0.32,1],"metallicFactor":0,"roughnessFactor":0.755}},{"name":"Copper r4 m0","doubleSided":true,"pbrMetallicRoughness":{"baseColorFactor":[0.92,0.55,0.32,1],"metallicFactor":0,"roughnessFactor":0.98}},{"name":"Copper r0 m1","doubleSided":true,"pbrMetallicRoughness":{"baseColorFactor":[0.92,0.55,0.32,1],"metallicFactor":0.25,"roughnessFactor":0.08}},{"name":"Copper r1 m1","doubleSided":true,"pbrMetallicRoughness":{"baseColorFactor":[0.92,0.55,0.32,1],"metallicFactor":0.25,"roughnessFactor":0.305}},{"name":"Copper r2 m1","doubleSided":true,"pbrMetallicRoughness":{"baseColorFactor":[0.92,0.55,0.32,1],"metallicFactor":0.25,"roughnessFactor":0.53}},{"name":"Copper r3 m1","doubleSided":true,"pbrMetallicRoughness":{"baseColorFactor":[0.92,0.55,0.32,1],"metallicFactor":0.25,"roughnessFactor":0.755}},{"name":"Copper r4 m1","doubleSided":true,"pbrMetallicRoughness":{"baseColorFactor":[0.92,0.55,0.32,1],"metallicFactor":0.25,"roughnessFactor":0.98}},{"name":"Copper r0 m2","doubleSided":true,"pbrMetallicRoughness":{"baseColorFactor":[0.92,0.55,0.32,1],"metallicFactor":0.5,"roughnessFactor":0.08}},{"name":"Copper r1 m2","doubleSided":true,"pbrMetallicRoughness":{"baseColorFactor":[0.92,0.55,0.32,1],"metallicFactor":0.5,"roughnessFactor":0.305}},{"name":"Copper r2 m2","doubleSided":true,"pbrMetallicRoughness":{"baseColorFactor":[0.92,0.55,0.32,1],"metallicFactor":0.5,"roughnessFactor":0.53}},{"name":"Copper r3 m2","doubleSided":true,"pbrMetallicRoughness":{"baseColorFactor":[0.92,0.55,0.32,1],"metallicFactor":0.5,"roughnessFactor":0.755}},{"name":"Copper r4 m2","doubleSided":true,"pbrMetallicRoughness":{"baseColorFactor":[0.92,0.55,0.32,1],"metallicFactor":0.5,"roughnessFactor":0.98}},{"name":"Copper r0 m3","doubleSided":true,"pbrMetallicRoughness":{"baseColorFactor":[0.92,0.55,0.32,1],"metallicFactor":0.75,"roughnessFactor":0.08}},{"name":"Copper r1 m3","doubleSided":true,"pbrMetallicRoughness":{"baseColorFactor":[0.92,0.55,0.32,1],"metallicFactor":0.75,"roughnessFactor":0.305}},{"name":"Copper r2 m3","doubleSided":true,"pbrMetallicRoughness":{"baseColorFactor":[0.92,0.55,0.32,1],"metallicFactor":0.75,"roughnessFactor":0.53}},{"name":"Copper r3 m3","doubleSided":true,"pbrMetallicRoughness":{"baseColorFactor":[0.92,0.55,0.32,1],"metallicFactor":0.75,"roughnessFactor":0.755}},{"name":"Copper r4 m3","doubleSided":true,"pbrMetallicRoughness":{"baseColorFactor":[0.92,0.55,0.32,1],"metallicFactor":0.75,"roughnessFactor":0.98}},{"name":"Copper r0 m4","doubleSided":true,"pbrMetallicRoughness":{"baseColorFactor":[0.92,0.55,0.32,1],"metallicFactor":1,"roughnessFactor":0.08}},{"name":"Copper r1 m4","doubleSided":true,"pbrMetallicRoughness":{"baseColorFactor":[0.92,0.55,0.32,1],"metallicFactor":1,"roughnessFactor":0.305}},{"name":"Copper r2 m4","doubleSided":true,"pbrMetallicRoughness":{"baseColorFactor":[0.92,0.55,0.32,1],"metallicFactor":1,"roughnessFactor":0.53}},{"name":"Copper r3 m4","doubleSided":true,"pbrMetallicRoughness":{"baseColorFactor":[0.92,0.55,0.32,1],"metallicFactor":1,"roughnessFactor":0.755}},{"name":"Copper r4 m4","doubleSided":true,"pbrMetallicRoughness":{"baseColorFactor":[0.92,0.55,0.32,1],"metallicFactor":1,"roughnessFactor":0.98}}],"buffers":[{"uri":"geometry.bin","byteLength":368520}],"bufferViews":[{"buffer":0,"byteOffset":0,"byteLength":288,"target":34962},{"buffer":0,"byteOffset":288,"byteLength":288,"target":34962},{"buffer":0,"byteOffset":576,"byteLength":144,"target":34963},{"buffer":0,"byteOffset":720,"byteLength":3900,"target":34962},{"buffer":0,"byteOffset":4620,"byteLength":3900,"target":34962},{"buffer":0,"byteOffset":8520,"byteLength":6912,"target":34963},{"buffer":0,"byteOffset":15432,"byteLength":3900,"target":34962},{"buffer":0,"byteOffset":19332,"byteLength":3900,"target":34962},{"buffer":0,"byteOffset":23232,"byteLength":6912,"target":34963},{"buffer":0,"byteOffset":30144,"byteLength":3900,"target":34962},{"buffer":0,"byteOffset":34044,"byteLength":3900,"target":34962},{"buffer":0,"byteOffset":37944,"byteLength":6912,"target":34963},{"buffer":0,"byteOffset":44856,"byteLength":3900,"target":34962},{"buffer":0,"byteOffset":48756,"byteLength":3900,"target":34962},{"buffer":0,"byteOffset":52656,"byteLength":6912,"target":34963},{"buffer":0,"byteOffset":59568,"byteLength":3900,"target":34962},{"buffer":0,"byteOffset":63468,"byteLength":3900,"target":34962},{"buffer":0,"byteOffset":67368,"byteLength":6912,"target":34963},{"buffer":0,"byteOffset":74280,"byteLength":3900,"target":34962},{"buffer":0,"byteOffset":78180,"byteLength":3900,"target":34962},{"buffer":0,"byteOffset":82080,"byteLength":6912,"target":34963},{"buffer":0,"byteOffset":88992,"byteLength":3900,"target":34962},{"buffer":0,"byteOffset":92892,"byteLength":3900,"target":34962},{"buffer":0,"byteOffset":96792,"byteLength":6912,"target":34963},{"buffer":0,"byteOffset":103704,"byteLength":3900,"target":34962},{"buffer":0,"byteOffset":107604,"byteLength":3900,"target":34962},{"buffer":0,"byteOffset":111504,"byteLength":6912,"target":34963},{"buffer":0,"byteOffset":118416,"byteLength":3900,"target":34962},{"buffer":0,"byteOffset":122316,"byteLength":3900,"target":34962},{"buffer":0,"byteOffset":126216,"byteLength":6912,"target":34963},{"buffer":0,"byteOffset":133128,"byteLength":3900,"target":34962},{"buffer":0,"byteOffset":137028,"byteLength":3900,"target":34962},{"buffer":0,"byteOffset":140928,"byteLength":6912,"target":34963},{"buffer":0,"byteOffset":147840,"byteLength":3900,"target":34962},{"buffer":0,"byteOffset":151740,"byteLength":3900,"target":34962},{"buffer":0,"byteOffset":155640,"byteLength":6912,"target":34963},{"buffer":0,"byteOffset":162552,"byteLength":3900,"target":34962},{"buffer":0,"byteOffset":166452,"byteLength":3900,"target":34962},{"buffer":0,"byteOffset":170352,"byteLength":6912,"target":34963},{"buffer":0,"byteOffset":177264,"byteLength":3900,"target":34962},{"buffer":0,"byteOffset":181164,"byteLength":3900,"target":34962},{"buffer":0,"byteOffset":185064,"byteLength":6912,"target":34963},{"buffer":0,"byteOffset":191976,"byteLength":3900,"target":34962},{"buffer":0,"byteOffset":195876,"byteLength":3900,"target":34962},{"buffer":0,"byteOffset":199776,"byteLength":6912,"target":34963},{"buffer":0,"byteOffset":206688,"byteLength":3900,"target":34962},{"buffer":0,"byteOffset":210588,"byteLength":3900,"target":34962},{"buffer":0,"byteOffset":214488,"byteLength":6912,"target":34963},{"buffer":0,"byteOffset":221400,"byteLength":3900,"target":34962},{"buffer":0,"byteOffset":225300,"byteLength":3900,"target":34962},{"buffer":0,"byteOffset":229200,"byteLength":6912,"target":34963},{"buffer":0,"byteOffset":236112,"byteLength":3900,"target":34962},{"buffer":0,"byteOffset":240012,"byteLength":3900,"target":34962},{"buffer":0,"byteOffset":243912,"byteLength":6912,"target":34963},{"buffer":0,"byteOffset":250824,"byteLength":3900,"target":34962},{"buffer":0,"byteOffset":254724,"byteLength":3900,"target":34962},{"buffer":0,"byteOffset":258624,"byteLength":6912,"target":34963},{"buffer":0,"byteOffset":265536,"byteLength":3900,"target":34962},{"buffer":0,"byteOffset":269436,"byteLength":3900,"target":34962},{"buffer":0,"byteOffset":273336,"byteLength":6912,"target":34963},{"buffer":0,"byteOffset":280248,"byteLength":3900,"target":34962},{"buffer":0,"byteOffset":284148,"byteLength":3900,"target":34962},{"buffer":0,"byteOffset":288048,"byteLength":6912,"target":34963},{"buffer":0,"byteOffset":294960,"byteLength":3900,"target":34962},{"buffer":0,"byteOffset":298860,"byteLength":3900,"target":34962},{"buffer":0,"byteOffset":302760,"byteLength":6912,"target":34963},{"buffer":0,"byteOffset":309672,"byteLength":3900,"target":34962},{"buffer":0,"byteOffset":313572,"byteLength":3900,"target":34962},{"buffer":0,"byteOffset":317472,"byteLength":6912,"target":34963},{"buffer":0,"byteOffset":324384,"byteLength":3900,"target":34962},{"buffer":0,"byteOffset":328284,"byteLength":3900,"target":34962},{"buffer":0,"byteOffset":332184,"byteLength":6912,"target":34963},{"buffer":0,"byteOffset":339096,"byteLength":3900,"target":34962},{"buffer":0,"byteOffset":342996,"byteLength":3900,"target":34962},{"buffer":0,"byteOffset":346896,"byteLength":6912,"target":34963},{"buffer":0,"byteOffset":353808,"byteLength":3900,"target":34962},{"buffer":0,"byteOffset":357708,"byteLength":3900,"target":34962},{"buffer":0,"byteOffset":361608,"byteLength":6912,"target":34963}],"accessors":[{"bufferView":0,"componentType":5126,"type":"VEC3","count":24,"min":[-3.5,-0.3,-3.5],"max":[3.5,0,3.5]},{"bufferView":1,"componentType":5126,"type":"VEC3","count":24,"min":[-1,-1,-1],"max":[1,1,1]},{"bufferView":2,"componentType":5125,"type":"SCALAR","count":36},{"bufferView":3,"componentType":5126,"type":"VEC3","count":325,"min":[-3,0,-3],"max":[-2,1,-2]},{"bufferView":4,"componentType":5126,"type":"VEC3","count":325,"min":[-0.9999999993831502,-0.9659298916595936,-0.9999999993831502],"max":[0.9999999993831502,0.9659217606181512,0.9999999993831502]},{"bufferView":5,"componentType":5125,"type":"SCALAR","count":1728},{"bufferView":6,"componentType":5126,"type":"VEC3","count":325,"min":[-1.75,0,-3],"max":[-0.75,1,-2]},{"bufferView":7,"componentType":5126,"type":"VEC3","count":325,"min":[-0.9999999993831498,-0.9659298916595935,-0.9999999993831502],"max":[0.9999999993831498,0.9659217606181509,0.9999999993831502]},{"bufferView":8,"componentType":5125,"type":"SCALAR","count":1728},{"bufferView":9,"componentType":5126,"type":"VEC3","count":325,"min":[-0.5,0,-3],"max":[0.5,1,-2]},{"bufferView":10,"componentType":5126,"type":"VEC3","count":325,"min":[-0.9999999993831498,-0.9999999998766299,-1],"max":[0.9999999993831498,0.965921760618356,1]},{"bufferView":11,"componentType":5125,"type":"SCALAR","count":1728},{"bufferView":12,"componentType":5126,"type":"VEC3","count":325,"min":[0.75,0,-3],"max":[1.75,1,-2]},{"bufferView":13,"componentType":5126,"type":"VEC3","count":325,"min":[-0.9999999993831498,-0.9659298916595935,-0.9999999993831502],"max":[0.9999999993831498,0.9659217606181509,0.9999999993831502]},{"bufferView":14,"componentType":5125,"type":"SCALAR","count":1728},{"bufferView":15,"componentType":5126,"type":"VEC3","count":325,"min":[2,0,-3],"max":[3,1,-2]},{"bufferView":16,"componentType":5126,"type":"VEC3","count":325,"min":[-0.9999999993831502,-0.9659298916595936,-0.9999999993831502],"max":[0.9999999993831502,0.9659217606181512,0.9999999993831502]},{"bufferView":17,"componentType":5125,"type":"SCALAR","count":1728},{"bufferView":18,"componentType":5126,"type":"VEC3","count":325,"min":[-3,0,-1.75],"max":[-2,1,-0.75]},{"bufferView":19,"componentType":5126,"type":"VEC3","count":325,"min":[-0.9999999993831502,-0.9659298916595935,-0.9999999993831498],"max":[0.9999999993831502,0.9659217606180241,0.9999999993831498]},{"bufferView":20,"componentType":5125,"type":"SCALAR","count":1728},{"bufferView":21,"componentType":5126,"type":"VEC3","count":325,"min":[-1.75,0,-1.75],"max":[-0.75,1,-0.75]},{"bufferView":22,"componentType":5126,"type":"VEC3","count":325,"min":[-0.9999999993831498,-0.9659298916596731,-0.9999999993831498],"max":[0.9999999993831498,0.965921760618387,0.9999999993831498]},{"bufferView":23,"componentType":5125,"type":"SCALAR","count":1728},{"bufferView":24,"componentType":5126,"type":"VEC3","count":325,"min":[-0.5,0,-1.75],"max":[0.5,1,-0.75]},{"bufferView":25,"componentType":5126,"type":"VEC3","count":325,"min":[-0.9999999993831498,-0.9999999998766299,-1],"max":[0.9999999993831498,0.9659217606180539,1]},{"bufferView":26,"componentType":5125,"type":"SCALAR","count":1728},{"bufferView":27,"componentType":5126,"type":"VEC3","count":325,"min":[0.75,0,-1.75],"max":[1.75,1,-0.75]},{"bufferView":28,"componentType":5126,"type":"VEC3","count":325,"min":[-0.9999999993831498,-0.9659298916596731,-0.9999999993831498],"max":[0.9999999993831498,0.965921760618387,0.9999999993831498]},{"bufferView":29,"componentType":5125,"type":"SCALAR","count":1728},{"bufferView":30,"componentType":5126,"type":"VEC3","count":325,"min":[2,0,-1.75],"max":[3,1,-0.75]},{"bufferView":31,"componentType":5126,"type":"VEC3","count":325,"min":[-0.9999999993831502,-0.9659298916595935,-0.9999999993831498],"max":[0.9999999993831502,0.9659217606180241,0.9999999993831498]},{"bufferView":32,"componentType":5125,"type":"SCALAR","count":1728},{"bufferView":33,"componentType":5126,"type":"VEC3","count":325,"min":[-3,0,-0.5],"max":[-2,1,0.5]},{"bufferView":34,"componentType":5126,"type":"VEC3","count":325,"min":[-1,-0.9999999998766298,-0.9999999993831498],"max":[1,0.9659217606176219,0.9999999993831498]},{"bufferView":35,"componentType":5125,"type":"SCALAR","count":1728},{"bufferView":36,"componentType":5126,"type":"VEC3","count":325,"min":[-1.75,0,-0.5],"max":[-0.75,1,0.5]},{"bufferView":37,"componentType":5126,"type":"VEC3","count":325,"min":[-1,-0.9999999998766298,-0.9999999993831498],"max":[1,0.9659217606180539,0.9999999993831498]},{"bufferView":38,"componentType":5125,"type":"SCALAR","count":1728},{"bufferView":39,"componentType":5126,"type":"VEC3","count":325,"min":[-0.5,0,-0.5],"max":[0.5,1,0.5]},{"bufferView":40,"componentType":5126,"type":"VEC3","count":325,"min":[-0.9999999993831498,-0.9999999998766299,-0.9999999993831498],"max":[0.9999999993831498,0.9659217606175299,0.9999999993831498]},{"bufferView":41,"componentType":5125,"type":"SCALAR","count":1728},{"bufferView":42,"componentType":5126,"type":"VEC3","count":325,"min":[0.75,0,-0.5],"max":[1.75,1,0.5]},{"bufferView":43,"componentType":5126,"type":"VEC3","count":325,"min":[-1,-0.9999999998766298,-0.9999999993831498],"max":[1,0.9659217606180539,0.9999999993831498]},{"bufferView":44,"componentType":5125,"type":"SCALAR","count":1728},{"bufferView":45,"componentType":5126,"type":"VEC3","count":325,"min":[2,0,-0.5],"max":[3,1,0.5]},{"bufferView":46,"componentType":5126,"type":"VEC3","count":325,"min":[-1,-0.9999999998766298,-0.9999999993831498],"max":[1,0.9659217606176219,0.9999999993831498]},{"bufferView":47,"componentType":5125,"type":"SCALAR","count":1728},{"bufferView":48,"componentType":5126,"type":"VEC3","count":325,"min":[-3,0,0.75],"max":[-2,1,1.75]},{"bufferView":49,"componentType":5126,"type":"VEC3","count":325,"min":[-0.9999999993831502,-0.9659298916595935,-0.9999999993831498],"max":[0.9999999993831502,0.9659217606180241,0.9999999993831498]},{"bufferView":50,"componentType":5125,"type":"SCALAR","count":1728},{"bufferView":51,"componentType":5126,"type":"VEC3","count":325,"min":[-1.75,0,0.75],"max":[-0.75,1,1.75]},{"bufferView":52,"componentType":5126,"type":"VEC3","count":325,"min":[-0.9999999993831498,-0.9659298916596731,-0.9999999993831498],"max":[0.9999999993831498,0.965921760618387,0.9999999993831498]},{"bufferView":53,"componentType":5125,"type":"SCALAR","count":1728},{"bufferView":54,"componentType":5126,"type":"VEC3","count":325,"min":[-0.5,0,0.75],"max":[0.5,1,1.75]},{"bufferView":55,"componentType":5126,"type":"VEC3","count":325,"min":[-0.9999999993831498,-0.9999999998766299,-1],"max":[0.9999999993831498,0.9659217606180539,1]},{"bufferView":56,"componentType":5125,"type":"SCALAR","count":1728},{"bufferView":57,"componentType":5126,"type":"VEC3","count":325,"min":[0.75,0,0.75],"max":[1.75,1,1.75]},{"bufferView":58,"componentType":5126,"type":"VEC3","count":325,"min":[-0.9999999993831498,-0.9659298916596731,-0.9999999993831498],"max":[0.9999999993831498,0.965921760618387,0.9999999993831498]},{"bufferView":59,"componentType":5125,"type":"SCALAR","count":1728},{"bufferView":60,"componentType":5126,"type":"VEC3","count":325,"min":[2,0,0.75],"max":[3,1,1.75]},{"bufferView":61,"componentType":5126,"type":"VEC3","count":325,"min":[-0.9999999993831502,-0.9659298916595935,-0.9999999993831498],"max":[0.9999999993831502,0.9659217606180241,0.9999999993831498]},{"bufferView":62,"componentType":5125,"type":"SCALAR","count":1728},{"bufferView":63,"componentType":5126,"type":"VEC3","count":325,"min":[-3,0,2],"max":[-2,1,3]},{"bufferView":64,"componentType":5126,"type":"VEC3","count":325,"min":[-0.9999999993831502,-0.9659298916595936,-0.9999999993831502],"max":[0.9999999993831502,0.9659217606181512,0.9999999993831502]},{"bufferView":65,"componentType":5125,"type":"SCALAR","count":1728},{"bufferView":66,"componentType":5126,"type":"VEC3","count":325,"min":[-1.75,0,2],"max":[-0.75,1,3]},{"bufferView":67,"componentType":5126,"type":"VEC3","count":325,"min":[-0.9999999993831498,-0.9659298916595935,-0.9999999993831502],"max":[0.9999999993831498,0.9659217606181509,0.9999999993831502]},{"bufferView":68,"componentType":5125,"type":"SCALAR","count":1728},{"bufferView":69,"componentType":5126,"type":"VEC3","count":325,"min":[-0.5,0,2],"max":[0.5,1,3]},{"bufferView":70,"componentType":5126,"type":"VEC3","count":325,"min":[-0.9999999993831498,-0.9999999998766299,-1],"max":[0.9999999993831498,0.965921760618356,1]},{"bufferView":71,"componentType":5125,"type":"SCALAR","count":1728},{"bufferView":72,"componentType":5126,"type":"VEC3","count":325,"min":[0.75,0,2],"max":[1.75,1,3]},{"bufferView":73,"componentType":5126,"type":"VEC3","count":325,"min":[-0.9999999993831498,-0.9659298916595935,-0.9999999993831502],"max":[0.9999999993831498,0.9659217606181509,0.9999999993831502]},{"bufferView":74,"componentType":5125,"type":"SCALAR","count":1728},{"bufferView":75,"componentType":5126,"type":"VEC3","count":325,"min":[2,0,2],"max":[3,1,3]},{"bufferView":76,"componentType":5126,"type":"VEC3","count":325,"min":[-0.9999999993831502,-0.9659298916595936,-0.9999999993831502],"max":[0.9999999993831502,0.9659217606181512,0.9999999993831502]},{"bufferView":77,"componentType":5125,"type":"SCALAR","count":1728}]}