mtllib pad.mtl
vn 1 0 0
vn -1 0 0
vn 0 1 0
vn 0 -1 0
vn 0 0 1
vn 0 0 -1
usemtl concrete
v 6.0000 -0.3000 -6.0000
v 6.0000 0.0000 -6.0000
v 6.0000 0.0000 6.0000
v 6.0000 -0.3000 6.0000
f 1//1 2//1 3//1
f 1//1 3//1 4//1
v -6.0000 0.0000 -6.0000
v -6.0000 -0.3000 -6.0000
v -6.0000 -0.3000 6.0000
v -6.0000 0.0000 6.0000
f 5//2 6//2 7//2
f 5//2 7//2 8//2
v -6.0000 0.0000 -6.0000
v -6.0000 0.0000 6.0000
v 6.0000 0.0000 6.0000
v 6.0000 0.0000 -6.0000
f 9//3 10//3 11//3
f 9//3 11//3 12//3
v -6.0000 -0.3000 6.0000
v -6.0000 -0.3000 -6.0000
v 6.0000 -0.3000 -6.0000
v 6.0000 -0.3000 6.0000
f 13//4 14//4 15//4
f 13//4 15//4 16//4
v -6.0000 -0.3000 6.0000
v 6.0000 -0.3000 6.0000
v 6.0000 0.0000 6.0000
v -6.0000 0.0000 6.0000
f 17//5 18//5 19//5
f 17//5 19//5 20//5
v 6.0000 -0.3000 -6.0000
v -6.0000 -0.3000 -6.0000
v -6.0000 0.0000 -6.0000
v 6.0000 0.0000 -6.0000
f 21//6 22//6 23//6
f 21//6 23//6 24//6
usemtl paint
v -5.3500 0.0000 -5.8500
v -5.3500 0.3000 -5.8500
v -5.3500 0.3000 -5.3500
v -5.3500 0.0000 -5.3500
f 25//1 26//1 27//1
f 25//1 27//1 28//1
v -5.8500 0.3000 -5.8500
v -5.8500 0.0000 -5.8500
v -5.8500 0.0000 -5.3500
v -5.8500 0.3000 -5.3500
f 29//2 30//2 31//2
f 29//2 31//2 32//2
v -5.8500 0.3000 -5.8500
v -5.8500 0.3000 -5.3500
v -5.3500 0.3000 -5.3500
v -5.3500 0.3000 -5.8500
f 33//3 34//3 35//3
f 33//3 35//3 36//3
v -5.8500 0.0000 -5.3500
v -5.8500 0.0000 -5.8500
v -5.3500 0.0000 -5.8500
v -5.3500 0.0000 -5.3500
f 37//4 38//4 39//4
f 37//4 39//4 40//4
v -5.8500 0.0000 -5.3500
v -5.3500 0.0000 -5.3500
v -5.3500 0.3000 -5.3500
v -5.8500 0.3000 -5.3500
f 41//5 42//5 43//5
f 41//5 43//5 44//5
v -5.3500 0.0000 -5.8500
v -5.8500 0.0000 -5.8500
v -5.8500 0.3000 -5.8500
v -5.3500 0.3000 -5.8500
f 45//6 46//6 47//6
f 45//6 47//6 48//6
usemtl paint
v -5.3500 0.0000 5.3500
v -5.3500 0.3000 5.3500
v -5.3500 0.3000 5.8500
v -5.3500 0.0000 5.8500
f 49//1 50//1 51//1
f 49//1 51//1 52//1
v -5.8500 0.3000 5.3500
v -5.8500 0.0000 5.3500
v -5.8500 0.0000 5.8500
v -5.8500 0.3000 5.8500
f 53//2 54//2 55//2
f 53//2 55//2 56//2
v -5.8500 0.3000 5.3500
v -5.8500 0.3000 5.8500
v -5.3500 0.3000 5.8500
v -5.3500 0.3000 5.3500
f 57//3 58//3 59//3
f 57//3 59//3 60//3
v -5.8500 0.0000 5.8500
v -5.8500 0.0000 5.3500
v -5.3500 0.0000 5.3500
v -5.3500 0.0000 5.8500
f 61//4 62//4 63//4
f 61//4 63//4 64//4
v -5.8500 0.0000 5.8500
v -5.3500 0.0000 5.8500
v -5.3500 0.3000 5.8500
v -5.8500 0.3000 5.8500
f 65//5 66//5 67//5
f 65//5 67//5 68//5
v -5.3500 0.0000 5.3500
v -5.8500 0.0000 5.3500
v -5.8500 0.3000 5.3500
v -5.3500 0.3000 5.3500
f 69//6 70//6 71//6
f 69//6 71//6 72//6
usemtl paint
v 5.8500 0.0000 -5.8500
v 5.8500 0.3000 -5.8500
v 5.8500 0.3000 -5.3500
v 5.8500 0.0000 -5.3500
f 73//1 74//1 75//1
f 73//1 75//1 76//1
v 5.3500 0.3000 -5.8500
v 5.3500 0.0000 -5.8500
v 5.3500 0.0000 -5.3500
v 5.3500 0.3000 -5.3500
f 77//2 78//2 79//2
f 77//2 79//2 80//2
v 5.3500 0.3000 -5.8500
v 5.3500 0.3000 -5.3500
v 5.8500 0.3000 -5.3500
v 5.8500 0.3000 -5.8500
f 81//3 82//3 83//3
f 81//3 83//3 84//3
v 5.3500 0.0000 -5.3500
v 5.3500 0.0000 -5.8500
v 5.8500 0.0000 -5.8500
v 5.8500 0.0000 -5.3500
f 85//4 86//4 87//4
f 85//4 87//4 88//4
v 5.3500 0.0000 -5.3500
v 5.8500 0.0000 -5.3500
v 5.8500 0.3000 -5.3500
v 5.3500 0.3000 -5.3500
f 89//5 90//5 91//5
f 89//5 91//5 92//5
v 5.8500 0.0000 -5.8500
v 5.3500 0.0000 -5.8500
v 5.3500 0.3000 -5.8500
v 5.8500 0.3000 -5.8500
f 93//6 94//6 95//6
f 93//6 95//6 96//6
usemtl paint
v 5.8500 0.0000 5.3500
v 5.8500 0.3000 5.3500
v 5.8500 0.3000 5.8500
v 5.8500 0.0000 5.8500
f 97//1 98//1 99//1
f 97//1 99//1 100//1
v 5.3500 0.3000 5.3500
v 5.3500 0.0000 5.3500
v 5.3500 0.0000 5.8500
v 5.3500 0.3000 5.8500
f 101//2 102//2 103//2
f 101//2 103//2 104//2
v 5.3500 0.3000 5.3500
v 5.3500 0.3000 5.8500
v 5.8500 0.3000 5.8500
v 5.8500 0.3000 5.3500
f 105//3 106//3 107//3
f 105//3 107//3 108//3
v 5.3500 0.0000 5.8500
v 5.3500 0.0000 5.3500
v 5.8500 0.0000 5.3500
v 5.8500 0.0000 5.8500
f 109//4 110//4 111//4
f 109//4 111//4 112//4
v 5.3500 0.0000 5.8500
v 5.8500 0.0000 5.8500
v 5.8500 0.3000 5.8500
v 5.3500 0.3000 5.8500
f 113//5 114//5 115//5
f 113//5 115//5 116//5
v 5.8500 0.0000 5.3500
v 5.3500 0.0000 5.3500
v 5.3500 0.3000 5.3500
v 5.8500 0.3000 5.3500
f 117//6 118//6 119//6
f 117//6 119//6 120//6
