{"asset":{"version":"2.0","generator":"Web Geometry examples recipe v1","copyright":"Original Web Geometry contributors; repository license"},"scene":0,"scenes":[{"name":"Red wall","nodes":[0]}],"nodes":[{"name":"scene","mesh":0}],"meshes":[{"name":"scene","primitives":[{"material":0,"attributes":{"POSITION":0,"NORMAL":1},"indices":2},{"material":1,"attributes":{"POSITION":3,"NORMAL":4},"indices":5}]}],"materials":[{"name":"White plaster","doubleSided":true,"pbrMetallicRoughness":{"baseColorFactor":[0.82,0.8,0.76,1],"metallicFactor":0,"roughnessFactor":0.9}},{"name":"Red paint","doubleSided":true,"pbrMetallicRoughness":{"baseColorFactor":[0.75,0.08,0.05,1],"metallicFactor":0,"roughnessFactor":0.7}}],"buffers":[{"uri":"scene.bin","byteLength":2160}],"bufferViews":[{"buffer":0,"byteOffset":0,"byteLength":576,"target":34962},{"buffer":0,"byteOffset":576,"byteLength":576,"target":34962},{"buffer":0,"byteOffset":1152,"byteLength":288,"target":34963},{"buffer":0,"byteOffset":1440,"byteLength":288,"target":34962},{"buffer":0,"byteOffset":1728,"byteLength":288,"target":34962},{"buffer":0,"byteOffset":2016,"byteLength":144,"target":34963}],"accessors":[{"bufferView":0,"componentType":5126,"type":"VEC3","count":48,"min":[-4,-0.3,-4],"max":[4,2,4]},{"bufferView":1,"componentType":5126,"type":"VEC3","count":48,"min":[-1,-1,-1],"max":[1,1,1]},{"bufferView":2,"componentType":5125,"type":"SCALAR","count":72},{"bufferView":3,"componentType":5126,"type":"VEC3","count":24,"min":[-2.65,0,-4],"max":[-2.35,3,4]},{"bufferView":4,"componentType":5126,"type":"VEC3","count":24,"min":[-1,-1,-1],"max":[1,1,1]},{"bufferView":5,"componentType":5125,"type":"SCALAR","count":36}]}