{"asset":{"version":"2.0","generator":"Trillion3D original mountain authoring"},"scene":0,"scenes":[{"nodes":[0,1]}],"extensionsUsed":["KHR_lights_punctual"],"extensions":{"KHR_lights_punctual":{"lights":[{"type":"directional","color":[1,0.91,0.8],"intensity":2600}]}},"nodes":[{"name":"Eroded mountain watershed","mesh":0},{"name":"Mountain light","rotation":[-0.31,0.19,0.06,0.93],"extensions":{"KHR_lights_punctual":{"light":0}}}],"meshes":[{"primitives":[{"attributes":{"POSITION":0},"indices":1,"material":0},{"attributes":{"POSITION":0},"indices":2,"material":1},{"attributes":{"POSITION":0},"indices":3,"material":2},{"attributes":{"POSITION":0},"indices":4,"material":3},{"attributes":{"POSITION":0},"indices":5,"material":4}]}],"materials":[{"name":"valley soil","doubleSided":true,"pbrMetallicRoughness":{"baseColorFactor":[0.18,0.25,0.16,1],"metallicFactor":0,"roughnessFactor":0.9}},{"name":"alpine grass","doubleSided":true,"pbrMetallicRoughness":{"baseColorFactor":[0.29,0.38,0.2,1],"metallicFactor":0,"roughnessFactor":0.9}},{"name":"exposed rock","doubleSided":true,"pbrMetallicRoughness":{"baseColorFactor":[0.38,0.29,0.2,1],"metallicFactor":0,"roughnessFactor":0.9}},{"name":"summit stone","doubleSided":true,"pbrMetallicRoughness":{"baseColorFactor":[0.72,0.7,0.65,1],"metallicFactor":0,"roughnessFactor":0.9}},{"name":"river","doubleSided":true,"emissiveFactor":[0.015,0.12,0.18],"pbrMetallicRoughness":{"baseColorFactor":[0.04,0.34,0.5,1],"metallicFactor":0.18,"roughnessFactor":0.38}}],"buffers":[{"uri":"geometry.bin","byteLength":337956}],"bufferViews":[{"buffer":0,"byteOffset":0,"byteLength":114852,"target":34962},{"buffer":0,"byteOffset":114852,"byteLength":116712,"target":34963},{"buffer":0,"byteOffset":231564,"byteLength":45948,"target":34963},{"buffer":0,"byteOffset":277512,"byteLength":41388,"target":34963},{"buffer":0,"byteOffset":318900,"byteLength":17136,"target":34963},{"buffer":0,"byteOffset":336036,"byteLength":1920,"target":34963}],"accessors":[{"bufferView":0,"componentType":5126,"type":"VEC3","count":9571,"min":[-6,-1.1424590349197388,-6],"max":[6,4.096383094787598,6]},{"bufferView":1,"componentType":5125,"type":"SCALAR","count":29178},{"bufferView":2,"componentType":5125,"type":"SCALAR","count":11487},{"bufferView":3,"componentType":5125,"type":"SCALAR","count":10347},{"bufferView":4,"componentType":5125,"type":"SCALAR","count":4284},{"bufferView":5,"componentType":5125,"type":"SCALAR","count":480}]}