{"accessors":[{"bufferView":0,"componentType":5126,"count":3,"max":[0,0,0],"min":[0,0,0],"type":"VEC3"},{"bufferView":1,"componentType":5123,"count":3,"type":"SCALAR"}],"asset":{"copyright":"CC0 1.0","generator":"Web Geometry example writer","version":"2.0"},"bufferViews":[{"buffer":0,"byteLength":36,"byteOffset":0},{"buffer":0,"byteLength":6,"byteOffset":36}],"buffers":[{"byteLength":44,"uri":"scene.bin"}],"materials":[{"name":"marble","pbrMetallicRoughness":{"baseColorFactor":[0.9,0.87,0.82,1],"metallicFactor":0,"roughnessFactor":0.3}},{"name":"stone","pbrMetallicRoughness":{"baseColorFactor":[0.72,0.68,0.61,1],"metallicFactor":0,"roughnessFactor":0.75}},{"name":"bronze","pbrMetallicRoughness":{"baseColorFactor":[0.72,0.47,0.26,1],"metallicFactor":0.55,"roughnessFactor":0.32}},{"name":"grass","pbrMetallicRoughness":{"baseColorFactor":[0.36,0.5,0.22,1],"metallicFactor":0,"roughnessFactor":0.95}},{"name":"paving","pbrMetallicRoughness":{"baseColorFactor":[0.78,0.73,0.64,1],"metallicFactor":0,"roughnessFactor":0.85}}],"meshes":[{"name":"urn","primitives":[{"attributes":{"POSITION":0},"indices":1,"material":0,"mode":4}]},{"name":"urn-pedestal","primitives":[{"attributes":{"POSITION":0},"indices":1,"material":1,"mode":4}]},{"name":"knot","primitives":[{"attributes":{"POSITION":0},"indices":1,"material":2,"mode":4},{"attributes":{"POSITION":0},"indices":1,"material":1,"mode":4}]},{"name":"meadow","primitives":[{"attributes":{"POSITION":0},"indices":1,"material":3,"mode":4}]},{"name":"avenue","primitives":[{"attributes":{"POSITION":0},"indices":1,"material":4,"mode":4}]}],"nodes":[{"mesh":2,"name":"knot","translation":[0,0,-62]},{"mesh":3,"name":"meadow"},{"mesh":4,"name":"avenue"},{"mesh":1,"translation":[-4.8,0,40]},{"mesh":0,"rotation":[0,0.770059,0,-0.637973],"translation":[-4.8,0.5,40]},{"mesh":1,"translation":[-4.8,0,35.4]},{"mesh":0,"rotation":[0,0.121162,0,0.992633],"translation":[-4.8,0.5,35.4]},{"mesh":1,"translation":[-4.8,0,30.8]},{"mesh":0,"rotation":[0,0.990544,0,0.137192],"translation":[-4.8,0.5,30.8]},{"mesh":1,"translation":[-4.8,0,26.200000000000003]},{"mesh":0,"rotation":[0,0.233226,0,0.972423],"translation":[-4.8,0.5,26.200000000000003]},{"mesh":1,"translation":[-4.8,0,21.6]},{"mesh":0,"rotation":[0,0.677634,0,-0.735399],"translation":[-4.8,0.5,21.6]},{"mesh":1,"translation":[-4.8,0,17]},{"mesh":0,"rotation":[0,0.998253,0,0.059089],"translation":[-4.8,0.5,17]},{"mesh":1,"translation":[-4.8,0,12.400000000000002]},{"mesh":0,"rotation":[0,0.999131,0,0.041678],"translation":[-4.8,0.5,12.400000000000002]},{"mesh":1,"translation":[-4.8,0,7.800000000000004]},{"mesh":0,"rotation":[0,0.486703,0,0.873568],"translation":[-4.8,0.5,7.800000000000004]},{"mesh":1,"translation":[-4.8,0,3.200000000000003]},{"mesh":0,"rotation":[0,0.735933,0,0.677054],"translation":[-4.8,0.5,3.200000000000003]},{"mesh":1,"translation":[-4.8,0,-1.3999999999999986]},{"mesh":0,"rotation":[0,0.986374,0,-0.164519],"translation":[-4.8,0.5,-1.3999999999999986]},{"mesh":1,"translation":[-4.8,0,-6]},{"mesh":0,"rotation":[0,0.57479,0,0.818301],"translation":[-4.8,0.5,-6]},{"mesh":1,"translation":[-4.8,0,-10.599999999999994]},{"mesh":0,"rotation":[0,0.259606,0,0.965714],"translation":[-4.8,0.5,-10.599999999999994]},{"mesh":1,"translation":[-4.8,0,-15.199999999999996]},{"mesh":0,"rotation":[0,0.782806,0,-0.622265],"translation":[-4.8,0.5,-15.199999999999996]},{"mesh":1,"translation":[-4.8,0,-19.799999999999997]},{"mesh":0,"rotation":[0,0.997329,0,0.073046],"translation":[-4.8,0.5,-19.799999999999997]},{"mesh":1,"translation":[-4.8,0,-24.39999999999999]},{"mesh":0,"rotation":[0,0.603601,0,-0.797287],"translation":[-4.8,0.5,-24.39999999999999]},{"mesh":1,"translation":[-4.8,0,-29]},{"mesh":0,"rotation":[0,0.368787,0,-0.929514],"translation":[-4.8,0.5,-29]},{"mesh":1,"translation":[-4.8,0,-33.599999999999994]},{"mesh":0,"rotation":[0,0.850373,0,0.52618],"translation":[-4.8,0.5,-33.599999999999994]},{"mesh":1,"translation":[-4.8,0,-38.19999999999999]},{"mesh":0,"rotation":[0,0.826053,0,-0.563593],"translation":[-4.8,0.5,-38.19999999999999]},{"mesh":1,"translation":[-4.8,0,-42.8]},{"mesh":0,"rotation":[0,0.783851,0,0.62095],"translation":[-4.8,0.5,-42.8]},{"mesh":1,"translation":[-4.8,0,-47.39999999999999]},{"mesh":0,"rotation":[0,0.8573,0,-0.514818],"translation":[-4.8,0.5,-47.39999999999999]},{"mesh":1,"translation":[-4.8,0,-52]},{"mesh":0,"rotation":[0,0.996555,0,-0.082932],"translation":[-4.8,0.5,-52]},{"mesh":1,"translation":[-4.8,0,-56.599999999999994]},{"mesh":0,"rotation":[0,0.504345,0,-0.863502],"translation":[-4.8,0.5,-56.599999999999994]},{"mesh":1,"translation":[4.8,0,40]},{"mesh":0,"rotation":[0,0.992135,0,-0.125169],"translation":[4.8,0.5,40]},{"mesh":1,"translation":[4.8,0,35.4]},{"mesh":0,"rotation":[0,0.036453,0,0.999335],"translation":[4.8,0.5,35.4]},{"mesh":1,"translation":[4.8,0,30.8]},{"mesh":0,"rotation":[0,0.375839,0,-0.926684],"translation":[4.8,0.5,30.8]},{"mesh":1,"translation":[4.8,0,26.200000000000003]},{"mesh":0,"rotation":[0,0.827781,0,0.561051],"translation":[4.8,0.5,26.200000000000003]},{"mesh":1,"translation":[4.8,0,21.6]},{"mesh":0,"rotation":[0,0.19718,0,-0.980368],"translation":[4.8,0.5,21.6]},{"mesh":1,"translation":[4.8,0,17]},{"mesh":0,"rotation":[0,0.662797,0,-0.748799],"translation":[4.8,0.5,17]},{"mesh":1,"translation":[4.8,0,12.400000000000002]},{"mesh":0,"rotation":[0,0.969035,0,0.246923],"translation":[4.8,0.5,12.400000000000002]},{"mesh":1,"translation":[4.8,0,7.800000000000004]},{"mesh":0,"rotation":[0,0.781051,0,-0.624468],"translation":[4.8,0.5,7.800000000000004]},{"mesh":1,"translation":[4.8,0,3.200000000000003]},{"mesh":0,"rotation":[0,0.466074,0,0.884746],"translation":[4.8,0.5,3.200000000000003]},{"mesh":1,"translation":[4.8,0,-1.3999999999999986]},{"mesh":0,"rotation":[0,0.915144,0,0.403127],"translation":[4.8,0.5,-1.3999999999999986]},{"mesh":1,"translation":[4.8,0,-6]},{"mesh":0,"rotation":[0,0.76508,0,-0.643935],"translation":[4.8,0.5,-6]},{"mesh":1,"translation":[4.8,0,-10.599999999999994]},{"mesh":0,"rotation":[0,0.004526,0,0.99999],"translation":[4.8,0.5,-10.599999999999994]},{"mesh":1,"translation":[4.8,0,-15.199999999999996]},{"mesh":0,"rotation":[0,0.026248,0,0.999656],"translation":[4.8,0.5,-15.199999999999996]},{"mesh":1,"translation":[4.8,0,-19.799999999999997]},{"mesh":0,"rotation":[0,0.997679,0,0.068091],"translation":[4.8,0.5,-19.799999999999997]},{"mesh":1,"translation":[4.8,0,-24.39999999999999]},{"mesh":0,"rotation":[0,0.417017,0,-0.908898],"translation":[4.8,0.5,-24.39999999999999]},{"mesh":1,"translation":[4.8,0,-29]},{"mesh":0,"rotation":[0,0.948131,0,-0.317883],"translation":[4.8,0.5,-29]},{"mesh":1,"translation":[4.8,0,-33.599999999999994]},{"mesh":0,"rotation":[0,0.840835,0,-0.541292],"translation":[4.8,0.5,-33.599999999999994]},{"mesh":1,"translation":[4.8,0,-38.19999999999999]},{"mesh":0,"rotation":[0,0.622019,0,-0.783002],"translation":[4.8,0.5,-38.19999999999999]},{"mesh":1,"translation":[4.8,0,-42.8]},{"mesh":0,"rotation":[0,0.965086,0,-0.261933],"translation":[4.8,0.5,-42.8]},{"mesh":1,"translation":[4.8,0,-47.39999999999999]},{"mesh":0,"rotation":[0,0.967185,0,-0.254072],"translation":[4.8,0.5,-47.39999999999999]},{"mesh":1,"translation":[4.8,0,-52]},{"mesh":0,"rotation":[0,0.22096,0,0.975283],"translation":[4.8,0.5,-52]},{"mesh":1,"translation":[4.8,0,-56.599999999999994]},{"mesh":0,"rotation":[0,0.920594,0,0.39052],"translation":[4.8,0.5,-56.599999999999994]},{"children":[0,1,2,3,4,5,6,7,8,9,10,11,12,13,14,15,16,17,18,19,20,21,22,23,24,25,26,27,28,29,30,31,32,33,34,35,36,37,38,39,40,41,42,43,44,45,46,47,48,49,50,51,52,53,54,55,56,57,58,59,60,61,62,63,64,65,66,67,68,69,70,71,72,73,74,75,76,77,78,79,80,81,82,83,84,85,86,87,88,89,90],"name":"maquette","scale":[0.1,0.1,0.1]}],"scene":0,"scenes":[{"nodes":[91]}]}