{"accessors":[{"bufferView":0,"componentType":5126,"count":4,"max":[3,3,0],"min":[-3,0,0],"type":"VEC3"},{"bufferView":1,"componentType":5126,"count":4,"max":[0,0,1],"min":[0,0,1],"type":"VEC3"},{"bufferView":2,"componentType":5126,"count":4,"max":[1,1],"min":[0,0],"type":"VEC2"},{"bufferView":3,"componentType":5125,"count":6,"type":"SCALAR"},{"bufferView":4,"componentType":5126,"count":48,"max":[3.5,3.2,3],"min":[-3.5,-0.2,-0.35],"type":"VEC3"},{"bufferView":5,"componentType":5126,"count":48,"max":[1,1,1],"min":[-1,-1,-1],"type":"VEC3"},{"bufferView":6,"componentType":5126,"count":48,"max":[1,1],"min":[0,0],"type":"VEC2"},{"bufferView":7,"componentType":5125,"count":72,"type":"SCALAR"}],"asset":{"copyright":"Original Web Geometry contributors; repository license","generator":"Web Geometry examples recipe v1","version":"2.0"},"bufferViews":[{"buffer":0,"byteLength":48,"byteOffset":0,"target":34962},{"buffer":0,"byteLength":48,"byteOffset":48,"target":34962},{"buffer":0,"byteLength":32,"byteOffset":96,"target":34962},{"buffer":0,"byteLength":24,"byteOffset":128,"target":34963},{"buffer":0,"byteLength":576,"byteOffset":152,"target":34962},{"buffer":0,"byteLength":576,"byteOffset":728,"target":34962},{"buffer":0,"byteLength":384,"byteOffset":1304,"target":34962},{"buffer":0,"byteLength":288,"byteOffset":1688,"target":34963}],"buffers":[{"byteLength":1976,"uri":"source.bin"}],"images":[{"uri":"../../../../source/bricks-normal.png"}],"materials":[{"doubleSided":true,"name":"Concrete","pbrMetallicRoughness":{"baseColorFactor":[0.5,0.5,0.48,1],"metallicFactor":0,"roughnessFactor":0.9}},{"doubleSided":true,"name":"Brick","normalTexture":{"index":0,"scale":1},"pbrMetallicRoughness":{"baseColorFactor":[0.62,0.3,0.22,1],"metallicFactor":0,"roughnessFactor":0.85}}],"meshes":[{"name":"scene","primitives":[{"attributes":{"NORMAL":1,"POSITION":0,"TEXCOORD_0":2},"indices":3,"material":1},{"attributes":{"NORMAL":5,"POSITION":4,"TEXCOORD_0":6},"indices":7,"material":0}]}],"nodes":[{"mesh":0,"name":"scene"}],"scene":0,"scenes":[{"name":"Brick wall","nodes":[0]}],"textures":[{"source":0}]}