{"accessors":[{"bufferView":0,"componentType":5126,"count":24,"max":[3.5,0,3.5],"min":[-3.5,-0.3,-3.5],"type":"VEC3"},{"bufferView":1,"componentType":5126,"count":24,"max":[1,1,1],"min":[-1,-1,-1],"type":"VEC3"},{"bufferView":2,"componentType":5126,"count":24,"max":[1,1],"min":[0,0],"type":"VEC2"},{"bufferView":3,"componentType":5125,"count":36,"type":"SCALAR"},{"bufferView":4,"componentType":5126,"count":561,"max":[-1.3,1.4,-0.5],"min":[-2.7,0,-1.9],"type":"VEC3"},{"bufferView":5,"componentType":5126,"count":561,"max":[0.9999999993831492,0.980782215792238,0.99999999938315],"min":[-0.9999999993831498,-0.9807883447355544,-0.99999999938315],"type":"VEC3"},{"bufferView":6,"componentType":5126,"count":561,"max":[1,1],"min":[0,0],"type":"VEC2"},{"bufferView":7,"componentType":5125,"count":3072,"type":"SCALAR"},{"bufferView":8,"componentType":5126,"count":24,"max":[0.6,1.2,-0.6],"min":[-0.6,0,-1.7999999999999998],"type":"VEC3"},{"bufferView":9,"componentType":5126,"count":24,"max":[1,1,1],"min":[-1,-1,-1],"type":"VEC3"},{"bufferView":10,"componentType":5126,"count":24,"max":[1,1],"min":[0,0],"type":"VEC2"},{"bufferView":11,"componentType":5125,"count":36,"type":"SCALAR"},{"bufferView":12,"componentType":5126,"count":196,"max":[2.6,1.4,-0.6],"min":[1.4,0,-1.7999999999999998],"type":"VEC3"},{"bufferView":13,"componentType":5126,"count":196,"max":[0.99999999950652,0,0.99999999950652],"min":[-0.99999999950652,-1,-0.99999999950652],"type":"VEC3"},{"bufferView":14,"componentType":5126,"count":196,"max":[1,1],"min":[0,0],"type":"VEC2"},{"bufferView":15,"componentType":5125,"count":864,"type":"SCALAR"},{"bufferView":16,"componentType":5126,"count":561,"max":[-1.3,1.4,1.9],"min":[-2.7,0,0.5],"type":"VEC3"},{"bufferView":17,"componentType":5126,"count":561,"max":[0.9999999993831492,0.980782215792238,0.99999999938315],"min":[-0.9999999993831498,-0.9807883447355544,-0.99999999938315],"type":"VEC3"},{"bufferView":18,"componentType":5126,"count":561,"max":[1,1],"min":[0,0],"type":"VEC2"},{"bufferView":19,"componentType":5125,"count":3072,"type":"SCALAR"},{"bufferView":20,"componentType":5126,"count":24,"max":[0.6,1.2,1.7999999999999998],"min":[-0.6,0,0.6],"type":"VEC3"},{"bufferView":21,"componentType":5126,"count":24,"max":[1,1,1],"min":[-1,-1,-1],"type":"VEC3"},{"bufferView":22,"componentType":5126,"count":24,"max":[1,1],"min":[0,0],"type":"VEC2"},{"bufferView":23,"componentType":5125,"count":36,"type":"SCALAR"},{"bufferView":24,"componentType":5126,"count":196,"max":[2.6,1.4,1.7999999999999998],"min":[1.4,0,0.6],"type":"VEC3"},{"bufferView":25,"componentType":5126,"count":196,"max":[0.99999999950652,0,0.99999999950652],"min":[-0.99999999950652,-1,-0.99999999950652],"type":"VEC3"},{"bufferView":26,"componentType":5126,"count":196,"max":[1,1],"min":[0,0],"type":"VEC2"},{"bufferView":27,"componentType":5125,"count":864,"type":"SCALAR"}],"asset":{"copyright":"Original Web Geometry contributors; repository license","generator":"Web Geometry examples recipe v1","version":"2.0"},"bufferViews":[{"buffer":0,"byteLength":288,"byteOffset":0,"target":34962},{"buffer":0,"byteLength":288,"byteOffset":288,"target":34962},{"buffer":0,"byteLength":192,"byteOffset":576,"target":34962},{"buffer":0,"byteLength":144,"byteOffset":768,"target":34963},{"buffer":0,"byteLength":6732,"byteOffset":912,"target":34962},{"buffer":0,"byteLength":6732,"byteOffset":7644,"target":34962},{"buffer":0,"byteLength":4488,"byteOffset":14376,"target":34962},{"buffer":0,"byteLength":12288,"byteOffset":18864,"target":34963},{"buffer":0,"byteLength":288,"byteOffset":31152,"target":34962},{"buffer":0,"byteLength":288,"byteOffset":31440,"target":34962},{"buffer":0,"byteLength":192,"byteOffset":31728,"target":34962},{"buffer":0,"byteLength":144,"byteOffset":31920,"target":34963},{"buffer":0,"byteLength":2352,"byteOffset":32064,"target":34962},{"buffer":0,"byteLength":2352,"byteOffset":34416,"target":34962},{"buffer":0,"byteLength":1568,"byteOffset":36768,"target":34962},{"buffer":0,"byteLength":3456,"byteOffset":38336,"target":34963},{"buffer":0,"byteLength":6732,"byteOffset":41792,"target":34962},{"buffer":0,"byteLength":6732,"byteOffset":48524,"target":34962},{"buffer":0,"byteLength":4488,"byteOffset":55256,"target":34962},{"buffer":0,"byteLength":12288,"byteOffset":59744,"target":34963},{"buffer":0,"byteLength":288,"byteOffset":72032,"target":34962},{"buffer":0,"byteLength":288,"byteOffset":72320,"target":34962},{"buffer":0,"byteLength":192,"byteOffset":72608,"target":34962},{"buffer":0,"byteLength":144,"byteOffset":72800,"target":34963},{"buffer":0,"byteLength":2352,"byteOffset":72944,"target":34962},{"buffer":0,"byteLength":2352,"byteOffset":75296,"target":34962},{"buffer":0,"byteLength":1568,"byteOffset":77648,"target":34962},{"buffer":0,"byteLength":3456,"byteOffset":79216,"target":34963}],"buffers":[{"byteLength":82672,"uri":"source.bin"}],"images":[{"uri":"../../../../source/checker.png"},{"uri":"../../../../source/stripes.png"},{"uri":"../../../../source/tiles.png"}],"materials":[{"doubleSided":true,"name":"Slate slab","pbrMetallicRoughness":{"baseColorFactor":[0.22,0.24,0.27,1],"metallicFactor":0,"roughnessFactor":0.85}},{"doubleSided":true,"name":"Vermilion paint","pbrMetallicRoughness":{"baseColorFactor":[0.8,0.2,0.12,1],"metallicFactor":0,"roughnessFactor":0.35}},{"doubleSided":true,"name":"Cobalt paint","pbrMetallicRoughness":{"baseColorFactor":[0.1,0.25,0.7,1],"metallicFactor":0,"roughnessFactor":0.35}},{"doubleSided":true,"name":"Cream paint","pbrMetallicRoughness":{"baseColorFactor":[0.9,0.85,0.7,1],"metallicFactor":0,"roughnessFactor":0.35}},{"doubleSided":true,"name":"Checker cloth","pbrMetallicRoughness":{"baseColorTexture":{"index":0}}},{"doubleSided":true,"name":"Striped cloth","pbrMetallicRoughness":{"baseColorTexture":{"index":1}}},{"doubleSided":true,"name":"Tile cloth","pbrMetallicRoughness":{"baseColorTexture":{"index":2}}}],"meshes":[{"name":"scene","primitives":[{"attributes":{"NORMAL":1,"POSITION":0,"TEXCOORD_0":2},"indices":3,"material":0},{"attributes":{"NORMAL":5,"POSITION":4,"TEXCOORD_0":6},"indices":7,"material":1},{"attributes":{"NORMAL":9,"POSITION":8,"TEXCOORD_0":10},"indices":11,"material":2},{"attributes":{"NORMAL":13,"POSITION":12,"TEXCOORD_0":14},"indices":15,"material":3},{"attributes":{"NORMAL":17,"POSITION":16,"TEXCOORD_0":18},"indices":19,"material":4},{"attributes":{"NORMAL":21,"POSITION":20,"TEXCOORD_0":22},"indices":23,"material":5},{"attributes":{"NORMAL":25,"POSITION":24,"TEXCOORD_0":26},"indices":27,"material":6}]}],"nodes":[{"mesh":0,"name":"scene"}],"scene":0,"scenes":[{"name":"Painted and textured","nodes":[0]}],"textures":[{"source":0},{"source":1},{"source":2}]}