{"asset":{"version":"2.0","generator":"Trillion3D example writer","copyright":"CC0 1.0"},"scene":0,"scenes":[{"nodes":[4]}],"nodes":[{"name":"valley","mesh":0},{"name":"boulder","mesh":1},{"name":"boulder","mesh":2},{"name":"boulder","mesh":3},{"name":"terrain","children":[0,1,2,3]}],"meshes":[{"name":"valley","primitives":[{"material":0,"attributes":{"POSITION":0,"NORMAL":1,"TEXCOORD_0":2},"indices":3}]},{"name":"boulder","primitives":[{"material":1,"attributes":{"POSITION":4,"NORMAL":5},"indices":6}]},{"name":"boulder","primitives":[{"material":1,"attributes":{"POSITION":7,"NORMAL":8},"indices":9}]},{"name":"boulder","primitives":[{"material":1,"attributes":{"POSITION":10,"NORMAL":11},"indices":12}]}],"materials":[{"name":"grass","pbrMetallicRoughness":{"baseColorFactor":[0.33,0.47,0.24,1],"metallicFactor":0,"roughnessFactor":0.9}},{"name":"stone","pbrMetallicRoughness":{"baseColorFactor":[0.52,0.5,0.47,1],"metallicFactor":0,"roughnessFactor":0.8}}],"buffers":[{"uri":"terrain.bin","byteLength":325808}],"bufferViews":[{"buffer":0,"byteOffset":0,"byteLength":50700,"target":34962},{"buffer":0,"byteOffset":50700,"byteLength":50700,"target":34962},{"buffer":0,"byteOffset":101400,"byteLength":33800,"target":34962},{"buffer":0,"byteOffset":135200,"byteLength":98304,"target":34963},{"buffer":0,"byteOffset":233504,"byteLength":7704,"target":34962},{"buffer":0,"byteOffset":241208,"byteLength":7704,"target":34962},{"buffer":0,"byteOffset":248912,"byteLength":15360,"target":34963},{"buffer":0,"byteOffset":264272,"byteLength":7704,"target":34962},{"buffer":0,"byteOffset":271976,"byteLength":7704,"target":34962},{"buffer":0,"byteOffset":279680,"byteLength":15360,"target":34963},{"buffer":0,"byteOffset":295040,"byteLength":7704,"target":34962},{"buffer":0,"byteOffset":302744,"byteLength":7704,"target":34962},{"buffer":0,"byteOffset":310448,"byteLength":15360,"target":34963}],"accessors":[{"bufferView":0,"componentType":5126,"type":"VEC3","count":4225,"min":[-64,-2.17578125,-64],"max":[64,20.13671875,64]},{"bufferView":1,"componentType":5126,"type":"VEC3","count":4225,"min":[-0.4776955082549044,0.7696626228031852,-0.5307319739863112],"max":[0.5164367911035959,0.9999989790804447,0.5220574591434733]},{"bufferView":2,"componentType":5126,"type":"VEC2","count":4225,"min":[0,0],"max":[8,8]},{"bufferView":3,"componentType":5125,"type":"SCALAR","count":24576},{"bufferView":4,"componentType":5126,"type":"VEC3","count":642,"min":[-15.43151569366455,0.8727140426635742,4.784869194030762],"max":[-9.23748779296875,7.464476585388184,11.215130805969238]},{"bufferView":5,"componentType":5126,"type":"VEC3","count":642,"min":[-0.9967019746476181,-0.9980268861819728,-0.9996223709460639],"max":[0.9998523069247972,0.9722650148099168,0.9996223709460639]},{"bufferView":6,"componentType":5125,"type":"SCALAR","count":3840},{"bufferView":7,"componentType":5126,"type":"VEC3","count":642,"min":[5.42464542388916,-0.33818721771240234,-18.286840438842773],"max":[13.683348655700684,8.45082950592041,-9.713159561157227]},{"bufferView":8,"componentType":5126,"type":"VEC3","count":642,"min":[-0.9967019746476181,-0.9980268861819728,-0.9996223709460639],"max":[0.9998523069247972,0.9722650148099168,0.9996223709460639]},{"bufferView":9,"componentType":5125,"type":"SCALAR","count":3840},{"bufferView":10,"componentType":5126,"type":"VEC3","count":642,"min":[15.140403747558594,0.06355476379394531,13.320724487304688],"max":[20.302093505859375,5.556690216064453,18.679275512695312]},{"bufferView":11,"componentType":5126,"type":"VEC3","count":642,"min":[-0.9967019746476181,-0.9980268861819728,-0.9996223709460639],"max":[0.9998523069247972,0.9722650148099168,0.9996223709460639]},{"bufferView":12,"componentType":5125,"type":"SCALAR","count":3840}]}