{"accessors":[{"bufferView":0,"componentType":5126,"count":3,"max":[0,0,0],"min":[0,0,0],"type":"VEC3"},{"bufferView":1,"componentType":5123,"count":3,"type":"SCALAR"}],"asset":{"copyright":"Original Web Geometry contributors; repository license","generator":"Web Geometry examples recipe v1","version":"2.0"},"bufferViews":[{"buffer":0,"byteLength":36,"byteOffset":0},{"buffer":0,"byteLength":6,"byteOffset":36}],"buffers":[{"byteLength":44,"uri":"scene.bin"}],"materials":[{"doubleSided":true,"name":"White plaster","pbrMetallicRoughness":{"baseColorFactor":[0.82,0.8,0.76,1],"metallicFactor":0,"roughnessFactor":0.9}},{"doubleSided":true,"name":"Red paint","pbrMetallicRoughness":{"baseColorFactor":[0.75,0.08,0.05,1],"metallicFactor":0,"roughnessFactor":0.7}}],"meshes":[{"name":"scene","primitives":[{"attributes":{"POSITION":0},"indices":1,"material":0,"mode":4},{"attributes":{"POSITION":0},"indices":1,"material":1,"mode":4}]}],"nodes":[{"mesh":0,"name":"scene"}],"scene":0,"scenes":[{"name":"Red wall","nodes":[0]}]}