{"asset":{"version":"2.0","generator":"Trillion3D examples recipe v1","copyright":"Original Trillion3D contributors; repository license"},"scene":0,"scenes":[{"name":"Hall with its lamps","nodes":[0,1,2,3,4,5]}],"nodes":[{"name":"scene","mesh":0},{"name":"warm-lamp","translation":[-3,3.2,0],"extensions":{"KHR_lights_punctual":{"light":0}}},{"name":"white-lamp","translation":[0,3.2,0],"extensions":{"KHR_lights_punctual":{"light":1}}},{"name":"cool-lamp","translation":[3,3.2,0],"extensions":{"KHR_lights_punctual":{"light":2}}},{"name":"dead-lamp","translation":[2,3,2],"extensions":{"KHR_lights_punctual":{"light":3}}},{"name":"flat-lamp","translation":[-2,3,2],"scale":[1,1,0],"extensions":{"KHR_lights_punctual":{"light":4}}}],"meshes":[{"name":"scene","primitives":[{"material":0,"attributes":{"POSITION":0,"NORMAL":1},"indices":2},{"material":1,"attributes":{"POSITION":3,"NORMAL":4},"indices":5}]}],"materials":[{"name":"Plaster","doubleSided":true,"pbrMetallicRoughness":{"baseColorFactor":[0.7,0.68,0.64,1],"metallicFactor":0,"roughnessFactor":0.9}},{"name":"Grey stone","doubleSided":true,"pbrMetallicRoughness":{"baseColorFactor":[0.4,0.4,0.42,1],"metallicFactor":0,"roughnessFactor":0.6}}],"buffers":[{"uri":"scene.bin","byteLength":51672}],"bufferViews":[{"buffer":0,"byteOffset":0,"byteLength":576,"target":34962},{"buffer":0,"byteOffset":576,"byteLength":576,"target":34962},{"buffer":0,"byteOffset":1152,"byteLength":288,"target":34963},{"buffer":0,"byteOffset":1440,"byteLength":13788,"target":34962},{"buffer":0,"byteOffset":15228,"byteLength":13788,"target":34962},{"buffer":0,"byteOffset":29016,"byteLength":22656,"target":34963}],"accessors":[{"bufferView":0,"componentType":5126,"type":"VEC3","count":48,"min":[-5,-0.3,-5],"max":[5,4,5]},{"bufferView":1,"componentType":5126,"type":"VEC3","count":48,"min":[-1,-1,-1],"max":[1,1,1]},{"bufferView":2,"componentType":5125,"type":"SCALAR","count":72},{"bufferView":3,"componentType":5126,"type":"VEC3","count":1149,"min":[-3.3,0,-2.3],"max":[3.3,4,2.1]},{"bufferView":4,"componentType":5126,"type":"VEC3","count":1149,"min":[-0.9999999995065201,-1,-1],"max":[0.9999999995065201,0.9807822157918871,1]},{"bufferView":5,"componentType":5125,"type":"SCALAR","count":5664}],"extensions":{"KHR_lights_punctual":{"lights":[{"type":"point","color":[1,0.7,0.4],"intensity":9000,"range":9},{"type":"point","color":[1,1,1],"intensity":7000,"range":9},{"type":"point","color":[0.5,0.7,1],"intensity":9000,"range":9},{"type":"point","intensity":-5},{"type":"spot","intensity":500,"spot":{"outerConeAngle":0.5}}]}},"extensionsUsed":["KHR_lights_punctual"]}