{"accessors":[{"bufferView":0,"componentType":5126,"count":24,"max":[8.0,0.0,8.0],"min":[-8.0,-0.20000000298023224,-8.0],"type":"VEC3"},{"bufferView":1,"componentType":5126,"count":24,"type":"VEC3"},{"bufferView":2,"componentType":5126,"count":24,"type":"VEC2"},{"bufferView":3,"componentType":5125,"count":36,"type":"SCALAR"},{"bufferView":4,"componentType":5126,"count":72,"max":[8.5,4.199999809265137,8.0],"min":[-8.5,0.0,-8.5],"type":"VEC3"},{"bufferView":5,"componentType":5126,"count":72,"type":"VEC3"},{"bufferView":6,"componentType":5126,"count":72,"type":"VEC2"},{"bufferView":7,"componentType":5125,"count":108,"type":"SCALAR"},{"bufferView":8,"componentType":5126,"count":2322,"max":[2.700000047683716,2.799999952316284,2.700000047683716],"min":[-2.700000047683716,0.0,-2.700000047683716],"type":"VEC3"},{"bufferView":9,"componentType":5126,"count":2322,"type":"VEC3"},{"bufferView":10,"componentType":5126,"count":2322,"type":"VEC2"},{"bufferView":11,"componentType":5125,"count":13056,"type":"SCALAR"},{"bufferView":12,"componentType":5126,"count":97,"max":[2.450000047683716,0.47999998927116394,2.450000047683716],"min":[-2.450000047683716,0.47999998927116394,-2.450000047683716],"type":"VEC3"},{"bufferView":13,"componentType":5126,"count":97,"type":"VEC3"},{"bufferView":14,"componentType":5125,"count":288,"type":"SCALAR"},{"bufferView":15,"componentType":5126,"count":490,"max":[0.41999998688697815,3.619999885559082,0.41999998688697815],"min":[-0.41999998688697815,0.0,-0.41999998688697815],"type":"VEC3"},{"bufferView":16,"componentType":5126,"count":490,"type":"VEC3"},{"bufferView":17,"componentType":5126,"count":490,"type":"VEC2"},{"bufferView":18,"componentType":5125,"count":2304,"type":"SCALAR"}],"asset":{"generator":"web-geometry example generator","version":"2.0"},"bufferViews":[{"buffer":0,"byteLength":288,"byteOffset":0,"target":34962},{"buffer":0,"byteLength":288,"byteOffset":288,"target":34962},{"buffer":0,"byteLength":192,"byteOffset":576,"target":34962},{"buffer":0,"byteLength":144,"byteOffset":768,"target":34963},{"buffer":0,"byteLength":864,"byteOffset":912,"target":34962},{"buffer":0,"byteLength":864,"byteOffset":1776,"target":34962},{"buffer":0,"byteLength":576,"byteOffset":2640,"target":34962},{"buffer":0,"byteLength":432,"byteOffset":3216,"target":34963},{"buffer":0,"byteLength":27864,"byteOffset":3648,"target":34962},{"buffer":0,"byteLength":27864,"byteOffset":31512,"target":34962},{"buffer":0,"byteLength":18576,"byteOffset":59376,"target":34962},{"buffer":0,"byteLength":52224,"byteOffset":77952,"target":34963},{"buffer":0,"byteLength":1164,"byteOffset":130176,"target":34962},{"buffer":0,"byteLength":1164,"byteOffset":131340,"target":34962},{"buffer":0,"byteLength":1152,"byteOffset":132504,"target":34963},{"buffer":0,"byteLength":5880,"byteOffset":133656,"target":34962},{"buffer":0,"byteLength":5880,"byteOffset":139536,"target":34962},{"buffer":0,"byteLength":3920,"byteOffset":145416,"target":34962},{"buffer":0,"byteLength":9216,"byteOffset":149336,"target":34963}],"buffers":[{"byteLength":158552,"uri":"source.bin"}],"images":[{"uri":"../../../../source/textures/tiles.png"},{"uri":"../../../../source/textures/tiles-normal.png"},{"uri":"../../../../source/textures/bricks.png"},{"uri":"../../../../source/textures/bricks-normal.png"},{"uri":"../../../../source/textures/marble.png"}],"materials":[{"name":"glazed tiles","normalTexture":{"index":1},"pbrMetallicRoughness":{"baseColorFactor":[1,1,1,1.0],"baseColorTexture":{"index":0},"metallicFactor":0.0,"roughnessFactor":0.3}},{"name":"brick","normalTexture":{"index":3},"pbrMetallicRoughness":{"baseColorFactor":[1,1,1,1.0],"baseColorTexture":{"index":2},"metallicFactor":0.0,"roughnessFactor":0.85}},{"name":"marble","pbrMetallicRoughness":{"baseColorFactor":[1,1,1,1.0],"baseColorTexture":{"index":4},"metallicFactor":0.0,"roughnessFactor":0.25}},{"name":"water","pbrMetallicRoughness":{"baseColorFactor":[0.16,0.36,0.42,1.0],"metallicFactor":0.2,"roughnessFactor":0.05}}],"meshes":[{"name":"floor","primitives":[{"attributes":{"NORMAL":1,"POSITION":0,"TEXCOORD_0":2},"indices":3,"material":0}]},{"name":"walls","primitives":[{"attributes":{"NORMAL":5,"POSITION":4,"TEXCOORD_0":6},"indices":7,"material":1}]},{"name":"fountain","primitives":[{"attributes":{"NORMAL":9,"POSITION":8,"TEXCOORD_0":10},"indices":11,"material":2}]},{"name":"water","primitives":[{"attributes":{"NORMAL":13,"POSITION":12},"indices":14,"material":3}]},{"name":"column","primitives":[{"attributes":{"NORMAL":16,"POSITION":15,"TEXCOORD_0":17},"indices":18,"material":2}]}],"nodes":[{"mesh":0},{"mesh":1},{"mesh":2},{"mesh":3},{"mesh":4,"translation":[-6.6,0.0,-6.0]},{"mesh":4,"translation":[-6.6,0.0,-2.0]},{"mesh":4,"translation":[-6.6,0.0,2.0]},{"mesh":4,"translation":[-6.6,0.0,6.0]},{"mesh":4,"translation":[6.6,0.0,-6.0]},{"mesh":4,"translation":[6.6,0.0,-2.0]},{"mesh":4,"translation":[6.6,0.0,2.0]},{"mesh":4,"translation":[6.6,0.0,6.0]},{"mesh":4,"translation":[-4.0,0.0,-6.6]},{"mesh":4,"translation":[0.0,0.0,-6.6]},{"mesh":4,"translation":[4.0,0.0,-6.6]},{"children":[0,1,2,3,4,5,6,7,8,9,10,11,12,13,14],"name":"courtyard","scale":[0.5,0.5,0.5]}],"samplers":[{"magFilter":9729,"minFilter":9987,"wrapS":10497,"wrapT":10497}],"scene":0,"scenes":[{"nodes":[15]}],"textures":[{"sampler":0,"source":0},{"sampler":0,"source":1},{"sampler":0,"source":2},{"sampler":0,"source":3},{"sampler":0,"source":4}]}