{"asset":{"version":"2.0","generator":"Web Geometry examples recipe v1","copyright":"Original Web Geometry contributors; repository license"},"scene":0,"scenes":[{"name":"Leaves cut by alpha","nodes":[0,1,2,3,4,5,6,7,8,9,10,11,12,13,14,15,16,17,18,19,20,21,22,23,24,25,26,27,28,29,30,31,32,33,34,35,36,37,38,39,40,41,42,43,44,45,46,47,48,49,50,51,52,53,54,55,56,57,58,59,60]}],"nodes":[{"name":"branch","mesh":0},{"name":"leaf-0","mesh":1,"translation":[-0.0475,1.5591,-0.0157],"rotation":[-0.2272,0,0.6893,0.688]},{"name":"leaf-1","mesh":1,"translation":[-0.0372,3.2925,0.0334],"rotation":[0.4839,0,0.5384,0.6899]},{"name":"leaf-2","mesh":1,"translation":[-0.0382,2.8379,0.0322],"rotation":[0.3425,0,0.4062,0.8472]},{"name":"leaf-3","mesh":1,"translation":[0.0273,3.2133,0.0419],"rotation":[0.5933,0,-0.3876,0.7055]},{"name":"leaf-4","mesh":1,"translation":[-0.003,2.5421,-0.0499],"rotation":[-0.6859,0,0.0407,0.7265]},{"name":"leaf-5","mesh":1,"translation":[0.0249,3.7217,0.0434],"rotation":[0.5301,0,-0.3037,0.7917]},{"name":"leaf-6","mesh":1,"translation":[-0.0169,1.6953,0.047],"rotation":[0.627,0,0.2258,0.7456]},{"name":"leaf-7","mesh":1,"translation":[-0.0424,1.5366,0.0265],"rotation":[0.3371,0,0.5387,0.7721]},{"name":"leaf-8","mesh":1,"translation":[-0.0421,1.9668,-0.027],"rotation":[-0.3818,0,0.5944,0.7078]},{"name":"leaf-9","mesh":1,"translation":[0.037,3.7231,-0.0336],"rotation":[-0.5032,0,-0.554,0.6632]},{"name":"leaf-10","mesh":1,"translation":[-0.0498,1.1389,0.0039],"rotation":[0.046,0,0.5859,0.8091]},{"name":"leaf-11","mesh":1,"translation":[0.0203,1.4273,0.0457],"rotation":[0.5659,0,-0.252,0.785]},{"name":"leaf-12","mesh":1,"translation":[-0.0323,1.3737,-0.0382],"rotation":[-0.5215,0,0.4407,0.7306]},{"name":"leaf-13","mesh":1,"translation":[-0.0442,0.8142,0.0233],"rotation":[0.3269,0,0.6197,0.7135]},{"name":"leaf-14","mesh":1,"translation":[-0.0498,1.6772,0.0046],"rotation":[0.0668,0,0.7269,0.6835]},{"name":"leaf-15","mesh":1,"translation":[-0.0113,1.3176,0.0487],"rotation":[0.6622,0,0.1532,0.7335]},{"name":"leaf-16","mesh":1,"translation":[-0.0438,1.4011,-0.0241],"rotation":[-0.3335,0,0.6066,0.7217]},{"name":"leaf-17","mesh":1,"translation":[0.0474,3.1643,0.016],"rotation":[0.2274,0,-0.6717,0.7051]},{"name":"leaf-18","mesh":1,"translation":[0.0289,2.1345,-0.0408],"rotation":[-0.4899,0,-0.3475,0.7995]},{"name":"leaf-19","mesh":1,"translation":[0.0481,1.3626,-0.0135],"rotation":[-0.1688,0,-0.6028,0.7798]},{"name":"leaf-20","mesh":1,"translation":[-0.0494,1.1316,-0.0079],"rotation":[-0.0885,0,0.5526,0.8287]},{"name":"leaf-21","mesh":1,"translation":[-0.0469,3.7493,0.0174],"rotation":[0.2034,0,0.5486,0.811]},{"name":"leaf-22","mesh":1,"translation":[-0.0499,2.2866,0.0033],"rotation":[0.0437,0,0.6529,0.7562]},{"name":"leaf-23","mesh":1,"translation":[0.0169,1.2653,-0.0471],"rotation":[-0.5893,0,-0.2112,0.7798]},{"name":"leaf-24","mesh":1,"translation":[-0.0142,2.0044,0.0479],"rotation":[0.5642,0,0.1674,0.8085]},{"name":"leaf-25","mesh":1,"translation":[-0.0284,2.7856,0.0411],"rotation":[0.5943,0,0.4102,0.6917]},{"name":"leaf-26","mesh":1,"translation":[-0.041,3.7375,0.0286],"rotation":[0.3225,0,0.4616,0.8264]},{"name":"leaf-27","mesh":1,"translation":[0.0126,3.1557,-0.0484],"rotation":[-0.5802,0,-0.1513,0.8003]},{"name":"leaf-28","mesh":1,"translation":[-0.0471,1.4431,0.0167],"rotation":[0.2128,0,0.6001,0.7711]},{"name":"leaf-29","mesh":1,"translation":[0.0499,3.3911,-0.003],"rotation":[-0.0399,0,-0.6715,0.7399]},{"name":"leaf-30","mesh":1,"translation":[0.0492,0.986,0.0092],"rotation":[0.1214,0,-0.6508,0.7495]},{"name":"leaf-31","mesh":1,"translation":[-0.0486,0.8724,0.0119],"rotation":[0.174,0,0.7131,0.6792]},{"name":"leaf-32","mesh":1,"translation":[0.0441,3.7495,-0.0235],"rotation":[-0.2616,0,-0.4917,0.8305]},{"name":"leaf-33","mesh":1,"translation":[-0.0415,2.2253,-0.0278],"rotation":[-0.3346,0,0.4996,0.7991]},{"name":"leaf-34","mesh":1,"translation":[0.0206,3.4337,-0.0456],"rotation":[-0.5646,0,-0.2555,0.7848]},{"name":"leaf-35","mesh":1,"translation":[0.0465,1.7979,-0.0183],"rotation":[-0.2526,0,-0.6421,0.7238]},{"name":"leaf-36","mesh":1,"translation":[-0.0484,3.0126,-0.0126],"rotation":[-0.1671,0,0.6414,0.7488]},{"name":"leaf-37","mesh":1,"translation":[-0.0448,0.8568,-0.0221],"rotation":[-0.2955,0,0.5993,0.7439]},{"name":"leaf-38","mesh":1,"translation":[0.0096,1.8829,-0.0491],"rotation":[-0.5468,0,-0.1072,0.8304]},{"name":"leaf-39","mesh":1,"translation":[-0.0383,3.396,0.0322],"rotation":[0.3416,0,0.4065,0.8474]},{"name":"leaf-40","mesh":1,"translation":[-0.017,2.3835,-0.047],"rotation":[-0.6194,0,0.224,0.7524]},{"name":"leaf-41","mesh":1,"translation":[-0.0224,3.6094,0.0447],"rotation":[0.4987,0,0.2497,0.83]},{"name":"leaf-42","mesh":1,"translation":[0.042,1.8756,0.0271],"rotation":[0.2884,0,-0.4466,0.847]},{"name":"leaf-43","mesh":1,"translation":[0.0469,1.004,-0.0172],"rotation":[-0.2521,0,-0.6877,0.6808]},{"name":"leaf-44","mesh":1,"translation":[0.0494,3.666,-0.008],"rotation":[-0.0878,0,-0.5391,0.8377]},{"name":"leaf-45","mesh":1,"translation":[-0.0213,3.6359,-0.0452],"rotation":[-0.6566,0,0.3099,0.6876]},{"name":"leaf-46","mesh":1,"translation":[0.0498,3.823,0.0041],"rotation":[0.0558,0,-0.6809,0.7303]},{"name":"leaf-47","mesh":1,"translation":[-0.0295,1.8262,0.0403],"rotation":[0.4985,0,0.3652,0.7862]},{"name":"leaf-48","mesh":1,"translation":[-0.0383,1.1721,-0.0321],"rotation":[-0.4163,0,0.4974,0.7611]},{"name":"leaf-49","mesh":1,"translation":[-0.0411,1.3705,0.0285],"rotation":[0.3552,0,0.5115,0.7825]},{"name":"leaf-50","mesh":1,"translation":[-0.01,2.6758,-0.049],"rotation":[-0.6602,0,0.135,0.7389]},{"name":"leaf-51","mesh":1,"translation":[0.0087,1.6816,-0.0492],"rotation":[-0.7146,0,-0.1266,0.688]},{"name":"leaf-52","mesh":1,"translation":[0.0447,1.7942,-0.0224],"rotation":[-0.2494,0,-0.4967,0.8313]},{"name":"leaf-53","mesh":1,"translation":[-0.0229,1.1087,0.0444],"rotation":[0.5018,0,0.2585,0.8255]},{"name":"leaf-54","mesh":1,"translation":[0.0101,3.8845,-0.049],"rotation":[-0.6244,0,-0.1286,0.7705]},{"name":"leaf-55","mesh":1,"translation":[-0.0468,3.4547,-0.0176],"rotation":[-0.2534,0,0.6718,0.696]},{"name":"leaf-56","mesh":1,"translation":[0.0153,1.2424,0.0476],"rotation":[0.6656,0,-0.2134,0.7152]},{"name":"leaf-57","mesh":1,"translation":[0.0499,2.6662,-0.0032],"rotation":[-0.0446,0,-0.6862,0.7261]},{"name":"leaf-58","mesh":1,"translation":[-0.0425,2.0013,0.0264],"rotation":[0.3618,0,0.5824,0.728]},{"name":"leaf-59","mesh":1,"translation":[0.022,3.399,-0.0449],"rotation":[-0.637,0,-0.3124,0.7048]}],"meshes":[{"name":"branch","primitives":[{"material":0,"attributes":{"POSITION":0,"NORMAL":1,"TEXCOORD_0":2},"indices":3},{"material":2,"attributes":{"POSITION":4,"NORMAL":5,"TEXCOORD_0":6},"indices":7}]},{"name":"leaf","primitives":[{"material":1,"attributes":{"POSITION":8,"NORMAL":9,"TEXCOORD_0":10},"indices":11}]}],"materials":[{"name":"Bark","doubleSided":true,"pbrMetallicRoughness":{"baseColorFactor":[0.3,0.2,0.12,1],"metallicFactor":0,"roughnessFactor":0.9}},{"name":"Leaf","doubleSided":true,"pbrMetallicRoughness":{"baseColorTexture":{"index":0}},"alphaMode":"MASK","alphaCutoff":0.5},{"name":"Moss","doubleSided":true,"pbrMetallicRoughness":{"baseColorFactor":[0.25,0.3,0.15,1],"metallicFactor":0,"roughnessFactor":0.95}}],"buffers":[{"uri":"branch.bin","byteLength":10640},{"uri":"leaf.bin","byteLength":152}],"bufferViews":[{"buffer":0,"byteOffset":0,"byteLength":2352,"target":34962},{"buffer":0,"byteOffset":2352,"byteLength":2352,"target":34962},{"buffer":0,"byteOffset":4704,"byteLength":1568,"target":34962},{"buffer":0,"byteOffset":6272,"byteLength":3456,"target":34963},{"buffer":0,"byteOffset":9728,"byteLength":288,"target":34962},{"buffer":0,"byteOffset":10016,"byteLength":288,"target":34962},{"buffer":0,"byteOffset":10304,"byteLength":192,"target":34962},{"buffer":0,"byteOffset":10496,"byteLength":144,"target":34963},{"buffer":1,"byteOffset":0,"byteLength":48,"target":34962},{"buffer":1,"byteOffset":48,"byteLength":48,"target":34962},{"buffer":1,"byteOffset":96,"byteLength":32,"target":34962},{"buffer":1,"byteOffset":128,"byteLength":24,"target":34963}],"accessors":[{"bufferView":0,"componentType":5126,"type":"VEC3","count":196,"min":[-0.06,0,-0.06],"max":[0.06,4.2,0.06]},{"bufferView":1,"componentType":5126,"type":"VEC3","count":196,"min":[-0.99999999950652,-1,-0.99999999950652],"max":[0.99999999950652,0,0.99999999950652]},{"bufferView":2,"componentType":5126,"type":"VEC2","count":196,"min":[0,0],"max":[1,1]},{"bufferView":3,"componentType":5125,"type":"SCALAR","count":864},{"bufferView":4,"componentType":5126,"type":"VEC3","count":24,"min":[-2,-0.3,-2],"max":[2,0,2]},{"bufferView":5,"componentType":5126,"type":"VEC3","count":24,"min":[-1,-1,-1],"max":[1,1,1]},{"bufferView":6,"componentType":5126,"type":"VEC2","count":24,"min":[0,0],"max":[1,1]},{"bufferView":7,"componentType":5125,"type":"SCALAR","count":36},{"bufferView":8,"componentType":5126,"type":"VEC3","count":4,"min":[-0.2,0,0],"max":[0.2,0.9,0]},{"bufferView":9,"componentType":5126,"type":"VEC3","count":4,"min":[0,0,1],"max":[0,0,1]},{"bufferView":10,"componentType":5126,"type":"VEC2","count":4,"min":[0,0],"max":[1,1]},{"bufferView":11,"componentType":5125,"type":"SCALAR","count":6}],"images":[{"uri":"leaf.png"}],"textures":[{"source":0}]}