{"accessors":[{"bufferView":0,"componentType":5126,"count":24,"max":[15,0,15],"min":[-15,-0.4,-15],"type":"VEC3"},{"bufferView":1,"componentType":5126,"count":24,"max":[1,1,1],"min":[-1,-1,-1],"type":"VEC3"},{"bufferView":2,"componentType":5125,"count":36,"type":"SCALAR"},{"bufferView":3,"componentType":5126,"count":2429,"max":[10.481316637803037,1.6,8.778442353849675],"min":[-9.139043159817856,-1.667275235336274,-11.825917337385087],"type":"VEC3"},{"bufferView":4,"componentType":5126,"count":2429,"max":[0.9999999993831502,0.8660175496023578,0.9999999993831508],"min":[-0.9999999993831502,-1,-0.9999999993831508],"type":"VEC3"},{"bufferView":5,"componentType":5125,"count":11520,"type":"SCALAR"},{"bufferView":6,"componentType":5126,"count":490,"max":[1.4,8.1,1.4],"min":[-1.4,1.6,-1.4],"type":"VEC3"},{"bufferView":7,"componentType":5126,"count":490,"max":[0.99999999950652,1,0.99999999950652],"min":[-0.99999999950652,-1,-0.99999999950652],"type":"VEC3"},{"bufferView":8,"componentType":5125,"count":2304,"type":"SCALAR"},{"bufferView":9,"componentType":5126,"count":196,"max":[0.9,7.9,0.9],"min":[-0.9,6.5,-0.9],"type":"VEC3"},{"bufferView":10,"componentType":5126,"count":196,"max":[0.99999999950652,0,0.99999999950652],"min":[-0.99999999950652,-1,-0.99999999950652],"type":"VEC3"},{"bufferView":11,"componentType":5125,"count":864,"type":"SCALAR"}],"asset":{"copyright":"Original Web Geometry contributors; repository license","generator":"Web Geometry examples recipe v1","version":"2.0"},"bufferViews":[{"buffer":0,"byteLength":288,"byteOffset":0,"target":34962},{"buffer":0,"byteLength":288,"byteOffset":288,"target":34962},{"buffer":0,"byteLength":144,"byteOffset":576,"target":34963},{"buffer":0,"byteLength":29148,"byteOffset":720,"target":34962},{"buffer":0,"byteLength":29148,"byteOffset":29868,"target":34962},{"buffer":0,"byteLength":46080,"byteOffset":59016,"target":34963},{"buffer":0,"byteLength":5880,"byteOffset":105096,"target":34962},{"buffer":0,"byteLength":5880,"byteOffset":110976,"target":34962},{"buffer":0,"byteLength":9216,"byteOffset":116856,"target":34963},{"buffer":0,"byteLength":2352,"byteOffset":126072,"target":34962},{"buffer":0,"byteLength":2352,"byteOffset":128424,"target":34962},{"buffer":0,"byteLength":3456,"byteOffset":130776,"target":34963}],"buffers":[{"byteLength":134232,"uri":"source.bin"}],"materials":[{"doubleSided":true,"name":"Wet sand","pbrMetallicRoughness":{"baseColorFactor":[0.5,0.47,0.4,1],"metallicFactor":0,"roughnessFactor":0.7}},{"doubleSided":true,"name":"Rock","pbrMetallicRoughness":{"baseColorFactor":[0.28,0.27,0.26,1],"metallicFactor":0,"roughnessFactor":0.9}},{"doubleSided":true,"name":"Whitewash","pbrMetallicRoughness":{"baseColorFactor":[0.85,0.83,0.78,1],"metallicFactor":0,"roughnessFactor":0.8}},{"alphaMode":"BLEND","doubleSided":true,"name":"Lantern glass","pbrMetallicRoughness":{"baseColorFactor":[0.8,0.85,0.9,0.3],"metallicFactor":0,"roughnessFactor":0.1}}],"meshes":[{"name":"scene","primitives":[{"attributes":{"NORMAL":1,"POSITION":0},"indices":2,"material":0},{"attributes":{"NORMAL":4,"POSITION":3},"indices":5,"material":1},{"attributes":{"NORMAL":7,"POSITION":6},"indices":8,"material":2},{"attributes":{"NORMAL":10,"POSITION":9},"indices":11,"material":3}]}],"nodes":[{"mesh":0,"name":"scene"}],"scene":0,"scenes":[{"name":"Lighthouse","nodes":[0]}]}