{
  "asset": {
    "version": "2.0"
  },
  "buffers": [
    {
      "uri": "masked-overlay.bin",
      "byteLength": 612
    }
  ],
  "bufferViews": [
    {
      "buffer": 0,
      "byteOffset": 0,
      "byteLength": 108
    },
    {
      "buffer": 0,
      "byteOffset": 108,
      "byteLength": 96
    },
    {
      "buffer": 0,
      "byteOffset": 204,
      "byteLength": 192
    },
    {
      "buffer": 0,
      "byteOffset": 396,
      "byteLength": 216
    }
  ],
  "accessors": [
    {
      "bufferView": 0,
      "componentType": 5126,
      "type": "VEC3",
      "count": 9,
      "min": [0.0, 0.0, 0.0],
      "max": [4.0, 4.0, 0.0]
    },
    {
      "bufferView": 1,
      "componentType": 5125,
      "type": "SCALAR",
      "count": 24
    },
    {
      "bufferView": 2,
      "componentType": 5126,
      "type": "VEC3",
      "count": 16,
      "min": [0.0, 0.0, 0.0],
      "max": [4.0, 4.0, 0.0]
    },
    {
      "bufferView": 3,
      "componentType": 5125,
      "type": "SCALAR",
      "count": 54
    }
  ],
  "materials": [
    {
      "name": "concrete",
      "pbrMetallicRoughness": {
        "baseColorFactor": [0.8, 0.8, 0.8, 1]
      }
    },
    {
      "name": "grate",
      "alphaMode": "MASK",
      "alphaCutoff": 0.5,
      "pbrMetallicRoughness": {
        "baseColorFactor": [0.5, 0.4, 0.3, 1]
      }
    }
  ],
  "meshes": [
    {
      "primitives": [
        {
          "attributes": {
            "POSITION": 0
          },
          "indices": 1,
          "material": 0
        }
      ]
    },
    {
      "primitives": [
        {
          "attributes": {
            "POSITION": 2
          },
          "indices": 3,
          "material": 1
        }
      ]
    }
  ],
  "nodes": [
    {
      "mesh": 0
    },
    {
      "mesh": 1
    }
  ],
  "scenes": [
    {
      "nodes": [0, 1]
    }
  ],
  "scene": 0,
  "images": []
}
