{"asset":{"version":"2.0","generator":"Web Geometry Nocturne Theatre recipe v1","copyright":"Original Web Geometry contributors; repository license"},"scene":0,"scenes":[{"nodes":[0]}],"nodes":[{"name":"Nocturne shadow theatre","mesh":0}],"meshes":[{"name":"Original theatre, curtains and paper actors","primitives":[{"material":0,"attributes":{"POSITION":0,"NORMAL":1},"indices":2},{"material":3,"attributes":{"POSITION":3,"NORMAL":4},"indices":5},{"material":2,"attributes":{"POSITION":6,"NORMAL":7},"indices":8},{"material":1,"attributes":{"POSITION":9,"NORMAL":10},"indices":11},{"material":4,"attributes":{"POSITION":12,"NORMAL":13},"indices":14},{"material":5,"attributes":{"POSITION":15,"NORMAL":16},"indices":17}]}],"materials":[{"name":"Ivory projection wall","doubleSided":true,"pbrMetallicRoughness":{"baseColorFactor":[0.9,0.78,0.58,1],"metallicFactor":0,"roughnessFactor":0.74}},{"name":"Burgundy velvet","doubleSided":true,"pbrMetallicRoughness":{"baseColorFactor":[0.34,0.018,0.035,1],"metallicFactor":0,"roughnessFactor":0.9}},{"name":"Aged brass","doubleSided":true,"pbrMetallicRoughness":{"baseColorFactor":[0.58,0.28,0.055,1],"metallicFactor":0.82,"roughnessFactor":0.24}},{"name":"Walnut stage","doubleSided":true,"pbrMetallicRoughness":{"baseColorFactor":[0.15,0.045,0.018,1],"metallicFactor":0.05,"roughnessFactor":0.58}},{"name":"Cut paper silhouettes","doubleSided":true,"pbrMetallicRoughness":{"baseColorFactor":[0.015,0.02,0.028,1],"metallicFactor":0,"roughnessFactor":0.82}},{"name":"Moon enamel","doubleSided":true,"pbrMetallicRoughness":{"baseColorFactor":[0.06,0.16,0.3,1],"metallicFactor":0.42,"roughnessFactor":0.22}}],"buffers":[{"uri":"geometry.bin","byteLength":674460}],"bufferViews":[{"buffer":0,"byteOffset":0,"byteLength":1848,"target":34962},{"buffer":0,"byteOffset":1848,"byteLength":1848,"target":34962},{"buffer":0,"byteOffset":3696,"byteLength":1680,"target":34963},{"buffer":0,"byteOffset":5376,"byteLength":1152,"target":34962},{"buffer":0,"byteOffset":6528,"byteLength":1152,"target":34962},{"buffer":0,"byteOffset":7680,"byteLength":576,"target":34963},{"buffer":0,"byteOffset":8256,"byteLength":19920,"target":34962},{"buffer":0,"byteOffset":28176,"byteLength":19920,"target":34962},{"buffer":0,"byteOffset":48096,"byteLength":23472,"target":34963},{"buffer":0,"byteOffset":71568,"byteLength":143172,"target":34962},{"buffer":0,"byteOffset":214740,"byteLength":143172,"target":34962},{"buffer":0,"byteOffset":357912,"byteLength":276480,"target":34963},{"buffer":0,"byteOffset":634392,"byteLength":11700,"target":34962},{"buffer":0,"byteOffset":646092,"byteLength":11700,"target":34962},{"buffer":0,"byteOffset":657792,"byteLength":12012,"target":34963},{"buffer":0,"byteOffset":669804,"byteLength":1560,"target":34962},{"buffer":0,"byteOffset":671364,"byteLength":1560,"target":34962},{"buffer":0,"byteOffset":672924,"byteLength":1536,"target":34963}],"accessors":[{"bufferView":0,"componentType":5126,"type":"VEC3","count":154,"min":[-6,0,-3.625],"max":[6,8.4,-3.28]},{"bufferView":1,"componentType":5126,"type":"VEC3","count":154,"min":[-1,-1,-1],"max":[1,1,1]},{"bufferView":2,"componentType":5125,"type":"SCALAR","count":420},{"bufferView":3,"componentType":5126,"type":"VEC3","count":96,"min":[-7.25,-0.7,-4.8],"max":[7.25,8.125,4.2]},{"bufferView":4,"componentType":5126,"type":"VEC3","count":96,"min":[-1,-1,-1],"max":[1,1,1]},{"bufferView":5,"componentType":5125,"type":"SCALAR","count":144},{"bufferView":6,"componentType":5126,"type":"VEC3","count":1660,"min":[-7.62,-0.05,-3.28],"max":[7.62,8.8,0.82]},{"bufferView":7,"componentType":5126,"type":"VEC3","count":1660,"min":[-1,-1,-1],"max":[1,1,1]},{"bufferView":8,"componentType":5125,"type":"SCALAR","count":5868},{"bufferView":9,"componentType":5126,"type":"VEC3","count":11931,"min":[-6.775,0.34999999999999964,-0.5499657310296028],"max":[6.775,7.9,0.24996573102960282]},{"bufferView":10,"componentType":5126,"type":"VEC3","count":11931,"min":[-0.9738780052270927,-0.15797105730670635,0.22707177510833554],"max":[0.9738780052268706,0.15797105730314345,0.9981717134461935]},{"bufferView":11,"componentType":5125,"type":"SCALAR","count":69120},{"bufferView":12,"componentType":5126,"type":"VEC3","count":975,"min":[-4.05,2.65,-1.49],"max":[3.83,5.82,-1.41]},{"bufferView":13,"componentType":5126,"type":"VEC3","count":975,"min":[-1,-1,-1],"max":[1,1,1]},{"bufferView":14,"componentType":5125,"type":"SCALAR","count":3003},{"bufferView":15,"componentType":5126,"type":"VEC3","count":130,"min":[-1.25,4,-3.34],"max":[1.25,6.5,-3.34]},{"bufferView":16,"componentType":5126,"type":"VEC3","count":130,"min":[0,0,-1],"max":[0,0,0]},{"bufferView":17,"componentType":5125,"type":"SCALAR","count":384}]}