{"accessors":[{"bufferView":0,"componentType":5126,"count":9571,"max":[6,4.096383094787598,6],"min":[-6,-1.1424590349197388,-6],"type":"VEC3"},{"bufferView":1,"componentType":5125,"count":29178,"type":"SCALAR"},{"bufferView":2,"componentType":5125,"count":11487,"type":"SCALAR"},{"bufferView":3,"componentType":5125,"count":10347,"type":"SCALAR"},{"bufferView":4,"componentType":5125,"count":4284,"type":"SCALAR"},{"bufferView":5,"componentType":5125,"count":480,"type":"SCALAR"}],"asset":{"generator":"trillion3D original mountain authoring","version":"2.0"},"bufferViews":[{"buffer":0,"byteLength":114852,"byteOffset":0,"target":34962},{"buffer":0,"byteLength":116712,"byteOffset":114852,"target":34963},{"buffer":0,"byteLength":45948,"byteOffset":231564,"target":34963},{"buffer":0,"byteLength":41388,"byteOffset":277512,"target":34963},{"buffer":0,"byteLength":17136,"byteOffset":318900,"target":34963},{"buffer":0,"byteLength":1920,"byteOffset":336036,"target":34963}],"buffers":[{"byteLength":337956,"uri":"source.bin"}],"extensions":{"KHR_lights_punctual":{"lights":[{"color":[1,0.91,0.8],"intensity":2600,"type":"directional"}]}},"extensionsUsed":["KHR_lights_punctual"],"materials":[{"doubleSided":true,"name":"valley soil","pbrMetallicRoughness":{"baseColorFactor":[0.18,0.25,0.16,1],"metallicFactor":0,"roughnessFactor":0.9}},{"doubleSided":true,"name":"alpine grass","pbrMetallicRoughness":{"baseColorFactor":[0.29,0.38,0.2,1],"metallicFactor":0,"roughnessFactor":0.9}},{"doubleSided":true,"name":"exposed rock","pbrMetallicRoughness":{"baseColorFactor":[0.38,0.29,0.2,1],"metallicFactor":0,"roughnessFactor":0.9}},{"doubleSided":true,"name":"summit stone","pbrMetallicRoughness":{"baseColorFactor":[0.72,0.7,0.65,1],"metallicFactor":0,"roughnessFactor":0.9}},{"doubleSided":true,"emissiveFactor":[0.015,0.12,0.18],"name":"river","pbrMetallicRoughness":{"baseColorFactor":[0.04,0.34,0.5,1],"metallicFactor":0.18,"roughnessFactor":0.38}}],"meshes":[{"primitives":[{"attributes":{"POSITION":0},"indices":1,"material":0},{"attributes":{"POSITION":0},"indices":2,"material":1},{"attributes":{"POSITION":0},"indices":3,"material":2},{"attributes":{"POSITION":0},"indices":4,"material":3},{"attributes":{"POSITION":0},"indices":5,"material":4}]}],"nodes":[{"mesh":0,"name":"Eroded mountain watershed"},{"extensions":{"KHR_lights_punctual":{"light":0}},"name":"Mountain light","rotation":[-0.31,0.19,0.06,0.93]}],"scene":0,"scenes":[{"nodes":[0,1]}]}