{"asset":{"version":"2.0","generator":"web-geometry example generator"},"scene":0,"scenes":[{"nodes":[15]}],"nodes":[{"mesh":0},{"mesh":1},{"mesh":2},{"mesh":3},{"mesh":4,"translation":[-6.6,0.0,-6.0]},{"mesh":4,"translation":[-6.6,0.0,-2.0]},{"mesh":4,"translation":[-6.6,0.0,2.0]},{"mesh":4,"translation":[-6.6,0.0,6.0]},{"mesh":4,"translation":[6.6,0.0,-6.0]},{"mesh":4,"translation":[6.6,0.0,-2.0]},{"mesh":4,"translation":[6.6,0.0,2.0]},{"mesh":4,"translation":[6.6,0.0,6.0]},{"mesh":4,"translation":[-4.0,0.0,-6.6]},{"mesh":4,"translation":[0.0,0.0,-6.6]},{"mesh":4,"translation":[4.0,0.0,-6.6]},{"name":"courtyard","scale":[0.5,0.5,0.5],"children":[0,1,2,3,4,5,6,7,8,9,10,11,12,13,14]}],"meshes":[{"name":"floor","primitives":[{"attributes":{"POSITION":0,"NORMAL":1,"TEXCOORD_0":2},"indices":3,"material":0}]},{"name":"walls","primitives":[{"attributes":{"POSITION":4,"NORMAL":5,"TEXCOORD_0":6},"indices":7,"material":1}]},{"name":"fountain","primitives":[{"attributes":{"POSITION":8,"NORMAL":9,"TEXCOORD_0":10},"indices":11,"material":2}]},{"name":"water","primitives":[{"attributes":{"POSITION":12,"NORMAL":13},"indices":14,"material":3}]},{"name":"column","primitives":[{"attributes":{"POSITION":15,"NORMAL":16,"TEXCOORD_0":17},"indices":18,"material":2}]}],"materials":[{"name":"glazed tiles","pbrMetallicRoughness":{"baseColorFactor":[1,1,1,1.0],"metallicFactor":0.0,"roughnessFactor":0.3,"baseColorTexture":{"index":0}},"normalTexture":{"index":1}},{"name":"brick","pbrMetallicRoughness":{"baseColorFactor":[1,1,1,1.0],"metallicFactor":0.0,"roughnessFactor":0.85,"baseColorTexture":{"index":2}},"normalTexture":{"index":3}},{"name":"marble","pbrMetallicRoughness":{"baseColorFactor":[1,1,1,1.0],"metallicFactor":0.0,"roughnessFactor":0.25,"baseColorTexture":{"index":4}}},{"name":"water","pbrMetallicRoughness":{"baseColorFactor":[0.16,0.36,0.42,1.0],"metallicFactor":0.2,"roughnessFactor":0.05}}],"accessors":[{"bufferView":0,"componentType":5126,"count":24,"type":"VEC3","min":[-8.0,-0.20000000298023224,-8.0],"max":[8.0,0.0,8.0]},{"bufferView":1,"componentType":5126,"count":24,"type":"VEC3"},{"bufferView":2,"componentType":5126,"count":24,"type":"VEC2"},{"bufferView":3,"componentType":5125,"count":36,"type":"SCALAR"},{"bufferView":4,"componentType":5126,"count":72,"type":"VEC3","min":[-8.5,0.0,-8.5],"max":[8.5,4.199999809265137,8.0]},{"bufferView":5,"componentType":5126,"count":72,"type":"VEC3"},{"bufferView":6,"componentType":5126,"count":72,"type":"VEC2"},{"bufferView":7,"componentType":5125,"count":108,"type":"SCALAR"},{"bufferView":8,"componentType":5126,"count":2322,"type":"VEC3","min":[-2.700000047683716,0.0,-2.700000047683716],"max":[2.700000047683716,2.799999952316284,2.700000047683716]},{"bufferView":9,"componentType":5126,"count":2322,"type":"VEC3"},{"bufferView":10,"componentType":5126,"count":2322,"type":"VEC2"},{"bufferView":11,"componentType":5125,"count":13056,"type":"SCALAR"},{"bufferView":12,"componentType":5126,"count":97,"type":"VEC3","min":[-2.450000047683716,0.47999998927116394,-2.450000047683716],"max":[2.450000047683716,0.47999998927116394,2.450000047683716]},{"bufferView":13,"componentType":5126,"count":97,"type":"VEC3"},{"bufferView":14,"componentType":5125,"count":288,"type":"SCALAR"},{"bufferView":15,"componentType":5126,"count":490,"type":"VEC3","min":[-0.41999998688697815,0.0,-0.41999998688697815],"max":[0.41999998688697815,3.619999885559082,0.41999998688697815]},{"bufferView":16,"componentType":5126,"count":490,"type":"VEC3"},{"bufferView":17,"componentType":5126,"count":490,"type":"VEC2"},{"bufferView":18,"componentType":5125,"count":2304,"type":"SCALAR"}],"bufferViews":[{"buffer":0,"byteOffset":0,"byteLength":288,"target":34962},{"buffer":0,"byteOffset":288,"byteLength":288,"target":34962},{"buffer":0,"byteOffset":576,"byteLength":192,"target":34962},{"buffer":0,"byteOffset":768,"byteLength":144,"target":34963},{"buffer":0,"byteOffset":912,"byteLength":864,"target":34962},{"buffer":0,"byteOffset":1776,"byteLength":864,"target":34962},{"buffer":0,"byteOffset":2640,"byteLength":576,"target":34962},{"buffer":0,"byteOffset":3216,"byteLength":432,"target":34963},{"buffer":0,"byteOffset":3648,"byteLength":27864,"target":34962},{"buffer":0,"byteOffset":31512,"byteLength":27864,"target":34962},{"buffer":0,"byteOffset":59376,"byteLength":18576,"target":34962},{"buffer":0,"byteOffset":77952,"byteLength":52224,"target":34963},{"buffer":0,"byteOffset":130176,"byteLength":1164,"target":34962},{"buffer":0,"byteOffset":131340,"byteLength":1164,"target":34962},{"buffer":0,"byteOffset":132504,"byteLength":1152,"target":34963},{"buffer":0,"byteOffset":133656,"byteLength":5880,"target":34962},{"buffer":0,"byteOffset":139536,"byteLength":5880,"target":34962},{"buffer":0,"byteOffset":145416,"byteLength":3920,"target":34962},{"buffer":0,"byteOffset":149336,"byteLength":9216,"target":34963}],"buffers":[{"uri":"courtyard.bin","byteLength":158552}],"images":[{"uri":"textures/tiles.png"},{"uri":"textures/tiles-normal.png"},{"uri":"textures/bricks.png"},{"uri":"textures/bricks-normal.png"},{"uri":"textures/marble.png"}],"textures":[{"sampler":0,"source":0},{"sampler":0,"source":1},{"sampler":0,"source":2},{"sampler":0,"source":3},{"sampler":0,"source":4}],"samplers":[{"magFilter":9729,"minFilter":9987,"wrapS":10497,"wrapT":10497}]}