{"asset":{"version":"2.0","generator":"Trillion3D Solstice Court recipe v1","copyright":"Original Trillion3D contributors; repository license"},"scene":0,"scenes":[{"nodes":[0,1]}],"nodes":[{"name":"Solstice Court","mesh":0},{"name":"Late afternoon sun","rotation":[-0.3600000000000273,-0.2400000000000182,-0.10000000000000758,0.895991071384068],"extensions":{"KHR_lights_punctual":{"light":0}}}],"extensionsUsed":["KHR_lights_punctual"],"extensions":{"KHR_lights_punctual":{"lights":[{"name":"Late afternoon sun","type":"directional","color":[1,0.88,0.69],"intensity":2400}]}},"meshes":[{"name":"Original observatory masonry and instrument","primitives":[{"material":0,"attributes":{"POSITION":0,"NORMAL":1},"indices":2},{"material":1,"attributes":{"POSITION":3,"NORMAL":4},"indices":5},{"material":4,"attributes":{"POSITION":6,"NORMAL":7},"indices":8},{"material":3,"attributes":{"POSITION":9,"NORMAL":10},"indices":11},{"material":2,"attributes":{"POSITION":12,"NORMAL":13},"indices":14},{"material":5,"attributes":{"POSITION":15,"NORMAL":16},"indices":17}]}],"materials":[{"name":"Warm limestone","doubleSided":true,"pbrMetallicRoughness":{"baseColorFactor":[0.67,0.48,0.28,1],"metallicFactor":0,"roughnessFactor":0.82}},{"name":"Ivory carved stone","doubleSided":true,"pbrMetallicRoughness":{"baseColorFactor":[0.86,0.8,0.62,1],"metallicFactor":0,"roughnessFactor":0.62}},{"name":"Patinated copper","doubleSided":true,"pbrMetallicRoughness":{"baseColorFactor":[0.065,0.36,0.32,1],"metallicFactor":0.65,"roughnessFactor":0.38}},{"name":"Brushed brass","doubleSided":true,"pbrMetallicRoughness":{"baseColorFactor":[0.75,0.4,0.085,1],"metallicFactor":0.75,"roughnessFactor":0.3}},{"name":"Midnight ceramic","doubleSided":true,"pbrMetallicRoughness":{"baseColorFactor":[0.055,0.095,0.16,1],"metallicFactor":0.05,"roughnessFactor":0.5}},{"name":"Terracotta","doubleSided":true,"pbrMetallicRoughness":{"baseColorFactor":[0.58,0.16,0.075,1],"metallicFactor":0,"roughnessFactor":0.76}}],"buffers":[{"uri":"geometry.bin","byteLength":2337768}],"bufferViews":[{"buffer":0,"byteOffset":0,"byteLength":107484,"target":34962},{"buffer":0,"byteOffset":107484,"byteLength":107484,"target":34962},{"buffer":0,"byteOffset":214968,"byteLength":158688,"target":34963},{"buffer":0,"byteOffset":373656,"byteLength":255264,"target":34962},{"buffer":0,"byteOffset":628920,"byteLength":255264,"target":34962},{"buffer":0,"byteOffset":884184,"byteLength":451440,"target":34963},{"buffer":0,"byteOffset":1335624,"byteLength":576,"target":34962},{"buffer":0,"byteOffset":1336200,"byteLength":576,"target":34962},{"buffer":0,"byteOffset":1336776,"byteLength":288,"target":34963},{"buffer":0,"byteOffset":1337064,"byteLength":148464,"target":34962},{"buffer":0,"byteOffset":1485528,"byteLength":148464,"target":34962},{"buffer":0,"byteOffset":1633992,"byteLength":276480,"target":34963},{"buffer":0,"byteOffset":1910472,"byteLength":108696,"target":34962},{"buffer":0,"byteOffset":2019168,"byteLength":108696,"target":34962},{"buffer":0,"byteOffset":2127864,"byteLength":209184,"target":34963},{"buffer":0,"byteOffset":2337048,"byteLength":288,"target":34962},{"buffer":0,"byteOffset":2337336,"byteLength":288,"target":34962},{"buffer":0,"byteOffset":2337624,"byteLength":144,"target":34963}],"accessors":[{"bufferView":0,"componentType":5126,"type":"VEC3","count":8957,"min":[-12.5,-0.9,-10],"max":[12.5,7.13,10]},{"bufferView":1,"componentType":5126,"type":"VEC3","count":8957,"min":[-1,-1,-1],"max":[1,1,1]},{"bufferView":2,"componentType":5125,"type":"SCALAR","count":39672},{"bufferView":3,"componentType":5126,"type":"VEC3","count":21272,"min":[-11.9,0,-9.4],"max":[11.9,6.869999999999999,9.4]},{"bufferView":4,"componentType":5126,"type":"VEC3","count":21272,"min":[-1,-1,-1],"max":[1,1,1]},{"bufferView":5,"componentType":5125,"type":"SCALAR","count":112860},{"bufferView":6,"componentType":5126,"type":"VEC3","count":48,"min":[-4.05,0.4500000000000002,-5],"max":[3.4,3.95,3.65]},{"bufferView":7,"componentType":5126,"type":"VEC3","count":48,"min":[-1,-1,-1],"max":[1,1,1]},{"bufferView":8,"componentType":5125,"type":"SCALAR","count":72},{"bufferView":9,"componentType":5126,"type":"VEC3","count":12372,"min":[-8.52,0.67,-7.12],"max":[8.52,9.65,6.52]},{"bufferView":10,"componentType":5126,"type":"VEC3","count":12372,"min":[-1,-1,-1],"max":[1,1,1]},{"bufferView":11,"componentType":5125,"type":"SCALAR","count":69120},{"bufferView":12,"componentType":5126,"type":"VEC3","count":9058,"min":[-8.925,3.2340059661973224,-9.40875],"max":[8.925,8.9,7.65]},{"bufferView":13,"componentType":5126,"type":"VEC3","count":9058,"min":[-1,-1,-1],"max":[1,1,1]},{"bufferView":14,"componentType":5125,"type":"SCALAR","count":52296},{"bufferView":15,"componentType":5126,"type":"VEC3","count":24,"min":[5.5,0.09999999999999987,-9],"max":[9.5,2.3,-6]},{"bufferView":16,"componentType":5126,"type":"VEC3","count":24,"min":[-1,-1,-1],"max":[1,1,1]},{"bufferView":17,"componentType":5125,"type":"SCALAR","count":36}]}