{"accessors":[{"bufferView":0,"componentType":5126,"count":3,"max":[0,0,0],"min":[0,0,0],"type":"VEC3"},{"bufferView":1,"componentType":5123,"count":3,"type":"SCALAR"}],"asset":{"copyright":"trillion3D contributors; repository license","generator":"trillion3D original procedural garden v1","version":"2.0"},"bufferViews":[{"buffer":0,"byteLength":36,"byteOffset":0},{"buffer":0,"byteLength":6,"byteOffset":36}],"buffers":[{"byteLength":44,"uri":"scene.bin"}],"extensions":{"KHR_lights_punctual":{"lights":[{"color":[1,0.94,0.86],"intensity":2400,"name":"Garden-sun","type":"directional"}]}},"extensionsUsed":["KHR_lights_punctual"],"materials":[{"doubleSided":true,"name":"Jade","pbrMetallicRoughness":{"baseColorFactor":[0.1,0.65,0.57,1],"metallicFactor":0.15,"roughnessFactor":0.4}},{"doubleSided":true,"name":"Iris","pbrMetallicRoughness":{"baseColorFactor":[0.36,0.34,0.85,1],"metallicFactor":0.15,"roughnessFactor":0.4}},{"doubleSided":true,"name":"Amber","pbrMetallicRoughness":{"baseColorFactor":[0.96,0.54,0.24,1],"metallicFactor":0.15,"roughnessFactor":0.4}},{"doubleSided":true,"name":"Slate","pbrMetallicRoughness":{"baseColorFactor":[0.12,0.17,0.24,1],"metallicFactor":0.15,"roughnessFactor":0.4}}],"meshes":[{"name":"Ring-1","primitives":[{"attributes":{"POSITION":0},"indices":1,"material":0,"mode":4}]},{"name":"Ring-2","primitives":[{"attributes":{"POSITION":0},"indices":1,"material":1,"mode":4}]},{"name":"Ring-3","primitives":[{"attributes":{"POSITION":0},"indices":1,"material":2,"mode":4}]},{"name":"Ring-4","primitives":[{"attributes":{"POSITION":0},"indices":1,"material":0,"mode":4}]},{"name":"Ring-5","primitives":[{"attributes":{"POSITION":0},"indices":1,"material":1,"mode":4}]},{"name":"Ring-6","primitives":[{"attributes":{"POSITION":0},"indices":1,"material":2,"mode":4}]},{"name":"Ring-7","primitives":[{"attributes":{"POSITION":0},"indices":1,"material":0,"mode":4}]},{"name":"Ring-8","primitives":[{"attributes":{"POSITION":0},"indices":1,"material":1,"mode":4}]},{"name":"Ring-9","primitives":[{"attributes":{"POSITION":0},"indices":1,"material":2,"mode":4}]},{"name":"Wave-plinth","primitives":[{"attributes":{"POSITION":0},"indices":1,"material":3,"mode":4}]}],"nodes":[{"mesh":0,"name":"Ring-1"},{"mesh":1,"name":"Ring-2"},{"mesh":2,"name":"Ring-3"},{"mesh":3,"name":"Ring-4"},{"mesh":4,"name":"Ring-5"},{"mesh":5,"name":"Ring-6"},{"mesh":6,"name":"Ring-7"},{"mesh":7,"name":"Ring-8"},{"mesh":8,"name":"Ring-9"},{"mesh":9,"name":"Wave-plinth"},{"extensions":{"KHR_lights_punctual":{"light":0}},"name":"Garden-sun","rotation":[-0.3826834323650898,0,0,0.9238795325112868]}],"scene":0,"scenes":[{"nodes":[0,1,2,3,4,5,6,7,8,9,10]}]}