{"accessors":[{"bufferView":0,"componentType":5125,"count":9216,"max":[9215],"min":[0],"type":"SCALAR"},{"bufferView":1,"componentType":5126,"count":9216,"max":[-2.04,2.6100000000000003,-2.96],"min":[-4.36,0.2899999999999998,-3.4400000000000004],"type":"VEC3"},{"bufferView":2,"componentType":5126,"count":9216,"max":[0.9999999013039635,0.9999999013039635,0.999999950651973],"min":[-0.9999999013039634,-0.9999999013039635,-0.999999950651973],"type":"VEC3"},{"bufferView":3,"componentType":5125,"count":9216,"max":[9215],"min":[0],"type":"SCALAR"},{"bufferView":4,"componentType":5126,"count":9216,"max":[1.16,2.6100000000000003,-2.96],"min":[-1.16,0.2899999999999998,-3.4400000000000004],"type":"VEC3"},{"bufferView":5,"componentType":5126,"count":9216,"max":[0.999999901303964,0.9999999013039635,0.999999950651973],"min":[-0.999999901303964,-0.9999999013039635,-0.999999950651973],"type":"VEC3"},{"bufferView":6,"componentType":5125,"count":9216,"max":[9215],"min":[0],"type":"SCALAR"},{"bufferView":7,"componentType":5126,"count":9216,"max":[4.36,2.6100000000000003,-2.96],"min":[2.04,0.2899999999999998,-3.4400000000000004],"type":"VEC3"},{"bufferView":8,"componentType":5126,"count":9216,"max":[0.9999999013039634,0.9999999013039635,0.999999950651973],"min":[-0.9999999013039635,-0.9999999013039635,-0.999999950651973],"type":"VEC3"},{"bufferView":9,"componentType":5125,"count":9216,"max":[9215],"min":[0],"type":"SCALAR"},{"bufferView":10,"componentType":5126,"count":9216,"max":[-2.04,2.6100000000000003,0.24],"min":[-4.36,0.2899999999999998,-0.24],"type":"VEC3"},{"bufferView":11,"componentType":5126,"count":9216,"max":[0.9999999013039635,0.9999999013039635,0.9999999506519734],"min":[-0.9999999013039634,-0.9999999013039635,-0.9999999506519734],"type":"VEC3"},{"bufferView":12,"componentType":5125,"count":9216,"max":[9215],"min":[0],"type":"SCALAR"},{"bufferView":13,"componentType":5126,"count":9216,"max":[1.16,2.6100000000000003,0.24],"min":[-1.16,0.2899999999999998,-0.24],"type":"VEC3"},{"bufferView":14,"componentType":5126,"count":9216,"max":[0.999999901303964,0.9999999013039635,0.9999999506519734],"min":[-0.999999901303964,-0.9999999013039635,-0.9999999506519734],"type":"VEC3"},{"bufferView":15,"componentType":5125,"count":9216,"max":[9215],"min":[0],"type":"SCALAR"},{"bufferView":16,"componentType":5126,"count":9216,"max":[4.36,2.6100000000000003,0.24],"min":[2.04,0.2899999999999998,-0.24],"type":"VEC3"},{"bufferView":17,"componentType":5126,"count":9216,"max":[0.9999999013039634,0.9999999013039635,0.9999999506519734],"min":[-0.9999999013039635,-0.9999999013039635,-0.9999999506519734],"type":"VEC3"},{"bufferView":18,"componentType":5125,"count":9216,"max":[9215],"min":[0],"type":"SCALAR"},{"bufferView":19,"componentType":5126,"count":9216,"max":[-2.04,2.6100000000000003,3.4400000000000004],"min":[-4.36,0.2899999999999998,2.96],"type":"VEC3"},{"bufferView":20,"componentType":5126,"count":9216,"max":[0.9999999013039635,0.9999999013039635,0.999999950651973],"min":[-0.9999999013039634,-0.9999999013039635,-0.999999950651973],"type":"VEC3"},{"bufferView":21,"componentType":5125,"count":9216,"max":[9215],"min":[0],"type":"SCALAR"},{"bufferView":22,"componentType":5126,"count":9216,"max":[1.16,2.6100000000000003,3.4400000000000004],"min":[-1.16,0.2899999999999998,2.96],"type":"VEC3"},{"bufferView":23,"componentType":5126,"count":9216,"max":[0.999999901303964,0.9999999013039635,0.999999950651973],"min":[-0.999999901303964,-0.9999999013039635,-0.999999950651973],"type":"VEC3"},{"bufferView":24,"componentType":5125,"count":9216,"max":[9215],"min":[0],"type":"SCALAR"},{"bufferView":25,"componentType":5126,"count":9216,"max":[4.36,2.6100000000000003,3.4400000000000004],"min":[2.04,0.2899999999999998,2.96],"type":"VEC3"},{"bufferView":26,"componentType":5126,"count":9216,"max":[0.9999999013039634,0.9999999013039635,0.999999950651973],"min":[-0.9999999013039635,-0.9999999013039635,-0.999999950651973],"type":"VEC3"},{"bufferView":27,"componentType":5125,"count":24576,"max":[24575],"min":[0],"type":"SCALAR"},{"bufferView":28,"componentType":5126,"count":24576,"max":[6,-0.020009256560176863,6],"min":[-6,-0.17997522282529788,-6],"type":"VEC3"},{"bufferView":29,"componentType":5126,"count":24576,"max":[0.19606791311057273,0.9999953720336852,0.19611585227850245],"min":[-0.1960426722677181,0.980580732262814,-0.19596424119173897],"type":"VEC3"}],"asset":{"copyright":"trillion3D contributors; repository license","generator":"trillion3D original procedural garden v1","version":"2.0"},"bufferViews":[{"buffer":0,"byteLength":36864,"byteOffset":0,"target":34963},{"buffer":0,"byteLength":110592,"byteOffset":36864,"target":34962},{"buffer":0,"byteLength":110592,"byteOffset":147456,"target":34962},{"buffer":0,"byteLength":36864,"byteOffset":258048,"target":34963},{"buffer":0,"byteLength":110592,"byteOffset":294912,"target":34962},{"buffer":0,"byteLength":110592,"byteOffset":405504,"target":34962},{"buffer":0,"byteLength":36864,"byteOffset":516096,"target":34963},{"buffer":0,"byteLength":110592,"byteOffset":552960,"target":34962},{"buffer":0,"byteLength":110592,"byteOffset":663552,"target":34962},{"buffer":0,"byteLength":36864,"byteOffset":774144,"target":34963},{"buffer":0,"byteLength":110592,"byteOffset":811008,"target":34962},{"buffer":0,"byteLength":110592,"byteOffset":921600,"target":34962},{"buffer":0,"byteLength":36864,"byteOffset":1032192,"target":34963},{"buffer":0,"byteLength":110592,"byteOffset":1069056,"target":34962},{"buffer":0,"byteLength":110592,"byteOffset":1179648,"target":34962},{"buffer":0,"byteLength":36864,"byteOffset":1290240,"target":34963},{"buffer":0,"byteLength":110592,"byteOffset":1327104,"target":34962},{"buffer":0,"byteLength":110592,"byteOffset":1437696,"target":34962},{"buffer":0,"byteLength":36864,"byteOffset":1548288,"target":34963},{"buffer":0,"byteLength":110592,"byteOffset":1585152,"target":34962},{"buffer":0,"byteLength":110592,"byteOffset":1695744,"target":34962},{"buffer":0,"byteLength":36864,"byteOffset":1806336,"target":34963},{"buffer":0,"byteLength":110592,"byteOffset":1843200,"target":34962},{"buffer":0,"byteLength":110592,"byteOffset":1953792,"target":34962},{"buffer":0,"byteLength":36864,"byteOffset":2064384,"target":34963},{"buffer":0,"byteLength":110592,"byteOffset":2101248,"target":34962},{"buffer":0,"byteLength":110592,"byteOffset":2211840,"target":34962},{"buffer":0,"byteLength":98304,"byteOffset":2322432,"target":34963},{"buffer":0,"byteLength":294912,"byteOffset":2420736,"target":34962},{"buffer":0,"byteLength":294912,"byteOffset":2715648,"target":34962}],"buffers":[{"byteLength":3010560,"uri":"source.bin"}],"extensions":{"KHR_lights_punctual":{"lights":[{"color":[1,0.94,0.86],"intensity":2400,"name":"Garden-sun","type":"directional"}]}},"extensionsUsed":["KHR_lights_punctual"],"materials":[{"doubleSided":true,"name":"Jade","pbrMetallicRoughness":{"baseColorFactor":[0.1,0.65,0.57,1],"metallicFactor":0.15,"roughnessFactor":0.4}},{"doubleSided":true,"name":"Iris","pbrMetallicRoughness":{"baseColorFactor":[0.36,0.34,0.85,1],"metallicFactor":0.15,"roughnessFactor":0.4}},{"doubleSided":true,"name":"Amber","pbrMetallicRoughness":{"baseColorFactor":[0.96,0.54,0.24,1],"metallicFactor":0.15,"roughnessFactor":0.4}},{"doubleSided":true,"name":"Slate","pbrMetallicRoughness":{"baseColorFactor":[0.12,0.17,0.24,1],"metallicFactor":0.15,"roughnessFactor":0.4}}],"meshes":[{"name":"Ring-1","primitives":[{"attributes":{"NORMAL":2,"POSITION":1},"indices":0,"material":0}]},{"name":"Ring-2","primitives":[{"attributes":{"NORMAL":5,"POSITION":4},"indices":3,"material":1}]},{"name":"Ring-3","primitives":[{"attributes":{"NORMAL":8,"POSITION":7},"indices":6,"material":2}]},{"name":"Ring-4","primitives":[{"attributes":{"NORMAL":11,"POSITION":10},"indices":9,"material":0}]},{"name":"Ring-5","primitives":[{"attributes":{"NORMAL":14,"POSITION":13},"indices":12,"material":1}]},{"name":"Ring-6","primitives":[{"attributes":{"NORMAL":17,"POSITION":16},"indices":15,"material":2}]},{"name":"Ring-7","primitives":[{"attributes":{"NORMAL":20,"POSITION":19},"indices":18,"material":0}]},{"name":"Ring-8","primitives":[{"attributes":{"NORMAL":23,"POSITION":22},"indices":21,"material":1}]},{"name":"Ring-9","primitives":[{"attributes":{"NORMAL":26,"POSITION":25},"indices":24,"material":2}]},{"name":"Wave-plinth","primitives":[{"attributes":{"NORMAL":29,"POSITION":28},"indices":27,"material":3}]}],"nodes":[{"mesh":0,"name":"Ring-1"},{"mesh":1,"name":"Ring-2"},{"mesh":2,"name":"Ring-3"},{"mesh":3,"name":"Ring-4"},{"mesh":4,"name":"Ring-5"},{"mesh":5,"name":"Ring-6"},{"mesh":6,"name":"Ring-7"},{"mesh":7,"name":"Ring-8"},{"mesh":8,"name":"Ring-9"},{"mesh":9,"name":"Wave-plinth"},{"extensions":{"KHR_lights_punctual":{"light":0}},"name":"Garden-sun","rotation":[-0.3826834323650898,0,0,0.9238795325112868]}],"scene":0,"scenes":[{"nodes":[0,1,2,3,4,5,6,7,8,9,10]}]}