{"asset":{"version":"2.0","generator":"Web Geometry examples recipe v1","copyright":"Original Web Geometry contributors; repository license"},"scene":0,"scenes":[{"name":"Brick wall","nodes":[0]}],"nodes":[{"name":"scene","mesh":0}],"meshes":[{"name":"scene","primitives":[{"material":1,"attributes":{"POSITION":0,"NORMAL":1,"TEXCOORD_0":2},"indices":3},{"material":0,"attributes":{"POSITION":4,"NORMAL":5,"TEXCOORD_0":6},"indices":7}]}],"materials":[{"name":"Concrete","doubleSided":true,"pbrMetallicRoughness":{"baseColorFactor":[0.5,0.5,0.48,1],"metallicFactor":0,"roughnessFactor":0.9}},{"name":"Brick","doubleSided":true,"pbrMetallicRoughness":{"baseColorFactor":[0.62,0.3,0.22,1],"metallicFactor":0,"roughnessFactor":0.85},"normalTexture":{"index":0,"scale":1}}],"buffers":[{"uri":"scene.bin","byteLength":1976}],"bufferViews":[{"buffer":0,"byteOffset":0,"byteLength":48,"target":34962},{"buffer":0,"byteOffset":48,"byteLength":48,"target":34962},{"buffer":0,"byteOffset":96,"byteLength":32,"target":34962},{"buffer":0,"byteOffset":128,"byteLength":24,"target":34963},{"buffer":0,"byteOffset":152,"byteLength":576,"target":34962},{"buffer":0,"byteOffset":728,"byteLength":576,"target":34962},{"buffer":0,"byteOffset":1304,"byteLength":384,"target":34962},{"buffer":0,"byteOffset":1688,"byteLength":288,"target":34963}],"accessors":[{"bufferView":0,"componentType":5126,"type":"VEC3","count":4,"min":[-3,0,0],"max":[3,3,0]},{"bufferView":1,"componentType":5126,"type":"VEC3","count":4,"min":[0,0,1],"max":[0,0,1]},{"bufferView":2,"componentType":5126,"type":"VEC2","count":4,"min":[0,0],"max":[1,1]},{"bufferView":3,"componentType":5125,"type":"SCALAR","count":6},{"bufferView":4,"componentType":5126,"type":"VEC3","count":48,"min":[-3.5,-0.2,-0.35],"max":[3.5,3.2,3]},{"bufferView":5,"componentType":5126,"type":"VEC3","count":48,"min":[-1,-1,-1],"max":[1,1,1]},{"bufferView":6,"componentType":5126,"type":"VEC2","count":48,"min":[0,0],"max":[1,1]},{"bufferView":7,"componentType":5125,"type":"SCALAR","count":72}],"images":[{"uri":"bricks-normal.png"}],"textures":[{"source":0}]}