{"accessors":[{"bufferView":0,"componentType":5126,"count":94,"max":[1.45,1,0.2063565154962635],"min":[0.19796428837618657,-0.18,-0.2063565154962635],"type":"VEC3"},{"bufferView":1,"componentType":5126,"count":94,"max":[1,1,1],"min":[-1,-1,-1],"type":"VEC3"},{"bufferView":2,"componentType":5125,"count":216,"type":"SCALAR"},{"bufferView":3,"componentType":5126,"count":220,"max":[3,7.2,3],"min":[-3,-0.3,-3],"type":"VEC3"},{"bufferView":4,"componentType":5126,"count":220,"max":[1,1,1],"min":[-1,-1,-1],"type":"VEC3"},{"bufferView":5,"componentType":5125,"count":900,"type":"SCALAR"}],"asset":{"copyright":"Original Web Geometry contributors; repository license","generator":"Web Geometry examples recipe v1","version":"2.0"},"bufferViews":[{"buffer":0,"byteLength":1128,"byteOffset":0,"target":34962},{"buffer":0,"byteLength":1128,"byteOffset":1128,"target":34962},{"buffer":0,"byteLength":864,"byteOffset":2256,"target":34963},{"buffer":0,"byteLength":2640,"byteOffset":3120,"target":34962},{"buffer":0,"byteLength":2640,"byteOffset":5760,"target":34962},{"buffer":0,"byteLength":3600,"byteOffset":8400,"target":34963}],"buffers":[{"byteLength":12000,"uri":"source.bin"}],"materials":[{"doubleSided":true,"name":"Oak step","pbrMetallicRoughness":{"baseColorFactor":[0.6,0.42,0.24,1],"metallicFactor":0,"roughnessFactor":0.65}},{"doubleSided":true,"name":"Plaster column","pbrMetallicRoughness":{"baseColorFactor":[0.8,0.78,0.72,1],"metallicFactor":0,"roughnessFactor":0.85}}],"meshes":[{"name":"step","primitives":[{"attributes":{"NORMAL":1,"POSITION":0},"indices":2,"material":0}]},{"name":"column","primitives":[{"attributes":{"NORMAL":4,"POSITION":3},"indices":5,"material":1}]}],"nodes":[{"mesh":1,"name":"column"},{"mesh":0,"name":"step-0","rotation":[0,0,0,1],"translation":[0,0.18,0]},{"mesh":0,"name":"step-1","rotation":[0,0.1423,0,0.9898],"translation":[0,0.36,0]},{"mesh":0,"name":"step-2","rotation":[0,0.2817,0,0.9595],"translation":[0,0.54,0]},{"mesh":0,"name":"step-3","rotation":[0,0.4154,0,0.9096],"translation":[0,0.72,0]},{"mesh":0,"name":"step-4","rotation":[0,0.5406,0,0.8413],"translation":[0,0.9,0]},{"mesh":0,"name":"step-5","rotation":[0,0.6549,0,0.7557],"translation":[0,1.08,0]},{"mesh":0,"name":"step-6","rotation":[0,0.7557,0,0.6549],"translation":[0,1.26,0]},{"mesh":0,"name":"step-7","rotation":[0,0.8413,0,0.5406],"translation":[0,1.44,0]},{"mesh":0,"name":"step-8","rotation":[0,0.9096,0,0.4154],"translation":[0,1.62,0]},{"mesh":0,"name":"step-9","rotation":[0,0.9595,0,0.2817],"translation":[0,1.8,0]},{"mesh":0,"name":"step-10","rotation":[0,0.9898,0,0.1423],"translation":[0,1.98,0]},{"mesh":0,"name":"step-11","rotation":[0,1,0,0],"translation":[0,2.16,0]},{"mesh":0,"name":"step-12","rotation":[0,0.9898,0,-0.1423],"translation":[0,2.34,0]},{"mesh":0,"name":"step-13","rotation":[0,0.9595,0,-0.2817],"translation":[0,2.52,0]},{"mesh":0,"name":"step-14","rotation":[0,0.9096,0,-0.4154],"translation":[0,2.7,0]},{"mesh":0,"name":"step-15","rotation":[0,0.8413,0,-0.5406],"translation":[0,2.88,0]},{"mesh":0,"name":"step-16","rotation":[0,0.7557,0,-0.6549],"translation":[0,3.06,0]},{"mesh":0,"name":"step-17","rotation":[0,0.6549,0,-0.7557],"translation":[0,3.24,0]},{"mesh":0,"name":"step-18","rotation":[0,0.5406,0,-0.8413],"translation":[0,3.42,0]},{"mesh":0,"name":"step-19","rotation":[0,0.4154,0,-0.9096],"translation":[0,3.6,0]},{"mesh":0,"name":"step-20","rotation":[0,0.2817,0,-0.9595],"translation":[0,3.78,0]},{"mesh":0,"name":"step-21","rotation":[0,0.1423,0,-0.9898],"translation":[0,3.96,0]},{"mesh":0,"name":"step-22","rotation":[0,0,0,-1],"translation":[0,4.14,0]},{"mesh":0,"name":"step-23","rotation":[0,-0.1423,0,-0.9898],"translation":[0,4.32,0]},{"mesh":0,"name":"step-24","rotation":[0,-0.2817,0,-0.9595],"translation":[0,4.5,0]},{"mesh":0,"name":"step-25","rotation":[0,-0.4154,0,-0.9096],"translation":[0,4.68,0]},{"mesh":0,"name":"step-26","rotation":[0,-0.5406,0,-0.8413],"translation":[0,4.86,0]},{"mesh":0,"name":"step-27","rotation":[0,-0.6549,0,-0.7557],"translation":[0,5.04,0]},{"mesh":0,"name":"step-28","rotation":[0,-0.7557,0,-0.6549],"translation":[0,5.22,0]},{"mesh":0,"name":"step-29","rotation":[0,-0.8413,0,-0.5406],"translation":[0,5.4,0]},{"mesh":0,"name":"step-30","rotation":[0,-0.9096,0,-0.4154],"translation":[0,5.58,0]},{"mesh":0,"name":"step-31","rotation":[0,-0.9595,0,-0.2817],"translation":[0,5.76,0]},{"mesh":0,"name":"step-32","rotation":[0,-0.9898,0,-0.1423],"translation":[0,5.94,0]},{"mesh":0,"name":"step-33","rotation":[0,-1,0,0],"translation":[0,6.12,0]},{"mesh":0,"name":"step-34","rotation":[0,-0.9898,0,0.1423],"translation":[0,6.3,0]},{"mesh":0,"name":"step-35","rotation":[0,-0.9595,0,0.2817],"translation":[0,6.48,0]}],"scene":0,"scenes":[{"name":"Spiral staircase","nodes":[0,1,2,3,4,5,6,7,8,9,10,11,12,13,14,15,16,17,18,19,20,21,22,23,24,25,26,27,28,29,30,31,32,33,34,35,36]}]}