{"accessors":[{"bufferView":0,"componentType":5126,"count":4225,"max":[64,20.13671875,64],"min":[-64,-2.17578125,-64],"type":"VEC3"},{"bufferView":1,"componentType":5126,"count":4225,"max":[0.5164367911035959,0.9999989790804448,0.5220574591434733],"min":[-0.4776955082549044,0.7696626228031852,-0.5307319739863112],"type":"VEC3"},{"bufferView":2,"componentType":5126,"count":4225,"max":[8,8],"min":[0,0],"type":"VEC2"},{"bufferView":3,"componentType":5125,"count":24576,"type":"SCALAR"},{"bufferView":4,"componentType":5126,"count":642,"max":[-9.233505249023438,7.47038459777832,11.210379600524902],"min":[-15.43151569366455,0.8792324066162109,4.789620399475098],"type":"VEC3"},{"bufferView":5,"componentType":5126,"count":642,"max":[0.9996982834364028,0.9800048557752398,0.9996473183478236],"min":[-0.996569205076596,-0.9962548466362068,-0.9996473183478236],"type":"VEC3"},{"bufferView":6,"componentType":5125,"count":3840,"type":"SCALAR"},{"bufferView":7,"componentType":5126,"count":642,"max":[13.68865966796875,8.458707809448242,-9.719493865966797],"min":[5.42464542388916,-0.3294954299926758,-18.280506134033203],"type":"VEC3"},{"bufferView":8,"componentType":5126,"count":642,"max":[0.9996982834364028,0.9800048557752398,0.9996473183478236],"min":[-0.996569205076596,-0.9962548466362068,-0.9996473183478236],"type":"VEC3"},{"bufferView":9,"componentType":5125,"count":3840,"type":"SCALAR"},{"bufferView":10,"componentType":5126,"count":642,"max":[20.30541229248047,5.561614036560059,18.675315856933594],"min":[15.140403747558594,0.06898689270019531,13.324684143066406],"type":"VEC3"},{"bufferView":11,"componentType":5126,"count":642,"max":[0.9996982834364028,0.9800048557752398,0.9996473183478236],"min":[-0.996569205076596,-0.9962548466362068,-0.9996473183478236],"type":"VEC3"},{"bufferView":12,"componentType":5125,"count":3840,"type":"SCALAR"}],"asset":{"copyright":"CC0 1.0","generator":"Trillion3D example writer","version":"2.0"},"bufferViews":[{"buffer":0,"byteLength":50700,"byteOffset":0,"target":34962},{"buffer":0,"byteLength":50700,"byteOffset":50700,"target":34962},{"buffer":0,"byteLength":33800,"byteOffset":101400,"target":34962},{"buffer":0,"byteLength":98304,"byteOffset":135200,"target":34963},{"buffer":0,"byteLength":7704,"byteOffset":233504,"target":34962},{"buffer":0,"byteLength":7704,"byteOffset":241208,"target":34962},{"buffer":0,"byteLength":15360,"byteOffset":248912,"target":34963},{"buffer":0,"byteLength":7704,"byteOffset":264272,"target":34962},{"buffer":0,"byteLength":7704,"byteOffset":271976,"target":34962},{"buffer":0,"byteLength":15360,"byteOffset":279680,"target":34963},{"buffer":0,"byteLength":7704,"byteOffset":295040,"target":34962},{"buffer":0,"byteLength":7704,"byteOffset":302744,"target":34962},{"buffer":0,"byteLength":15360,"byteOffset":310448,"target":34963}],"buffers":[{"byteLength":325808,"uri":"source.bin"}],"materials":[{"name":"grass","pbrMetallicRoughness":{"baseColorFactor":[0.33,0.47,0.24,1],"metallicFactor":0,"roughnessFactor":0.9}},{"name":"stone","pbrMetallicRoughness":{"baseColorFactor":[0.52,0.5,0.47,1],"metallicFactor":0,"roughnessFactor":0.8}}],"meshes":[{"name":"valley","primitives":[{"attributes":{"NORMAL":1,"POSITION":0,"TEXCOORD_0":2},"indices":3,"material":0}]},{"name":"boulder","primitives":[{"attributes":{"NORMAL":5,"POSITION":4},"indices":6,"material":1}]},{"name":"boulder","primitives":[{"attributes":{"NORMAL":8,"POSITION":7},"indices":9,"material":1}]},{"name":"boulder","primitives":[{"attributes":{"NORMAL":11,"POSITION":10},"indices":12,"material":1}]}],"nodes":[{"mesh":0,"name":"valley"},{"mesh":1,"name":"boulder"},{"mesh":2,"name":"boulder"},{"mesh":3,"name":"boulder"},{"children":[0,1,2,3],"name":"terrain"}],"scene":0,"scenes":[{"nodes":[4]}]}