{"accessors":[{"bufferView":0,"componentType":5126,"count":24,"max":[4,0,4],"min":[-4,-0.3,-4],"type":"VEC3"},{"bufferView":1,"componentType":5126,"count":24,"max":[1,1,1],"min":[-1,-1,-1],"type":"VEC3"},{"bufferView":2,"componentType":5125,"count":36,"type":"SCALAR"},{"bufferView":3,"componentType":5126,"count":561,"max":[-1.3000000000000005,1.8,0.09999999999999998],"min":[-3.1,0,-1.7000000000000002],"type":"VEC3"},{"bufferView":4,"componentType":5126,"count":561,"max":[0.99999999938315,0.9807822157924774,0.9999999993831497],"min":[-0.99999999938315,-0.9807883447364294,-0.9999999993831497],"type":"VEC3"},{"bufferView":5,"componentType":5125,"count":3072,"type":"SCALAR"},{"bufferView":6,"componentType":5126,"count":196,"max":[1,1.8,-1],"min":[-0.19999999999999996,0,-2.2],"type":"VEC3"},{"bufferView":7,"componentType":5126,"count":196,"max":[0.9999999995065196,0,0.9999999995065196],"min":[-0.9999999995065196,-1,-0.9999999995065196],"type":"VEC3"},{"bufferView":8,"componentType":5125,"count":864,"type":"SCALAR"},{"bufferView":9,"componentType":5126,"count":196,"max":[3.0999999999999996,2,1],"min":[1.4999999999999998,0,-0.6000000000000001],"type":"VEC3"},{"bufferView":10,"componentType":5126,"count":196,"max":[0.9284766904900356,0,0.9284766904900352],"min":[-0.9284766904912204,-0.3713906762015002,-0.9284766904900356],"type":"VEC3"},{"bufferView":11,"componentType":5125,"count":864,"type":"SCALAR"},{"bufferView":12,"componentType":5126,"count":1029,"max":[0.62,0.6699999999999999,2.8200000000000003],"min":[-1.82,0.02999999999999997,0.3800000000000001],"type":"VEC3"},{"bufferView":13,"componentType":5126,"count":1029,"max":[0.9999999990130402,0.99999999950652,0.99999999901304],"min":[-0.99999999901304,-0.99999999950652,-0.9999999990130396],"type":"VEC3"},{"bufferView":14,"componentType":5125,"count":5760,"type":"SCALAR"},{"bufferView":15,"componentType":5126,"count":24,"max":[2.45,1.1,2.75],"min":[1.35,0,1.65],"type":"VEC3"},{"bufferView":16,"componentType":5126,"count":24,"max":[1,1,1],"min":[-1,-1,-1],"type":"VEC3"},{"bufferView":17,"componentType":5125,"count":36,"type":"SCALAR"}],"asset":{"copyright":"Original Web Geometry contributors; repository license","generator":"Web Geometry examples recipe v1","version":"2.0"},"bufferViews":[{"buffer":0,"byteLength":288,"byteOffset":0,"target":34962},{"buffer":0,"byteLength":288,"byteOffset":288,"target":34962},{"buffer":0,"byteLength":144,"byteOffset":576,"target":34963},{"buffer":0,"byteLength":6732,"byteOffset":720,"target":34962},{"buffer":0,"byteLength":6732,"byteOffset":7452,"target":34962},{"buffer":0,"byteLength":12288,"byteOffset":14184,"target":34963},{"buffer":0,"byteLength":2352,"byteOffset":26472,"target":34962},{"buffer":0,"byteLength":2352,"byteOffset":28824,"target":34962},{"buffer":0,"byteLength":3456,"byteOffset":31176,"target":34963},{"buffer":0,"byteLength":2352,"byteOffset":34632,"target":34962},{"buffer":0,"byteLength":2352,"byteOffset":36984,"target":34962},{"buffer":0,"byteLength":3456,"byteOffset":39336,"target":34963},{"buffer":0,"byteLength":12348,"byteOffset":42792,"target":34962},{"buffer":0,"byteLength":12348,"byteOffset":55140,"target":34962},{"buffer":0,"byteLength":23040,"byteOffset":67488,"target":34963},{"buffer":0,"byteLength":288,"byteOffset":90528,"target":34962},{"buffer":0,"byteLength":288,"byteOffset":90816,"target":34962},{"buffer":0,"byteLength":144,"byteOffset":91104,"target":34963}],"buffers":[{"byteLength":91248,"uri":"source.bin"}],"materials":[{"doubleSided":true,"name":"Slate slab","pbrMetallicRoughness":{"baseColorFactor":[0.22,0.24,0.27,1],"metallicFactor":0,"roughnessFactor":0.85}},{"doubleSided":true,"name":"Ivory sphere","pbrMetallicRoughness":{"baseColorFactor":[0.9,0.86,0.76,1],"metallicFactor":0,"roughnessFactor":0.4}},{"doubleSided":true,"name":"Teal cylinder","pbrMetallicRoughness":{"baseColorFactor":[0.1,0.55,0.5,1],"metallicFactor":0.2,"roughnessFactor":0.5}},{"doubleSided":true,"name":"Ochre cone","pbrMetallicRoughness":{"baseColorFactor":[0.8,0.55,0.15,1],"metallicFactor":0,"roughnessFactor":0.6}},{"doubleSided":true,"name":"Brass torus","pbrMetallicRoughness":{"baseColorFactor":[0.8,0.6,0.25,1],"metallicFactor":0.9,"roughnessFactor":0.3}},{"doubleSided":true,"name":"Plum box","pbrMetallicRoughness":{"baseColorFactor":[0.4,0.15,0.35,1],"metallicFactor":0,"roughnessFactor":0.7}}],"meshes":[{"name":"Still life of primitives","primitives":[{"attributes":{"NORMAL":1,"POSITION":0},"indices":2,"material":0},{"attributes":{"NORMAL":4,"POSITION":3},"indices":5,"material":1},{"attributes":{"NORMAL":7,"POSITION":6},"indices":8,"material":2},{"attributes":{"NORMAL":10,"POSITION":9},"indices":11,"material":3},{"attributes":{"NORMAL":13,"POSITION":12},"indices":14,"material":4},{"attributes":{"NORMAL":16,"POSITION":15},"indices":17,"material":5}]}],"nodes":[{"mesh":0,"name":"Still life of primitives"}],"scene":0,"scenes":[{"nodes":[0]}]}