{"asset":{"version":"2.0","generator":"Web Geometry examples recipe v1","copyright":"Original Web Geometry contributors; repository license"},"scene":0,"scenes":[{"nodes":[0]}],"nodes":[{"name":"Cube on its corner","mesh":0}],"meshes":[{"name":"Cube on its corner","primitives":[{"material":0,"attributes":{"POSITION":0,"NORMAL":1},"indices":2},{"material":1,"attributes":{"POSITION":3,"NORMAL":4},"indices":5}]}],"materials":[{"name":"Slate slab","doubleSided":true,"pbrMetallicRoughness":{"baseColorFactor":[0.22,0.24,0.27,1],"metallicFactor":0,"roughnessFactor":0.85}},{"name":"Coral enamel","doubleSided":true,"pbrMetallicRoughness":{"baseColorFactor":[0.85,0.28,0.2,1],"metallicFactor":0.1,"roughnessFactor":0.35}}],"buffers":[{"uri":"geometry.bin","byteLength":1440}],"bufferViews":[{"buffer":0,"byteOffset":0,"byteLength":288,"target":34962},{"buffer":0,"byteOffset":288,"byteLength":288,"target":34962},{"buffer":0,"byteOffset":576,"byteLength":144,"target":34963},{"buffer":0,"byteOffset":720,"byteLength":288,"target":34962},{"buffer":0,"byteOffset":1008,"byteLength":288,"target":34962},{"buffer":0,"byteOffset":1296,"byteLength":144,"target":34963}],"accessors":[{"bufferView":0,"componentType":5126,"type":"VEC3","count":24,"min":[-3,-0.3,-3],"max":[3,0,3]},{"bufferView":1,"componentType":5126,"type":"VEC3","count":24,"min":[-1,-1,-1],"max":[1,1,1]},{"bufferView":2,"componentType":5125,"type":"SCALAR","count":36},{"bufferView":3,"componentType":5126,"type":"VEC3","count":24,"min":[-1.131370849898476,-3.3306690738754696e-16,-1.3063945294843617],"max":[1.131370849898476,2.771281292110204,1.3063945294843617]},{"bufferView":4,"componentType":5126,"type":"VEC3","count":24,"min":[-0.7071067811885442,-0.5773502691915996,-0.8164965809273127],"max":[0.7071067811885442,0.5773502692020079,0.8164965809273127]},{"bufferView":5,"componentType":5125,"type":"SCALAR","count":36}]}