{"accessors":[{"bufferView":0,"componentType":5126,"count":24,"max":[3,0,3],"min":[-3,-0.3,-3],"type":"VEC3"},{"bufferView":1,"componentType":5126,"count":24,"max":[1,1,1],"min":[-1,-1,-1],"type":"VEC3"},{"bufferView":2,"componentType":5125,"count":36,"type":"SCALAR"},{"bufferView":3,"componentType":5126,"count":24,"max":[1.131370849898476,2.771281292110204,1.3063945294843615],"min":[-1.131370849898476,-3.3306690738754696e-16,-1.3063945294843615],"type":"VEC3"},{"bufferView":4,"componentType":5126,"count":24,"max":[0.7071067811885442,0.5773502692020079,0.8164965809273127],"min":[-0.7071067811885442,-0.5773502691915996,-0.8164965809273127],"type":"VEC3"},{"bufferView":5,"componentType":5125,"count":36,"type":"SCALAR"}],"asset":{"copyright":"Original Web Geometry contributors; repository license","generator":"Web Geometry examples recipe v1","version":"2.0"},"bufferViews":[{"buffer":0,"byteLength":288,"byteOffset":0,"target":34962},{"buffer":0,"byteLength":288,"byteOffset":288,"target":34962},{"buffer":0,"byteLength":144,"byteOffset":576,"target":34963},{"buffer":0,"byteLength":288,"byteOffset":720,"target":34962},{"buffer":0,"byteLength":288,"byteOffset":1008,"target":34962},{"buffer":0,"byteLength":144,"byteOffset":1296,"target":34963}],"buffers":[{"byteLength":1440,"uri":"source.bin"}],"materials":[{"doubleSided":true,"name":"Slate slab","pbrMetallicRoughness":{"baseColorFactor":[0.22,0.24,0.27,1],"metallicFactor":0,"roughnessFactor":0.85}},{"doubleSided":true,"name":"Coral enamel","pbrMetallicRoughness":{"baseColorFactor":[0.85,0.28,0.2,1],"metallicFactor":0.1,"roughnessFactor":0.35}}],"meshes":[{"name":"Cube on its corner","primitives":[{"attributes":{"NORMAL":1,"POSITION":0},"indices":2,"material":0},{"attributes":{"NORMAL":4,"POSITION":3},"indices":5,"material":1}]}],"nodes":[{"mesh":0,"name":"Cube on its corner"}],"scene":0,"scenes":[{"nodes":[0]}]}