{"asset":{"version":"2.0","generator":"Web Geometry original offline authoring"},"scene":0,"scenes":[{"nodes":[0,1]}],"extensionsUsed":["KHR_lights_punctual"],"extensions":{"KHR_lights_punctual":{"lights":[{"type":"directional","color":[1,0.95,0.88],"intensity":2400}]}},"nodes":[{"name":"Authored-surface","mesh":0},{"name":"Authoring-light","rotation":[-0.3826834323650898,0,0,0.9238795325112867],"extensions":{"KHR_lights_punctual":{"light":0}}}],"meshes":[{"primitives":[{"attributes":{"POSITION":0},"indices":1,"material":0}]}],"materials":[{"doubleSided":true,"pbrMetallicRoughness":{"baseColorFactor":[0.12,0.65,0.52,1],"metallicFactor":0.1,"roughnessFactor":0.55}}],"buffers":[{"uri":"geometry.bin","byteLength":28572}],"bufferViews":[{"buffer":0,"byteOffset":0,"byteLength":10140,"target":34962},{"buffer":0,"byteOffset":10140,"byteLength":18432,"target":34963}],"accessors":[{"bufferView":0,"componentType":5126,"type":"VEC3","count":845,"min":[-2.5,-0.5799999833106995,-0.18000000715255737],"max":[2.5,0.5799999833106995,0.18000000715255737]},{"bufferView":1,"componentType":5125,"type":"SCALAR","count":4608}]}