{"asset":{"version":"2.0","generator":"Trillion3D example writer","copyright":"CC0 1.0"},"scene":0,"scenes":[{"nodes":[3]}],"nodes":[{"name":"lawn","mesh":0},{"name":"pole","mesh":1},{"name":"flag","mesh":2,"translation":[0.8,3.4,0],"extras":{"physics":{"type":"cloth","pins":[0,25,50,75,100,125,150,175,200,225,250,275,300,325,350,375,400],"bend":0.001}}},{"name":"flag on a pole","children":[0,1,2]}],"meshes":[{"name":"lawn","primitives":[{"material":0,"attributes":{"POSITION":0,"NORMAL":1,"TEXCOORD_0":2},"indices":3}]},{"name":"pole","primitives":[{"material":1,"attributes":{"POSITION":4,"NORMAL":5,"TEXCOORD_0":6},"indices":7}]},{"name":"flag","primitives":[{"material":2,"attributes":{"POSITION":8,"NORMAL":9,"TEXCOORD_0":10},"indices":11}]}],"materials":[{"name":"lawn","pbrMetallicRoughness":{"baseColorFactor":[0.33,0.47,0.24,1],"metallicFactor":0,"roughnessFactor":0.9}},{"name":"pole","pbrMetallicRoughness":{"baseColorFactor":[0.42,0.29,0.18,1],"metallicFactor":0,"roughnessFactor":0.8}},{"name":"flag","pbrMetallicRoughness":{"baseColorFactor":[0.76,0.23,0.23,1],"metallicFactor":0,"roughnessFactor":0.9}}],"buffers":[{"uri":"flag.bin","byteLength":26736}],"bufferViews":[{"buffer":0,"byteOffset":0,"byteLength":288,"target":34962},{"buffer":0,"byteOffset":288,"byteLength":288,"target":34962},{"buffer":0,"byteOffset":576,"byteLength":192,"target":34962},{"buffer":0,"byteOffset":768,"byteLength":144,"target":34963},{"buffer":0,"byteOffset":912,"byteLength":840,"target":34962},{"buffer":0,"byteOffset":1752,"byteLength":840,"target":34962},{"buffer":0,"byteOffset":2592,"byteLength":560,"target":34962},{"buffer":0,"byteOffset":3152,"byteLength":768,"target":34963},{"buffer":0,"byteOffset":3920,"byteLength":5100,"target":34962},{"buffer":0,"byteOffset":9020,"byteLength":5100,"target":34962},{"buffer":0,"byteOffset":14120,"byteLength":3400,"target":34962},{"buffer":0,"byteOffset":17520,"byteLength":9216,"target":34963}],"accessors":[{"bufferView":0,"componentType":5126,"type":"VEC3","count":24,"min":[-10,-0.19999980926513672,-10],"max":[10,0,10]},{"bufferView":1,"componentType":5126,"type":"VEC3","count":24,"min":[-1,-1,-1],"max":[1,1,1]},{"bufferView":2,"componentType":5126,"type":"VEC2","count":24,"min":[0,0],"max":[1,1]},{"bufferView":3,"componentType":5125,"type":"SCALAR","count":36},{"bufferView":4,"componentType":5126,"type":"VEC3","count":70,"min":[-0.05000019073486328,0,-0.05000019073486328],"max":[0.05000019073486328,4,0.05000019073486328]},{"bufferView":5,"componentType":5126,"type":"VEC3","count":70,"min":[-1,-1,-1],"max":[1,1,1]},{"bufferView":6,"componentType":5126,"type":"VEC2","count":70,"min":[0,0],"max":[1,1]},{"bufferView":7,"componentType":5125,"type":"SCALAR","count":192},{"bufferView":8,"componentType":5126,"type":"VEC3","count":425,"min":[-0.75,-0.5,0],"max":[0.75,0.5,0]},{"bufferView":9,"componentType":5126,"type":"VEC3","count":425,"min":[0,0,1],"max":[0,0,1]},{"bufferView":10,"componentType":5126,"type":"VEC2","count":425,"min":[0,0],"max":[1,1]},{"bufferView":11,"componentType":5125,"type":"SCALAR","count":2304}]}