{"accessors":[{"bufferView":0,"componentType":5126,"count":24,"max":[3,0,7],"min":[-3,-0.3,-7],"type":"VEC3"},{"bufferView":1,"componentType":5126,"count":24,"max":[1,1,1],"min":[-1,-1,-1],"type":"VEC3"},{"bufferView":2,"componentType":5125,"count":36,"type":"SCALAR"},{"bufferView":3,"componentType":5126,"count":4752,"max":[2.25,3.35,6.75],"min":[-2.25,0,-6.75],"type":"VEC3"},{"bufferView":4,"componentType":5126,"count":4752,"max":[1,1,1],"min":[-1,-1,-1],"type":"VEC3"},{"bufferView":5,"componentType":5125,"count":24264,"type":"SCALAR"}],"asset":{"copyright":"Original Web Geometry contributors; repository license","generator":"Web Geometry examples recipe v1","version":"2.0"},"bufferViews":[{"buffer":0,"byteLength":288,"byteOffset":0,"target":34962},{"buffer":0,"byteLength":288,"byteOffset":288,"target":34962},{"buffer":0,"byteLength":144,"byteOffset":576,"target":34963},{"buffer":0,"byteLength":57024,"byteOffset":720,"target":34962},{"buffer":0,"byteLength":57024,"byteOffset":57744,"target":34962},{"buffer":0,"byteLength":97056,"byteOffset":114768,"target":34963}],"buffers":[{"byteLength":211824,"uri":"source.bin"}],"materials":[{"doubleSided":true,"name":"Sand floor","pbrMetallicRoughness":{"baseColorFactor":[0.6,0.55,0.45,1],"metallicFactor":0,"roughnessFactor":0.9}},{"doubleSided":true,"name":"Chalk stone","pbrMetallicRoughness":{"baseColorFactor":[0.88,0.85,0.78,1],"metallicFactor":0,"roughnessFactor":0.7}}],"meshes":[{"name":"Colonnade","primitives":[{"attributes":{"NORMAL":1,"POSITION":0},"indices":2,"material":0},{"attributes":{"NORMAL":4,"POSITION":3},"indices":5,"material":1}]}],"nodes":[{"mesh":0,"name":"Colonnade"}],"scene":0,"scenes":[{"nodes":[0]}]}