{"asset":{"version":"2.0","generator":"Web Geometry original canal city authoring"},"scene":0,"scenes":[{"nodes":[0,1]}],"extensionsUsed":["KHR_lights_punctual"],"extensions":{"KHR_lights_punctual":{"lights":[{"type":"directional","color":[1,0.82,0.66],"intensity":2600}]}},"nodes":[{"name":"Original-canal-district","mesh":0},{"name":"Late-afternoon-light","rotation":[-0.31,0.22,0.08,0.92],"extensions":{"KHR_lights_punctual":{"light":0}}}],"meshes":[{"name":"Canal-district-material-groups","primitives":[{"attributes":{"POSITION":0},"indices":1,"material":0},{"attributes":{"POSITION":2},"indices":3,"material":1},{"attributes":{"POSITION":4},"indices":5,"material":2},{"attributes":{"POSITION":6},"indices":7,"material":3},{"attributes":{"POSITION":8},"indices":9,"material":4},{"attributes":{"POSITION":10},"indices":11,"material":5},{"attributes":{"POSITION":12},"indices":13,"material":6}]}],"materials":[{"name":"brick","doubleSided":true,"pbrMetallicRoughness":{"baseColorFactor":[0.48,0.16,0.1,1],"metallicFactor":0.05,"roughnessFactor":0.72}},{"name":"ochre","doubleSided":true,"pbrMetallicRoughness":{"baseColorFactor":[0.64,0.36,0.16,1],"metallicFactor":0.05,"roughnessFactor":0.72}},{"name":"stone","doubleSided":true,"pbrMetallicRoughness":{"baseColorFactor":[0.46,0.45,0.4,1],"metallicFactor":0.05,"roughnessFactor":0.72}},{"name":"slate","doubleSided":true,"pbrMetallicRoughness":{"baseColorFactor":[0.12,0.16,0.2,1],"metallicFactor":0.05,"roughnessFactor":0.72}},{"name":"glass","doubleSided":true,"pbrMetallicRoughness":{"baseColorFactor":[0.04,0.1,0.14,1],"metallicFactor":0.05,"roughnessFactor":0.72},"emissiveFactor":[0.12,0.19,0.2]},{"name":"water","doubleSided":true,"pbrMetallicRoughness":{"baseColorFactor":[0.03,0.2,0.28,1],"metallicFactor":0.05,"roughnessFactor":0.24}},{"name":"metal","doubleSided":true,"pbrMetallicRoughness":{"baseColorFactor":[0.13,0.15,0.16,1],"metallicFactor":0.65,"roughnessFactor":0.72}}],"buffers":[{"uri":"geometry.bin","byteLength":292416}],"bufferViews":[{"buffer":0,"byteOffset":0,"byteLength":3024,"target":34962},{"buffer":0,"byteOffset":3024,"byteLength":1008,"target":34963},{"buffer":0,"byteOffset":4032,"byteLength":1296,"target":34962},{"buffer":0,"byteOffset":5328,"byteLength":432,"target":34963},{"buffer":0,"byteOffset":5760,"byteLength":108864,"target":34962},{"buffer":0,"byteOffset":114624,"byteLength":36288,"target":34963},{"buffer":0,"byteOffset":150912,"byteLength":2880,"target":34962},{"buffer":0,"byteOffset":153792,"byteLength":960,"target":34963},{"buffer":0,"byteOffset":154752,"byteLength":86400,"target":34962},{"buffer":0,"byteOffset":241152,"byteLength":28800,"target":34963},{"buffer":0,"byteOffset":269952,"byteLength":2160,"target":34962},{"buffer":0,"byteOffset":272112,"byteLength":720,"target":34963},{"buffer":0,"byteOffset":272832,"byteLength":14688,"target":34962},{"buffer":0,"byteOffset":287520,"byteLength":4896,"target":34963}],"accessors":[{"bufferView":0,"componentType":5126,"type":"VEC3","count":252,"min":[-3.95,0,-3.825],"max":[3.95,4.59,4.7250000000000005]},{"bufferView":1,"componentType":5125,"type":"SCALAR","count":252},{"bufferView":2,"componentType":5126,"type":"VEC3","count":108,"min":[-4.05,0,-3.9],"max":[4.05,2.71,3.875]},{"bufferView":3,"componentType":5125,"type":"SCALAR","count":108},{"bufferView":4,"componentType":5126,"type":"VEC3","count":9072,"min":[-4.329999999999999,-0.26,-4.5],"max":[4.329999999999999,4.319999999999999,4.915]},{"bufferView":5,"componentType":5125,"type":"SCALAR","count":9072},{"bufferView":6,"componentType":5126,"type":"VEC3","count":240,"min":[-4.1000000000000005,1.7000000000000002,-3.94],"max":[4.12,4.72,4.775]},{"bufferView":7,"componentType":5125,"type":"SCALAR","count":240},{"bufferView":8,"componentType":5126,"type":"VEC3","count":7200,"min":[-4.125,0.12,-3.975],"max":[4.125,4.22,4.86]},{"bufferView":9,"componentType":5125,"type":"SCALAR","count":7200},{"bufferView":10,"componentType":5126,"type":"VEC3","count":180,"min":[-1.725,-0.24,-4.5],"max":[1.725,-0.08940000000000001,4.5]},{"bufferView":11,"componentType":5125,"type":"SCALAR","count":180},{"bufferView":12,"componentType":5126,"type":"VEC3","count":1224,"min":[-2.33,-0.009999999999999953,-3.94],"max":[2.33,0.96,4.510000000000001]},{"bufferView":13,"componentType":5125,"type":"SCALAR","count":1224}]}
