{"accessors":[{"bufferView":0,"componentType":5126,"count":3,"max":[0,0,0],"min":[0,0,0],"type":"VEC3"},{"bufferView":1,"componentType":5123,"count":3,"type":"SCALAR"}],"asset":{"copyright":"Original Web Geometry contributors; repository license","generator":"Web Geometry examples recipe v1","version":"2.0"},"bufferViews":[{"buffer":0,"byteLength":36,"byteOffset":0},{"buffer":0,"byteLength":6,"byteOffset":36}],"buffers":[{"byteLength":44,"uri":"scene.bin"}],"extensions":{"KHR_lights_punctual":{"lights":[{"color":[1,0.7,0.4],"intensity":9000,"range":9,"type":"point"},{"color":[1,1,1],"intensity":7000,"range":9,"type":"point"},{"color":[0.5,0.7,1],"intensity":9000,"range":9,"type":"point"},{"intensity":-5,"type":"point"},{"intensity":500,"spot":{"outerConeAngle":0.5},"type":"spot"}]}},"extensionsUsed":["KHR_lights_punctual"],"materials":[{"doubleSided":true,"name":"Plaster","pbrMetallicRoughness":{"baseColorFactor":[0.7,0.68,0.64,1],"metallicFactor":0,"roughnessFactor":0.9}},{"doubleSided":true,"name":"Grey stone","pbrMetallicRoughness":{"baseColorFactor":[0.4,0.4,0.42,1],"metallicFactor":0,"roughnessFactor":0.6}}],"meshes":[{"name":"scene","primitives":[{"attributes":{"POSITION":0},"indices":1,"material":0,"mode":4},{"attributes":{"POSITION":0},"indices":1,"material":1,"mode":4}]}],"nodes":[{"mesh":0,"name":"scene"},{"extensions":{"KHR_lights_punctual":{"light":0}},"name":"warm-lamp","translation":[-3,3.2,0]},{"extensions":{"KHR_lights_punctual":{"light":1}},"name":"white-lamp","translation":[0,3.2,0]},{"extensions":{"KHR_lights_punctual":{"light":2}},"name":"cool-lamp","translation":[3,3.2,0]},{"extensions":{"KHR_lights_punctual":{"light":3}},"name":"dead-lamp","translation":[2,3,2]},{"extensions":{"KHR_lights_punctual":{"light":4}},"name":"flat-lamp","scale":[1,1,0],"translation":[-2,3,2]}],"scene":0,"scenes":[{"name":"Hall with its lamps","nodes":[0,1,2,3,4,5]}]}