{"accessors":[{"bufferView":0,"componentType":5126,"count":48,"max":[5,4,5],"min":[-5,-0.3,-5],"type":"VEC3"},{"bufferView":1,"componentType":5126,"count":48,"max":[1,1,1],"min":[-1,-1,-1],"type":"VEC3"},{"bufferView":2,"componentType":5125,"count":72,"type":"SCALAR"},{"bufferView":3,"componentType":5126,"count":1149,"max":[3.3,4,2.1],"min":[-3.3,0,-2.3],"type":"VEC3"},{"bufferView":4,"componentType":5126,"count":1149,"max":[0.99999999950652,0.9807822157918872,1],"min":[-0.99999999950652,-1,-1],"type":"VEC3"},{"bufferView":5,"componentType":5125,"count":5664,"type":"SCALAR"}],"asset":{"copyright":"Original trillion3D contributors; repository license","generator":"trillion3D examples recipe v1","version":"2.0"},"bufferViews":[{"buffer":0,"byteLength":576,"byteOffset":0,"target":34962},{"buffer":0,"byteLength":576,"byteOffset":576,"target":34962},{"buffer":0,"byteLength":288,"byteOffset":1152,"target":34963},{"buffer":0,"byteLength":13788,"byteOffset":1440,"target":34962},{"buffer":0,"byteLength":13788,"byteOffset":15228,"target":34962},{"buffer":0,"byteLength":22656,"byteOffset":29016,"target":34963}],"buffers":[{"byteLength":51672,"uri":"source.bin"}],"extensions":{"KHR_lights_punctual":{"lights":[{"color":[1,0.7,0.4],"intensity":9000,"range":9,"type":"point"},{"color":[1,1,1],"intensity":7000,"range":9,"type":"point"},{"color":[0.5,0.7,1],"intensity":9000,"range":9,"type":"point"},{"intensity":-5,"type":"point"},{"intensity":500,"spot":{"outerConeAngle":0.5},"type":"spot"}]}},"extensionsUsed":["KHR_lights_punctual"],"materials":[{"doubleSided":true,"name":"Plaster","pbrMetallicRoughness":{"baseColorFactor":[0.7,0.68,0.64,1],"metallicFactor":0,"roughnessFactor":0.9}},{"doubleSided":true,"name":"Grey stone","pbrMetallicRoughness":{"baseColorFactor":[0.4,0.4,0.42,1],"metallicFactor":0,"roughnessFactor":0.6}}],"meshes":[{"name":"scene","primitives":[{"attributes":{"NORMAL":1,"POSITION":0},"indices":2,"material":0},{"attributes":{"NORMAL":4,"POSITION":3},"indices":5,"material":1}]}],"nodes":[{"mesh":0,"name":"scene"},{"extensions":{"KHR_lights_punctual":{"light":0}},"name":"warm-lamp","translation":[-3,3.2,0]},{"extensions":{"KHR_lights_punctual":{"light":1}},"name":"white-lamp","translation":[0,3.2,0]},{"extensions":{"KHR_lights_punctual":{"light":2}},"name":"cool-lamp","translation":[3,3.2,0]},{"extensions":{"KHR_lights_punctual":{"light":3}},"name":"dead-lamp","translation":[2,3,2]},{"extensions":{"KHR_lights_punctual":{"light":4}},"name":"flat-lamp","scale":[1,1,0],"translation":[-2,3,2]}],"scene":0,"scenes":[{"name":"Hall with its lamps","nodes":[0,1,2,3,4,5]}]}