{"asset":{"version":"2.0","generator":"Web Geometry examples recipe v1","copyright":"Original Web Geometry contributors; repository license"},"scene":0,"scenes":[{"name":"Painted and textured","nodes":[0]}],"nodes":[{"name":"scene","mesh":0}],"meshes":[{"name":"scene","primitives":[{"material":0,"attributes":{"POSITION":0,"NORMAL":1,"TEXCOORD_0":2},"indices":3},{"material":1,"attributes":{"POSITION":4,"NORMAL":5,"TEXCOORD_0":6},"indices":7},{"material":2,"attributes":{"POSITION":8,"NORMAL":9,"TEXCOORD_0":10},"indices":11},{"material":3,"attributes":{"POSITION":12,"NORMAL":13,"TEXCOORD_0":14},"indices":15},{"material":4,"attributes":{"POSITION":16,"NORMAL":17,"TEXCOORD_0":18},"indices":19},{"material":5,"attributes":{"POSITION":20,"NORMAL":21,"TEXCOORD_0":22},"indices":23},{"material":6,"attributes":{"POSITION":24,"NORMAL":25,"TEXCOORD_0":26},"indices":27}]}],"materials":[{"name":"Slate slab","doubleSided":true,"pbrMetallicRoughness":{"baseColorFactor":[0.22,0.24,0.27,1],"metallicFactor":0,"roughnessFactor":0.85}},{"name":"Vermilion paint","doubleSided":true,"pbrMetallicRoughness":{"baseColorFactor":[0.8,0.2,0.12,1],"metallicFactor":0,"roughnessFactor":0.35}},{"name":"Cobalt paint","doubleSided":true,"pbrMetallicRoughness":{"baseColorFactor":[0.1,0.25,0.7,1],"metallicFactor":0,"roughnessFactor":0.35}},{"name":"Cream paint","doubleSided":true,"pbrMetallicRoughness":{"baseColorFactor":[0.9,0.85,0.7,1],"metallicFactor":0,"roughnessFactor":0.35}},{"name":"Checker cloth","doubleSided":true,"pbrMetallicRoughness":{"baseColorTexture":{"index":0}}},{"name":"Striped cloth","doubleSided":true,"pbrMetallicRoughness":{"baseColorTexture":{"index":1}}},{"name":"Tile cloth","doubleSided":true,"pbrMetallicRoughness":{"baseColorTexture":{"index":2}}}],"buffers":[{"uri":"scene.bin","byteLength":82672}],"bufferViews":[{"buffer":0,"byteOffset":0,"byteLength":288,"target":34962},{"buffer":0,"byteOffset":288,"byteLength":288,"target":34962},{"buffer":0,"byteOffset":576,"byteLength":192,"target":34962},{"buffer":0,"byteOffset":768,"byteLength":144,"target":34963},{"buffer":0,"byteOffset":912,"byteLength":6732,"target":34962},{"buffer":0,"byteOffset":7644,"byteLength":6732,"target":34962},{"buffer":0,"byteOffset":14376,"byteLength":4488,"target":34962},{"buffer":0,"byteOffset":18864,"byteLength":12288,"target":34963},{"buffer":0,"byteOffset":31152,"byteLength":288,"target":34962},{"buffer":0,"byteOffset":31440,"byteLength":288,"target":34962},{"buffer":0,"byteOffset":31728,"byteLength":192,"target":34962},{"buffer":0,"byteOffset":31920,"byteLength":144,"target":34963},{"buffer":0,"byteOffset":32064,"byteLength":2352,"target":34962},{"buffer":0,"byteOffset":34416,"byteLength":2352,"target":34962},{"buffer":0,"byteOffset":36768,"byteLength":1568,"target":34962},{"buffer":0,"byteOffset":38336,"byteLength":3456,"target":34963},{"buffer":0,"byteOffset":41792,"byteLength":6732,"target":34962},{"buffer":0,"byteOffset":48524,"byteLength":6732,"target":34962},{"buffer":0,"byteOffset":55256,"byteLength":4488,"target":34962},{"buffer":0,"byteOffset":59744,"byteLength":12288,"target":34963},{"buffer":0,"byteOffset":72032,"byteLength":288,"target":34962},{"buffer":0,"byteOffset":72320,"byteLength":288,"target":34962},{"buffer":0,"byteOffset":72608,"byteLength":192,"target":34962},{"buffer":0,"byteOffset":72800,"byteLength":144,"target":34963},{"buffer":0,"byteOffset":72944,"byteLength":2352,"target":34962},{"buffer":0,"byteOffset":75296,"byteLength":2352,"target":34962},{"buffer":0,"byteOffset":77648,"byteLength":1568,"target":34962},{"buffer":0,"byteOffset":79216,"byteLength":3456,"target":34963}],"accessors":[{"bufferView":0,"componentType":5126,"type":"VEC3","count":24,"min":[-3.5,-0.3,-3.5],"max":[3.5,0,3.5]},{"bufferView":1,"componentType":5126,"type":"VEC3","count":24,"min":[-1,-1,-1],"max":[1,1,1]},{"bufferView":2,"componentType":5126,"type":"VEC2","count":24,"min":[0,0],"max":[1,1]},{"bufferView":3,"componentType":5125,"type":"SCALAR","count":36},{"bufferView":4,"componentType":5126,"type":"VEC3","count":561,"min":[-2.7,0,-1.9],"max":[-1.3,1.4,-0.5]},{"bufferView":5,"componentType":5126,"type":"VEC3","count":561,"min":[-0.9999999993831498,-0.9807883447355545,-0.9999999993831499],"max":[0.9999999993831493,0.980782215792238,0.9999999993831499]},{"bufferView":6,"componentType":5126,"type":"VEC2","count":561,"min":[0,0],"max":[1,1]},{"bufferView":7,"componentType":5125,"type":"SCALAR","count":3072},{"bufferView":8,"componentType":5126,"type":"VEC3","count":24,"min":[-0.6,0,-1.7999999999999998],"max":[0.6,1.2,-0.6]},{"bufferView":9,"componentType":5126,"type":"VEC3","count":24,"min":[-1,-1,-1],"max":[1,1,1]},{"bufferView":10,"componentType":5126,"type":"VEC2","count":24,"min":[0,0],"max":[1,1]},{"bufferView":11,"componentType":5125,"type":"SCALAR","count":36},{"bufferView":12,"componentType":5126,"type":"VEC3","count":196,"min":[1.4,0,-1.7999999999999998],"max":[2.6,1.4,-0.6]},{"bufferView":13,"componentType":5126,"type":"VEC3","count":196,"min":[-0.9999999995065199,-1,-0.9999999995065199],"max":[0.9999999995065199,0,0.9999999995065199]},{"bufferView":14,"componentType":5126,"type":"VEC2","count":196,"min":[0,0],"max":[1,1]},{"bufferView":15,"componentType":5125,"type":"SCALAR","count":864},{"bufferView":16,"componentType":5126,"type":"VEC3","count":561,"min":[-2.7,0,0.5],"max":[-1.3,1.4,1.9]},{"bufferView":17,"componentType":5126,"type":"VEC3","count":561,"min":[-0.9999999993831498,-0.9807883447355545,-0.9999999993831499],"max":[0.9999999993831493,0.980782215792238,0.9999999993831499]},{"bufferView":18,"componentType":5126,"type":"VEC2","count":561,"min":[0,0],"max":[1,1]},{"bufferView":19,"componentType":5125,"type":"SCALAR","count":3072},{"bufferView":20,"componentType":5126,"type":"VEC3","count":24,"min":[-0.6,0,0.6],"max":[0.6,1.2,1.7999999999999998]},{"bufferView":21,"componentType":5126,"type":"VEC3","count":24,"min":[-1,-1,-1],"max":[1,1,1]},{"bufferView":22,"componentType":5126,"type":"VEC2","count":24,"min":[0,0],"max":[1,1]},{"bufferView":23,"componentType":5125,"type":"SCALAR","count":36},{"bufferView":24,"componentType":5126,"type":"VEC3","count":196,"min":[1.4,0,0.6],"max":[2.6,1.4,1.7999999999999998]},{"bufferView":25,"componentType":5126,"type":"VEC3","count":196,"min":[-0.9999999995065199,-1,-0.9999999995065199],"max":[0.9999999995065199,0,0.9999999995065199]},{"bufferView":26,"componentType":5126,"type":"VEC2","count":196,"min":[0,0],"max":[1,1]},{"bufferView":27,"componentType":5125,"type":"SCALAR","count":864}],"images":[{"uri":"checker.png"},{"uri":"stripes.png"},{"uri":"tiles.png"}],"textures":[{"source":0},{"source":1},{"source":2}]}