{"asset":{"version":"2.0","generator":"Web Geometry examples recipe v1","copyright":"Original Web Geometry contributors; repository license"},"scene":0,"scenes":[{"nodes":[0]}],"nodes":[{"name":"Sundial","mesh":0}],"meshes":[{"name":"Sundial","primitives":[{"material":0,"attributes":{"POSITION":0,"NORMAL":1},"indices":2},{"material":1,"attributes":{"POSITION":3,"NORMAL":4},"indices":5}]}],"materials":[{"name":"Limestone dial","doubleSided":true,"pbrMetallicRoughness":{"baseColorFactor":[0.82,0.78,0.68,1],"metallicFactor":0,"roughnessFactor":0.8}},{"name":"Bronze gnomon","doubleSided":true,"pbrMetallicRoughness":{"baseColorFactor":[0.55,0.38,0.2,1],"metallicFactor":0.9,"roughnessFactor":0.35}}],"buffers":[{"uri":"geometry.bin","byteLength":17520}],"bufferViews":[{"buffer":0,"byteOffset":0,"byteLength":2352,"target":34962},{"buffer":0,"byteOffset":2352,"byteLength":2352,"target":34962},{"buffer":0,"byteOffset":4704,"byteLength":3456,"target":34963},{"buffer":0,"byteOffset":8160,"byteLength":3744,"target":34962},{"buffer":0,"byteOffset":11904,"byteLength":3744,"target":34962},{"buffer":0,"byteOffset":15648,"byteLength":1872,"target":34963}],"accessors":[{"bufferView":0,"componentType":5126,"type":"VEC3","count":196,"min":[-3.2,-0.4,-3.2],"max":[3.2,0,3.2]},{"bufferView":1,"componentType":5126,"type":"VEC3","count":196,"min":[-0.9999999995065199,-1,-0.9999999995065199],"max":[0.9999999995065199,0,0.9999999995065199]},{"bufferView":2,"componentType":5125,"type":"SCALAR","count":864},{"bufferView":3,"componentType":5126,"type":"VEC3","count":312,"min":[-2.88,-0.035391052434009404,-2.88],"max":[2.88,1.4353910524340092,2.88]},{"bufferView":4,"componentType":5126,"type":"VEC3","count":312,"min":[-1,-1,-1],"max":[1,1,1]},{"bufferView":5,"componentType":5125,"type":"SCALAR","count":468}]}