{"accessors":[{"bufferView":0,"componentType":5126,"count":3,"max":[0,0,0],"min":[0,0,0],"type":"VEC3"},{"bufferView":1,"componentType":5123,"count":3,"type":"SCALAR"}],"asset":{"generator":"Trillion3D original mountain authoring","version":"2.0"},"bufferViews":[{"buffer":0,"byteLength":36,"byteOffset":0},{"buffer":0,"byteLength":6,"byteOffset":36}],"buffers":[{"byteLength":44,"uri":"scene.bin"}],"extensions":{"KHR_lights_punctual":{"lights":[{"color":[1,0.91,0.8],"intensity":2600,"type":"directional"}]}},"extensionsUsed":["KHR_lights_punctual"],"materials":[{"doubleSided":true,"name":"valley soil","pbrMetallicRoughness":{"baseColorFactor":[0.18,0.25,0.16,1],"metallicFactor":0,"roughnessFactor":0.9}},{"doubleSided":true,"name":"alpine grass","pbrMetallicRoughness":{"baseColorFactor":[0.29,0.38,0.2,1],"metallicFactor":0,"roughnessFactor":0.9}},{"doubleSided":true,"name":"exposed rock","pbrMetallicRoughness":{"baseColorFactor":[0.38,0.29,0.2,1],"metallicFactor":0,"roughnessFactor":0.9}},{"doubleSided":true,"name":"summit stone","pbrMetallicRoughness":{"baseColorFactor":[0.72,0.7,0.65,1],"metallicFactor":0,"roughnessFactor":0.9}},{"doubleSided":true,"emissiveFactor":[0.015,0.12,0.18],"name":"river","pbrMetallicRoughness":{"baseColorFactor":[0.04,0.34,0.5,1],"metallicFactor":0.18,"roughnessFactor":0.38}}],"meshes":[{"primitives":[{"attributes":{"POSITION":0},"indices":1,"material":0,"mode":4},{"attributes":{"POSITION":0},"indices":1,"material":1,"mode":4},{"attributes":{"POSITION":0},"indices":1,"material":2,"mode":4},{"attributes":{"POSITION":0},"indices":1,"material":3,"mode":4},{"attributes":{"POSITION":0},"indices":1,"material":4,"mode":4}]}],"nodes":[{"mesh":0,"name":"Eroded mountain watershed"},{"extensions":{"KHR_lights_punctual":{"light":0}},"name":"Mountain light","rotation":[-0.31,0.19,0.06,0.93]}],"scene":0,"scenes":[{"nodes":[0,1]}]}