{"accessors":[{"bufferView":0,"componentType":5126,"count":8760,"max":[0.488164847176932,1.9,0.488164847176932],"min":[-0.488164847176932,-0.00439453125,-0.488164847176932],"type":"VEC3"},{"bufferView":1,"componentType":5126,"count":8760,"max":[0.99979843635108,0.9841911932475248,0.99979843635108],"min":[-0.99979843635108,-0.9999995709786644,-0.99979843635108],"type":"VEC3"},{"bufferView":2,"componentType":5125,"count":51840,"type":"SCALAR"},{"bufferView":3,"componentType":5126,"count":24,"max":[0.45,0.5,0.45],"min":[-0.45,0,-0.45],"type":"VEC3"},{"bufferView":4,"componentType":5126,"count":24,"max":[0.999999999999,0.999999999999,0.999999999999],"min":[-0.999999999999,-0.999999999999,-0.999999999999],"type":"VEC3"},{"bufferView":5,"componentType":5125,"count":36,"type":"SCALAR"},{"bufferView":6,"componentType":5126,"count":19200,"max":[2.6081266310393456,4.206360351523231,2.482813205836342],"min":[-2.133980254769725,1.9882563979556385,-2.4720605987697577],"type":"VEC3"},{"bufferView":7,"componentType":5126,"count":19200,"max":[0.9999909980316006,0.9998924582386614,0.9997145753437524],"min":[-0.9997481733232504,-0.9997971330078188,-0.9999977977093104],"type":"VEC3"},{"bufferView":8,"componentType":5125,"count":115200,"type":"SCALAR"},{"bufferView":9,"componentType":5126,"count":1056,"max":[1.9,1.42,1.9],"min":[-1.9,0,-1.9],"type":"VEC3"},{"bufferView":10,"componentType":5126,"count":1056,"max":[0.9878424176745008,0.9999999999947092,0.9878424176745004],"min":[-0.9878424176745008,-0.9999999999957646,-0.9878424176745004],"type":"VEC3"},{"bufferView":11,"componentType":5125,"count":5760,"type":"SCALAR"},{"bufferView":12,"componentType":5126,"count":9409,"max":[80,5.408254145757002,80],"min":[-80,-0.5305470362211413,-80],"type":"VEC3"},{"bufferView":13,"componentType":5126,"count":9409,"max":[0.34835619999122613,0.99999999999994,0.20616733430725445],"min":[-0.3491703516462554,0.9364401204360392,-0.20593661287353196],"type":"VEC3"},{"bufferView":14,"componentType":5125,"count":55296,"type":"SCALAR"},{"bufferView":15,"componentType":5126,"count":24,"max":[6,0.05,65],"min":[-6,-0.05,-85],"type":"VEC3"},{"bufferView":16,"componentType":5126,"count":24,"max":[0.999999999999,0.999999999999,0.999999999999],"min":[-0.999999999999,-0.999999999999,-0.999999999999],"type":"VEC3"},{"bufferView":17,"componentType":5125,"count":36,"type":"SCALAR"}],"asset":{"copyright":"CC0 1.0","generator":"Web Geometry example writer","version":"2.0"},"bufferViews":[{"buffer":0,"byteLength":105120,"byteOffset":0,"target":34962},{"buffer":0,"byteLength":105120,"byteOffset":105120,"target":34962},{"buffer":0,"byteLength":207360,"byteOffset":210240,"target":34963},{"buffer":0,"byteLength":288,"byteOffset":417600,"target":34962},{"buffer":0,"byteLength":288,"byteOffset":417888,"target":34962},{"buffer":0,"byteLength":144,"byteOffset":418176,"target":34963},{"buffer":0,"byteLength":230400,"byteOffset":418320,"target":34962},{"buffer":0,"byteLength":230400,"byteOffset":648720,"target":34962},{"buffer":0,"byteLength":460800,"byteOffset":879120,"target":34963},{"buffer":0,"byteLength":12672,"byteOffset":1339920,"target":34962},{"buffer":0,"byteLength":12672,"byteOffset":1352592,"target":34962},{"buffer":0,"byteLength":23040,"byteOffset":1365264,"target":34963},{"buffer":0,"byteLength":112908,"byteOffset":1388304,"target":34962},{"buffer":0,"byteLength":112908,"byteOffset":1501212,"target":34962},{"buffer":0,"byteLength":221184,"byteOffset":1614120,"target":34963},{"buffer":0,"byteLength":288,"byteOffset":1835304,"target":34962},{"buffer":0,"byteLength":288,"byteOffset":1835592,"target":34962},{"buffer":0,"byteLength":144,"byteOffset":1835880,"target":34963}],"buffers":[{"byteLength":1836024,"uri":"source.bin"}],"materials":[{"name":"marble","pbrMetallicRoughness":{"baseColorFactor":[0.9,0.87,0.82,1],"metallicFactor":0,"roughnessFactor":0.3}},{"name":"stone","pbrMetallicRoughness":{"baseColorFactor":[0.72,0.68,0.61,1],"metallicFactor":0,"roughnessFactor":0.75}},{"name":"bronze","pbrMetallicRoughness":{"baseColorFactor":[0.72,0.47,0.26,1],"metallicFactor":0.55,"roughnessFactor":0.32}},{"name":"grass","pbrMetallicRoughness":{"baseColorFactor":[0.36,0.5,0.22,1],"metallicFactor":0,"roughnessFactor":0.95}},{"name":"paving","pbrMetallicRoughness":{"baseColorFactor":[0.78,0.73,0.64,1],"metallicFactor":0,"roughnessFactor":0.85}}],"meshes":[{"name":"urn","primitives":[{"attributes":{"NORMAL":1,"POSITION":0},"indices":2,"material":0}]},{"name":"urn-pedestal","primitives":[{"attributes":{"NORMAL":4,"POSITION":3},"indices":5,"material":1}]},{"name":"knot","primitives":[{"attributes":{"NORMAL":7,"POSITION":6},"indices":8,"material":2},{"attributes":{"NORMAL":10,"POSITION":9},"indices":11,"material":1}]},{"name":"meadow","primitives":[{"attributes":{"NORMAL":13,"POSITION":12},"indices":14,"material":3}]},{"name":"avenue","primitives":[{"attributes":{"NORMAL":16,"POSITION":15},"indices":17,"material":4}]}],"nodes":[{"mesh":2,"name":"knot","translation":[0,0,-62]},{"mesh":3,"name":"meadow"},{"mesh":4,"name":"avenue"},{"mesh":1,"translation":[-4.8,0,40]},{"mesh":0,"rotation":[0,0.770058906740378,0,-0.6379727895058016],"translation":[-4.8,0.5,40]},{"mesh":1,"translation":[-4.8,0,35.4]},{"mesh":0,"rotation":[0,0.1211623336405066,0,0.9926327059425286],"translation":[-4.8,0.5,35.4]},{"mesh":1,"translation":[-4.8,0,30.8]},{"mesh":0,"rotation":[0,0.9905444416760312,0,0.1371922339810806],"translation":[-4.8,0.5,30.8]},{"mesh":1,"translation":[-4.8,0,26.200000000000003]},{"mesh":0,"rotation":[0,0.23322544247101384,0,0.9724226925489756],"translation":[-4.8,0.5,26.200000000000003]},{"mesh":1,"translation":[-4.8,0,21.6]},{"mesh":0,"rotation":[0,0.6776339853029235,0,-0.7353993350299396],"translation":[-4.8,0.5,21.6]},{"mesh":1,"translation":[-4.8,0,17]},{"mesh":0,"rotation":[0,0.9982527172420952,0,0.05908902198186819],"translation":[-4.8,0.5,17]},{"mesh":1,"translation":[-4.8,0,12.400000000000002]},{"mesh":0,"rotation":[0,0.9991310865214266,0,0.041678195096639926],"translation":[-4.8,0.5,12.400000000000002]},{"mesh":1,"translation":[-4.8,0,7.800000000000004]},{"mesh":0,"rotation":[0,0.4867028975600852,0,0.8735675643627213],"translation":[-4.8,0.5,7.800000000000004]},{"mesh":1,"translation":[-4.8,0,3.200000000000003]},{"mesh":0,"rotation":[0,0.7359331892677385,0,0.677054163958996],"translation":[-4.8,0.5,3.200000000000003]},{"mesh":1,"translation":[-4.8,0,-1.3999999999999986]},{"mesh":0,"rotation":[0,0.9863738939074512,0,-0.16451912173924405],"translation":[-4.8,0.5,-1.3999999999999986]},{"mesh":1,"translation":[-4.8,0,-6]},{"mesh":0,"rotation":[0,0.5747899747558289,0,0.8183009745321055],"translation":[-4.8,0.5,-6]},{"mesh":1,"translation":[-4.8,0,-10.599999999999994]},{"mesh":0,"rotation":[0,0.259606570241233,0,0.9657144654024729],"translation":[-4.8,0.5,-10.599999999999994]},{"mesh":1,"translation":[-4.8,0,-15.199999999999996]},{"mesh":0,"rotation":[0,0.7828066150437356,0,-0.6222650588324631],"translation":[-4.8,0.5,-15.199999999999996]},{"mesh":1,"translation":[-4.8,0,-19.799999999999997]},{"mesh":0,"rotation":[0,0.9973285794296886,0,0.07304590784403539],"translation":[-4.8,0.5,-19.799999999999997]},{"mesh":1,"translation":[-4.8,0,-24.39999999999999]},{"mesh":0,"rotation":[0,0.6036008830736096,0,-0.7972866322426073],"translation":[-4.8,0.5,-24.39999999999999]},{"mesh":1,"translation":[-4.8,0,-29]},{"mesh":0,"rotation":[0,0.368786566600772,0,-0.9295141033329264],"translation":[-4.8,0.5,-29]},{"mesh":1,"translation":[-4.8,0,-33.599999999999994]},{"mesh":0,"rotation":[0,0.8503729799535411,0,0.5261803825352428],"translation":[-4.8,0.5,-33.599999999999994]},{"mesh":1,"translation":[-4.8,0,-38.19999999999999]},{"mesh":0,"rotation":[0,0.8260525471367508,0,-0.5635931062112861],"translation":[-4.8,0.5,-38.19999999999999]},{"mesh":1,"translation":[-4.8,0,-42.8]},{"mesh":0,"rotation":[0,0.783850329089529,0,0.6209498060119167],"translation":[-4.8,0.5,-42.8]},{"mesh":1,"translation":[-4.8,0,-47.39999999999999]},{"mesh":0,"rotation":[0,0.8572996257070826,0,-0.5148177850098966],"translation":[-4.8,0.5,-47.39999999999999]},{"mesh":1,"translation":[-4.8,0,-52]},{"mesh":0,"rotation":[0,0.996555169775278,0,-0.0829324640545941],"translation":[-4.8,0.5,-52]},{"mesh":1,"translation":[-4.8,0,-56.599999999999994]},{"mesh":0,"rotation":[0,0.5043453868915314,0,-0.8635020154702776],"translation":[-4.8,0.5,-56.599999999999994]},{"mesh":1,"translation":[4.8,0,40]},{"mesh":0,"rotation":[0,0.9921355105559028,0,-0.12516840133986876],"translation":[4.8,0.5,40]},{"mesh":1,"translation":[4.8,0,35.4]},{"mesh":0,"rotation":[0,0.036453092265242126,0,0.9993353651624172],"translation":[4.8,0.5,35.4]},{"mesh":1,"translation":[4.8,0,30.8]},{"mesh":0,"rotation":[0,0.3758395884804189,0,-0.9266847380478808],"translation":[4.8,0.5,30.8]},{"mesh":1,"translation":[4.8,0,26.200000000000003]},{"mesh":0,"rotation":[0,0.8277809887192831,0,0.5610513654870882],"translation":[4.8,0.5,26.200000000000003]},{"mesh":1,"translation":[4.8,0,21.6]},{"mesh":0,"rotation":[0,0.19717954065040616,0,-0.980367394780597],"translation":[4.8,0.5,21.6]},{"mesh":1,"translation":[4.8,0,17]},{"mesh":0,"rotation":[0,0.6627970035852314,0,-0.7487991266277216],"translation":[4.8,0.5,17]},{"mesh":1,"translation":[4.8,0,12.400000000000002]},{"mesh":0,"rotation":[0,0.9690349123027054,0,0.24692375085942625],"translation":[4.8,0.5,12.400000000000002]},{"mesh":1,"translation":[4.8,0,7.800000000000004]},{"mesh":0,"rotation":[0,0.7810505686832732,0,-0.6244677807217404],"translation":[4.8,0.5,7.800000000000004]},{"mesh":1,"translation":[4.8,0,3.200000000000003]},{"mesh":0,"rotation":[0,0.4660740197198906,0,0.8847457307849205],"translation":[4.8,0.5,3.200000000000003]},{"mesh":1,"translation":[4.8,0,-1.3999999999999986]},{"mesh":0,"rotation":[0,0.9151440439802692,0,0.4031270007918585],"translation":[4.8,0.5,-1.3999999999999986]},{"mesh":1,"translation":[4.8,0,-6]},{"mesh":0,"rotation":[0,0.7650801415058306,0,-0.6439350720945539],"translation":[4.8,0.5,-6]},{"mesh":1,"translation":[4.8,0,-10.599999999999994]},{"mesh":0,"rotation":[0,0.004525746186321294,0,0.999989758758287],"translation":[4.8,0.5,-10.599999999999994]},{"mesh":1,"translation":[4.8,0,-15.199999999999996]},{"mesh":0,"rotation":[0,0.026247566788592257,0,0.9996554732695052],"translation":[4.8,0.5,-15.199999999999996]},{"mesh":1,"translation":[4.8,0,-19.799999999999997]},{"mesh":0,"rotation":[0,0.9976791183804508,0,0.0680909446814074],"translation":[4.8,0.5,-19.799999999999997]},{"mesh":1,"translation":[4.8,0,-24.39999999999999]},{"mesh":0,"rotation":[0,0.41701695302195974,0,-0.9088987077184568],"translation":[4.8,0.5,-24.39999999999999]},{"mesh":1,"translation":[4.8,0,-29]},{"mesh":0,"rotation":[0,0.9481302507804432,0,-0.3178820969400664],"translation":[4.8,0.5,-29]},{"mesh":1,"translation":[4.8,0,-33.599999999999994]},{"mesh":0,"rotation":[0,0.8408345068691702,0,-0.5412922796956182],"translation":[4.8,0.5,-33.599999999999994]},{"mesh":1,"translation":[4.8,0,-38.19999999999999]},{"mesh":0,"rotation":[0,0.6220189055752305,0,-0.7830022229259584],"translation":[4.8,0.5,-38.19999999999999]},{"mesh":1,"translation":[4.8,0,-42.8]},{"mesh":0,"rotation":[0,0.9650858875757788,0,-0.26193363587380514],"translation":[4.8,0.5,-42.8]},{"mesh":1,"translation":[4.8,0,-47.39999999999999]},{"mesh":0,"rotation":[0,0.9671852104643232,0,-0.25407236894058904],"translation":[4.8,0.5,-47.39999999999999]},{"mesh":1,"translation":[4.8,0,-52]},{"mesh":0,"rotation":[0,0.22095978252405649,0,0.9752829202374672],"translation":[4.8,0.5,-52]},{"mesh":1,"translation":[4.8,0,-56.599999999999994]},{"mesh":0,"rotation":[0,0.9205943621071272,0,0.3905201921240069],"translation":[4.8,0.5,-56.599999999999994]},{"children":[0,1,2,3,4,5,6,7,8,9,10,11,12,13,14,15,16,17,18,19,20,21,22,23,24,25,26,27,28,29,30,31,32,33,34,35,36,37,38,39,40,41,42,43,44,45,46,47,48,49,50,51,52,53,54,55,56,57,58,59,60,61,62,63,64,65,66,67,68,69,70,71,72,73,74,75,76,77,78,79,80,81,82,83,84,85,86,87,88,89,90],"name":"maquette","scale":[0.1,0.1,0.1]}],"scene":0,"scenes":[{"nodes":[91]}]}