{"accessors":[{"bufferView":0,"componentType":5126,"count":768,"max":[20.0,0.0,20.0],"min":[-20.0,-0.4000000059604645,-20.0],"type":"VEC3"},{"bufferView":1,"componentType":5126,"count":768,"type":"VEC3"},{"bufferView":2,"componentType":5123,"count":1152,"type":"SCALAR"},{"bufferView":3,"componentType":5126,"count":768,"max":[20.0,0.0,20.0],"min":[-20.0,-0.4000000059604645,-20.0],"type":"VEC3"},{"bufferView":4,"componentType":5126,"count":768,"type":"VEC3"},{"bufferView":5,"componentType":5123,"count":1152,"type":"SCALAR"},{"bufferView":6,"componentType":5126,"count":120,"max":[23.0,-0.009999999776482582,23.0],"min":[-23.0,-1.6100000143051147,-23.0],"type":"VEC3"},{"bufferView":7,"componentType":5126,"count":120,"type":"VEC3"},{"bufferView":8,"componentType":5123,"count":180,"type":"SCALAR"},{"bufferView":9,"componentType":5126,"count":2640,"max":[1.8910000324249268,5.849999904632568,1.8910000324249268],"min":[-1.8910000324249268,-0.017999999225139618,-1.8910000324249268],"type":"VEC3"},{"bufferView":10,"componentType":5126,"count":2640,"type":"VEC3"},{"bufferView":11,"componentType":5123,"count":15120,"type":"SCALAR"},{"bufferView":12,"componentType":5126,"count":2928,"max":[1.8910000324249268,4.5,1.8910000324249268],"min":[-1.8910000324249268,-0.017999999225139618,-1.8910000324249268],"type":"VEC3"},{"bufferView":13,"componentType":5126,"count":2928,"type":"VEC3"},{"bufferView":14,"componentType":5123,"count":17280,"type":"SCALAR"},{"bufferView":15,"componentType":5126,"count":2928,"max":[1.8910000324249268,4.5,1.8910000324249268],"min":[-1.8910000324249268,-0.017999999225139618,-1.8910000324249268],"type":"VEC3"},{"bufferView":16,"componentType":5126,"count":2928,"type":"VEC3"},{"bufferView":17,"componentType":5123,"count":17280,"type":"SCALAR"},{"bufferView":18,"componentType":5126,"count":2640,"max":[1.8910000324249268,5.849999904632568,1.8910000324249268],"min":[-1.8910000324249268,-0.017999999225139618,-1.8910000324249268],"type":"VEC3"},{"bufferView":19,"componentType":5126,"count":2640,"type":"VEC3"},{"bufferView":20,"componentType":5123,"count":15120,"type":"SCALAR"},{"bufferView":21,"componentType":5126,"count":1980,"max":[1.8910000324249268,5.550000190734863,1.8910000324249268],"min":[-2.0,-0.017999999225139618,-1.8910000324249268],"type":"VEC3"},{"bufferView":22,"componentType":5126,"count":1980,"type":"VEC3"},{"bufferView":23,"componentType":5123,"count":9612,"type":"SCALAR"},{"bufferView":24,"componentType":5126,"count":3312,"max":[1.8910000324249268,6.550000190734863,1.8910000324249268],"min":[-1.8910000324249268,-0.017999999225139618,-1.8910000324249268],"type":"VEC3"},{"bufferView":25,"componentType":5126,"count":3312,"type":"VEC3"},{"bufferView":26,"componentType":5123,"count":19584,"type":"SCALAR"},{"bufferView":27,"componentType":5126,"count":1980,"max":[1.8910000324249268,5.550000190734863,1.8910000324249268],"min":[-2.0,-0.017999999225139618,-1.8910000324249268],"type":"VEC3"},{"bufferView":28,"componentType":5126,"count":1980,"type":"VEC3"},{"bufferView":29,"componentType":5123,"count":9612,"type":"SCALAR"},{"bufferView":30,"componentType":5126,"count":3312,"max":[1.8910000324249268,6.550000190734863,1.8910000324249268],"min":[-1.8910000324249268,-0.017999999225139618,-1.8910000324249268],"type":"VEC3"},{"bufferView":31,"componentType":5126,"count":3312,"type":"VEC3"},{"bufferView":32,"componentType":5123,"count":19584,"type":"SCALAR"},{"bufferView":33,"componentType":5126,"count":3312,"max":[1.8910000324249268,7.800000190734863,1.8910000324249268],"min":[-1.8910000324249268,-0.017999999225139618,-1.8910000324249268],"type":"VEC3"},{"bufferView":34,"componentType":5126,"count":3312,"type":"VEC3"},{"bufferView":35,"componentType":5123,"count":19584,"type":"SCALAR"},{"bufferView":36,"componentType":5126,"count":3312,"max":[1.8910000324249268,7.800000190734863,1.8910000324249268],"min":[-1.8910000324249268,-0.017999999225139618,-1.8910000324249268],"type":"VEC3"},{"bufferView":37,"componentType":5126,"count":3312,"type":"VEC3"},{"bufferView":38,"componentType":5123,"count":19584,"type":"SCALAR"},{"bufferView":39,"componentType":5126,"count":3168,"max":[1.8910000324249268,8.75,1.8910000324249268],"min":[-1.8910000324249268,-0.017999999225139618,-1.8910000324249268],"type":"VEC3"},{"bufferView":40,"componentType":5126,"count":3168,"type":"VEC3"},{"bufferView":41,"componentType":5123,"count":18504,"type":"SCALAR"},{"bufferView":42,"componentType":5126,"count":3168,"max":[1.8910000324249268,8.75,1.8910000324249268],"min":[-1.8910000324249268,-0.017999999225139618,-1.8910000324249268],"type":"VEC3"},{"bufferView":43,"componentType":5126,"count":3168,"type":"VEC3"},{"bufferView":44,"componentType":5123,"count":18504,"type":"SCALAR"}],"asset":{"generator":"trillion3d-compiler 0.8.0 (usd-openusd-0.7.0-gltf-8)","version":"2.0"},"bufferViews":[{"buffer":0,"byteLength":9216,"byteOffset":0,"target":34962},{"buffer":0,"byteLength":9216,"byteOffset":9216,"target":34962},{"buffer":0,"byteLength":2304,"byteOffset":18432,"target":34963},{"buffer":0,"byteLength":9216,"byteOffset":20736,"target":34962},{"buffer":0,"byteLength":9216,"byteOffset":29952,"target":34962},{"buffer":0,"byteLength":2304,"byteOffset":39168,"target":34963},{"buffer":0,"byteLength":1440,"byteOffset":41472,"target":34962},{"buffer":0,"byteLength":1440,"byteOffset":42912,"target":34962},{"buffer":0,"byteLength":360,"byteOffset":44352,"target":34963},{"buffer":0,"byteLength":31680,"byteOffset":44712,"target":34962},{"buffer":0,"byteLength":31680,"byteOffset":76392,"target":34962},{"buffer":0,"byteLength":30240,"byteOffset":108072,"target":34963},{"buffer":0,"byteLength":35136,"byteOffset":138312,"target":34962},{"buffer":0,"byteLength":35136,"byteOffset":173448,"target":34962},{"buffer":0,"byteLength":34560,"byteOffset":208584,"target":34963},{"buffer":0,"byteLength":35136,"byteOffset":243144,"target":34962},{"buffer":0,"byteLength":35136,"byteOffset":278280,"target":34962},{"buffer":0,"byteLength":34560,"byteOffset":313416,"target":34963},{"buffer":0,"byteLength":31680,"byteOffset":347976,"target":34962},{"buffer":0,"byteLength":31680,"byteOffset":379656,"target":34962},{"buffer":0,"byteLength":30240,"byteOffset":411336,"target":34963},{"buffer":0,"byteLength":23760,"byteOffset":441576,"target":34962},{"buffer":0,"byteLength":23760,"byteOffset":465336,"target":34962},{"buffer":0,"byteLength":19224,"byteOffset":489096,"target":34963},{"buffer":0,"byteLength":39744,"byteOffset":508320,"target":34962},{"buffer":0,"byteLength":39744,"byteOffset":548064,"target":34962},{"buffer":0,"byteLength":39168,"byteOffset":587808,"target":34963},{"buffer":0,"byteLength":23760,"byteOffset":626976,"target":34962},{"buffer":0,"byteLength":23760,"byteOffset":650736,"target":34962},{"buffer":0,"byteLength":19224,"byteOffset":674496,"target":34963},{"buffer":0,"byteLength":39744,"byteOffset":693720,"target":34962},{"buffer":0,"byteLength":39744,"byteOffset":733464,"target":34962},{"buffer":0,"byteLength":39168,"byteOffset":773208,"target":34963},{"buffer":0,"byteLength":39744,"byteOffset":812376,"target":34962},{"buffer":0,"byteLength":39744,"byteOffset":852120,"target":34962},{"buffer":0,"byteLength":39168,"byteOffset":891864,"target":34963},{"buffer":0,"byteLength":39744,"byteOffset":931032,"target":34962},{"buffer":0,"byteLength":39744,"byteOffset":970776,"target":34962},{"buffer":0,"byteLength":39168,"byteOffset":1010520,"target":34963},{"buffer":0,"byteLength":38016,"byteOffset":1049688,"target":34962},{"buffer":0,"byteLength":38016,"byteOffset":1087704,"target":34962},{"buffer":0,"byteLength":37008,"byteOffset":1125720,"target":34963},{"buffer":0,"byteLength":38016,"byteOffset":1162728,"target":34962},{"buffer":0,"byteLength":38016,"byteOffset":1200744,"target":34962},{"buffer":0,"byteLength":37008,"byteOffset":1238760,"target":34963}],"buffers":[{"byteLength":1275768,"uri":"model.bin"}],"materials":[{"alphaMode":"OPAQUE","name":"Maple","pbrMetallicRoughness":{"baseColorFactor":[0.8600000143051147,0.7200000286102295,0.5199999809265137,1.0],"metallicFactor":0.0,"roughnessFactor":0.44999998807907104}},{"alphaMode":"OPAQUE","name":"Walnut","pbrMetallicRoughness":{"baseColorFactor":[0.36000001430511475,0.2199999988079071,0.12999999523162842,1.0],"metallicFactor":0.0,"roughnessFactor":0.44999998807907104}},{"alphaMode":"OPAQUE","name":"Frame","pbrMetallicRoughness":{"baseColorFactor":[0.23999999463558197,0.14000000059604645,0.07999999821186066,1.0],"metallicFactor":0.0,"roughnessFactor":0.4000000059604645}},{"alphaMode":"OPAQUE","name":"Ivory","pbrMetallicRoughness":{"baseColorFactor":[0.9300000071525574,0.8799999952316284,0.7799999713897705,1.0],"metallicFactor":0.0,"roughnessFactor":0.2800000011920929}},{"alphaMode":"OPAQUE","name":"Ebony","pbrMetallicRoughness":{"baseColorFactor":[0.1599999964237213,0.10999999940395355,0.09000000357627869,1.0],"metallicFactor":0.0,"roughnessFactor":0.30000001192092896}}],"meshes":[{"name":"LightSquares","primitives":[{"attributes":{"NORMAL":1,"POSITION":0},"indices":2,"material":0,"mode":4}]},{"name":"DarkSquares","primitives":[{"attributes":{"NORMAL":4,"POSITION":3},"indices":5,"material":1,"mode":4}]},{"name":"Frame","primitives":[{"attributes":{"NORMAL":7,"POSITION":6},"indices":8,"material":2,"mode":4}]},{"name":"Shape","primitives":[{"attributes":{"NORMAL":10,"POSITION":9},"indices":11,"material":3,"mode":4}]},{"name":"Shape","primitives":[{"attributes":{"NORMAL":13,"POSITION":12},"indices":14,"material":3,"mode":4}]},{"name":"Shape","primitives":[{"attributes":{"NORMAL":16,"POSITION":15},"indices":17,"material":4,"mode":4}]},{"name":"Shape","primitives":[{"attributes":{"NORMAL":19,"POSITION":18},"indices":20,"material":4,"mode":4}]},{"name":"Shape","primitives":[{"attributes":{"NORMAL":22,"POSITION":21},"indices":23,"material":3,"mode":4}]},{"name":"Shape","primitives":[{"attributes":{"NORMAL":25,"POSITION":24},"indices":26,"material":3,"mode":4}]},{"name":"Shape","primitives":[{"attributes":{"NORMAL":28,"POSITION":27},"indices":29,"material":4,"mode":4}]},{"name":"Shape","primitives":[{"attributes":{"NORMAL":31,"POSITION":30},"indices":32,"material":4,"mode":4}]},{"name":"Shape","primitives":[{"attributes":{"NORMAL":34,"POSITION":33},"indices":35,"material":3,"mode":4}]},{"name":"Shape","primitives":[{"attributes":{"NORMAL":37,"POSITION":36},"indices":38,"material":4,"mode":4}]},{"name":"Shape","primitives":[{"attributes":{"NORMAL":40,"POSITION":39},"indices":41,"material":3,"mode":4}]},{"name":"Shape","primitives":[{"attributes":{"NORMAL":43,"POSITION":42},"indices":44,"material":4,"mode":4}]}],"nodes":[{"mesh":0,"name":"LightSquares"},{"mesh":1,"name":"DarkSquares"},{"mesh":2,"name":"Frame"},{"children":[0,1,2],"name":"Board"},{"mesh":3,"name":"Shape"},{"children":[4],"matrix":[0.9659258262890683,0.0,0.25881904510252074,0.0,0.0,1.0,0.0,0.0,-0.25881904510252074,0.0,0.9659258262890683,0.0,-17.5,0.0,17.5,1.0],"name":"WhiteRook_a1"},{"mesh":4,"name":"Shape"},{"children":[6],"matrix":[0.9975640502598242,0.0,0.0697564737441253,0.0,0.0,1.0,0.0,0.0,-0.0697564737441253,0.0,0.9975640502598242,0.0,-17.5,0.0,12.5,1.0],"name":"WhitePawn_a2"},{"mesh":5,"name":"Shape"},{"children":[8],"matrix":[0.984807753012208,0.0,-0.17364817766693033,0.0,0.0,1.0,0.0,0.0,0.17364817766693033,0.0,0.984807753012208,0.0,-17.5,0.0,-7.5,1.0],"name":"BlackPawn_a6"},{"mesh":6,"name":"Shape"},{"children":[10],"matrix":[0.9993908270190958,0.0,-0.03489949670250097,0.0,0.0,1.0,0.0,0.0,0.03489949670250097,0.0,0.9993908270190958,0.0,-17.5,0.0,-17.5,1.0],"name":"BlackRook_a8"},{"mesh":7,"name":"Shape"},{"children":[12],"matrix":[6.123233995736766e-17,0.0,1.0,0.0,0.0,1.0,0.0,0.0,-1.0,0.0,6.123233995736766e-17,0.0,-12.5,0.0,17.5,1.0],"name":"WhiteKnight_b1"},{"mesh":4,"name":"Shape"},{"children":[14],"matrix":[0.9986295347545738,0.0,-0.052335956242943835,0.0,0.0,1.0,0.0,0.0,0.052335956242943835,0.0,0.9986295347545738,0.0,-12.5,0.0,12.5,1.0],"name":"WhitePawn_b2"},{"mesh":8,"name":"Shape"},{"children":[16],"matrix":[0.9945218953682733,0.0,-0.10452846326765347,0.0,0.0,1.0,0.0,0.0,0.10452846326765347,0.0,0.9945218953682733,0.0,-12.5,0.0,-2.5,1.0],"name":"WhiteBishop_b5"},{"mesh":5,"name":"Shape"},{"children":[18],"matrix":[0.9993908270190958,0.0,0.03489949670250097,0.0,0.0,1.0,0.0,0.0,-0.03489949670250097,0.0,0.9993908270190958,0.0,-12.5,0.0,-12.5,1.0],"name":"BlackPawn_b7"},{"mesh":8,"name":"Shape"},{"children":[20],"matrix":[0.9998476951563913,0.0,0.01745240643728351,0.0,0.0,1.0,0.0,0.0,-0.01745240643728351,0.0,0.9998476951563913,0.0,-7.5,0.0,17.5,1.0],"name":"WhiteBishop_c1"},{"mesh":4,"name":"Shape"},{"children":[22],"matrix":[0.984807753012208,0.0,-0.17364817766693033,0.0,0.0,1.0,0.0,0.0,0.17364817766693033,0.0,0.984807753012208,0.0,-7.5,0.0,12.5,1.0],"name":"WhitePawn_c2"},{"mesh":9,"name":"Shape"},{"children":[24],"matrix":[6.123233995736766e-17,0.0,-1.0,0.0,0.0,1.0,0.0,0.0,1.0,0.0,6.123233995736766e-17,0.0,-7.5,0.0,-7.5,1.0],"name":"BlackKnight_c6"},{"mesh":5,"name":"Shape"},{"children":[26],"matrix":[0.9961946980917455,0.0,-0.08715574274765817,0.0,0.0,1.0,0.0,0.0,0.08715574274765817,0.0,0.9961946980917455,0.0,-7.5,0.0,-12.5,1.0],"name":"BlackPawn_c7"},{"mesh":10,"name":"Shape"},{"children":[28],"matrix":[0.9702957262759965,0.0,0.24192189559966773,0.0,0.0,1.0,0.0,0.0,-0.24192189559966773,0.0,0.9702957262759965,0.0,-7.5,0.0,-17.5,1.0],"name":"BlackBishop_c8"},{"mesh":11,"name":"Shape"},{"children":[30],"matrix":[0.9945218953682733,0.0,-0.10452846326765347,0.0,0.0,1.0,0.0,0.0,0.10452846326765347,0.0,0.9945218953682733,0.0,-2.5,0.0,17.5,1.0],"name":"WhiteQueen_d1"},{"mesh":4,"name":"Shape"},{"children":[32],"matrix":[0.9743700647852352,0.0,0.224951054343865,0.0,0.0,1.0,0.0,0.0,-0.224951054343865,0.0,0.9743700647852352,0.0,-2.5,0.0,12.5,1.0],"name":"WhitePawn_d2"},{"mesh":5,"name":"Shape"},{"children":[34],"matrix":[0.9781476007338057,0.0,-0.20791169081775934,0.0,0.0,1.0,0.0,0.0,0.20791169081775934,0.0,0.9781476007338057,0.0,-2.5,0.0,-12.5,1.0],"name":"BlackPawn_d7"},{"mesh":12,"name":"Shape"},{"children":[36],"matrix":[0.992546151641322,0.0,0.12186934340514748,0.0,0.0,1.0,0.0,0.0,-0.12186934340514748,0.0,0.992546151641322,0.0,-2.5,0.0,-17.5,1.0],"name":"BlackQueen_d8"},{"mesh":13,"name":"Shape"},{"children":[38],"matrix":[0.9743700647852352,0.0,-0.224951054343865,0.0,0.0,1.0,0.0,0.0,0.224951054343865,0.0,0.9743700647852352,0.0,2.5,0.0,17.5,1.0],"name":"WhiteKing_e1"},{"mesh":4,"name":"Shape"},{"children":[40],"matrix":[0.9702957262759965,0.0,0.24192189559966773,0.0,0.0,1.0,0.0,0.0,-0.24192189559966773,0.0,0.9702957262759965,0.0,2.5,0.0,2.5,1.0],"name":"WhitePawn_e4"},{"mesh":5,"name":"Shape"},{"children":[42],"matrix":[0.9986295347545738,0.0,0.052335956242943835,0.0,0.0,1.0,0.0,0.0,-0.052335956242943835,0.0,0.9986295347545738,0.0,2.5,0.0,-2.5,1.0],"name":"BlackPawn_e5"},{"mesh":14,"name":"Shape"},{"children":[44],"matrix":[1.0,0.0,0.0,0.0,0.0,1.0,0.0,0.0,0.0,0.0,1.0,0.0,2.5,0.0,-17.5,1.0],"name":"BlackKing_e8"},{"mesh":4,"name":"Shape"},{"children":[46],"matrix":[0.9998476951563913,0.0,-0.01745240643728351,0.0,0.0,1.0,0.0,0.0,0.01745240643728351,0.0,0.9998476951563913,0.0,7.5,0.0,12.5,1.0],"name":"WhitePawn_f2"},{"mesh":7,"name":"Shape"},{"children":[48],"matrix":[6.123233995736766e-17,0.0,1.0,0.0,0.0,1.0,0.0,0.0,-1.0,0.0,6.123233995736766e-17,0.0,7.5,0.0,7.5,1.0],"name":"WhiteKnight_f3"},{"mesh":5,"name":"Shape"},{"children":[50],"matrix":[0.9975640502598242,0.0,0.0697564737441253,0.0,0.0,1.0,0.0,0.0,-0.0697564737441253,0.0,0.9975640502598242,0.0,7.5,0.0,-12.5,1.0],"name":"BlackPawn_f7"},{"mesh":10,"name":"Shape"},{"children":[52],"matrix":[0.992546151641322,0.0,-0.12186934340514748,0.0,0.0,1.0,0.0,0.0,0.12186934340514748,0.0,0.992546151641322,0.0,7.5,0.0,-17.5,1.0],"name":"BlackBishop_f8"},{"mesh":4,"name":"Shape"},{"children":[54],"matrix":[0.9902680687415704,0.0,-0.13917310096006544,0.0,0.0,1.0,0.0,0.0,0.13917310096006544,0.0,0.9902680687415704,0.0,12.5,0.0,12.5,1.0],"name":"WhitePawn_g2"},{"mesh":5,"name":"Shape"},{"children":[56],"matrix":[0.9986295347545738,0.0,-0.052335956242943835,0.0,0.0,1.0,0.0,0.0,0.052335956242943835,0.0,0.9986295347545738,0.0,12.5,0.0,-12.5,1.0],"name":"BlackPawn_g7"},{"mesh":9,"name":"Shape"},{"children":[58],"matrix":[6.123233995736766e-17,0.0,-1.0,0.0,0.0,1.0,0.0,0.0,1.0,0.0,6.123233995736766e-17,0.0,12.5,0.0,-17.5,1.0],"name":"BlackKnight_g8"},{"mesh":3,"name":"Shape"},{"children":[60],"matrix":[0.9975640502598242,0.0,-0.0697564737441253,0.0,0.0,1.0,0.0,0.0,0.0697564737441253,0.0,0.9975640502598242,0.0,17.5,0.0,17.5,1.0],"name":"WhiteRook_h1"},{"mesh":4,"name":"Shape"},{"children":[62],"matrix":[0.9659258262890683,0.0,0.25881904510252074,0.0,0.0,1.0,0.0,0.0,-0.25881904510252074,0.0,0.9659258262890683,0.0,17.5,0.0,12.5,1.0],"name":"WhitePawn_h2"},{"mesh":5,"name":"Shape"},{"children":[64],"matrix":[0.984807753012208,0.0,-0.17364817766693033,0.0,0.0,1.0,0.0,0.0,0.17364817766693033,0.0,0.984807753012208,0.0,17.5,0.0,-12.5,1.0],"name":"BlackPawn_h7"},{"mesh":6,"name":"Shape"},{"children":[66],"matrix":[0.9876883405951378,0.0,0.15643446504023087,0.0,0.0,1.0,0.0,0.0,-0.15643446504023087,0.0,0.9876883405951378,0.0,17.5,0.0,-17.5,1.0],"name":"BlackRook_h8"},{"children":[5,7,9,11,13,15,17,19,21,23,25,27,29,31,33,35,37,39,41,43,45,47,49,51,53,55,57,59,61,63,65,67],"name":"Pieces"},{"children":[3,68],"name":"ChessSet"},{"children":[69],"matrix":[0.01,0.0,0.0,0.0,0.0,0.01,0.0,0.0,0.0,0.0,0.01,0.0,0.0,0.0,0.0,1.0],"name":"usd-root"}],"scene":0,"scenes":[{"nodes":[70]}]}