{"accessors":[{"bufferView":0,"componentType":5126,"count":48,"max":[3,3.2,3.2],"min":[-3,-0.2,-0.30000000000000004],"type":"VEC3"},{"bufferView":1,"componentType":5126,"count":48,"max":[1,1,1],"min":[-1,-1,-1],"type":"VEC3"},{"bufferView":2,"componentType":5125,"count":72,"type":"SCALAR"},{"bufferView":3,"componentType":5126,"count":663,"max":[2.5,2.34,0.04],"min":[-1.74,0.8600000000000001,-0.04],"type":"VEC3"},{"bufferView":4,"componentType":5126,"count":663,"max":[0.9999999990130396,0.99999999950652,0.99999999950652],"min":[-0.9999999990130396,-0.99999999950652,-0.99999999950652],"type":"VEC3"},{"bufferView":5,"componentType":5125,"count":3528,"type":"SCALAR"}],"asset":{"copyright":"Original Web Geometry contributors; repository license","generator":"Web Geometry examples recipe v1","version":"2.0"},"bufferViews":[{"buffer":0,"byteLength":576,"byteOffset":0,"target":34962},{"buffer":0,"byteLength":576,"byteOffset":576,"target":34962},{"buffer":0,"byteLength":288,"byteOffset":1152,"target":34963},{"buffer":0,"byteLength":7956,"byteOffset":1440,"target":34962},{"buffer":0,"byteLength":7956,"byteOffset":9396,"target":34962},{"buffer":0,"byteLength":14112,"byteOffset":17352,"target":34963}],"buffers":[{"byteLength":31464,"uri":"source.bin"}],"extensionsUsed":["KHR_materials_emissive_strength"],"materials":[{"doubleSided":true,"name":"Dark render","pbrMetallicRoughness":{"baseColorFactor":[0.12,0.12,0.14,1],"metallicFactor":0,"roughnessFactor":0.9}},{"doubleSided":true,"emissiveFactor":[1,0.25,0.6],"extensions":{"KHR_materials_emissive_strength":{"emissiveStrength":6}},"name":"Neon glass","pbrMetallicRoughness":{"baseColorFactor":[1,0.4,0.7,1],"metallicFactor":0,"roughnessFactor":0.3}}],"meshes":[{"name":"scene","primitives":[{"attributes":{"NORMAL":1,"POSITION":0},"indices":2,"material":0},{"attributes":{"NORMAL":4,"POSITION":3},"indices":5,"material":1}]}],"nodes":[{"mesh":0,"name":"scene"}],"scene":0,"scenes":[{"name":"Neon sign","nodes":[0]}]}