{"accessors":[{"bufferView":0,"componentType":5126,"count":48,"max":[4,4,4],"min":[-4,-0.3,-4],"type":"VEC3"},{"bufferView":1,"componentType":5126,"count":48,"max":[1,1,1],"min":[-1,-1,-1],"type":"VEC3"},{"bufferView":2,"componentType":5125,"count":72,"type":"SCALAR"},{"bufferView":3,"componentType":5126,"count":392,"max":[0.3,2.2,0.3],"min":[-0.3,0,-0.3],"type":"VEC3"},{"bufferView":4,"componentType":5126,"count":392,"max":[0.99999999950652,0,0.99999999950652],"min":[-0.99999999950652,-1,-0.99999999950652],"type":"VEC3"},{"bufferView":5,"componentType":5125,"count":1728,"type":"SCALAR"},{"bufferView":6,"componentType":5126,"count":153,"max":[0.09,2.49,0.09],"min":[-0.09,2.31,-0.09],"type":"VEC3"},{"bufferView":7,"componentType":5126,"count":153,"max":[0.99999999938315,0.9238735211191345,0.99999999938315],"min":[-0.99999999938315,-0.9999999998766318,-0.99999999938315],"type":"VEC3"},{"bufferView":8,"componentType":5125,"count":768,"type":"SCALAR"},{"bufferView":9,"componentType":5126,"count":561,"max":[0.32,2.72,0.32],"min":[-0.32,2.08,-0.32],"type":"VEC3"},{"bufferView":10,"componentType":5126,"count":561,"max":[0.99999999938315,0.9807822157929263,0.99999999938315],"min":[-0.99999999938315,-0.99999999987663,-0.99999999938315],"type":"VEC3"},{"bufferView":11,"componentType":5125,"count":3072,"type":"SCALAR"}],"asset":{"copyright":"Original Web Geometry contributors; repository license","generator":"Web Geometry examples recipe v1","version":"2.0"},"bufferViews":[{"buffer":0,"byteLength":576,"byteOffset":0,"target":34962},{"buffer":0,"byteLength":576,"byteOffset":576,"target":34962},{"buffer":0,"byteLength":288,"byteOffset":1152,"target":34963},{"buffer":0,"byteLength":4704,"byteOffset":1440,"target":34962},{"buffer":0,"byteLength":4704,"byteOffset":6144,"target":34962},{"buffer":0,"byteLength":6912,"byteOffset":10848,"target":34963},{"buffer":0,"byteLength":1836,"byteOffset":17760,"target":34962},{"buffer":0,"byteLength":1836,"byteOffset":19596,"target":34962},{"buffer":0,"byteLength":3072,"byteOffset":21432,"target":34963},{"buffer":0,"byteLength":6732,"byteOffset":24504,"target":34962},{"buffer":0,"byteLength":6732,"byteOffset":31236,"target":34962},{"buffer":0,"byteLength":12288,"byteOffset":37968,"target":34963}],"buffers":[{"byteLength":50256,"uri":"source.bin"}],"materials":[{"doubleSided":true,"name":"Pavement","pbrMetallicRoughness":{"baseColorFactor":[0.45,0.44,0.42,1],"metallicFactor":0,"roughnessFactor":0.9}},{"doubleSided":true,"name":"Iron post","pbrMetallicRoughness":{"baseColorFactor":[0.12,0.12,0.13,1],"metallicFactor":0.8,"roughnessFactor":0.5}},{"doubleSided":true,"emissiveFactor":[1,0.8,0.5],"name":"Bulb","pbrMetallicRoughness":{"baseColorFactor":[1,0.9,0.7,1],"metallicFactor":0,"roughnessFactor":0.5}},{"alphaMode":"BLEND","doubleSided":true,"name":"Glass globe","pbrMetallicRoughness":{"baseColorFactor":[0.9,0.95,1,0.22],"metallicFactor":0,"roughnessFactor":0.1}}],"meshes":[{"name":"scene","primitives":[{"attributes":{"NORMAL":1,"POSITION":0},"indices":2,"material":0},{"attributes":{"NORMAL":4,"POSITION":3},"indices":5,"material":1},{"attributes":{"NORMAL":7,"POSITION":6},"indices":8,"material":2},{"attributes":{"NORMAL":10,"POSITION":9},"indices":11,"material":3}]}],"nodes":[{"mesh":0,"name":"scene"}],"scene":0,"scenes":[{"name":"Lamp in its glass","nodes":[0]}]}