{"asset":{"version":"2.0","generator":"Web Geometry examples recipe v1","copyright":"Original Web Geometry contributors; repository license"},"scene":0,"scenes":[{"nodes":[0]}],"nodes":[{"name":"Colour ramp","mesh":0}],"meshes":[{"name":"Colour ramp","primitives":[{"material":0,"attributes":{"POSITION":0,"NORMAL":1},"indices":2},{"material":1,"attributes":{"POSITION":3,"NORMAL":4},"indices":5},{"material":2,"attributes":{"POSITION":6,"NORMAL":7},"indices":8},{"material":3,"attributes":{"POSITION":9,"NORMAL":10},"indices":11},{"material":4,"attributes":{"POSITION":12,"NORMAL":13},"indices":14},{"material":5,"attributes":{"POSITION":15,"NORMAL":16},"indices":17},{"material":6,"attributes":{"POSITION":18,"NORMAL":19},"indices":20},{"material":7,"attributes":{"POSITION":21,"NORMAL":22},"indices":23},{"material":8,"attributes":{"POSITION":24,"NORMAL":25},"indices":26},{"material":9,"attributes":{"POSITION":27,"NORMAL":28},"indices":29},{"material":10,"attributes":{"POSITION":30,"NORMAL":31},"indices":32},{"material":11,"attributes":{"POSITION":33,"NORMAL":34},"indices":35},{"material":12,"attributes":{"POSITION":36,"NORMAL":37},"indices":38},{"material":13,"attributes":{"POSITION":39,"NORMAL":40},"indices":41},{"material":14,"attributes":{"POSITION":42,"NORMAL":43},"indices":44},{"material":15,"attributes":{"POSITION":45,"NORMAL":46},"indices":47},{"material":16,"attributes":{"POSITION":48,"NORMAL":49},"indices":50},{"material":17,"attributes":{"POSITION":51,"NORMAL":52},"indices":53},{"material":18,"attributes":{"POSITION":54,"NORMAL":55},"indices":56},{"material":19,"attributes":{"POSITION":57,"NORMAL":58},"indices":59},{"material":20,"attributes":{"POSITION":60,"NORMAL":61},"indices":62},{"material":21,"attributes":{"POSITION":63,"NORMAL":64},"indices":65},{"material":22,"attributes":{"POSITION":66,"NORMAL":67},"indices":68}]}],"materials":[{"name":"Graphite","doubleSided":true,"pbrMetallicRoughness":{"baseColorFactor":[0.08,0.08,0.09,1],"metallicFactor":0,"roughnessFactor":0.9}},{"name":"Grey 0 0","doubleSided":true,"pbrMetallicRoughness":{"baseColorFactor":[0,0,0,1],"metallicFactor":0,"roughnessFactor":0.9}},{"name":"Grey 1 0","doubleSided":true,"pbrMetallicRoughness":{"baseColorFactor":[0,0,0,1],"metallicFactor":0,"roughnessFactor":0.9}},{"name":"Grey 0 1","doubleSided":true,"pbrMetallicRoughness":{"baseColorFactor":[0.1,0.1,0.1,1],"metallicFactor":0,"roughnessFactor":0.9}},{"name":"Grey 1 1","doubleSided":true,"pbrMetallicRoughness":{"baseColorFactor":[0.010022825574869039,0.010022825574869039,0.010022825574869039,1],"metallicFactor":0,"roughnessFactor":0.9}},{"name":"Grey 0 2","doubleSided":true,"pbrMetallicRoughness":{"baseColorFactor":[0.2,0.2,0.2,1],"metallicFactor":0,"roughnessFactor":0.9}},{"name":"Grey 1 2","doubleSided":true,"pbrMetallicRoughness":{"baseColorFactor":[0.033104766570885055,0.033104766570885055,0.033104766570885055,1],"metallicFactor":0,"roughnessFactor":0.9}},{"name":"Grey 0 3","doubleSided":true,"pbrMetallicRoughness":{"baseColorFactor":[0.3,0.3,0.3,1],"metallicFactor":0,"roughnessFactor":0.9}},{"name":"Grey 1 3","doubleSided":true,"pbrMetallicRoughness":{"baseColorFactor":[0.07323895587840543,0.07323895587840543,0.07323895587840543,1],"metallicFactor":0,"roughnessFactor":0.9}},{"name":"Grey 0 4","doubleSided":true,"pbrMetallicRoughness":{"baseColorFactor":[0.4,0.4,0.4,1],"metallicFactor":0,"roughnessFactor":0.9}},{"name":"Grey 1 4","doubleSided":true,"pbrMetallicRoughness":{"baseColorFactor":[0.13286832155381798,0.13286832155381798,0.13286832155381798,1],"metallicFactor":0,"roughnessFactor":0.9}},{"name":"Grey 0 5","doubleSided":true,"pbrMetallicRoughness":{"baseColorFactor":[0.5,0.5,0.5,1],"metallicFactor":0,"roughnessFactor":0.9}},{"name":"Grey 1 5","doubleSided":true,"pbrMetallicRoughness":{"baseColorFactor":[0.21404114048223255,0.21404114048223255,0.21404114048223255,1],"metallicFactor":0,"roughnessFactor":0.9}},{"name":"Grey 0 6","doubleSided":true,"pbrMetallicRoughness":{"baseColorFactor":[0.6,0.6,0.6,1],"metallicFactor":0,"roughnessFactor":0.9}},{"name":"Grey 1 6","doubleSided":true,"pbrMetallicRoughness":{"baseColorFactor":[0.31854677812509186,0.31854677812509186,0.31854677812509186,1],"metallicFactor":0,"roughnessFactor":0.9}},{"name":"Grey 0 7","doubleSided":true,"pbrMetallicRoughness":{"baseColorFactor":[0.7,0.7,0.7,1],"metallicFactor":0,"roughnessFactor":0.9}},{"name":"Grey 1 7","doubleSided":true,"pbrMetallicRoughness":{"baseColorFactor":[0.44798841244188325,0.44798841244188325,0.44798841244188325,1],"metallicFactor":0,"roughnessFactor":0.9}},{"name":"Grey 0 8","doubleSided":true,"pbrMetallicRoughness":{"baseColorFactor":[0.8,0.8,0.8,1],"metallicFactor":0,"roughnessFactor":0.9}},{"name":"Grey 1 8","doubleSided":true,"pbrMetallicRoughness":{"baseColorFactor":[0.6038273388553378,0.6038273388553378,0.6038273388553378,1],"metallicFactor":0,"roughnessFactor":0.9}},{"name":"Grey 0 9","doubleSided":true,"pbrMetallicRoughness":{"baseColorFactor":[0.9,0.9,0.9,1],"metallicFactor":0,"roughnessFactor":0.9}},{"name":"Grey 1 9","doubleSided":true,"pbrMetallicRoughness":{"baseColorFactor":[0.7874122893956174,0.7874122893956174,0.7874122893956174,1],"metallicFactor":0,"roughnessFactor":0.9}},{"name":"Grey 0 10","doubleSided":true,"pbrMetallicRoughness":{"baseColorFactor":[1,1,1,1],"metallicFactor":0,"roughnessFactor":0.9}},{"name":"Grey 1 10","doubleSided":true,"pbrMetallicRoughness":{"baseColorFactor":[1,1,1,1],"metallicFactor":0,"roughnessFactor":0.9}}],"buffers":[{"uri":"geometry.bin","byteLength":16560}],"bufferViews":[{"buffer":0,"byteOffset":0,"byteLength":288,"target":34962},{"buffer":0,"byteOffset":288,"byteLength":288,"target":34962},{"buffer":0,"byteOffset":576,"byteLength":144,"target":34963},{"buffer":0,"byteOffset":720,"byteLength":288,"target":34962},{"buffer":0,"byteOffset":1008,"byteLength":288,"target":34962},{"buffer":0,"byteOffset":1296,"byteLength":144,"target":34963},{"buffer":0,"byteOffset":1440,"byteLength":288,"target":34962},{"buffer":0,"byteOffset":1728,"byteLength":288,"target":34962},{"buffer":0,"byteOffset":2016,"byteLength":144,"target":34963},{"buffer":0,"byteOffset":2160,"byteLength":288,"target":34962},{"buffer":0,"byteOffset":2448,"byteLength":288,"target":34962},{"buffer":0,"byteOffset":2736,"byteLength":144,"target":34963},{"buffer":0,"byteOffset":2880,"byteLength":288,"target":34962},{"buffer":0,"byteOffset":3168,"byteLength":288,"target":34962},{"buffer":0,"byteOffset":3456,"byteLength":144,"target":34963},{"buffer":0,"byteOffset":3600,"byteLength":288,"target":34962},{"buffer":0,"byteOffset":3888,"byteLength":288,"target":34962},{"buffer":0,"byteOffset":4176,"byteLength":144,"target":34963},{"buffer":0,"byteOffset":4320,"byteLength":288,"target":34962},{"buffer":0,"byteOffset":4608,"byteLength":288,"target":34962},{"buffer":0,"byteOffset":4896,"byteLength":144,"target":34963},{"buffer":0,"byteOffset":5040,"byteLength":288,"target":34962},{"buffer":0,"byteOffset":5328,"byteLength":288,"target":34962},{"buffer":0,"byteOffset":5616,"byteLength":144,"target":34963},{"buffer":0,"byteOffset":5760,"byteLength":288,"target":34962},{"buffer":0,"byteOffset":6048,"byteLength":288,"target":34962},{"buffer":0,"byteOffset":6336,"byteLength":144,"target":34963},{"buffer":0,"byteOffset":6480,"byteLength":288,"target":34962},{"buffer":0,"byteOffset":6768,"byteLength":288,"target":34962},{"buffer":0,"byteOffset":7056,"byteLength":144,"target":34963},{"buffer":0,"byteOffset":7200,"byteLength":288,"target":34962},{"buffer":0,"byteOffset":7488,"byteLength":288,"target":34962},{"buffer":0,"byteOffset":7776,"byteLength":144,"target":34963},{"buffer":0,"byteOffset":7920,"byteLength":288,"target":34962},{"buffer":0,"byteOffset":8208,"byteLength":288,"target":34962},{"buffer":0,"byteOffset":8496,"byteLength":144,"target":34963},{"buffer":0,"byteOffset":8640,"byteLength":288,"target":34962},{"buffer":0,"byteOffset":8928,"byteLength":288,"target":34962},{"buffer":0,"byteOffset":9216,"byteLength":144,"target":34963},{"buffer":0,"byteOffset":9360,"byteLength":288,"target":34962},{"buffer":0,"byteOffset":9648,"byteLength":288,"target":34962},{"buffer":0,"byteOffset":9936,"byteLength":144,"target":34963},{"buffer":0,"byteOffset":10080,"byteLength":288,"target":34962},{"buffer":0,"byteOffset":10368,"byteLength":288,"target":34962},{"buffer":0,"byteOffset":10656,"byteLength":144,"target":34963},{"buffer":0,"byteOffset":10800,"byteLength":288,"target":34962},{"buffer":0,"byteOffset":11088,"byteLength":288,"target":34962},{"buffer":0,"byteOffset":11376,"byteLength":144,"target":34963},{"buffer":0,"byteOffset":11520,"byteLength":288,"target":34962},{"buffer":0,"byteOffset":11808,"byteLength":288,"target":34962},{"buffer":0,"byteOffset":12096,"byteLength":144,"target":34963},{"buffer":0,"byteOffset":12240,"byteLength":288,"target":34962},{"buffer":0,"byteOffset":12528,"byteLength":288,"target":34962},{"buffer":0,"byteOffset":12816,"byteLength":144,"target":34963},{"buffer":0,"byteOffset":12960,"byteLength":288,"target":34962},{"buffer":0,"byteOffset":13248,"byteLength":288,"target":34962},{"buffer":0,"byteOffset":13536,"byteLength":144,"target":34963},{"buffer":0,"byteOffset":13680,"byteLength":288,"target":34962},{"buffer":0,"byteOffset":13968,"byteLength":288,"target":34962},{"buffer":0,"byteOffset":14256,"byteLength":144,"target":34963},{"buffer":0,"byteOffset":14400,"byteLength":288,"target":34962},{"buffer":0,"byteOffset":14688,"byteLength":288,"target":34962},{"buffer":0,"byteOffset":14976,"byteLength":144,"target":34963},{"buffer":0,"byteOffset":15120,"byteLength":288,"target":34962},{"buffer":0,"byteOffset":15408,"byteLength":288,"target":34962},{"buffer":0,"byteOffset":15696,"byteLength":144,"target":34963},{"buffer":0,"byteOffset":15840,"byteLength":288,"target":34962},{"buffer":0,"byteOffset":16128,"byteLength":288,"target":34962},{"buffer":0,"byteOffset":16416,"byteLength":144,"target":34963}],"accessors":[{"bufferView":0,"componentType":5126,"type":"VEC3","count":24,"min":[-4,-0.3,-4],"max":[4,0,4]},{"bufferView":1,"componentType":5126,"type":"VEC3","count":24,"min":[-1,-1,-1],"max":[1,1,1]},{"bufferView":2,"componentType":5125,"type":"SCALAR","count":36},{"bufferView":3,"componentType":5126,"type":"VEC3","count":24,"min":[-3.38,0,-0.98],"max":[-2.8200000000000003,0.3,-0.41999999999999993]},{"bufferView":4,"componentType":5126,"type":"VEC3","count":24,"min":[-1,-1,-1],"max":[1,1,1]},{"bufferView":5,"componentType":5125,"type":"SCALAR","count":36},{"bufferView":6,"componentType":5126,"type":"VEC3","count":24,"min":[-3.38,0,0.41999999999999993],"max":[-2.8200000000000003,0.3,0.98]},{"bufferView":7,"componentType":5126,"type":"VEC3","count":24,"min":[-1,-1,-1],"max":[1,1,1]},{"bufferView":8,"componentType":5125,"type":"SCALAR","count":36},{"bufferView":9,"componentType":5126,"type":"VEC3","count":24,"min":[-2.76,0,-0.98],"max":[-2.2,0.3,-0.41999999999999993]},{"bufferView":10,"componentType":5126,"type":"VEC3","count":24,"min":[-1,-1,-1],"max":[1,1,1]},{"bufferView":11,"componentType":5125,"type":"SCALAR","count":36},{"bufferView":12,"componentType":5126,"type":"VEC3","count":24,"min":[-2.76,0,0.41999999999999993],"max":[-2.2,0.3,0.98]},{"bufferView":13,"componentType":5126,"type":"VEC3","count":24,"min":[-1,-1,-1],"max":[1,1,1]},{"bufferView":14,"componentType":5125,"type":"SCALAR","count":36},{"bufferView":15,"componentType":5126,"type":"VEC3","count":24,"min":[-2.1399999999999997,0,-0.98],"max":[-1.5799999999999998,0.3,-0.41999999999999993]},{"bufferView":16,"componentType":5126,"type":"VEC3","count":24,"min":[-1,-1,-1],"max":[1,1,1]},{"bufferView":17,"componentType":5125,"type":"SCALAR","count":36},{"bufferView":18,"componentType":5126,"type":"VEC3","count":24,"min":[-2.1399999999999997,0,0.41999999999999993],"max":[-1.5799999999999998,0.3,0.98]},{"bufferView":19,"componentType":5126,"type":"VEC3","count":24,"min":[-1,-1,-1],"max":[1,1,1]},{"bufferView":20,"componentType":5125,"type":"SCALAR","count":36},{"bufferView":21,"componentType":5126,"type":"VEC3","count":24,"min":[-1.52,0,-0.98],"max":[-0.96,0.3,-0.41999999999999993]},{"bufferView":22,"componentType":5126,"type":"VEC3","count":24,"min":[-1,-1,-1],"max":[1,1,1]},{"bufferView":23,"componentType":5125,"type":"SCALAR","count":36},{"bufferView":24,"componentType":5126,"type":"VEC3","count":24,"min":[-1.52,0,0.41999999999999993],"max":[-0.96,0.3,0.98]},{"bufferView":25,"componentType":5126,"type":"VEC3","count":24,"min":[-1,-1,-1],"max":[1,1,1]},{"bufferView":26,"componentType":5125,"type":"SCALAR","count":36},{"bufferView":27,"componentType":5126,"type":"VEC3","count":24,"min":[-0.9,0,-0.98],"max":[-0.33999999999999997,0.3,-0.41999999999999993]},{"bufferView":28,"componentType":5126,"type":"VEC3","count":24,"min":[-1,-1,-1],"max":[1,1,1]},{"bufferView":29,"componentType":5125,"type":"SCALAR","count":36},{"bufferView":30,"componentType":5126,"type":"VEC3","count":24,"min":[-0.9,0,0.41999999999999993],"max":[-0.33999999999999997,0.3,0.98]},{"bufferView":31,"componentType":5126,"type":"VEC3","count":24,"min":[-1,-1,-1],"max":[1,1,1]},{"bufferView":32,"componentType":5125,"type":"SCALAR","count":36},{"bufferView":33,"componentType":5126,"type":"VEC3","count":24,"min":[-0.28,0,-0.98],"max":[0.28,0.3,-0.41999999999999993]},{"bufferView":34,"componentType":5126,"type":"VEC3","count":24,"min":[-1,-1,-1],"max":[1,1,1]},{"bufferView":35,"componentType":5125,"type":"SCALAR","count":36},{"bufferView":36,"componentType":5126,"type":"VEC3","count":24,"min":[-0.28,0,0.41999999999999993],"max":[0.28,0.3,0.98]},{"bufferView":37,"componentType":5126,"type":"VEC3","count":24,"min":[-1,-1,-1],"max":[1,1,1]},{"bufferView":38,"componentType":5125,"type":"SCALAR","count":36},{"bufferView":39,"componentType":5126,"type":"VEC3","count":24,"min":[0.33999999999999997,0,-0.98],"max":[0.9,0.3,-0.41999999999999993]},{"bufferView":40,"componentType":5126,"type":"VEC3","count":24,"min":[-1,-1,-1],"max":[1,1,1]},{"bufferView":41,"componentType":5125,"type":"SCALAR","count":36},{"bufferView":42,"componentType":5126,"type":"VEC3","count":24,"min":[0.33999999999999997,0,0.41999999999999993],"max":[0.9,0.3,0.98]},{"bufferView":43,"componentType":5126,"type":"VEC3","count":24,"min":[-1,-1,-1],"max":[1,1,1]},{"bufferView":44,"componentType":5125,"type":"SCALAR","count":36},{"bufferView":45,"componentType":5126,"type":"VEC3","count":24,"min":[0.96,0,-0.98],"max":[1.52,0.3,-0.41999999999999993]},{"bufferView":46,"componentType":5126,"type":"VEC3","count":24,"min":[-1,-1,-1],"max":[1,1,1]},{"bufferView":47,"componentType":5125,"type":"SCALAR","count":36},{"bufferView":48,"componentType":5126,"type":"VEC3","count":24,"min":[0.96,0,0.41999999999999993],"max":[1.52,0.3,0.98]},{"bufferView":49,"componentType":5126,"type":"VEC3","count":24,"min":[-1,-1,-1],"max":[1,1,1]},{"bufferView":50,"componentType":5125,"type":"SCALAR","count":36},{"bufferView":51,"componentType":5126,"type":"VEC3","count":24,"min":[1.5799999999999998,0,-0.98],"max":[2.1399999999999997,0.3,-0.41999999999999993]},{"bufferView":52,"componentType":5126,"type":"VEC3","count":24,"min":[-1,-1,-1],"max":[1,1,1]},{"bufferView":53,"componentType":5125,"type":"SCALAR","count":36},{"bufferView":54,"componentType":5126,"type":"VEC3","count":24,"min":[1.5799999999999998,0,0.41999999999999993],"max":[2.1399999999999997,0.3,0.98]},{"bufferView":55,"componentType":5126,"type":"VEC3","count":24,"min":[-1,-1,-1],"max":[1,1,1]},{"bufferView":56,"componentType":5125,"type":"SCALAR","count":36},{"bufferView":57,"componentType":5126,"type":"VEC3","count":24,"min":[2.2,0,-0.98],"max":[2.76,0.3,-0.41999999999999993]},{"bufferView":58,"componentType":5126,"type":"VEC3","count":24,"min":[-1,-1,-1],"max":[1,1,1]},{"bufferView":59,"componentType":5125,"type":"SCALAR","count":36},{"bufferView":60,"componentType":5126,"type":"VEC3","count":24,"min":[2.2,0,0.41999999999999993],"max":[2.76,0.3,0.98]},{"bufferView":61,"componentType":5126,"type":"VEC3","count":24,"min":[-1,-1,-1],"max":[1,1,1]},{"bufferView":62,"componentType":5125,"type":"SCALAR","count":36},{"bufferView":63,"componentType":5126,"type":"VEC3","count":24,"min":[2.8200000000000003,0,-0.98],"max":[3.38,0.3,-0.41999999999999993]},{"bufferView":64,"componentType":5126,"type":"VEC3","count":24,"min":[-1,-1,-1],"max":[1,1,1]},{"bufferView":65,"componentType":5125,"type":"SCALAR","count":36},{"bufferView":66,"componentType":5126,"type":"VEC3","count":24,"min":[2.8200000000000003,0,0.41999999999999993],"max":[3.38,0.3,0.98]},{"bufferView":67,"componentType":5126,"type":"VEC3","count":24,"min":[-1,-1,-1],"max":[1,1,1]},{"bufferView":68,"componentType":5125,"type":"SCALAR","count":36}]}