{"accessors":[{"bufferView":0,"componentType":5126,"count":154,"max":[6,8.4,-3.28],"min":[-6,0,-3.625],"type":"VEC3"},{"bufferView":1,"componentType":5126,"count":154,"max":[1,1,1],"min":[-1,-1,-1],"type":"VEC3"},{"bufferView":2,"componentType":5125,"count":420,"type":"SCALAR"},{"bufferView":3,"componentType":5126,"count":96,"max":[7.25,8.125,4.2],"min":[-7.25,-0.7,-4.8],"type":"VEC3"},{"bufferView":4,"componentType":5126,"count":96,"max":[1,1,1],"min":[-1,-1,-1],"type":"VEC3"},{"bufferView":5,"componentType":5125,"count":144,"type":"SCALAR"},{"bufferView":6,"componentType":5126,"count":1660,"max":[7.62,8.8,0.82],"min":[-7.62,-0.05,-3.28],"type":"VEC3"},{"bufferView":7,"componentType":5126,"count":1660,"max":[1,1,1],"min":[-1,-1,-1],"type":"VEC3"},{"bufferView":8,"componentType":5125,"count":5868,"type":"SCALAR"},{"bufferView":9,"componentType":5126,"count":11931,"max":[6.775,7.9,0.2499657310296028],"min":[-6.775,0.34999999999999964,-0.5499657310296028],"type":"VEC3"},{"bufferView":10,"componentType":5126,"count":11931,"max":[0.9738780052268706,0.15797105730314345,0.9981717134461936],"min":[-0.9738780052270928,-0.15797105730670635,0.2270717751083355],"type":"VEC3"},{"bufferView":11,"componentType":5125,"count":69120,"type":"SCALAR"},{"bufferView":12,"componentType":5126,"count":975,"max":[3.83,5.82,-1.41],"min":[-4.05,2.65,-1.49],"type":"VEC3"},{"bufferView":13,"componentType":5126,"count":975,"max":[1,1,1],"min":[-1,-1,-1],"type":"VEC3"},{"bufferView":14,"componentType":5125,"count":3003,"type":"SCALAR"},{"bufferView":15,"componentType":5126,"count":130,"max":[1.25,6.5,-3.34],"min":[-1.25,4,-3.34],"type":"VEC3"},{"bufferView":16,"componentType":5126,"count":130,"max":[0,0,0],"min":[0,0,-1],"type":"VEC3"},{"bufferView":17,"componentType":5125,"count":384,"type":"SCALAR"}],"asset":{"copyright":"Original Web Geometry contributors; repository license","generator":"Web Geometry Nocturne Theatre recipe v1","version":"2.0"},"bufferViews":[{"buffer":0,"byteLength":1848,"byteOffset":0,"target":34962},{"buffer":0,"byteLength":1848,"byteOffset":1848,"target":34962},{"buffer":0,"byteLength":1680,"byteOffset":3696,"target":34963},{"buffer":0,"byteLength":1152,"byteOffset":5376,"target":34962},{"buffer":0,"byteLength":1152,"byteOffset":6528,"target":34962},{"buffer":0,"byteLength":576,"byteOffset":7680,"target":34963},{"buffer":0,"byteLength":19920,"byteOffset":8256,"target":34962},{"buffer":0,"byteLength":19920,"byteOffset":28176,"target":34962},{"buffer":0,"byteLength":23472,"byteOffset":48096,"target":34963},{"buffer":0,"byteLength":143172,"byteOffset":71568,"target":34962},{"buffer":0,"byteLength":143172,"byteOffset":214740,"target":34962},{"buffer":0,"byteLength":276480,"byteOffset":357912,"target":34963},{"buffer":0,"byteLength":11700,"byteOffset":634392,"target":34962},{"buffer":0,"byteLength":11700,"byteOffset":646092,"target":34962},{"buffer":0,"byteLength":12012,"byteOffset":657792,"target":34963},{"buffer":0,"byteLength":1560,"byteOffset":669804,"target":34962},{"buffer":0,"byteLength":1560,"byteOffset":671364,"target":34962},{"buffer":0,"byteLength":1536,"byteOffset":672924,"target":34963}],"buffers":[{"byteLength":674460,"uri":"source.bin"}],"materials":[{"doubleSided":true,"name":"Ivory projection wall","pbrMetallicRoughness":{"baseColorFactor":[0.9,0.78,0.58,1],"metallicFactor":0,"roughnessFactor":0.74}},{"doubleSided":true,"name":"Burgundy velvet","pbrMetallicRoughness":{"baseColorFactor":[0.34,0.018,0.035,1],"metallicFactor":0,"roughnessFactor":0.9}},{"doubleSided":true,"name":"Aged brass","pbrMetallicRoughness":{"baseColorFactor":[0.58,0.28,0.055,1],"metallicFactor":0.82,"roughnessFactor":0.24}},{"doubleSided":true,"name":"Walnut stage","pbrMetallicRoughness":{"baseColorFactor":[0.15,0.045,0.018,1],"metallicFactor":0.05,"roughnessFactor":0.58}},{"doubleSided":true,"name":"Cut paper silhouettes","pbrMetallicRoughness":{"baseColorFactor":[0.015,0.02,0.028,1],"metallicFactor":0,"roughnessFactor":0.82}},{"doubleSided":true,"name":"Moon enamel","pbrMetallicRoughness":{"baseColorFactor":[0.06,0.16,0.3,1],"metallicFactor":0.42,"roughnessFactor":0.22}}],"meshes":[{"name":"Original theatre, curtains and paper actors","primitives":[{"attributes":{"NORMAL":1,"POSITION":0},"indices":2,"material":0},{"attributes":{"NORMAL":4,"POSITION":3},"indices":5,"material":3},{"attributes":{"NORMAL":7,"POSITION":6},"indices":8,"material":2},{"attributes":{"NORMAL":10,"POSITION":9},"indices":11,"material":1},{"attributes":{"NORMAL":13,"POSITION":12},"indices":14,"material":4},{"attributes":{"NORMAL":16,"POSITION":15},"indices":17,"material":5}]}],"nodes":[{"mesh":0,"name":"Nocturne shadow theatre"}],"scene":0,"scenes":[{"nodes":[0]}]}