{"accessors":[{"bufferView":0,"componentType":5126,"count":9603,"max":[6,4.096383094787598,6],"min":[-6,-1.1423401832580566,-6],"type":"VEC3"},{"bufferView":1,"componentType":5125,"count":28125,"type":"SCALAR"},{"bufferView":2,"componentType":5125,"count":11829,"type":"SCALAR"},{"bufferView":3,"componentType":5125,"count":10470,"type":"SCALAR"},{"bufferView":4,"componentType":5125,"count":4872,"type":"SCALAR"},{"bufferView":5,"componentType":5125,"count":576,"type":"SCALAR"}],"asset":{"generator":"Web Geometry original mountain authoring","version":"2.0"},"bufferViews":[{"buffer":0,"byteLength":115236,"byteOffset":0,"target":34962},{"buffer":0,"byteLength":112500,"byteOffset":115236,"target":34963},{"buffer":0,"byteLength":47316,"byteOffset":227736,"target":34963},{"buffer":0,"byteLength":41880,"byteOffset":275052,"target":34963},{"buffer":0,"byteLength":19488,"byteOffset":316932,"target":34963},{"buffer":0,"byteLength":2304,"byteOffset":336420,"target":34963}],"buffers":[{"byteLength":338724,"uri":"source.bin"}],"extensions":{"KHR_lights_punctual":{"lights":[{"color":[1,0.91,0.8],"intensity":2600,"type":"directional"}]}},"extensionsUsed":["KHR_lights_punctual"],"materials":[{"doubleSided":true,"name":"valley soil","pbrMetallicRoughness":{"baseColorFactor":[0.18,0.25,0.16,1],"metallicFactor":0,"roughnessFactor":0.9}},{"doubleSided":true,"name":"alpine grass","pbrMetallicRoughness":{"baseColorFactor":[0.29,0.38,0.2,1],"metallicFactor":0,"roughnessFactor":0.9}},{"doubleSided":true,"name":"exposed rock","pbrMetallicRoughness":{"baseColorFactor":[0.38,0.29,0.2,1],"metallicFactor":0,"roughnessFactor":0.9}},{"doubleSided":true,"name":"summit stone","pbrMetallicRoughness":{"baseColorFactor":[0.72,0.7,0.65,1],"metallicFactor":0,"roughnessFactor":0.9}},{"doubleSided":true,"name":"river","pbrMetallicRoughness":{"baseColorFactor":[0.035,0.22,0.34,1],"metallicFactor":0.18,"roughnessFactor":0.38}}],"meshes":[{"primitives":[{"attributes":{"POSITION":0},"indices":1,"material":0},{"attributes":{"POSITION":0},"indices":2,"material":1},{"attributes":{"POSITION":0},"indices":3,"material":2},{"attributes":{"POSITION":0},"indices":4,"material":3},{"attributes":{"POSITION":0},"indices":5,"material":4}]}],"nodes":[{"mesh":0,"name":"Eroded mountain watershed"},{"extensions":{"KHR_lights_punctual":{"light":0}},"name":"Mountain light","rotation":[-0.31,0.19,0.06,0.93]}],"scene":0,"scenes":[{"nodes":[0,1]}]}