mtllib floor.mtl
vn 1 0 0
vn -1 0 0
vn 0 1 0
vn 0 -1 0
vn 0 0 1
vn 0 0 -1
usemtl floor
v 4.0000 -0.2000 -4.0000
v 4.0000 0.0000 -4.0000
v 4.0000 0.0000 4.0000
v 4.0000 -0.2000 4.0000
f 1//1 2//1 3//1
f 1//1 3//1 4//1
v -4.0000 0.0000 -4.0000
v -4.0000 -0.2000 -4.0000
v -4.0000 -0.2000 4.0000
v -4.0000 0.0000 4.0000
f 5//2 6//2 7//2
f 5//2 7//2 8//2
v -4.0000 0.0000 -4.0000
v -4.0000 0.0000 4.0000
v 4.0000 0.0000 4.0000
v 4.0000 0.0000 -4.0000
f 9//3 10//3 11//3
f 9//3 11//3 12//3
v -4.0000 -0.2000 4.0000
v -4.0000 -0.2000 -4.0000
v 4.0000 -0.2000 -4.0000
v 4.0000 -0.2000 4.0000
f 13//4 14//4 15//4
f 13//4 15//4 16//4
v -4.0000 -0.2000 4.0000
v 4.0000 -0.2000 4.0000
v 4.0000 0.0000 4.0000
v -4.0000 0.0000 4.0000
f 17//5 18//5 19//5
f 17//5 19//5 20//5
v 4.0000 -0.2000 -4.0000
v -4.0000 -0.2000 -4.0000
v -4.0000 0.0000 -4.0000
v 4.0000 0.0000 -4.0000
f 21//6 22//6 23//6
f 21//6 23//6 24//6
