{"accessors":[{"bufferView":0,"componentType":5126,"count":3,"max":[0,0,0],"min":[0,0,0],"type":"VEC3"},{"bufferView":1,"componentType":5123,"count":3,"type":"SCALAR"}],"asset":{"copyright":"Original Web Geometry contributors; repository license","generator":"Web Geometry Nocturne Theatre recipe v1","version":"2.0"},"bufferViews":[{"buffer":0,"byteLength":36,"byteOffset":0},{"buffer":0,"byteLength":6,"byteOffset":36}],"buffers":[{"byteLength":44,"uri":"scene.bin"}],"materials":[{"doubleSided":true,"name":"Ivory projection wall","pbrMetallicRoughness":{"baseColorFactor":[0.9,0.78,0.58,1],"metallicFactor":0,"roughnessFactor":0.74}},{"doubleSided":true,"name":"Burgundy velvet","pbrMetallicRoughness":{"baseColorFactor":[0.34,0.018,0.035,1],"metallicFactor":0,"roughnessFactor":0.9}},{"doubleSided":true,"name":"Aged brass","pbrMetallicRoughness":{"baseColorFactor":[0.58,0.28,0.055,1],"metallicFactor":0.82,"roughnessFactor":0.24}},{"doubleSided":true,"name":"Walnut stage","pbrMetallicRoughness":{"baseColorFactor":[0.15,0.045,0.018,1],"metallicFactor":0.05,"roughnessFactor":0.58}},{"doubleSided":true,"name":"Cut paper silhouettes","pbrMetallicRoughness":{"baseColorFactor":[0.015,0.02,0.028,1],"metallicFactor":0,"roughnessFactor":0.82}},{"doubleSided":true,"name":"Moon enamel","pbrMetallicRoughness":{"baseColorFactor":[0.06,0.16,0.3,1],"metallicFactor":0.42,"roughnessFactor":0.22}}],"meshes":[{"name":"Original theatre, curtains and paper actors","primitives":[{"attributes":{"POSITION":0},"indices":1,"material":0,"mode":4},{"attributes":{"POSITION":0},"indices":1,"material":3,"mode":4},{"attributes":{"POSITION":0},"indices":1,"material":2,"mode":4},{"attributes":{"POSITION":0},"indices":1,"material":1,"mode":4},{"attributes":{"POSITION":0},"indices":1,"material":4,"mode":4},{"attributes":{"POSITION":0},"indices":1,"material":5,"mode":4}]}],"nodes":[{"mesh":0,"name":"Nocturne shadow theatre"}],"scene":0,"scenes":[{"nodes":[0]}]}