{"asset":{"version":"2.0","generator":"Web Geometry examples recipe v1","copyright":"Original Web Geometry contributors; repository license"},"scene":0,"scenes":[{"name":"Lighthouse","nodes":[0]}],"nodes":[{"name":"scene","mesh":0}],"meshes":[{"name":"scene","primitives":[{"material":0,"attributes":{"POSITION":0,"NORMAL":1},"indices":2},{"material":1,"attributes":{"POSITION":3,"NORMAL":4},"indices":5},{"material":2,"attributes":{"POSITION":6,"NORMAL":7},"indices":8},{"material":3,"attributes":{"POSITION":9,"NORMAL":10},"indices":11}]}],"materials":[{"name":"Wet sand","doubleSided":true,"pbrMetallicRoughness":{"baseColorFactor":[0.5,0.47,0.4,1],"metallicFactor":0,"roughnessFactor":0.7}},{"name":"Rock","doubleSided":true,"pbrMetallicRoughness":{"baseColorFactor":[0.28,0.27,0.26,1],"metallicFactor":0,"roughnessFactor":0.9}},{"name":"Whitewash","doubleSided":true,"pbrMetallicRoughness":{"baseColorFactor":[0.85,0.83,0.78,1],"metallicFactor":0,"roughnessFactor":0.8}},{"name":"Lantern glass","doubleSided":true,"pbrMetallicRoughness":{"baseColorFactor":[0.8,0.85,0.9,0.3],"metallicFactor":0,"roughnessFactor":0.1},"alphaMode":"BLEND"}],"buffers":[{"uri":"scene.bin","byteLength":134232}],"bufferViews":[{"buffer":0,"byteOffset":0,"byteLength":288,"target":34962},{"buffer":0,"byteOffset":288,"byteLength":288,"target":34962},{"buffer":0,"byteOffset":576,"byteLength":144,"target":34963},{"buffer":0,"byteOffset":720,"byteLength":29148,"target":34962},{"buffer":0,"byteOffset":29868,"byteLength":29148,"target":34962},{"buffer":0,"byteOffset":59016,"byteLength":46080,"target":34963},{"buffer":0,"byteOffset":105096,"byteLength":5880,"target":34962},{"buffer":0,"byteOffset":110976,"byteLength":5880,"target":34962},{"buffer":0,"byteOffset":116856,"byteLength":9216,"target":34963},{"buffer":0,"byteOffset":126072,"byteLength":2352,"target":34962},{"buffer":0,"byteOffset":128424,"byteLength":2352,"target":34962},{"buffer":0,"byteOffset":130776,"byteLength":3456,"target":34963}],"accessors":[{"bufferView":0,"componentType":5126,"type":"VEC3","count":24,"min":[-15,-0.4,-15],"max":[15,0,15]},{"bufferView":1,"componentType":5126,"type":"VEC3","count":24,"min":[-1,-1,-1],"max":[1,1,1]},{"bufferView":2,"componentType":5125,"type":"SCALAR","count":36},{"bufferView":3,"componentType":5126,"type":"VEC3","count":2429,"min":[-9.139043159817856,-1.6672752353362739,-11.825917337385087],"max":[10.481316637803035,1.6,8.778442353849675]},{"bufferView":4,"componentType":5126,"type":"VEC3","count":2429,"min":[-0.9999999993831502,-1,-0.9999999993831508],"max":[0.9999999993831502,0.8660175496023578,0.9999999993831508]},{"bufferView":5,"componentType":5125,"type":"SCALAR","count":11520},{"bufferView":6,"componentType":5126,"type":"VEC3","count":490,"min":[-1.4,1.6,-1.4],"max":[1.4,8.1,1.4]},{"bufferView":7,"componentType":5126,"type":"VEC3","count":490,"min":[-0.9999999995065199,-1,-0.9999999995065199],"max":[0.9999999995065199,1,0.9999999995065199]},{"bufferView":8,"componentType":5125,"type":"SCALAR","count":2304},{"bufferView":9,"componentType":5126,"type":"VEC3","count":196,"min":[-0.9,6.5,-0.9],"max":[0.9,7.9,0.9]},{"bufferView":10,"componentType":5126,"type":"VEC3","count":196,"min":[-0.9999999995065199,-1,-0.9999999995065199],"max":[0.9999999995065199,0,0.9999999995065199]},{"bufferView":11,"componentType":5125,"type":"SCALAR","count":864}]}