{"accessors":[{"bufferView":0,"componentType":5126,"count":1881,"max":[4.248180389404297,3.6593785285949707,6.179131031036377],"min":[-4.192347526550293,0.00019003999477718025,-6.213320255279541],"type":"VEC3"},{"bufferView":1,"componentType":5126,"count":1881,"type":"VEC3"},{"bufferView":2,"componentType":5126,"count":1881,"type":"VEC2"},{"bufferView":3,"componentType":5123,"count":3951,"type":"SCALAR"},{"bufferView":4,"componentType":5126,"count":24,"max":[6.0,0.0,6.0],"min":[-6.0,-0.30000001192092896,-6.0],"type":"VEC3"},{"bufferView":5,"componentType":5126,"count":24,"type":"VEC3"},{"bufferView":6,"componentType":5123,"count":36,"type":"SCALAR"},{"bufferView":7,"componentType":5126,"count":96,"max":[5.849999904632568,0.30000001192092896,5.849999904632568],"min":[-5.849999904632568,0.0,-5.849999904632568],"type":"VEC3"},{"bufferView":8,"componentType":5126,"count":96,"type":"VEC3"},{"bufferView":9,"componentType":5123,"count":144,"type":"SCALAR"}],"asset":{"generator":"web-geometry-compiler 0.8.0 (obj-ufbx-0.11.3-gltf-7)","version":"2.0"},"bufferViews":[{"buffer":0,"byteLength":22572,"byteOffset":0,"target":34962},{"buffer":0,"byteLength":22572,"byteOffset":22572,"target":34962},{"buffer":0,"byteLength":15048,"byteOffset":45144,"target":34962},{"buffer":0,"byteLength":7902,"byteOffset":60192,"target":34963},{"buffer":0,"byteLength":288,"byteOffset":68096,"target":34962},{"buffer":0,"byteLength":288,"byteOffset":68384,"target":34962},{"buffer":0,"byteLength":72,"byteOffset":68672,"target":34963},{"buffer":0,"byteLength":1152,"byteOffset":68744,"target":34962},{"buffer":0,"byteLength":1152,"byteOffset":69896,"target":34962},{"buffer":0,"byteLength":288,"byteOffset":71048,"target":34963}],"buffers":[{"byteLength":71336,"uri":"model.bin"}],"images":[{"mimeType":"image/bmp","name":"helicopter1.bmp","uri":"helicopter1.bmp"}],"materials":[{"emissiveFactor":[0.0,0.0,0.0],"name":"helicopter1.bmp","pbrMetallicRoughness":{"baseColorFactor":[1.0,1.0,1.0,1.0],"baseColorTexture":{"index":0},"metallicFactor":0.0,"roughnessFactor":1.0}},{"emissiveFactor":[0.0,0.0,0.0],"name":"concrete","pbrMetallicRoughness":{"baseColorFactor":[0.42,0.42,0.4,1.0],"metallicFactor":0.0,"roughnessFactor":0.6}},{"emissiveFactor":[0.0,0.0,0.0],"name":"paint","pbrMetallicRoughness":{"baseColorFactor":[0.85,0.75,0.15,1.0],"metallicFactor":0.0,"roughnessFactor":0.6}}],"meshes":[{"name":"Group","primitives":[{"attributes":{"NORMAL":1,"POSITION":0,"TEXCOORD_0":2},"indices":3,"material":0,"mode":4}]},{"name":"","primitives":[{"attributes":{"NORMAL":5,"POSITION":4},"indices":6,"material":1,"mode":4},{"attributes":{"NORMAL":8,"POSITION":7},"indices":9,"material":2,"mode":4}]}],"nodes":[{"matrix":[1.0,0.0,0.0,0.0,0.0,1.0,0.0,0.0,0.0,0.0,1.0,0.0,0.0,0.0,0.0,1.0],"mesh":0,"name":"Group"},{"matrix":[1.0,0.0,0.0,0.0,0.0,1.0,0.0,0.0,0.0,0.0,1.0,0.0,0.0,0.0,0.0,1.0],"mesh":1,"name":""}],"samplers":[{"magFilter":9729,"minFilter":9987,"wrapS":10497,"wrapT":10497}],"scene":0,"scenes":[{"nodes":[0,1]}],"textures":[{"sampler":0,"source":0}]}