{"accessors":[{"bufferView":0,"componentType":5126,"count":24,"max":[0.550000011920929,0.0,0.375],"min":[-0.550000011920929,-0.03999999910593033,-0.375],"type":"VEC3"},{"bufferView":1,"componentType":5126,"count":24,"type":"VEC3"},{"bufferView":2,"componentType":5123,"count":36,"type":"SCALAR"},{"bufferView":3,"componentType":5126,"count":670,"max":[0.20000000298023224,0.016100000590085983,0.20000000298023224],"min":[-0.20000000298023224,0.01209999993443489,-0.20000000298023224],"type":"VEC3"},{"bufferView":4,"componentType":5126,"count":670,"type":"VEC3"},{"bufferView":5,"componentType":5123,"count":1152,"type":"SCALAR"},{"bufferView":6,"componentType":5126,"count":670,"max":[0.20000000298023224,0.016100000590085983,0.20000000298023224],"min":[-0.20000000298023224,0.01209999993443489,-0.20000000298023224],"type":"VEC3"},{"bufferView":7,"componentType":5126,"count":670,"type":"VEC3"},{"bufferView":8,"componentType":5123,"count":1152,"type":"SCALAR"},{"bufferView":9,"componentType":5126,"count":104,"max":[0.23000000417232513,0.01600000075995922,0.23000000417232513],"min":[-0.23000000417232513,0.0,-0.23000000417232513],"type":"VEC3"},{"bufferView":10,"componentType":5126,"count":104,"type":"VEC3"},{"bufferView":11,"componentType":5123,"count":180,"type":"SCALAR"},{"bufferView":12,"componentType":5126,"count":744,"max":[-0.15609000623226166,0.07460000365972519,0.19391000270843506],"min":[-0.19391000270843506,0.015939999371767044,0.15609000623226166],"type":"VEC3"},{"bufferView":13,"componentType":5126,"count":744,"type":"VEC3"},{"bufferView":14,"componentType":5123,"count":3888,"type":"SCALAR"},{"bufferView":15,"componentType":5126,"count":744,"max":[-0.15613999962806702,0.06109999865293503,0.14385999739170074],"min":[-0.1938599944114685,0.015939999371767044,0.10614000260829926],"type":"VEC3"},{"bufferView":16,"componentType":5126,"count":744,"type":"VEC3"},{"bufferView":17,"componentType":5123,"count":4320,"type":"SCALAR"},{"bufferView":18,"componentType":5126,"count":744,"max":[-0.15616999566555023,0.06109999865293503,-0.05617000162601471],"min":[-0.1938299983739853,0.015939999371767044,-0.09382999688386917],"type":"VEC3"},{"bufferView":19,"componentType":5126,"count":744,"type":"VEC3"},{"bufferView":20,"componentType":5123,"count":4320,"type":"SCALAR"},{"bufferView":21,"componentType":5126,"count":744,"max":[-0.1561100035905838,0.07460000365972519,-0.1561100035905838],"min":[-0.19389000535011292,0.015939999371767044,-0.19389000535011292],"type":"VEC3"},{"bufferView":22,"componentType":5126,"count":744,"type":"VEC3"},{"bufferView":23,"componentType":5123,"count":3888,"type":"SCALAR"},{"bufferView":24,"componentType":5126,"count":654,"max":[-0.1060900017619133,0.07159999758005142,0.19391000270843506],"min":[-0.1439100056886673,0.015939999371767044,0.1550000011920929],"type":"VEC3"},{"bufferView":25,"componentType":5126,"count":654,"type":"VEC3"},{"bufferView":26,"componentType":5123,"count":2700,"type":"SCALAR"},{"bufferView":27,"componentType":5126,"count":744,"max":[-0.10611999779939651,0.06109999865293503,0.1438799947500229],"min":[-0.1438799947500229,0.015939999371767044,0.10611999779939651],"type":"VEC3"},{"bufferView":28,"componentType":5126,"count":744,"type":"VEC3"},{"bufferView":29,"componentType":5123,"count":4320,"type":"SCALAR"},{"bufferView":30,"componentType":5126,"count":744,"max":[-0.10610999912023544,0.06109999865293503,-0.10610999912023544],"min":[-0.14388999342918396,0.015939999371767044,-0.14388999342918396],"type":"VEC3"},{"bufferView":31,"componentType":5126,"count":744,"type":"VEC3"},{"bufferView":32,"componentType":5123,"count":4320,"type":"SCALAR"},{"bufferView":33,"componentType":5126,"count":840,"max":[-0.05609999969601631,0.08160000294446945,0.193900004029274],"min":[-0.09390000253915787,0.015939999371767044,0.15610000491142273],"type":"VEC3"},{"bufferView":34,"componentType":5126,"count":840,"type":"VEC3"},{"bufferView":35,"componentType":5123,"count":4896,"type":"SCALAR"},{"bufferView":36,"componentType":5126,"count":744,"max":[-0.05617000162601471,0.06109999865293503,0.14383000135421753],"min":[-0.09382999688386917,0.015939999371767044,0.10616999864578247],"type":"VEC3"},{"bufferView":37,"componentType":5126,"count":744,"type":"VEC3"},{"bufferView":38,"componentType":5123,"count":4320,"type":"SCALAR"},{"bufferView":39,"componentType":5126,"count":744,"max":[-0.05620000138878822,0.06109999865293503,-0.05620000138878822],"min":[-0.09380000084638596,0.015939999371767044,-0.09380000084638596],"type":"VEC3"},{"bufferView":40,"componentType":5126,"count":744,"type":"VEC3"},{"bufferView":41,"componentType":5123,"count":4320,"type":"SCALAR"},{"bufferView":42,"componentType":5126,"count":744,"max":[-0.05617000162601471,0.06109999865293503,-0.10616999864578247],"min":[-0.09382999688386917,0.015939999371767044,-0.14383000135421753],"type":"VEC3"},{"bufferView":43,"componentType":5126,"count":744,"type":"VEC3"},{"bufferView":44,"componentType":5123,"count":4320,"type":"SCALAR"},{"bufferView":45,"componentType":5126,"count":840,"max":[-0.05609999969601631,0.08160000294446945,-0.15610000491142273],"min":[-0.09390000253915787,0.015939999371767044,-0.193900004029274],"type":"VEC3"},{"bufferView":46,"componentType":5126,"count":840,"type":"VEC3"},{"bufferView":47,"componentType":5123,"count":4896,"type":"SCALAR"},{"bufferView":48,"componentType":5126,"count":840,"max":[-0.006200000178068876,0.0940999984741211,0.19380000233650208],"min":[-0.043800000101327896,0.015939999371767044,0.15620000660419464],"type":"VEC3"},{"bufferView":49,"componentType":5126,"count":840,"type":"VEC3"},{"bufferView":50,"componentType":5123,"count":4896,"type":"SCALAR"},{"bufferView":51,"componentType":5126,"count":744,"max":[-0.00610999995842576,0.06109999865293503,0.14388999342918396],"min":[-0.04388999938964844,0.015939999371767044,0.10610999912023544],"type":"VEC3"},{"bufferView":52,"componentType":5126,"count":744,"type":"VEC3"},{"bufferView":53,"componentType":5123,"count":4320,"type":"SCALAR"},{"bufferView":54,"componentType":5126,"count":840,"max":[-0.00622999994084239,0.0940999984741211,-0.15623000264167786],"min":[-0.04377000033855438,0.015939999371767044,-0.19377000629901886],"type":"VEC3"},{"bufferView":55,"componentType":5126,"count":840,"type":"VEC3"},{"bufferView":56,"componentType":5123,"count":4896,"type":"SCALAR"},{"bufferView":57,"componentType":5126,"count":840,"max":[0.04388999938964844,0.10360000282526016,0.19389000535011292],"min":[0.00610999995842576,0.015939999371767044,0.1561100035905838],"type":"VEC3"},{"bufferView":58,"componentType":5126,"count":840,"type":"VEC3"},{"bufferView":59,"componentType":5123,"count":4680,"type":"SCALAR"},{"bufferView":60,"componentType":5126,"count":744,"max":[0.04390000179409981,0.06109999865293503,0.04390000179409981],"min":[0.006099999882280827,0.015939999371767044,0.006099999882280827],"type":"VEC3"},{"bufferView":61,"componentType":5126,"count":744,"type":"VEC3"},{"bufferView":62,"componentType":5123,"count":4320,"type":"SCALAR"},{"bufferView":63,"componentType":5126,"count":744,"max":[0.043880000710487366,0.06109999865293503,-0.006120000034570694],"min":[0.006120000034570694,0.015939999371767044,-0.043880000710487366],"type":"VEC3"},{"bufferView":64,"componentType":5126,"count":744,"type":"VEC3"},{"bufferView":65,"componentType":5123,"count":4320,"type":"SCALAR"},{"bufferView":66,"componentType":5126,"count":840,"max":[0.04391000047326088,0.10360000282526016,-0.15609000623226166],"min":[0.006089999806135893,0.015939999371767044,-0.19391000270843506],"type":"VEC3"},{"bufferView":67,"componentType":5126,"count":840,"type":"VEC3"},{"bufferView":68,"componentType":5123,"count":4680,"type":"SCALAR"},{"bufferView":69,"componentType":5126,"count":744,"max":[0.09390000253915787,0.06109999865293503,0.14390000700950623],"min":[0.05609999969601631,0.015939999371767044,0.10610000044107437],"type":"VEC3"},{"bufferView":70,"componentType":5126,"count":744,"type":"VEC3"},{"bufferView":71,"componentType":5123,"count":4320,"type":"SCALAR"},{"bufferView":72,"componentType":5126,"count":654,"max":[0.09391000121831894,0.07159999758005142,0.09391000121831894],"min":[0.05609000101685524,0.015939999371767044,0.054999999701976776],"type":"VEC3"},{"bufferView":73,"componentType":5126,"count":654,"type":"VEC3"},{"bufferView":74,"componentType":5123,"count":2700,"type":"SCALAR"},{"bufferView":75,"componentType":5126,"count":744,"max":[0.09386000037193298,0.06109999865293503,-0.10614000260829926],"min":[0.0561399981379509,0.015939999371767044,-0.14385999739170074],"type":"VEC3"},{"bufferView":76,"componentType":5126,"count":744,"type":"VEC3"},{"bufferView":77,"componentType":5123,"count":4320,"type":"SCALAR"},{"bufferView":78,"componentType":5126,"count":840,"max":[0.09376999735832214,0.08160000294446945,-0.15623000264167786],"min":[0.05623000115156174,0.015939999371767044,-0.19377000629901886],"type":"VEC3"},{"bufferView":79,"componentType":5126,"count":840,"type":"VEC3"},{"bufferView":80,"componentType":5123,"count":4896,"type":"SCALAR"},{"bufferView":81,"componentType":5126,"count":744,"max":[0.1437699943780899,0.06109999865293503,0.1437699943780899],"min":[0.1062299981713295,0.015939999371767044,0.1062299981713295],"type":"VEC3"},{"bufferView":82,"componentType":5126,"count":744,"type":"VEC3"},{"bufferView":83,"componentType":5123,"count":4320,"type":"SCALAR"},{"bufferView":84,"componentType":5126,"count":744,"max":[0.1438799947500229,0.06109999865293503,-0.10611999779939651],"min":[0.10611999779939651,0.015939999371767044,-0.1438799947500229],"type":"VEC3"},{"bufferView":85,"componentType":5126,"count":744,"type":"VEC3"},{"bufferView":86,"componentType":5123,"count":4320,"type":"SCALAR"},{"bufferView":87,"componentType":5126,"count":654,"max":[0.1439100056886673,0.07159999758005142,-0.1550000011920929],"min":[0.1060900017619133,0.015939999371767044,-0.19391000270843506],"type":"VEC3"},{"bufferView":88,"componentType":5126,"count":654,"type":"VEC3"},{"bufferView":89,"componentType":5123,"count":2700,"type":"SCALAR"},{"bufferView":90,"componentType":5126,"count":744,"max":[0.1938599944114685,0.07460000365972519,0.1938599944114685],"min":[0.15613999962806702,0.015939999371767044,0.15613999962806702],"type":"VEC3"},{"bufferView":91,"componentType":5126,"count":744,"type":"VEC3"},{"bufferView":92,"componentType":5123,"count":3888,"type":"SCALAR"},{"bufferView":93,"componentType":5126,"count":744,"max":[0.19391000270843506,0.06109999865293503,0.1439100056886673],"min":[0.15609000623226166,0.015939999371767044,0.1060900017619133],"type":"VEC3"},{"bufferView":94,"componentType":5126,"count":744,"type":"VEC3"},{"bufferView":95,"componentType":5123,"count":4320,"type":"SCALAR"},{"bufferView":96,"componentType":5126,"count":744,"max":[0.1938299983739853,0.06109999865293503,-0.10616999864578247],"min":[0.15616999566555023,0.015939999371767044,-0.14383000135421753],"type":"VEC3"},{"bufferView":97,"componentType":5126,"count":744,"type":"VEC3"},{"bufferView":98,"componentType":5123,"count":4320,"type":"SCALAR"},{"bufferView":99,"componentType":5126,"count":744,"max":[0.19380000233650208,0.07460000365972519,-0.15620000660419464],"min":[0.15620000660419464,0.015939999371767044,-0.19380000233650208],"type":"VEC3"},{"bufferView":100,"componentType":5126,"count":744,"type":"VEC3"},{"bufferView":101,"componentType":5123,"count":3888,"type":"SCALAR"},{"bufferView":102,"componentType":5126,"count":654,"max":[0.28891000151634216,0.05550000071525574,0.14000000059604645],"min":[0.25108999013900757,-0.00015999999595806003,0.10108999907970428],"type":"VEC3"},{"bufferView":103,"componentType":5126,"count":654,"type":"VEC3"},{"bufferView":104,"componentType":5123,"count":2700,"type":"SCALAR"},{"bufferView":105,"componentType":5126,"count":840,"max":[-0.25108999013900757,0.06549999862909317,-0.10108999907970428],"min":[-0.28891000151634216,-0.00015999999595806003,-0.13890999555587769],"type":"VEC3"},{"bufferView":106,"componentType":5126,"count":840,"type":"VEC3"},{"bufferView":107,"componentType":5123,"count":4896,"type":"SCALAR"},{"bufferView":108,"componentType":5126,"count":24,"max":[0.33500000834465027,0.05999999865889549,-0.004999999888241291],"min":[0.2849999964237213,0.0,-0.1550000011920929],"type":"VEC3"},{"bufferView":109,"componentType":5126,"count":24,"type":"VEC3"},{"bufferView":110,"componentType":5123,"count":36,"type":"SCALAR"},{"bufferView":111,"componentType":5126,"count":24,"max":[0.28600001335144043,0.0494999997317791,-0.09749999642372131],"min":[0.28299999237060547,0.014499999582767487,-0.13249999284744263],"type":"VEC3"},{"bufferView":112,"componentType":5126,"count":24,"type":"VEC3"},{"bufferView":113,"componentType":5123,"count":36,"type":"SCALAR"},{"bufferView":114,"componentType":5126,"count":24,"max":[0.3174999952316284,0.06700000166893005,-0.10750000178813934],"min":[0.30250000953674316,0.05900000035762787,-0.12250000238418579],"type":"VEC3"},{"bufferView":115,"componentType":5126,"count":24,"type":"VEC3"},{"bufferView":116,"componentType":5123,"count":36,"type":"SCALAR"},{"bufferView":117,"componentType":5126,"count":24,"max":[0.28600001335144043,0.0494999997317791,-0.027499999850988388],"min":[0.28299999237060547,0.014499999582767487,-0.0625],"type":"VEC3"},{"bufferView":118,"componentType":5126,"count":24,"type":"VEC3"},{"bufferView":119,"componentType":5123,"count":36,"type":"SCALAR"},{"bufferView":120,"componentType":5126,"count":24,"max":[0.3174999952316284,0.06700000166893005,-0.03750000149011612],"min":[0.30250000953674316,0.05900000035762787,-0.05249999836087227],"type":"VEC3"},{"bufferView":121,"componentType":5126,"count":24,"type":"VEC3"},{"bufferView":122,"componentType":5123,"count":36,"type":"SCALAR"}],"asset":{"generator":"web-geometry-compiler 0.8.0 (obj-ufbx-0.11.3-gltf-7)","version":"2.0"},"bufferViews":[{"buffer":0,"byteLength":288,"byteOffset":0,"target":34962},{"buffer":0,"byteLength":288,"byteOffset":288,"target":34962},{"buffer":0,"byteLength":72,"byteOffset":576,"target":34963},{"buffer":0,"byteLength":8040,"byteOffset":648,"target":34962},{"buffer":0,"byteLength":8040,"byteOffset":8688,"target":34962},{"buffer":0,"byteLength":2304,"byteOffset":16728,"target":34963},{"buffer":0,"byteLength":8040,"byteOffset":19032,"target":34962},{"buffer":0,"byteLength":8040,"byteOffset":27072,"target":34962},{"buffer":0,"byteLength":2304,"byteOffset":35112,"target":34963},{"buffer":0,"byteLength":1248,"byteOffset":37416,"target":34962},{"buffer":0,"byteLength":1248,"byteOffset":38664,"target":34962},{"buffer":0,"byteLength":360,"byteOffset":39912,"target":34963},{"buffer":0,"byteLength":8928,"byteOffset":40272,"target":34962},{"buffer":0,"byteLength":8928,"byteOffset":49200,"target":34962},{"buffer":0,"byteLength":7776,"byteOffset":58128,"target":34963},{"buffer":0,"byteLength":8928,"byteOffset":65904,"target":34962},{"buffer":0,"byteLength":8928,"byteOffset":74832,"target":34962},{"buffer":0,"byteLength":8640,"byteOffset":83760,"target":34963},{"buffer":0,"byteLength":8928,"byteOffset":92400,"target":34962},{"buffer":0,"byteLength":8928,"byteOffset":101328,"target":34962},{"buffer":0,"byteLength":8640,"byteOffset":110256,"target":34963},{"buffer":0,"byteLength":8928,"byteOffset":118896,"target":34962},{"buffer":0,"byteLength":8928,"byteOffset":127824,"target":34962},{"buffer":0,"byteLength":7776,"byteOffset":136752,"target":34963},{"buffer":0,"byteLength":7848,"byteOffset":144528,"target":34962},{"buffer":0,"byteLength":7848,"byteOffset":152376,"target":34962},{"buffer":0,"byteLength":5400,"byteOffset":160224,"target":34963},{"buffer":0,"byteLength":8928,"byteOffset":165624,"target":34962},{"buffer":0,"byteLength":8928,"byteOffset":174552,"target":34962},{"buffer":0,"byteLength":8640,"byteOffset":183480,"target":34963},{"buffer":0,"byteLength":8928,"byteOffset":192120,"target":34962},{"buffer":0,"byteLength":8928,"byteOffset":201048,"target":34962},{"buffer":0,"byteLength":8640,"byteOffset":209976,"target":34963},{"buffer":0,"byteLength":10080,"byteOffset":218616,"target":34962},{"buffer":0,"byteLength":10080,"byteOffset":228696,"target":34962},{"buffer":0,"byteLength":9792,"byteOffset":238776,"target":34963},{"buffer":0,"byteLength":8928,"byteOffset":248568,"target":34962},{"buffer":0,"byteLength":8928,"byteOffset":257496,"target":34962},{"buffer":0,"byteLength":8640,"byteOffset":266424,"target":34963},{"buffer":0,"byteLength":8928,"byteOffset":275064,"target":34962},{"buffer":0,"byteLength":8928,"byteOffset":283992,"target":34962},{"buffer":0,"byteLength":8640,"byteOffset":292920,"target":34963},{"buffer":0,"byteLength":8928,"byteOffset":301560,"target":34962},{"buffer":0,"byteLength":8928,"byteOffset":310488,"target":34962},{"buffer":0,"byteLength":8640,"byteOffset":319416,"target":34963},{"buffer":0,"byteLength":10080,"byteOffset":328056,"target":34962},{"buffer":0,"byteLength":10080,"byteOffset":338136,"target":34962},{"buffer":0,"byteLength":9792,"byteOffset":348216,"target":34963},{"buffer":0,"byteLength":10080,"byteOffset":358008,"target":34962},{"buffer":0,"byteLength":10080,"byteOffset":368088,"target":34962},{"buffer":0,"byteLength":9792,"byteOffset":378168,"target":34963},{"buffer":0,"byteLength":8928,"byteOffset":387960,"target":34962},{"buffer":0,"byteLength":8928,"byteOffset":396888,"target":34962},{"buffer":0,"byteLength":8640,"byteOffset":405816,"target":34963},{"buffer":0,"byteLength":10080,"byteOffset":414456,"target":34962},{"buffer":0,"byteLength":10080,"byteOffset":424536,"target":34962},{"buffer":0,"byteLength":9792,"byteOffset":434616,"target":34963},{"buffer":0,"byteLength":10080,"byteOffset":444408,"target":34962},{"buffer":0,"byteLength":10080,"byteOffset":454488,"target":34962},{"buffer":0,"byteLength":9360,"byteOffset":464568,"target":34963},{"buffer":0,"byteLength":8928,"byteOffset":473928,"target":34962},{"buffer":0,"byteLength":8928,"byteOffset":482856,"target":34962},{"buffer":0,"byteLength":8640,"byteOffset":491784,"target":34963},{"buffer":0,"byteLength":8928,"byteOffset":500424,"target":34962},{"buffer":0,"byteLength":8928,"byteOffset":509352,"target":34962},{"buffer":0,"byteLength":8640,"byteOffset":518280,"target":34963},{"buffer":0,"byteLength":10080,"byteOffset":526920,"target":34962},{"buffer":0,"byteLength":10080,"byteOffset":537000,"target":34962},{"buffer":0,"byteLength":9360,"byteOffset":547080,"target":34963},{"buffer":0,"byteLength":8928,"byteOffset":556440,"target":34962},{"buffer":0,"byteLength":8928,"byteOffset":565368,"target":34962},{"buffer":0,"byteLength":8640,"byteOffset":574296,"target":34963},{"buffer":0,"byteLength":7848,"byteOffset":582936,"target":34962},{"buffer":0,"byteLength":7848,"byteOffset":590784,"target":34962},{"buffer":0,"byteLength":5400,"byteOffset":598632,"target":34963},{"buffer":0,"byteLength":8928,"byteOffset":604032,"target":34962},{"buffer":0,"byteLength":8928,"byteOffset":612960,"target":34962},{"buffer":0,"byteLength":8640,"byteOffset":621888,"target":34963},{"buffer":0,"byteLength":10080,"byteOffset":630528,"target":34962},{"buffer":0,"byteLength":10080,"byteOffset":640608,"target":34962},{"buffer":0,"byteLength":9792,"byteOffset":650688,"target":34963},{"buffer":0,"byteLength":8928,"byteOffset":660480,"target":34962},{"buffer":0,"byteLength":8928,"byteOffset":669408,"target":34962},{"buffer":0,"byteLength":8640,"byteOffset":678336,"target":34963},{"buffer":0,"byteLength":8928,"byteOffset":686976,"target":34962},{"buffer":0,"byteLength":8928,"byteOffset":695904,"target":34962},{"buffer":0,"byteLength":8640,"byteOffset":704832,"target":34963},{"buffer":0,"byteLength":7848,"byteOffset":713472,"target":34962},{"buffer":0,"byteLength":7848,"byteOffset":721320,"target":34962},{"buffer":0,"byteLength":5400,"byteOffset":729168,"target":34963},{"buffer":0,"byteLength":8928,"byteOffset":734568,"target":34962},{"buffer":0,"byteLength":8928,"byteOffset":743496,"target":34962},{"buffer":0,"byteLength":7776,"byteOffset":752424,"target":34963},{"buffer":0,"byteLength":8928,"byteOffset":760200,"target":34962},{"buffer":0,"byteLength":8928,"byteOffset":769128,"target":34962},{"buffer":0,"byteLength":8640,"byteOffset":778056,"target":34963},{"buffer":0,"byteLength":8928,"byteOffset":786696,"target":34962},{"buffer":0,"byteLength":8928,"byteOffset":795624,"target":34962},{"buffer":0,"byteLength":8640,"byteOffset":804552,"target":34963},{"buffer":0,"byteLength":8928,"byteOffset":813192,"target":34962},{"buffer":0,"byteLength":8928,"byteOffset":822120,"target":34962},{"buffer":0,"byteLength":7776,"byteOffset":831048,"target":34963},{"buffer":0,"byteLength":7848,"byteOffset":838824,"target":34962},{"buffer":0,"byteLength":7848,"byteOffset":846672,"target":34962},{"buffer":0,"byteLength":5400,"byteOffset":854520,"target":34963},{"buffer":0,"byteLength":10080,"byteOffset":859920,"target":34962},{"buffer":0,"byteLength":10080,"byteOffset":870000,"target":34962},{"buffer":0,"byteLength":9792,"byteOffset":880080,"target":34963},{"buffer":0,"byteLength":288,"byteOffset":889872,"target":34962},{"buffer":0,"byteLength":288,"byteOffset":890160,"target":34962},{"buffer":0,"byteLength":72,"byteOffset":890448,"target":34963},{"buffer":0,"byteLength":288,"byteOffset":890520,"target":34962},{"buffer":0,"byteLength":288,"byteOffset":890808,"target":34962},{"buffer":0,"byteLength":72,"byteOffset":891096,"target":34963},{"buffer":0,"byteLength":288,"byteOffset":891168,"target":34962},{"buffer":0,"byteLength":288,"byteOffset":891456,"target":34962},{"buffer":0,"byteLength":72,"byteOffset":891744,"target":34963},{"buffer":0,"byteLength":288,"byteOffset":891816,"target":34962},{"buffer":0,"byteLength":288,"byteOffset":892104,"target":34962},{"buffer":0,"byteLength":72,"byteOffset":892392,"target":34963},{"buffer":0,"byteLength":288,"byteOffset":892464,"target":34962},{"buffer":0,"byteLength":288,"byteOffset":892752,"target":34962},{"buffer":0,"byteLength":72,"byteOffset":893040,"target":34963}],"buffers":[{"byteLength":893112,"uri":"model.bin"}],"materials":[{"emissiveFactor":[0.0,0.0,0.0],"name":"oak","pbrMetallicRoughness":{"baseColorFactor":[0.42,0.27,0.15,1.0],"metallicFactor":0.0,"roughnessFactor":0.699999988079071}},{"emissiveFactor":[0.0,0.0,0.0],"name":"lightSquare","pbrMetallicRoughness":{"baseColorFactor":[0.86,0.72,0.52,1.0],"metallicFactor":0.0,"roughnessFactor":0.44999998807907104}},{"emissiveFactor":[0.0,0.0,0.0],"name":"darkSquare","pbrMetallicRoughness":{"baseColorFactor":[0.36,0.22,0.13,1.0],"metallicFactor":0.0,"roughnessFactor":0.44999998807907104}},{"emissiveFactor":[0.0,0.0,0.0],"name":"frame","pbrMetallicRoughness":{"baseColorFactor":[0.24,0.14,0.08,1.0],"metallicFactor":0.0,"roughnessFactor":0.4000000059604645}},{"emissiveFactor":[0.0,0.0,0.0],"name":"ivory","pbrMetallicRoughness":{"baseColorFactor":[0.93,0.88,0.78,1.0],"metallicFactor":0.0,"roughnessFactor":0.2800000011920929}},{"emissiveFactor":[0.0,0.0,0.0],"name":"ebony","pbrMetallicRoughness":{"baseColorFactor":[0.16,0.11,0.09,1.0],"metallicFactor":0.0,"roughnessFactor":0.30000001192092896}},{"emissiveFactor":[0.0,0.0,0.0],"name":"clockFace","pbrMetallicRoughness":{"baseColorFactor":[0.9,0.88,0.8,1.0],"metallicFactor":0.0,"roughnessFactor":0.4000000059604645}}],"meshes":[{"name":"table","primitives":[{"attributes":{"NORMAL":1,"POSITION":0},"indices":2,"material":0,"mode":4}]},{"name":"board-light-squares","primitives":[{"attributes":{"NORMAL":4,"POSITION":3},"indices":5,"material":1,"mode":4}]},{"name":"board-dark-squares","primitives":[{"attributes":{"NORMAL":7,"POSITION":6},"indices":8,"material":2,"mode":4}]},{"name":"board-frame","primitives":[{"attributes":{"NORMAL":10,"POSITION":9},"indices":11,"material":3,"mode":4}]},{"name":"white-rook-a1","primitives":[{"attributes":{"NORMAL":13,"POSITION":12},"indices":14,"material":4,"mode":4}]},{"name":"white-pawn-a2","primitives":[{"attributes":{"NORMAL":16,"POSITION":15},"indices":17,"material":4,"mode":4}]},{"name":"black-pawn-a6","primitives":[{"attributes":{"NORMAL":19,"POSITION":18},"indices":20,"material":5,"mode":4}]},{"name":"black-rook-a8","primitives":[{"attributes":{"NORMAL":22,"POSITION":21},"indices":23,"material":5,"mode":4}]},{"name":"white-knight-b1","primitives":[{"attributes":{"NORMAL":25,"POSITION":24},"indices":26,"material":4,"mode":4}]},{"name":"white-pawn-b2","primitives":[{"attributes":{"NORMAL":28,"POSITION":27},"indices":29,"material":4,"mode":4}]},{"name":"black-pawn-b7","primitives":[{"attributes":{"NORMAL":31,"POSITION":30},"indices":32,"material":5,"mode":4}]},{"name":"white-bishop-c1","primitives":[{"attributes":{"NORMAL":34,"POSITION":33},"indices":35,"material":4,"mode":4}]},{"name":"white-pawn-c2","primitives":[{"attributes":{"NORMAL":37,"POSITION":36},"indices":38,"material":4,"mode":4}]},{"name":"black-pawn-c6","primitives":[{"attributes":{"NORMAL":40,"POSITION":39},"indices":41,"material":5,"mode":4}]},{"name":"black-pawn-c7","primitives":[{"attributes":{"NORMAL":43,"POSITION":42},"indices":44,"material":5,"mode":4}]},{"name":"black-bishop-c8","primitives":[{"attributes":{"NORMAL":46,"POSITION":45},"indices":47,"material":5,"mode":4}]},{"name":"white-queen-d1","primitives":[{"attributes":{"NORMAL":49,"POSITION":48},"indices":50,"material":4,"mode":4}]},{"name":"white-pawn-d2","primitives":[{"attributes":{"NORMAL":52,"POSITION":51},"indices":53,"material":4,"mode":4}]},{"name":"black-queen-d8","primitives":[{"attributes":{"NORMAL":55,"POSITION":54},"indices":56,"material":5,"mode":4}]},{"name":"white-king-e1","primitives":[{"attributes":{"NORMAL":58,"POSITION":57},"indices":59,"material":4,"mode":4}]},{"name":"white-pawn-e4","primitives":[{"attributes":{"NORMAL":61,"POSITION":60},"indices":62,"material":4,"mode":4}]},{"name":"black-pawn-e5","primitives":[{"attributes":{"NORMAL":64,"POSITION":63},"indices":65,"material":5,"mode":4}]},{"name":"black-king-e8","primitives":[{"attributes":{"NORMAL":67,"POSITION":66},"indices":68,"material":5,"mode":4}]},{"name":"white-pawn-f2","primitives":[{"attributes":{"NORMAL":70,"POSITION":69},"indices":71,"material":4,"mode":4}]},{"name":"white-knight-f3","primitives":[{"attributes":{"NORMAL":73,"POSITION":72},"indices":74,"material":4,"mode":4}]},{"name":"black-pawn-f7","primitives":[{"attributes":{"NORMAL":76,"POSITION":75},"indices":77,"material":5,"mode":4}]},{"name":"black-bishop-f8","primitives":[{"attributes":{"NORMAL":79,"POSITION":78},"indices":80,"material":5,"mode":4}]},{"name":"white-pawn-g2","primitives":[{"attributes":{"NORMAL":82,"POSITION":81},"indices":83,"material":4,"mode":4}]},{"name":"black-pawn-g7","primitives":[{"attributes":{"NORMAL":85,"POSITION":84},"indices":86,"material":5,"mode":4}]},{"name":"black-knight-g8","primitives":[{"attributes":{"NORMAL":88,"POSITION":87},"indices":89,"material":5,"mode":4}]},{"name":"white-rook-h1","primitives":[{"attributes":{"NORMAL":91,"POSITION":90},"indices":92,"material":4,"mode":4}]},{"name":"white-pawn-h2","primitives":[{"attributes":{"NORMAL":94,"POSITION":93},"indices":95,"material":4,"mode":4}]},{"name":"black-pawn-h7","primitives":[{"attributes":{"NORMAL":97,"POSITION":96},"indices":98,"material":5,"mode":4}]},{"name":"black-rook-h8","primitives":[{"attributes":{"NORMAL":100,"POSITION":99},"indices":101,"material":5,"mode":4}]},{"name":"captured-black-knight","primitives":[{"attributes":{"NORMAL":103,"POSITION":102},"indices":104,"material":5,"mode":4}]},{"name":"captured-white-bishop","primitives":[{"attributes":{"NORMAL":106,"POSITION":105},"indices":107,"material":4,"mode":4}]},{"name":"clock-case","primitives":[{"attributes":{"NORMAL":109,"POSITION":108},"indices":110,"material":3,"mode":4}]},{"name":"clock-dial-1","primitives":[{"attributes":{"NORMAL":112,"POSITION":111},"indices":113,"material":6,"mode":4}]},{"name":"clock-button-1","primitives":[{"attributes":{"NORMAL":115,"POSITION":114},"indices":116,"material":5,"mode":4}]},{"name":"clock-dial-2","primitives":[{"attributes":{"NORMAL":118,"POSITION":117},"indices":119,"material":6,"mode":4}]},{"name":"clock-button-2","primitives":[{"attributes":{"NORMAL":121,"POSITION":120},"indices":122,"material":5,"mode":4}]}],"nodes":[{"matrix":[1.0,0.0,0.0,0.0,0.0,1.0,0.0,0.0,0.0,0.0,1.0,0.0,0.0,0.0,0.0,1.0],"mesh":0,"name":"table"},{"matrix":[1.0,0.0,0.0,0.0,0.0,1.0,0.0,0.0,0.0,0.0,1.0,0.0,0.0,0.0,0.0,1.0],"mesh":1,"name":"board-light-squares"},{"matrix":[1.0,0.0,0.0,0.0,0.0,1.0,0.0,0.0,0.0,0.0,1.0,0.0,0.0,0.0,0.0,1.0],"mesh":2,"name":"board-dark-squares"},{"matrix":[1.0,0.0,0.0,0.0,0.0,1.0,0.0,0.0,0.0,0.0,1.0,0.0,0.0,0.0,0.0,1.0],"mesh":3,"name":"board-frame"},{"matrix":[1.0,0.0,0.0,0.0,0.0,1.0,0.0,0.0,0.0,0.0,1.0,0.0,0.0,0.0,0.0,1.0],"mesh":4,"name":"white-rook-a1"},{"matrix":[1.0,0.0,0.0,0.0,0.0,1.0,0.0,0.0,0.0,0.0,1.0,0.0,0.0,0.0,0.0,1.0],"mesh":5,"name":"white-pawn-a2"},{"matrix":[1.0,0.0,0.0,0.0,0.0,1.0,0.0,0.0,0.0,0.0,1.0,0.0,0.0,0.0,0.0,1.0],"mesh":6,"name":"black-pawn-a6"},{"matrix":[1.0,0.0,0.0,0.0,0.0,1.0,0.0,0.0,0.0,0.0,1.0,0.0,0.0,0.0,0.0,1.0],"mesh":7,"name":"black-rook-a8"},{"matrix":[1.0,0.0,0.0,0.0,0.0,1.0,0.0,0.0,0.0,0.0,1.0,0.0,0.0,0.0,0.0,1.0],"mesh":8,"name":"white-knight-b1"},{"matrix":[1.0,0.0,0.0,0.0,0.0,1.0,0.0,0.0,0.0,0.0,1.0,0.0,0.0,0.0,0.0,1.0],"mesh":9,"name":"white-pawn-b2"},{"matrix":[1.0,0.0,0.0,0.0,0.0,1.0,0.0,0.0,0.0,0.0,1.0,0.0,0.0,0.0,0.0,1.0],"mesh":10,"name":"black-pawn-b7"},{"matrix":[1.0,0.0,0.0,0.0,0.0,1.0,0.0,0.0,0.0,0.0,1.0,0.0,0.0,0.0,0.0,1.0],"mesh":11,"name":"white-bishop-c1"},{"matrix":[1.0,0.0,0.0,0.0,0.0,1.0,0.0,0.0,0.0,0.0,1.0,0.0,0.0,0.0,0.0,1.0],"mesh":12,"name":"white-pawn-c2"},{"matrix":[1.0,0.0,0.0,0.0,0.0,1.0,0.0,0.0,0.0,0.0,1.0,0.0,0.0,0.0,0.0,1.0],"mesh":13,"name":"black-pawn-c6"},{"matrix":[1.0,0.0,0.0,0.0,0.0,1.0,0.0,0.0,0.0,0.0,1.0,0.0,0.0,0.0,0.0,1.0],"mesh":14,"name":"black-pawn-c7"},{"matrix":[1.0,0.0,0.0,0.0,0.0,1.0,0.0,0.0,0.0,0.0,1.0,0.0,0.0,0.0,0.0,1.0],"mesh":15,"name":"black-bishop-c8"},{"matrix":[1.0,0.0,0.0,0.0,0.0,1.0,0.0,0.0,0.0,0.0,1.0,0.0,0.0,0.0,0.0,1.0],"mesh":16,"name":"white-queen-d1"},{"matrix":[1.0,0.0,0.0,0.0,0.0,1.0,0.0,0.0,0.0,0.0,1.0,0.0,0.0,0.0,0.0,1.0],"mesh":17,"name":"white-pawn-d2"},{"matrix":[1.0,0.0,0.0,0.0,0.0,1.0,0.0,0.0,0.0,0.0,1.0,0.0,0.0,0.0,0.0,1.0],"mesh":18,"name":"black-queen-d8"},{"matrix":[1.0,0.0,0.0,0.0,0.0,1.0,0.0,0.0,0.0,0.0,1.0,0.0,0.0,0.0,0.0,1.0],"mesh":19,"name":"white-king-e1"},{"matrix":[1.0,0.0,0.0,0.0,0.0,1.0,0.0,0.0,0.0,0.0,1.0,0.0,0.0,0.0,0.0,1.0],"mesh":20,"name":"white-pawn-e4"},{"matrix":[1.0,0.0,0.0,0.0,0.0,1.0,0.0,0.0,0.0,0.0,1.0,0.0,0.0,0.0,0.0,1.0],"mesh":21,"name":"black-pawn-e5"},{"matrix":[1.0,0.0,0.0,0.0,0.0,1.0,0.0,0.0,0.0,0.0,1.0,0.0,0.0,0.0,0.0,1.0],"mesh":22,"name":"black-king-e8"},{"matrix":[1.0,0.0,0.0,0.0,0.0,1.0,0.0,0.0,0.0,0.0,1.0,0.0,0.0,0.0,0.0,1.0],"mesh":23,"name":"white-pawn-f2"},{"matrix":[1.0,0.0,0.0,0.0,0.0,1.0,0.0,0.0,0.0,0.0,1.0,0.0,0.0,0.0,0.0,1.0],"mesh":24,"name":"white-knight-f3"},{"matrix":[1.0,0.0,0.0,0.0,0.0,1.0,0.0,0.0,0.0,0.0,1.0,0.0,0.0,0.0,0.0,1.0],"mesh":25,"name":"black-pawn-f7"},{"matrix":[1.0,0.0,0.0,0.0,0.0,1.0,0.0,0.0,0.0,0.0,1.0,0.0,0.0,0.0,0.0,1.0],"mesh":26,"name":"black-bishop-f8"},{"matrix":[1.0,0.0,0.0,0.0,0.0,1.0,0.0,0.0,0.0,0.0,1.0,0.0,0.0,0.0,0.0,1.0],"mesh":27,"name":"white-pawn-g2"},{"matrix":[1.0,0.0,0.0,0.0,0.0,1.0,0.0,0.0,0.0,0.0,1.0,0.0,0.0,0.0,0.0,1.0],"mesh":28,"name":"black-pawn-g7"},{"matrix":[1.0,0.0,0.0,0.0,0.0,1.0,0.0,0.0,0.0,0.0,1.0,0.0,0.0,0.0,0.0,1.0],"mesh":29,"name":"black-knight-g8"},{"matrix":[1.0,0.0,0.0,0.0,0.0,1.0,0.0,0.0,0.0,0.0,1.0,0.0,0.0,0.0,0.0,1.0],"mesh":30,"name":"white-rook-h1"},{"matrix":[1.0,0.0,0.0,0.0,0.0,1.0,0.0,0.0,0.0,0.0,1.0,0.0,0.0,0.0,0.0,1.0],"mesh":31,"name":"white-pawn-h2"},{"matrix":[1.0,0.0,0.0,0.0,0.0,1.0,0.0,0.0,0.0,0.0,1.0,0.0,0.0,0.0,0.0,1.0],"mesh":32,"name":"black-pawn-h7"},{"matrix":[1.0,0.0,0.0,0.0,0.0,1.0,0.0,0.0,0.0,0.0,1.0,0.0,0.0,0.0,0.0,1.0],"mesh":33,"name":"black-rook-h8"},{"matrix":[1.0,0.0,0.0,0.0,0.0,1.0,0.0,0.0,0.0,0.0,1.0,0.0,0.0,0.0,0.0,1.0],"mesh":34,"name":"captured-black-knight"},{"matrix":[1.0,0.0,0.0,0.0,0.0,1.0,0.0,0.0,0.0,0.0,1.0,0.0,0.0,0.0,0.0,1.0],"mesh":35,"name":"captured-white-bishop"},{"matrix":[1.0,0.0,0.0,0.0,0.0,1.0,0.0,0.0,0.0,0.0,1.0,0.0,0.0,0.0,0.0,1.0],"mesh":36,"name":"clock-case"},{"matrix":[1.0,0.0,0.0,0.0,0.0,1.0,0.0,0.0,0.0,0.0,1.0,0.0,0.0,0.0,0.0,1.0],"mesh":37,"name":"clock-dial-1"},{"matrix":[1.0,0.0,0.0,0.0,0.0,1.0,0.0,0.0,0.0,0.0,1.0,0.0,0.0,0.0,0.0,1.0],"mesh":38,"name":"clock-button-1"},{"matrix":[1.0,0.0,0.0,0.0,0.0,1.0,0.0,0.0,0.0,0.0,1.0,0.0,0.0,0.0,0.0,1.0],"mesh":39,"name":"clock-dial-2"},{"matrix":[1.0,0.0,0.0,0.0,0.0,1.0,0.0,0.0,0.0,0.0,1.0,0.0,0.0,0.0,0.0,1.0],"mesh":40,"name":"clock-button-2"}],"scene":0,"scenes":[{"nodes":[0,1,2,3,4,5,6,7,8,9,10,11,12,13,14,15,16,17,18,19,20,21,22,23,24,25,26,27,28,29,30,31,32,33,34,35,36,37,38,39,40]}]}