{"accessors":[{"bufferView":0,"componentType":5126,"count":3,"max":[0,0,0],"min":[0,0,0],"type":"VEC3"},{"bufferView":1,"componentType":5123,"count":3,"type":"SCALAR"}],"asset":{"copyright":"CC0 1.0","generator":"Trillion3D example writer","version":"2.0"},"bufferViews":[{"buffer":0,"byteLength":36,"byteOffset":0},{"buffer":0,"byteLength":6,"byteOffset":36}],"buffers":[{"byteLength":44,"uri":"scene.bin"}],"materials":[{"name":"grass","pbrMetallicRoughness":{"baseColorFactor":[0.33,0.47,0.24,1],"metallicFactor":0,"roughnessFactor":0.9}},{"name":"stone","pbrMetallicRoughness":{"baseColorFactor":[0.52,0.5,0.47,1],"metallicFactor":0,"roughnessFactor":0.8}}],"meshes":[{"name":"valley","primitives":[{"attributes":{"POSITION":0},"indices":1,"material":0,"mode":4}]},{"name":"boulder","primitives":[{"attributes":{"POSITION":0},"indices":1,"material":1,"mode":4}]},{"name":"boulder","primitives":[{"attributes":{"POSITION":0},"indices":1,"material":1,"mode":4}]},{"name":"boulder","primitives":[{"attributes":{"POSITION":0},"indices":1,"material":1,"mode":4}]}],"nodes":[{"mesh":0,"name":"valley"},{"mesh":1,"name":"boulder"},{"mesh":2,"name":"boulder"},{"mesh":3,"name":"boulder"},{"children":[0,1,2,3],"name":"terrain"}],"scene":0,"scenes":[{"nodes":[4]}]}