{"accessors":[{"bufferView":0,"componentType":5126,"count":4225,"max":[64,20.13671875,64],"min":[-64,-2.17578125,-64],"type":"VEC3"},{"bufferView":1,"componentType":5126,"count":4225,"max":[0.5164367911035959,0.9999989790804448,0.5220574591434733],"min":[-0.4776955082549044,0.7696626228031852,-0.5307319739863112],"type":"VEC3"},{"bufferView":2,"componentType":5126,"count":4225,"max":[8,8],"min":[0,0],"type":"VEC2"},{"bufferView":3,"componentType":5125,"count":24576,"type":"SCALAR"},{"bufferView":4,"componentType":5126,"count":642,"max":[-9.23748779296875,7.464476585388184,11.215130805969238],"min":[-15.43151569366455,0.8727140426635742,4.784869194030762],"type":"VEC3"},{"bufferView":5,"componentType":5126,"count":642,"max":[0.9998523069247972,0.9722650148099168,0.999622370946064],"min":[-0.996701974647618,-0.9980268861819728,-0.999622370946064],"type":"VEC3"},{"bufferView":6,"componentType":5125,"count":3840,"type":"SCALAR"},{"bufferView":7,"componentType":5126,"count":642,"max":[13.683348655700684,8.45082950592041,-9.713159561157228],"min":[5.42464542388916,-0.33818721771240234,-18.286840438842773],"type":"VEC3"},{"bufferView":8,"componentType":5126,"count":642,"max":[0.9998523069247972,0.9722650148099168,0.999622370946064],"min":[-0.996701974647618,-0.9980268861819728,-0.999622370946064],"type":"VEC3"},{"bufferView":9,"componentType":5125,"count":3840,"type":"SCALAR"},{"bufferView":10,"componentType":5126,"count":642,"max":[20.302093505859375,5.556690216064453,18.679275512695312],"min":[15.140403747558594,0.06355476379394531,13.320724487304688],"type":"VEC3"},{"bufferView":11,"componentType":5126,"count":642,"max":[0.9998523069247972,0.9722650148099168,0.999622370946064],"min":[-0.996701974647618,-0.9980268861819728,-0.999622370946064],"type":"VEC3"},{"bufferView":12,"componentType":5125,"count":3840,"type":"SCALAR"}],"asset":{"copyright":"CC0 1.0","generator":"Trillion3D example writer","version":"2.0"},"bufferViews":[{"buffer":0,"byteLength":50700,"byteOffset":0,"target":34962},{"buffer":0,"byteLength":50700,"byteOffset":50700,"target":34962},{"buffer":0,"byteLength":33800,"byteOffset":101400,"target":34962},{"buffer":0,"byteLength":98304,"byteOffset":135200,"target":34963},{"buffer":0,"byteLength":7704,"byteOffset":233504,"target":34962},{"buffer":0,"byteLength":7704,"byteOffset":241208,"target":34962},{"buffer":0,"byteLength":15360,"byteOffset":248912,"target":34963},{"buffer":0,"byteLength":7704,"byteOffset":264272,"target":34962},{"buffer":0,"byteLength":7704,"byteOffset":271976,"target":34962},{"buffer":0,"byteLength":15360,"byteOffset":279680,"target":34963},{"buffer":0,"byteLength":7704,"byteOffset":295040,"target":34962},{"buffer":0,"byteLength":7704,"byteOffset":302744,"target":34962},{"buffer":0,"byteLength":15360,"byteOffset":310448,"target":34963}],"buffers":[{"byteLength":325808,"uri":"source.bin"}],"materials":[{"name":"grass","pbrMetallicRoughness":{"baseColorFactor":[0.33,0.47,0.24,1],"metallicFactor":0,"roughnessFactor":0.9}},{"name":"stone","pbrMetallicRoughness":{"baseColorFactor":[0.52,0.5,0.47,1],"metallicFactor":0,"roughnessFactor":0.8}}],"meshes":[{"name":"valley","primitives":[{"attributes":{"NORMAL":1,"POSITION":0,"TEXCOORD_0":2},"indices":3,"material":0}]},{"name":"boulder","primitives":[{"attributes":{"NORMAL":5,"POSITION":4},"indices":6,"material":1}]},{"name":"boulder","primitives":[{"attributes":{"NORMAL":8,"POSITION":7},"indices":9,"material":1}]},{"name":"boulder","primitives":[{"attributes":{"NORMAL":11,"POSITION":10},"indices":12,"material":1}]}],"nodes":[{"mesh":0,"name":"valley"},{"mesh":1,"name":"boulder"},{"mesh":2,"name":"boulder"},{"mesh":3,"name":"boulder"},{"children":[0,1,2,3],"name":"terrain"}],"scene":0,"scenes":[{"nodes":[4]}]}