{"accessors":[{"bufferView":0,"componentType":5126,"count":3,"max":[0,0,0],"min":[0,0,0],"type":"VEC3"},{"bufferView":1,"componentType":5123,"count":3,"type":"SCALAR"}],"asset":{"copyright":"CC0 1.0","generator":"Trillion3D example writer","version":"2.0"},"bufferViews":[{"buffer":0,"byteLength":36,"byteOffset":0},{"buffer":0,"byteLength":6,"byteOffset":36}],"buffers":[{"byteLength":44,"uri":"scene.bin"}],"materials":[{"name":"lawn","pbrMetallicRoughness":{"baseColorFactor":[0.33,0.47,0.24,1],"metallicFactor":0,"roughnessFactor":0.9}},{"name":"pole","pbrMetallicRoughness":{"baseColorFactor":[0.42,0.29,0.18,1],"metallicFactor":0,"roughnessFactor":0.8}},{"name":"flag","pbrMetallicRoughness":{"baseColorFactor":[0.76,0.23,0.23,1],"metallicFactor":0,"roughnessFactor":0.9}}],"meshes":[{"name":"lawn","primitives":[{"attributes":{"POSITION":0},"indices":1,"material":0,"mode":4}]},{"name":"pole","primitives":[{"attributes":{"POSITION":0},"indices":1,"material":1,"mode":4}]},{"name":"flag","primitives":[{"attributes":{"POSITION":0},"indices":1,"material":2,"mode":4}]}],"nodes":[{"mesh":0,"name":"lawn"},{"mesh":1,"name":"pole"},{"extras":{"physics":{"bend":0.001,"pins":[0,25,50,75,100,125,150,175,200,225,250,275,300,325,350,375,400],"type":"cloth"}},"mesh":2,"name":"flag","translation":[0.8,3.4,0]},{"children":[0,1,2],"name":"flag on a pole"}],"scene":0,"scenes":[{"nodes":[3]}]}