{"accessors":[{"bufferView":0,"componentType":5126,"count":24,"max":[10,0,10],"min":[-10,-0.19999980926513672,-10],"type":"VEC3"},{"bufferView":1,"componentType":5126,"count":24,"max":[1,1,1],"min":[-1,-1,-1],"type":"VEC3"},{"bufferView":2,"componentType":5126,"count":24,"max":[1,1],"min":[0,0],"type":"VEC2"},{"bufferView":3,"componentType":5125,"count":36,"type":"SCALAR"},{"bufferView":4,"componentType":5126,"count":70,"max":[0.05000019073486328,4,0.05000019073486328],"min":[-0.05000019073486328,0,-0.05000019073486328],"type":"VEC3"},{"bufferView":5,"componentType":5126,"count":70,"max":[1,1,1],"min":[-1,-1,-1],"type":"VEC3"},{"bufferView":6,"componentType":5126,"count":70,"max":[1,1],"min":[0,0],"type":"VEC2"},{"bufferView":7,"componentType":5125,"count":192,"type":"SCALAR"},{"bufferView":8,"componentType":5126,"count":425,"max":[0.75,0.5,0],"min":[-0.75,-0.5,0],"type":"VEC3"},{"bufferView":9,"componentType":5126,"count":425,"max":[0,0,1],"min":[0,0,1],"type":"VEC3"},{"bufferView":10,"componentType":5126,"count":425,"max":[1,1],"min":[0,0],"type":"VEC2"},{"bufferView":11,"componentType":5125,"count":2304,"type":"SCALAR"}],"asset":{"copyright":"CC0 1.0","generator":"Trillion3D example writer","version":"2.0"},"bufferViews":[{"buffer":0,"byteLength":288,"byteOffset":0,"target":34962},{"buffer":0,"byteLength":288,"byteOffset":288,"target":34962},{"buffer":0,"byteLength":192,"byteOffset":576,"target":34962},{"buffer":0,"byteLength":144,"byteOffset":768,"target":34963},{"buffer":0,"byteLength":840,"byteOffset":912,"target":34962},{"buffer":0,"byteLength":840,"byteOffset":1752,"target":34962},{"buffer":0,"byteLength":560,"byteOffset":2592,"target":34962},{"buffer":0,"byteLength":768,"byteOffset":3152,"target":34963},{"buffer":0,"byteLength":5100,"byteOffset":3920,"target":34962},{"buffer":0,"byteLength":5100,"byteOffset":9020,"target":34962},{"buffer":0,"byteLength":3400,"byteOffset":14120,"target":34962},{"buffer":0,"byteLength":9216,"byteOffset":17520,"target":34963}],"buffers":[{"byteLength":26736,"uri":"source.bin"}],"materials":[{"name":"lawn","pbrMetallicRoughness":{"baseColorFactor":[0.33,0.47,0.24,1],"metallicFactor":0,"roughnessFactor":0.9}},{"name":"pole","pbrMetallicRoughness":{"baseColorFactor":[0.42,0.29,0.18,1],"metallicFactor":0,"roughnessFactor":0.8}},{"name":"flag","pbrMetallicRoughness":{"baseColorFactor":[0.76,0.23,0.23,1],"metallicFactor":0,"roughnessFactor":0.9}}],"meshes":[{"name":"lawn","primitives":[{"attributes":{"NORMAL":1,"POSITION":0,"TEXCOORD_0":2},"indices":3,"material":0}]},{"name":"pole","primitives":[{"attributes":{"NORMAL":5,"POSITION":4,"TEXCOORD_0":6},"indices":7,"material":1}]},{"name":"flag","primitives":[{"attributes":{"NORMAL":9,"POSITION":8,"TEXCOORD_0":10},"indices":11,"material":2}]}],"nodes":[{"mesh":0,"name":"lawn"},{"mesh":1,"name":"pole"},{"extras":{"physics":{"bend":0.001,"pins":[0,25,50,75,100,125,150,175,200,225,250,275,300,325,350,375,400],"type":"cloth"}},"mesh":2,"name":"flag","translation":[0.8,3.4,0]},{"children":[0,1,2],"name":"flag on a pole"}],"scene":0,"scenes":[{"nodes":[3]}]}