{"accessors":[{"bufferView":0,"componentType":5126,"count":3,"max":[0,0,0],"min":[0,0,0],"type":"VEC3"},{"bufferView":1,"componentType":5123,"count":3,"type":"SCALAR"}],"asset":{"generator":"web-geometry-compiler 0.8.0 (obj-ufbx-0.11.3-gltf-7)","version":"2.0"},"bufferViews":[{"buffer":0,"byteLength":36,"byteOffset":0},{"buffer":0,"byteLength":6,"byteOffset":36}],"buffers":[{"byteLength":44,"uri":"scene.bin"}],"materials":[{"emissiveFactor":[0.0,0.0,0.0],"name":"bone","pbrMetallicRoughness":{"baseColorFactor":[0.82,0.72,0.51,1.0],"metallicFactor":0.0,"roughnessFactor":0.2788897454738617}},{"emissiveFactor":[0.0,0.0,0.0],"name":"shadow","pbrMetallicRoughness":{"baseColorFactor":[0.12,0.09,0.07,1.0],"metallicFactor":0.0,"roughnessFactor":0.6837722063064575}},{"emissiveFactor":[0.0,0.0,0.0],"name":"sandstone","pbrMetallicRoughness":{"baseColorFactor":[0.56,0.34,0.16,1.0],"metallicFactor":0.0,"roughnessFactor":0.6837722063064575}},{"emissiveFactor":[0.0,0.0,0.0],"name":"ochre","pbrMetallicRoughness":{"baseColorFactor":[0.72,0.43,0.18,1.0],"metallicFactor":0.0,"roughnessFactor":0.6837722063064575}},{"emissiveFactor":[0.0,0.0,0.0],"name":"markerRed","pbrMetallicRoughness":{"baseColorFactor":[0.72,0.08,0.05,1.0],"metallicFactor":0.0,"roughnessFactor":0.6837722063064575}},{"emissiveFactor":[0.0,0.0,0.0],"name":"markerBlue","pbrMetallicRoughness":{"baseColorFactor":[0.04,0.24,0.62,1.0],"metallicFactor":0.0,"roughnessFactor":0.6837722063064575}},{"emissiveFactor":[0.0,0.0,0.0],"name":"paper","pbrMetallicRoughness":{"baseColorFactor":[0.92,0.9,0.76,1.0],"metallicFactor":0.0,"roughnessFactor":0.6837722063064575}},{"emissiveFactor":[0.0,0.0,0.0],"name":"metal","pbrMetallicRoughness":{"baseColorFactor":[0.16,0.18,0.2,1.0],"metallicFactor":0.0,"roughnessFactor":0.6837722063064575}}],"meshes":[{"name":"bone","primitives":[{"attributes":{"POSITION":0},"indices":1,"material":0,"mode":4}]},{"name":"shadow","primitives":[{"attributes":{"POSITION":0},"indices":1,"material":1,"mode":4}]},{"name":"sandstone","primitives":[{"attributes":{"POSITION":0},"indices":1,"material":2,"mode":4}]},{"name":"ochre","primitives":[{"attributes":{"POSITION":0},"indices":1,"material":3,"mode":4}]},{"name":"markerRed","primitives":[{"attributes":{"POSITION":0},"indices":1,"material":4,"mode":4}]},{"name":"markerBlue","primitives":[{"attributes":{"POSITION":0},"indices":1,"material":5,"mode":4}]},{"name":"paper","primitives":[{"attributes":{"POSITION":0},"indices":1,"material":6,"mode":4}]},{"name":"metal","primitives":[{"attributes":{"POSITION":0},"indices":1,"material":7,"mode":4}]}],"nodes":[{"matrix":[1.0,0.0,0.0,0.0,0.0,1.0,0.0,0.0,0.0,0.0,1.0,0.0,0.0,0.0,0.0,1.0],"mesh":0,"name":"bone"},{"matrix":[1.0,0.0,0.0,0.0,0.0,1.0,0.0,0.0,0.0,0.0,1.0,0.0,0.0,0.0,0.0,1.0],"mesh":1,"name":"shadow"},{"matrix":[1.0,0.0,0.0,0.0,0.0,1.0,0.0,0.0,0.0,0.0,1.0,0.0,0.0,0.0,0.0,1.0],"mesh":2,"name":"sandstone"},{"matrix":[1.0,0.0,0.0,0.0,0.0,1.0,0.0,0.0,0.0,0.0,1.0,0.0,0.0,0.0,0.0,1.0],"mesh":3,"name":"ochre"},{"matrix":[1.0,0.0,0.0,0.0,0.0,1.0,0.0,0.0,0.0,0.0,1.0,0.0,0.0,0.0,0.0,1.0],"mesh":4,"name":"markerRed"},{"matrix":[1.0,0.0,0.0,0.0,0.0,1.0,0.0,0.0,0.0,0.0,1.0,0.0,0.0,0.0,0.0,1.0],"mesh":5,"name":"markerBlue"},{"matrix":[1.0,0.0,0.0,0.0,0.0,1.0,0.0,0.0,0.0,0.0,1.0,0.0,0.0,0.0,0.0,1.0],"mesh":6,"name":"paper"},{"matrix":[1.0,0.0,0.0,0.0,0.0,1.0,0.0,0.0,0.0,0.0,1.0,0.0,0.0,0.0,0.0,1.0],"mesh":7,"name":"metal"}],"scene":0,"scenes":[{"nodes":[0,1,2,3,4,5,6,7]}]}