{"accessors":[{"bufferView":0,"componentType":5126,"count":3,"max":[0,0,0],"min":[0,0,0],"type":"VEC3"},{"bufferView":1,"componentType":5123,"count":3,"type":"SCALAR"}],"asset":{"generator":"Web Geometry original canal city authoring","version":"2.0"},"bufferViews":[{"buffer":0,"byteLength":36,"byteOffset":0},{"buffer":0,"byteLength":6,"byteOffset":36}],"buffers":[{"byteLength":44,"uri":"scene.bin"}],"extensions":{"KHR_lights_punctual":{"lights":[{"color":[1,0.82,0.66],"intensity":2600,"type":"directional"}]}},"extensionsUsed":["KHR_lights_punctual"],"materials":[{"doubleSided":true,"name":"brick","pbrMetallicRoughness":{"baseColorFactor":[0.48,0.16,0.1,1],"metallicFactor":0.05,"roughnessFactor":0.72}},{"doubleSided":true,"name":"ochre","pbrMetallicRoughness":{"baseColorFactor":[0.64,0.36,0.16,1],"metallicFactor":0.05,"roughnessFactor":0.72}},{"doubleSided":true,"name":"stone","pbrMetallicRoughness":{"baseColorFactor":[0.46,0.45,0.4,1],"metallicFactor":0.05,"roughnessFactor":0.72}},{"doubleSided":true,"name":"slate","pbrMetallicRoughness":{"baseColorFactor":[0.12,0.16,0.2,1],"metallicFactor":0.05,"roughnessFactor":0.72}},{"doubleSided":true,"emissiveFactor":[0.12,0.19,0.2],"name":"glass","pbrMetallicRoughness":{"baseColorFactor":[0.04,0.1,0.14,1],"metallicFactor":0.05,"roughnessFactor":0.72}},{"doubleSided":true,"name":"water","pbrMetallicRoughness":{"baseColorFactor":[0.03,0.2,0.28,1],"metallicFactor":0.05,"roughnessFactor":0.24}},{"doubleSided":true,"name":"metal","pbrMetallicRoughness":{"baseColorFactor":[0.13,0.15,0.16,1],"metallicFactor":0.65,"roughnessFactor":0.72}}],"meshes":[{"name":"Canal-district-material-groups","primitives":[{"attributes":{"POSITION":0},"indices":1,"material":0,"mode":4},{"attributes":{"POSITION":0},"indices":1,"material":1,"mode":4},{"attributes":{"POSITION":0},"indices":1,"material":2,"mode":4},{"attributes":{"POSITION":0},"indices":1,"material":3,"mode":4},{"attributes":{"POSITION":0},"indices":1,"material":4,"mode":4},{"attributes":{"POSITION":0},"indices":1,"material":5,"mode":4},{"attributes":{"POSITION":0},"indices":1,"material":6,"mode":4}]}],"nodes":[{"mesh":0,"name":"Original-canal-district"},{"extensions":{"KHR_lights_punctual":{"light":0}},"name":"Late-afternoon-light","rotation":[-0.31,0.22,0.08,0.92]}],"scene":0,"scenes":[{"nodes":[0,1]}]}