{"accessors":[{"bufferView":0,"componentType":5126,"count":252,"max":[3.95,4.59,4.7250000000000005],"min":[-3.95,0,-3.825],"type":"VEC3"},{"bufferView":1,"componentType":5125,"count":252,"type":"SCALAR"},{"bufferView":2,"componentType":5126,"count":108,"max":[4.05,2.71,3.875],"min":[-4.05,0,-3.9],"type":"VEC3"},{"bufferView":3,"componentType":5125,"count":108,"type":"SCALAR"},{"bufferView":4,"componentType":5126,"count":9072,"max":[4.329999999999999,4.319999999999999,4.915],"min":[-4.329999999999999,-0.26,-4.5],"type":"VEC3"},{"bufferView":5,"componentType":5125,"count":9072,"type":"SCALAR"},{"bufferView":6,"componentType":5126,"count":240,"max":[4.12,4.72,4.775],"min":[-4.1000000000000005,1.7000000000000002,-3.94],"type":"VEC3"},{"bufferView":7,"componentType":5125,"count":240,"type":"SCALAR"},{"bufferView":8,"componentType":5126,"count":7200,"max":[4.125,4.22,4.86],"min":[-4.125,0.12,-3.975],"type":"VEC3"},{"bufferView":9,"componentType":5125,"count":7200,"type":"SCALAR"},{"bufferView":10,"componentType":5126,"count":180,"max":[1.725,-0.08940000000000001,4.5],"min":[-1.725,-0.24,-4.5],"type":"VEC3"},{"bufferView":11,"componentType":5125,"count":180,"type":"SCALAR"},{"bufferView":12,"componentType":5126,"count":1224,"max":[2.33,0.96,4.510000000000001],"min":[-2.33,-0.009999999999999952,-3.94],"type":"VEC3"},{"bufferView":13,"componentType":5125,"count":1224,"type":"SCALAR"}],"asset":{"generator":"Web Geometry original canal city authoring","version":"2.0"},"bufferViews":[{"buffer":0,"byteLength":3024,"byteOffset":0,"target":34962},{"buffer":0,"byteLength":1008,"byteOffset":3024,"target":34963},{"buffer":0,"byteLength":1296,"byteOffset":4032,"target":34962},{"buffer":0,"byteLength":432,"byteOffset":5328,"target":34963},{"buffer":0,"byteLength":108864,"byteOffset":5760,"target":34962},{"buffer":0,"byteLength":36288,"byteOffset":114624,"target":34963},{"buffer":0,"byteLength":2880,"byteOffset":150912,"target":34962},{"buffer":0,"byteLength":960,"byteOffset":153792,"target":34963},{"buffer":0,"byteLength":86400,"byteOffset":154752,"target":34962},{"buffer":0,"byteLength":28800,"byteOffset":241152,"target":34963},{"buffer":0,"byteLength":2160,"byteOffset":269952,"target":34962},{"buffer":0,"byteLength":720,"byteOffset":272112,"target":34963},{"buffer":0,"byteLength":14688,"byteOffset":272832,"target":34962},{"buffer":0,"byteLength":4896,"byteOffset":287520,"target":34963}],"buffers":[{"byteLength":292416,"uri":"source.bin"}],"extensions":{"KHR_lights_punctual":{"lights":[{"color":[1,0.82,0.66],"intensity":2600,"type":"directional"}]}},"extensionsUsed":["KHR_lights_punctual"],"materials":[{"doubleSided":true,"name":"brick","pbrMetallicRoughness":{"baseColorFactor":[0.48,0.16,0.1,1],"metallicFactor":0.05,"roughnessFactor":0.72}},{"doubleSided":true,"name":"ochre","pbrMetallicRoughness":{"baseColorFactor":[0.64,0.36,0.16,1],"metallicFactor":0.05,"roughnessFactor":0.72}},{"doubleSided":true,"name":"stone","pbrMetallicRoughness":{"baseColorFactor":[0.46,0.45,0.4,1],"metallicFactor":0.05,"roughnessFactor":0.72}},{"doubleSided":true,"name":"slate","pbrMetallicRoughness":{"baseColorFactor":[0.12,0.16,0.2,1],"metallicFactor":0.05,"roughnessFactor":0.72}},{"doubleSided":true,"emissiveFactor":[0.12,0.19,0.2],"name":"glass","pbrMetallicRoughness":{"baseColorFactor":[0.04,0.1,0.14,1],"metallicFactor":0.05,"roughnessFactor":0.72}},{"doubleSided":true,"name":"water","pbrMetallicRoughness":{"baseColorFactor":[0.03,0.2,0.28,1],"metallicFactor":0.05,"roughnessFactor":0.24}},{"doubleSided":true,"name":"metal","pbrMetallicRoughness":{"baseColorFactor":[0.13,0.15,0.16,1],"metallicFactor":0.65,"roughnessFactor":0.72}}],"meshes":[{"name":"Canal-district-material-groups","primitives":[{"attributes":{"POSITION":0},"indices":1,"material":0},{"attributes":{"POSITION":2},"indices":3,"material":1},{"attributes":{"POSITION":4},"indices":5,"material":2},{"attributes":{"POSITION":6},"indices":7,"material":3},{"attributes":{"POSITION":8},"indices":9,"material":4},{"attributes":{"POSITION":10},"indices":11,"material":5},{"attributes":{"POSITION":12},"indices":13,"material":6}]}],"nodes":[{"mesh":0,"name":"Original-canal-district"},{"extensions":{"KHR_lights_punctual":{"light":0}},"name":"Late-afternoon-light","rotation":[-0.31,0.22,0.08,0.92]}],"scene":0,"scenes":[{"nodes":[0,1]}]}