{"accessors":[{"bufferView":0,"componentType":5126,"count":3,"max":[0,0,0],"min":[0,0,0],"type":"VEC3"},{"bufferView":1,"componentType":5123,"count":3,"type":"SCALAR"}],"asset":{"generator":"trillion3d-compiler 0.8.0 (usd-openusd-0.7.0-gltf-8)","version":"2.0"},"bufferViews":[{"buffer":0,"byteLength":36,"byteOffset":0},{"buffer":0,"byteLength":6,"byteOffset":36}],"buffers":[{"byteLength":44,"uri":"scene.bin"}],"materials":[{"alphaMode":"OPAQUE","name":"Maple","pbrMetallicRoughness":{"baseColorFactor":[0.8600000143051147,0.7200000286102295,0.5199999809265137,1.0],"metallicFactor":0.0,"roughnessFactor":0.44999998807907104}},{"alphaMode":"OPAQUE","name":"Walnut","pbrMetallicRoughness":{"baseColorFactor":[0.36000001430511475,0.2199999988079071,0.12999999523162842,1.0],"metallicFactor":0.0,"roughnessFactor":0.44999998807907104}},{"alphaMode":"OPAQUE","name":"Frame","pbrMetallicRoughness":{"baseColorFactor":[0.23999999463558197,0.14000000059604645,0.07999999821186066,1.0],"metallicFactor":0.0,"roughnessFactor":0.4000000059604645}},{"alphaMode":"OPAQUE","name":"Ivory","pbrMetallicRoughness":{"baseColorFactor":[0.9300000071525574,0.8799999952316284,0.7799999713897705,1.0],"metallicFactor":0.0,"roughnessFactor":0.2800000011920929}},{"alphaMode":"OPAQUE","name":"Ebony","pbrMetallicRoughness":{"baseColorFactor":[0.1599999964237213,0.10999999940395357,0.09000000357627869,1.0],"metallicFactor":0.0,"roughnessFactor":0.30000001192092896}}],"meshes":[{"name":"LightSquares","primitives":[{"attributes":{"POSITION":0},"indices":1,"material":0,"mode":4}]},{"name":"DarkSquares","primitives":[{"attributes":{"POSITION":0},"indices":1,"material":1,"mode":4}]},{"name":"Frame","primitives":[{"attributes":{"POSITION":0},"indices":1,"material":2,"mode":4}]},{"name":"Shape","primitives":[{"attributes":{"POSITION":0},"indices":1,"material":3,"mode":4}]},{"name":"Shape","primitives":[{"attributes":{"POSITION":0},"indices":1,"material":3,"mode":4}]},{"name":"Shape","primitives":[{"attributes":{"POSITION":0},"indices":1,"material":4,"mode":4}]},{"name":"Shape","primitives":[{"attributes":{"POSITION":0},"indices":1,"material":4,"mode":4}]},{"name":"Shape","primitives":[{"attributes":{"POSITION":0},"indices":1,"material":3,"mode":4}]},{"name":"Shape","primitives":[{"attributes":{"POSITION":0},"indices":1,"material":3,"mode":4}]},{"name":"Shape","primitives":[{"attributes":{"POSITION":0},"indices":1,"material":4,"mode":4}]},{"name":"Shape","primitives":[{"attributes":{"POSITION":0},"indices":1,"material":4,"mode":4}]},{"name":"Shape","primitives":[{"attributes":{"POSITION":0},"indices":1,"material":3,"mode":4}]},{"name":"Shape","primitives":[{"attributes":{"POSITION":0},"indices":1,"material":4,"mode":4}]},{"name":"Shape","primitives":[{"attributes":{"POSITION":0},"indices":1,"material":3,"mode":4}]},{"name":"Shape","primitives":[{"attributes":{"POSITION":0},"indices":1,"material":4,"mode":4}]}],"nodes":[{"mesh":0,"name":"LightSquares"},{"mesh":1,"name":"DarkSquares"},{"mesh":2,"name":"Frame"},{"children":[0,1,2],"name":"Board"},{"mesh":3,"name":"Shape"},{"children":[4],"matrix":[0.9659258262890684,0.0,0.25881904510252074,0.0,0.0,1.0,0.0,0.0,-0.25881904510252074,0.0,0.9659258262890684,0.0,-17.5,0.0,17.5,1.0],"name":"WhiteRook_a1"},{"mesh":4,"name":"Shape"},{"children":[6],"matrix":[0.9975640502598242,0.0,0.0697564737441253,0.0,0.0,1.0,0.0,0.0,-0.0697564737441253,0.0,0.9975640502598242,0.0,-17.5,0.0,12.5,1.0],"name":"WhitePawn_a2"},{"mesh":5,"name":"Shape"},{"children":[8],"matrix":[0.984807753012208,0.0,-0.17364817766693033,0.0,0.0,1.0,0.0,0.0,0.17364817766693033,0.0,0.984807753012208,0.0,-17.5,0.0,-7.5,1.0],"name":"BlackPawn_a6"},{"mesh":6,"name":"Shape"},{"children":[10],"matrix":[0.9993908270190958,0.0,-0.03489949670250097,0.0,0.0,1.0,0.0,0.0,0.03489949670250097,0.0,0.9993908270190958,0.0,-17.5,0.0,-17.5,1.0],"name":"BlackRook_a8"},{"mesh":7,"name":"Shape"},{"children":[12],"matrix":[6.123233995736766e-17,0.0,1.0,0.0,0.0,1.0,0.0,0.0,-1.0,0.0,6.123233995736766e-17,0.0,-12.5,0.0,17.5,1.0],"name":"WhiteKnight_b1"},{"mesh":4,"name":"Shape"},{"children":[14],"matrix":[0.9986295347545738,0.0,-0.052335956242943835,0.0,0.0,1.0,0.0,0.0,0.052335956242943835,0.0,0.9986295347545738,0.0,-12.5,0.0,12.5,1.0],"name":"WhitePawn_b2"},{"mesh":8,"name":"Shape"},{"children":[16],"matrix":[0.9945218953682732,0.0,-0.10452846326765348,0.0,0.0,1.0,0.0,0.0,0.10452846326765348,0.0,0.9945218953682732,0.0,-12.5,0.0,-2.5,1.0],"name":"WhiteBishop_b5"},{"mesh":5,"name":"Shape"},{"children":[18],"matrix":[0.9993908270190958,0.0,0.03489949670250097,0.0,0.0,1.0,0.0,0.0,-0.03489949670250097,0.0,0.9993908270190958,0.0,-12.5,0.0,-12.5,1.0],"name":"BlackPawn_b7"},{"mesh":8,"name":"Shape"},{"children":[20],"matrix":[0.9998476951563912,0.0,0.01745240643728351,0.0,0.0,1.0,0.0,0.0,-0.01745240643728351,0.0,0.9998476951563912,0.0,-7.5,0.0,17.5,1.0],"name":"WhiteBishop_c1"},{"mesh":4,"name":"Shape"},{"children":[22],"matrix":[0.984807753012208,0.0,-0.17364817766693033,0.0,0.0,1.0,0.0,0.0,0.17364817766693033,0.0,0.984807753012208,0.0,-7.5,0.0,12.5,1.0],"name":"WhitePawn_c2"},{"mesh":9,"name":"Shape"},{"children":[24],"matrix":[6.123233995736766e-17,0.0,-1.0,0.0,0.0,1.0,0.0,0.0,1.0,0.0,6.123233995736766e-17,0.0,-7.5,0.0,-7.5,1.0],"name":"BlackKnight_c6"},{"mesh":5,"name":"Shape"},{"children":[26],"matrix":[0.9961946980917455,0.0,-0.08715574274765817,0.0,0.0,1.0,0.0,0.0,0.08715574274765817,0.0,0.9961946980917455,0.0,-7.5,0.0,-12.5,1.0],"name":"BlackPawn_c7"},{"mesh":10,"name":"Shape"},{"children":[28],"matrix":[0.9702957262759964,0.0,0.24192189559966773,0.0,0.0,1.0,0.0,0.0,-0.24192189559966773,0.0,0.9702957262759964,0.0,-7.5,0.0,-17.5,1.0],"name":"BlackBishop_c8"},{"mesh":11,"name":"Shape"},{"children":[30],"matrix":[0.9945218953682732,0.0,-0.10452846326765348,0.0,0.0,1.0,0.0,0.0,0.10452846326765348,0.0,0.9945218953682732,0.0,-2.5,0.0,17.5,1.0],"name":"WhiteQueen_d1"},{"mesh":4,"name":"Shape"},{"children":[32],"matrix":[0.9743700647852352,0.0,0.224951054343865,0.0,0.0,1.0,0.0,0.0,-0.224951054343865,0.0,0.9743700647852352,0.0,-2.5,0.0,12.5,1.0],"name":"WhitePawn_d2"},{"mesh":5,"name":"Shape"},{"children":[34],"matrix":[0.9781476007338056,0.0,-0.20791169081775937,0.0,0.0,1.0,0.0,0.0,0.20791169081775937,0.0,0.9781476007338056,0.0,-2.5,0.0,-12.5,1.0],"name":"BlackPawn_d7"},{"mesh":12,"name":"Shape"},{"children":[36],"matrix":[0.992546151641322,0.0,0.12186934340514748,0.0,0.0,1.0,0.0,0.0,-0.12186934340514748,0.0,0.992546151641322,0.0,-2.5,0.0,-17.5,1.0],"name":"BlackQueen_d8"},{"mesh":13,"name":"Shape"},{"children":[38],"matrix":[0.9743700647852352,0.0,-0.224951054343865,0.0,0.0,1.0,0.0,0.0,0.224951054343865,0.0,0.9743700647852352,0.0,2.5,0.0,17.5,1.0],"name":"WhiteKing_e1"},{"mesh":4,"name":"Shape"},{"children":[40],"matrix":[0.9702957262759964,0.0,0.24192189559966773,0.0,0.0,1.0,0.0,0.0,-0.24192189559966773,0.0,0.9702957262759964,0.0,2.5,0.0,2.5,1.0],"name":"WhitePawn_e4"},{"mesh":5,"name":"Shape"},{"children":[42],"matrix":[0.9986295347545738,0.0,0.052335956242943835,0.0,0.0,1.0,0.0,0.0,-0.052335956242943835,0.0,0.9986295347545738,0.0,2.5,0.0,-2.5,1.0],"name":"BlackPawn_e5"},{"mesh":14,"name":"Shape"},{"children":[44],"matrix":[1.0,0.0,0.0,0.0,0.0,1.0,0.0,0.0,0.0,0.0,1.0,0.0,2.5,0.0,-17.5,1.0],"name":"BlackKing_e8"},{"mesh":4,"name":"Shape"},{"children":[46],"matrix":[0.9998476951563912,0.0,-0.01745240643728351,0.0,0.0,1.0,0.0,0.0,0.01745240643728351,0.0,0.9998476951563912,0.0,7.5,0.0,12.5,1.0],"name":"WhitePawn_f2"},{"mesh":7,"name":"Shape"},{"children":[48],"matrix":[6.123233995736766e-17,0.0,1.0,0.0,0.0,1.0,0.0,0.0,-1.0,0.0,6.123233995736766e-17,0.0,7.5,0.0,7.5,1.0],"name":"WhiteKnight_f3"},{"mesh":5,"name":"Shape"},{"children":[50],"matrix":[0.9975640502598242,0.0,0.0697564737441253,0.0,0.0,1.0,0.0,0.0,-0.0697564737441253,0.0,0.9975640502598242,0.0,7.5,0.0,-12.5,1.0],"name":"BlackPawn_f7"},{"mesh":10,"name":"Shape"},{"children":[52],"matrix":[0.992546151641322,0.0,-0.12186934340514748,0.0,0.0,1.0,0.0,0.0,0.12186934340514748,0.0,0.992546151641322,0.0,7.5,0.0,-17.5,1.0],"name":"BlackBishop_f8"},{"mesh":4,"name":"Shape"},{"children":[54],"matrix":[0.9902680687415704,0.0,-0.13917310096006544,0.0,0.0,1.0,0.0,0.0,0.13917310096006544,0.0,0.9902680687415704,0.0,12.5,0.0,12.5,1.0],"name":"WhitePawn_g2"},{"mesh":5,"name":"Shape"},{"children":[56],"matrix":[0.9986295347545738,0.0,-0.052335956242943835,0.0,0.0,1.0,0.0,0.0,0.052335956242943835,0.0,0.9986295347545738,0.0,12.5,0.0,-12.5,1.0],"name":"BlackPawn_g7"},{"mesh":9,"name":"Shape"},{"children":[58],"matrix":[6.123233995736766e-17,0.0,-1.0,0.0,0.0,1.0,0.0,0.0,1.0,0.0,6.123233995736766e-17,0.0,12.5,0.0,-17.5,1.0],"name":"BlackKnight_g8"},{"mesh":3,"name":"Shape"},{"children":[60],"matrix":[0.9975640502598242,0.0,-0.0697564737441253,0.0,0.0,1.0,0.0,0.0,0.0697564737441253,0.0,0.9975640502598242,0.0,17.5,0.0,17.5,1.0],"name":"WhiteRook_h1"},{"mesh":4,"name":"Shape"},{"children":[62],"matrix":[0.9659258262890684,0.0,0.25881904510252074,0.0,0.0,1.0,0.0,0.0,-0.25881904510252074,0.0,0.9659258262890684,0.0,17.5,0.0,12.5,1.0],"name":"WhitePawn_h2"},{"mesh":5,"name":"Shape"},{"children":[64],"matrix":[0.984807753012208,0.0,-0.17364817766693033,0.0,0.0,1.0,0.0,0.0,0.17364817766693033,0.0,0.984807753012208,0.0,17.5,0.0,-12.5,1.0],"name":"BlackPawn_h7"},{"mesh":6,"name":"Shape"},{"children":[66],"matrix":[0.9876883405951378,0.0,0.15643446504023087,0.0,0.0,1.0,0.0,0.0,-0.15643446504023087,0.0,0.9876883405951378,0.0,17.5,0.0,-17.5,1.0],"name":"BlackRook_h8"},{"children":[5,7,9,11,13,15,17,19,21,23,25,27,29,31,33,35,37,39,41,43,45,47,49,51,53,55,57,59,61,63,65,67],"name":"Pieces"},{"children":[3,68],"name":"ChessSet"},{"children":[69],"matrix":[0.01,0.0,0.0,0.0,0.0,0.01,0.0,0.0,0.0,0.0,0.01,0.0,0.0,0.0,0.0,1.0],"name":"usd-root"}],"scene":0,"scenes":[{"nodes":[70]}]}