{"asset":{"version":"2.0","generator":"Web Geometry original offline authoring"},"scene":0,"scenes":[{"nodes":[0,1]}],"extensionsUsed":["KHR_lights_punctual"],"extensions":{"KHR_lights_punctual":{"lights":[{"type":"directional","color":[1,0.95,0.88],"intensity":2400}]}},"nodes":[{"name":"Authored-surface","mesh":0},{"name":"Authoring-light","rotation":[-0.3826834323650898,0,0,0.9238795325112867],"extensions":{"KHR_lights_punctual":{"light":0}}}],"meshes":[{"primitives":[{"attributes":{"POSITION":0},"indices":1,"material":0}]}],"materials":[{"doubleSided":true,"pbrMetallicRoughness":{"baseColorFactor":[0.12,0.65,0.52,1],"metallicFactor":0.1,"roughnessFactor":0.55}}],"buffers":[{"uri":"geometry.bin","byteLength":42348}],"bufferViews":[{"buffer":0,"byteOffset":0,"byteLength":14700,"target":34962},{"buffer":0,"byteOffset":14700,"byteLength":27648,"target":34963}],"accessors":[{"bufferView":0,"componentType":5126,"type":"VEC3","count":1225,"min":[-1.2156769037246704,-0.9998001456260681,-1.0000338554382324],"max":[1.0003212690353394,0.9998001456260681,1.3596982955932617]},{"bufferView":1,"componentType":5125,"type":"SCALAR","count":6912}]}