{"accessors":[{"bufferView":0,"componentType":5126,"count":3,"max":[0,0,0],"min":[0,0,0],"type":"VEC3"},{"bufferView":1,"componentType":5123,"count":3,"type":"SCALAR"}],"asset":{"copyright":"Original Web Geometry contributors; repository license","generator":"Web Geometry examples recipe v1","version":"2.0"},"bufferViews":[{"buffer":0,"byteLength":36,"byteOffset":0},{"buffer":0,"byteLength":6,"byteOffset":36}],"buffers":[{"byteLength":44,"uri":"scene.bin"}],"materials":[{"doubleSided":true,"name":"Slate slab","pbrMetallicRoughness":{"baseColorFactor":[0.22,0.24,0.27,1],"metallicFactor":0,"roughnessFactor":0.85}},{"doubleSided":true,"name":"Ivory sphere","pbrMetallicRoughness":{"baseColorFactor":[0.9,0.86,0.76,1],"metallicFactor":0,"roughnessFactor":0.4}},{"doubleSided":true,"name":"Teal cylinder","pbrMetallicRoughness":{"baseColorFactor":[0.1,0.55,0.5,1],"metallicFactor":0.2,"roughnessFactor":0.5}},{"doubleSided":true,"name":"Ochre cone","pbrMetallicRoughness":{"baseColorFactor":[0.8,0.55,0.15,1],"metallicFactor":0,"roughnessFactor":0.6}},{"doubleSided":true,"name":"Brass torus","pbrMetallicRoughness":{"baseColorFactor":[0.8,0.6,0.25,1],"metallicFactor":0.9,"roughnessFactor":0.3}},{"doubleSided":true,"name":"Plum box","pbrMetallicRoughness":{"baseColorFactor":[0.4,0.15,0.35,1],"metallicFactor":0,"roughnessFactor":0.7}}],"meshes":[{"name":"Still life of primitives","primitives":[{"attributes":{"POSITION":0},"indices":1,"material":0,"mode":4},{"attributes":{"POSITION":0},"indices":1,"material":1,"mode":4},{"attributes":{"POSITION":0},"indices":1,"material":2,"mode":4},{"attributes":{"POSITION":0},"indices":1,"material":3,"mode":4},{"attributes":{"POSITION":0},"indices":1,"material":4,"mode":4},{"attributes":{"POSITION":0},"indices":1,"material":5,"mode":4}]}],"nodes":[{"mesh":0,"name":"Still life of primitives"}],"scene":0,"scenes":[{"nodes":[0]}]}