{"asset":{"version":"2.0","generator":"Web Geometry examples recipe v1","copyright":"Original Web Geometry contributors; repository license"},"scene":0,"scenes":[{"nodes":[0]}],"nodes":[{"name":"Colonnade","mesh":0}],"meshes":[{"name":"Colonnade","primitives":[{"material":0,"attributes":{"POSITION":0,"NORMAL":1},"indices":2},{"material":1,"attributes":{"POSITION":3,"NORMAL":4},"indices":5}]}],"materials":[{"name":"Sand floor","doubleSided":true,"pbrMetallicRoughness":{"baseColorFactor":[0.6,0.55,0.45,1],"metallicFactor":0,"roughnessFactor":0.9}},{"name":"Chalk stone","doubleSided":true,"pbrMetallicRoughness":{"baseColorFactor":[0.88,0.85,0.78,1],"metallicFactor":0,"roughnessFactor":0.7}}],"buffers":[{"uri":"geometry.bin","byteLength":211824}],"bufferViews":[{"buffer":0,"byteOffset":0,"byteLength":288,"target":34962},{"buffer":0,"byteOffset":288,"byteLength":288,"target":34962},{"buffer":0,"byteOffset":576,"byteLength":144,"target":34963},{"buffer":0,"byteOffset":720,"byteLength":57024,"target":34962},{"buffer":0,"byteOffset":57744,"byteLength":57024,"target":34962},{"buffer":0,"byteOffset":114768,"byteLength":97056,"target":34963}],"accessors":[{"bufferView":0,"componentType":5126,"type":"VEC3","count":24,"min":[-3,-0.3,-7],"max":[3,0,7]},{"bufferView":1,"componentType":5126,"type":"VEC3","count":24,"min":[-1,-1,-1],"max":[1,1,1]},{"bufferView":2,"componentType":5125,"type":"SCALAR","count":36},{"bufferView":3,"componentType":5126,"type":"VEC3","count":4752,"min":[-2.25,0,-6.75],"max":[2.25,3.35,6.75]},{"bufferView":4,"componentType":5126,"type":"VEC3","count":4752,"min":[-1,-1,-1],"max":[1,1,1]},{"bufferView":5,"componentType":5125,"type":"SCALAR","count":24264}]}