{"asset":{"version":"2.0","generator":"Trillion3D example writer","copyright":"CC0 1.0"},"scene":0,"scenes":[{"nodes":[0,1,2,3,4,5,6,7,8]}],"nodes":[{"name":"tile 0_0","mesh":0,"translation":[0,0,0]},{"name":"tile 1_0","mesh":1,"translation":[256,0,0]},{"name":"tile 2_0","mesh":2,"translation":[512,0,0]},{"name":"tile 0_1","mesh":3,"translation":[0,0,256]},{"name":"tile 1_1","mesh":4,"translation":[256,0,256]},{"name":"tile 2_1","mesh":5,"translation":[512,0,256]},{"name":"tile 0_2","mesh":6,"translation":[0,0,512]},{"name":"tile 1_2","mesh":7,"translation":[256,0,512]},{"name":"tile 2_2","mesh":8,"translation":[512,0,512]}],"meshes":[{"name":"tile 0_0","primitives":[{"material":0,"attributes":{"POSITION":0,"NORMAL":1,"TEXCOORD_0":2},"indices":3}]},{"name":"tile 1_0","primitives":[{"material":0,"attributes":{"POSITION":4,"NORMAL":5,"TEXCOORD_0":6},"indices":7}]},{"name":"tile 2_0","primitives":[{"material":0,"attributes":{"POSITION":8,"NORMAL":9,"TEXCOORD_0":10},"indices":11}]},{"name":"tile 0_1","primitives":[{"material":0,"attributes":{"POSITION":12,"NORMAL":13,"TEXCOORD_0":14},"indices":15}]},{"name":"tile 1_1","primitives":[{"material":0,"attributes":{"POSITION":16,"NORMAL":17,"TEXCOORD_0":18},"indices":19}]},{"name":"tile 2_1","primitives":[{"material":0,"attributes":{"POSITION":20,"NORMAL":21,"TEXCOORD_0":22},"indices":23}]},{"name":"tile 0_2","primitives":[{"material":0,"attributes":{"POSITION":24,"NORMAL":25,"TEXCOORD_0":26},"indices":27}]},{"name":"tile 1_2","primitives":[{"material":0,"attributes":{"POSITION":28,"NORMAL":29,"TEXCOORD_0":30},"indices":31}]},{"name":"tile 2_2","primitives":[{"material":0,"attributes":{"POSITION":32,"NORMAL":33,"TEXCOORD_0":34},"indices":35}]}],"materials":[{"name":"ground","pbrMetallicRoughness":{"baseColorFactor":[1,1,1,1],"metallicFactor":0,"roughnessFactor":0.9,"baseColorTexture":{"index":0}}}],"buffers":[{"uri":"terrain-tiles.bin","byteLength":534816}],"bufferViews":[{"buffer":0,"byteOffset":0,"byteLength":13068,"target":34962},{"buffer":0,"byteOffset":13068,"byteLength":13068,"target":34962},{"buffer":0,"byteOffset":26136,"byteLength":8712,"target":34962},{"buffer":0,"byteOffset":34848,"byteLength":24576,"target":34963},{"buffer":0,"byteOffset":59424,"byteLength":13068,"target":34962},{"buffer":0,"byteOffset":72492,"byteLength":13068,"target":34962},{"buffer":0,"byteOffset":85560,"byteLength":8712,"target":34962},{"buffer":0,"byteOffset":94272,"byteLength":24576,"target":34963},{"buffer":0,"byteOffset":118848,"byteLength":13068,"target":34962},{"buffer":0,"byteOffset":131916,"byteLength":13068,"target":34962},{"buffer":0,"byteOffset":144984,"byteLength":8712,"target":34962},{"buffer":0,"byteOffset":153696,"byteLength":24576,"target":34963},{"buffer":0,"byteOffset":178272,"byteLength":13068,"target":34962},{"buffer":0,"byteOffset":191340,"byteLength":13068,"target":34962},{"buffer":0,"byteOffset":204408,"byteLength":8712,"target":34962},{"buffer":0,"byteOffset":213120,"byteLength":24576,"target":34963},{"buffer":0,"byteOffset":237696,"byteLength":13068,"target":34962},{"buffer":0,"byteOffset":250764,"byteLength":13068,"target":34962},{"buffer":0,"byteOffset":263832,"byteLength":8712,"target":34962},{"buffer":0,"byteOffset":272544,"byteLength":24576,"target":34963},{"buffer":0,"byteOffset":297120,"byteLength":13068,"target":34962},{"buffer":0,"byteOffset":310188,"byteLength":13068,"target":34962},{"buffer":0,"byteOffset":323256,"byteLength":8712,"target":34962},{"buffer":0,"byteOffset":331968,"byteLength":24576,"target":34963},{"buffer":0,"byteOffset":356544,"byteLength":13068,"target":34962},{"buffer":0,"byteOffset":369612,"byteLength":13068,"target":34962},{"buffer":0,"byteOffset":382680,"byteLength":8712,"target":34962},{"buffer":0,"byteOffset":391392,"byteLength":24576,"target":34963},{"buffer":0,"byteOffset":415968,"byteLength":13068,"target":34962},{"buffer":0,"byteOffset":429036,"byteLength":13068,"target":34962},{"buffer":0,"byteOffset":442104,"byteLength":8712,"target":34962},{"buffer":0,"byteOffset":450816,"byteLength":24576,"target":34963},{"buffer":0,"byteOffset":475392,"byteLength":13068,"target":34962},{"buffer":0,"byteOffset":488460,"byteLength":13068,"target":34962},{"buffer":0,"byteOffset":501528,"byteLength":8712,"target":34962},{"buffer":0,"byteOffset":510240,"byteLength":24576,"target":34963}],"accessors":[{"bufferView":0,"componentType":5126,"type":"VEC3","count":1089,"min":[0,30,0],"max":[256,99.97265625,256]},{"bufferView":1,"componentType":5126,"type":"VEC3","count":1089,"min":[-0.5507022450553377,0.7003181829124059,-0.4826173751838056],"max":[0.5505275948417222,1,0.7138307913383546]},{"bufferView":2,"componentType":5126,"type":"VEC2","count":1089,"min":[0,0],"max":[1,1]},{"bufferView":3,"componentType":5125,"type":"SCALAR","count":6144},{"bufferView":4,"componentType":5126,"type":"VEC3","count":1089,"min":[0,30,0],"max":[256,99.90234375,256]},{"bufferView":5,"componentType":5126,"type":"VEC3","count":1089,"min":[-0.5503933238848139,0.7005668976160352,-0.713586452918737],"max":[0.5505687841237117,1,0.5196392881402604]},{"bufferView":6,"componentType":5126,"type":"VEC2","count":1089,"min":[0,0],"max":[1,1]},{"bufferView":7,"componentType":5125,"type":"SCALAR","count":6144},{"bufferView":8,"componentType":5126,"type":"VEC3","count":1089,"min":[0,30,0],"max":[256,99.96484375,256]},{"bufferView":9,"componentType":5126,"type":"VEC3","count":1089,"min":[-0.550464703083912,0.7003735133439649,-0.5255735470266726],"max":[0.5502891303955574,1,0.7137764495792825]},{"bufferView":10,"componentType":5126,"type":"VEC2","count":1089,"min":[0,0],"max":[1,1]},{"bufferView":11,"componentType":5125,"type":"SCALAR","count":6144},{"bufferView":12,"componentType":5126,"type":"VEC3","count":1089,"min":[0,30,0],"max":[256,99.90625,256]},{"bufferView":13,"componentType":5126,"type":"VEC3","count":1089,"min":[-0.5502804814122415,0.7001159844113678,-0.7139625565338998],"max":[0.5295802108673964,1,0.7140291355730602]},{"bufferView":14,"componentType":5126,"type":"VEC2","count":1089,"min":[0,0],"max":[1,1]},{"bufferView":15,"componentType":5125,"type":"SCALAR","count":6144},{"bufferView":16,"componentType":5126,"type":"VEC3","count":1089,"min":[0,30,0],"max":[256,88.1015625,256]},{"bufferView":17,"componentType":5126,"type":"VEC3","count":1089,"min":[-0.4677973891940568,0.7003648861663869,-0.7137849876908351],"max":[0.5501471093646361,1,0.7137183443256615]},{"bufferView":18,"componentType":5126,"type":"VEC2","count":1089,"min":[0,0],"max":[1,1]},{"bufferView":19,"componentType":5125,"type":"SCALAR","count":6144},{"bufferView":20,"componentType":5126,"type":"VEC3","count":1089,"min":[0,30,0],"max":[256,99.8984375,256]},{"bufferView":21,"componentType":5126,"type":"VEC3","count":1089,"min":[-0.5500431954515533,0.7001713562434605,-0.7139082427016816],"max":[0.467661716605103,1,0.7139748360438207]},{"bufferView":22,"componentType":5126,"type":"VEC2","count":1089,"min":[0,0],"max":[1,1]},{"bufferView":23,"componentType":5125,"type":"SCALAR","count":6144},{"bufferView":24,"componentType":5126,"type":"VEC3","count":1089,"min":[0,30,0],"max":[256,99.796875,256]},{"bufferView":25,"componentType":5126,"type":"VEC3","count":1089,"min":[-0.5495748663865061,0.7001140586200699,-0.7140310241114693],"max":[0.549963734192374,1,0.488840068156706]},{"bufferView":26,"componentType":5126,"type":"VEC2","count":1089,"min":[0,0],"max":[1,1]},{"bufferView":27,"componentType":5125,"type":"SCALAR","count":6144},{"bufferView":28,"componentType":5126,"type":"VEC3","count":1089,"min":[0,30,0],"max":[256,99.81640625,256]},{"bufferView":29,"componentType":5126,"type":"VEC3","count":1089,"min":[-0.5498294335713562,0.7003629623017744,-0.6998157220030788],"max":[0.5494402443370645,1,0.7137868782059332]},{"bufferView":30,"componentType":5126,"type":"VEC2","count":1089,"min":[0,0],"max":[1,1]},{"bufferView":31,"componentType":5125,"type":"SCALAR","count":6144},{"bufferView":32,"componentType":5126,"type":"VEC3","count":1089,"min":[0,30,0],"max":[256,99.7890625,256]},{"bufferView":33,"componentType":5126,"type":"VEC3","count":1089,"min":[-0.5493363151484677,0.700169430874013,-0.7139767250156401],"max":[0.5497246507201028,1,0.5258513202717472]},{"bufferView":34,"componentType":5126,"type":"VEC2","count":1089,"min":[0,0],"max":[1,1]},{"bufferView":35,"componentType":5125,"type":"SCALAR","count":6144}],"images":[{"uri":"ground.png"}],"textures":[{"sampler":0,"source":0}],"samplers":[{"magFilter":9729,"minFilter":9987,"wrapS":10497,"wrapT":10497}]}