{"accessors":[{"bufferView":0,"componentType":5126,"count":24,"max":[2.5,0,2.5],"min":[-2.5,-0.3,-2.5],"type":"VEC3"},{"bufferView":1,"componentType":5126,"count":24,"max":[1,1,1],"min":[-1,-1,-1],"type":"VEC3"},{"bufferView":2,"componentType":5125,"count":36,"type":"SCALAR"},{"bufferView":3,"componentType":5126,"count":3589,"max":[0.72,1.95,0.72],"min":[-0.72,0,-0.72],"type":"VEC3"},{"bufferView":4,"componentType":5126,"count":3589,"max":[0.9998488050698356,0.976788088322632,0.9998488050698356],"min":[-0.9998488050698356,-1,-0.9998488050698356],"type":"VEC3"},{"bufferView":5,"componentType":5125,"count":20736,"type":"SCALAR"}],"asset":{"copyright":"Original Web Geometry contributors; repository license","generator":"Web Geometry examples recipe v1","version":"2.0"},"bufferViews":[{"buffer":0,"byteLength":288,"byteOffset":0,"target":34962},{"buffer":0,"byteLength":288,"byteOffset":288,"target":34962},{"buffer":0,"byteLength":144,"byteOffset":576,"target":34963},{"buffer":0,"byteLength":43068,"byteOffset":720,"target":34962},{"buffer":0,"byteLength":43068,"byteOffset":43788,"target":34962},{"buffer":0,"byteLength":82944,"byteOffset":86856,"target":34963}],"buffers":[{"byteLength":169800,"uri":"source.bin"}],"materials":[{"doubleSided":true,"name":"Walnut table","pbrMetallicRoughness":{"baseColorFactor":[0.3,0.18,0.1,1],"metallicFactor":0,"roughnessFactor":0.6}},{"doubleSided":true,"name":"Celadon glaze","pbrMetallicRoughness":{"baseColorFactor":[0.55,0.72,0.6,1],"metallicFactor":0,"roughnessFactor":0.25}}],"meshes":[{"name":"Turned vase","primitives":[{"attributes":{"NORMAL":1,"POSITION":0},"indices":2,"material":0},{"attributes":{"NORMAL":4,"POSITION":3},"indices":5,"material":1}]}],"nodes":[{"mesh":0,"name":"Turned vase"}],"scene":0,"scenes":[{"nodes":[0]}]}