{"accessors":[{"bufferView":0,"componentType":5126,"count":3,"max":[0,0,0],"min":[0,0,0],"type":"VEC3"},{"bufferView":1,"componentType":5123,"count":3,"type":"SCALAR"}],"asset":{"generator":"Khronos glTF Blender I/O v1.6.16","version":"2.0"},"bufferViews":[{"buffer":0,"byteLength":36,"byteOffset":0},{"buffer":0,"byteLength":6,"byteOffset":36}],"buffers":[{"byteLength":44,"uri":"scene.bin"}],"images":[{"mimeType":"image/jpeg","name":"marble_bust_01_nor_gl","uri":"../../../../source/textures/marble_bust_01_nor_gl_1k.jpg"},{"mimeType":"image/jpeg","name":"marble_bust_01_diff","uri":"../../../../source/textures/marble_bust_01_diff_1k.jpg"},{"mimeType":"image/jpeg","name":"marble_bust_01_arm","uri":"../../../../source/textures/marble_bust_01_rough_1k.jpg"}],"materials":[{"doubleSided":true,"name":"marble_bust_01","normalTexture":{"index":0},"pbrMetallicRoughness":{"baseColorTexture":{"index":1},"metallicFactor":0,"metallicRoughnessTexture":{"index":2}}},{"doubleSided":true,"name":"Plaster niche","pbrMetallicRoughness":{"baseColorFactor":[0.6,0.56,0.5,1],"metallicFactor":0,"roughnessFactor":0.85}},{"doubleSided":true,"name":"Dark stone pedestal","pbrMetallicRoughness":{"baseColorFactor":[0.16,0.15,0.15,1],"metallicFactor":0,"roughnessFactor":0.5}}],"meshes":[{"name":"marble_bust_01","primitives":[{"attributes":{"POSITION":0},"indices":1,"material":0,"mode":4}]},{"name":"Pedestal and niche","primitives":[{"attributes":{"POSITION":0},"indices":1,"material":1,"mode":4},{"attributes":{"POSITION":0},"indices":1,"material":2,"mode":4}]}],"nodes":[{"mesh":0,"name":"marble_bust_01","translation":[0,0.028335653245449063,0]},{"mesh":1,"name":"Pedestal and niche"}],"samplers":[{"magFilter":9729,"minFilter":9987}],"scene":0,"scenes":[{"name":"Scene","nodes":[0,1]}],"textures":[{"sampler":0,"source":0},{"sampler":0,"source":1},{"sampler":0,"source":2}]}