{"accessors":[{"bufferView":0,"componentType":5126,"count":3,"max":[0,0,0],"min":[0,0,0],"type":"VEC3"},{"bufferView":1,"componentType":5123,"count":3,"type":"SCALAR"}],"asset":{"copyright":"Original trillion3D contributors; repository license","generator":"trillion3D Solstice Court recipe v1","version":"2.0"},"bufferViews":[{"buffer":0,"byteLength":36,"byteOffset":0},{"buffer":0,"byteLength":6,"byteOffset":36}],"buffers":[{"byteLength":44,"uri":"scene.bin"}],"extensions":{"KHR_lights_punctual":{"lights":[{"color":[1,0.88,0.69],"intensity":2400,"name":"Late afternoon sun","type":"directional"}]}},"extensionsUsed":["KHR_lights_punctual"],"materials":[{"doubleSided":true,"name":"Warm limestone","pbrMetallicRoughness":{"baseColorFactor":[0.67,0.48,0.28,1],"metallicFactor":0,"roughnessFactor":0.82}},{"doubleSided":true,"name":"Ivory carved stone","pbrMetallicRoughness":{"baseColorFactor":[0.86,0.8,0.62,1],"metallicFactor":0,"roughnessFactor":0.62}},{"doubleSided":true,"name":"Patinated copper","pbrMetallicRoughness":{"baseColorFactor":[0.065,0.36,0.32,1],"metallicFactor":0.65,"roughnessFactor":0.38}},{"doubleSided":true,"name":"Brushed brass","pbrMetallicRoughness":{"baseColorFactor":[0.75,0.4,0.085,1],"metallicFactor":0.75,"roughnessFactor":0.3}},{"doubleSided":true,"name":"Midnight ceramic","pbrMetallicRoughness":{"baseColorFactor":[0.055,0.095,0.16,1],"metallicFactor":0.05,"roughnessFactor":0.5}},{"doubleSided":true,"name":"Terracotta","pbrMetallicRoughness":{"baseColorFactor":[0.58,0.16,0.075,1],"metallicFactor":0,"roughnessFactor":0.76}}],"meshes":[{"name":"Original observatory masonry and instrument","primitives":[{"attributes":{"POSITION":0},"indices":1,"material":0,"mode":4},{"attributes":{"POSITION":0},"indices":1,"material":1,"mode":4},{"attributes":{"POSITION":0},"indices":1,"material":4,"mode":4},{"attributes":{"POSITION":0},"indices":1,"material":3,"mode":4},{"attributes":{"POSITION":0},"indices":1,"material":2,"mode":4},{"attributes":{"POSITION":0},"indices":1,"material":5,"mode":4}]}],"nodes":[{"mesh":0,"name":"Solstice Court"},{"extensions":{"KHR_lights_punctual":{"light":0}},"name":"Late afternoon sun","rotation":[-0.3600000000000273,-0.2400000000000182,-0.10000000000000758,0.895991071384068]}],"scene":0,"scenes":[{"nodes":[0,1]}]}