{"accessors":[{"bufferView":0,"componentType":5126,"count":8957,"max":[12.5,7.13,10],"min":[-12.5,-0.9,-10],"type":"VEC3"},{"bufferView":1,"componentType":5126,"count":8957,"max":[1,1,1],"min":[-1,-1,-1],"type":"VEC3"},{"bufferView":2,"componentType":5125,"count":39672,"type":"SCALAR"},{"bufferView":3,"componentType":5126,"count":21272,"max":[11.9,6.869999999999999,9.4],"min":[-11.9,0,-9.4],"type":"VEC3"},{"bufferView":4,"componentType":5126,"count":21272,"max":[1,1,1],"min":[-1,-1,-1],"type":"VEC3"},{"bufferView":5,"componentType":5125,"count":112860,"type":"SCALAR"},{"bufferView":6,"componentType":5126,"count":48,"max":[3.4,3.95,3.65],"min":[-4.05,0.4500000000000002,-5],"type":"VEC3"},{"bufferView":7,"componentType":5126,"count":48,"max":[1,1,1],"min":[-1,-1,-1],"type":"VEC3"},{"bufferView":8,"componentType":5125,"count":72,"type":"SCALAR"},{"bufferView":9,"componentType":5126,"count":12372,"max":[8.82,9.65,6.52],"min":[-8.82,0.63,-7.12],"type":"VEC3"},{"bufferView":10,"componentType":5126,"count":12372,"max":[0.9999999990130384,0.9999999990130384,0.99999999950652],"min":[-0.9999999990130384,-0.999999999013044,-0.99999999950652],"type":"VEC3"},{"bufferView":11,"componentType":5125,"count":69120,"type":"SCALAR"},{"bufferView":12,"componentType":5126,"count":9058,"max":[9.225,8.9,7.65],"min":[-9.225,3.2340059661973224,-9.40875],"type":"VEC3"},{"bufferView":13,"componentType":5126,"count":9058,"max":[1,1,1],"min":[-1,-1,-1],"type":"VEC3"},{"bufferView":14,"componentType":5125,"count":52296,"type":"SCALAR"},{"bufferView":15,"componentType":5126,"count":24,"max":[9.5,2.3,-6],"min":[5.5,0.09999999999999988,-9],"type":"VEC3"},{"bufferView":16,"componentType":5126,"count":24,"max":[1,1,1],"min":[-1,-1,-1],"type":"VEC3"},{"bufferView":17,"componentType":5125,"count":36,"type":"SCALAR"}],"asset":{"copyright":"Original trillion3D contributors; repository license","generator":"trillion3D Solstice Court recipe v1","version":"2.0"},"bufferViews":[{"buffer":0,"byteLength":107484,"byteOffset":0,"target":34962},{"buffer":0,"byteLength":107484,"byteOffset":107484,"target":34962},{"buffer":0,"byteLength":158688,"byteOffset":214968,"target":34963},{"buffer":0,"byteLength":255264,"byteOffset":373656,"target":34962},{"buffer":0,"byteLength":255264,"byteOffset":628920,"target":34962},{"buffer":0,"byteLength":451440,"byteOffset":884184,"target":34963},{"buffer":0,"byteLength":576,"byteOffset":1335624,"target":34962},{"buffer":0,"byteLength":576,"byteOffset":1336200,"target":34962},{"buffer":0,"byteLength":288,"byteOffset":1336776,"target":34963},{"buffer":0,"byteLength":148464,"byteOffset":1337064,"target":34962},{"buffer":0,"byteLength":148464,"byteOffset":1485528,"target":34962},{"buffer":0,"byteLength":276480,"byteOffset":1633992,"target":34963},{"buffer":0,"byteLength":108696,"byteOffset":1910472,"target":34962},{"buffer":0,"byteLength":108696,"byteOffset":2019168,"target":34962},{"buffer":0,"byteLength":209184,"byteOffset":2127864,"target":34963},{"buffer":0,"byteLength":288,"byteOffset":2337048,"target":34962},{"buffer":0,"byteLength":288,"byteOffset":2337336,"target":34962},{"buffer":0,"byteLength":144,"byteOffset":2337624,"target":34963}],"buffers":[{"byteLength":2337768,"uri":"source.bin"}],"extensions":{"KHR_lights_punctual":{"lights":[{"color":[1,0.88,0.69],"intensity":2400,"name":"Late afternoon sun","type":"directional"}]}},"extensionsUsed":["KHR_lights_punctual"],"materials":[{"doubleSided":true,"name":"Warm limestone","pbrMetallicRoughness":{"baseColorFactor":[0.67,0.48,0.28,1],"metallicFactor":0,"roughnessFactor":0.82}},{"doubleSided":true,"name":"Ivory carved stone","pbrMetallicRoughness":{"baseColorFactor":[0.86,0.8,0.62,1],"metallicFactor":0,"roughnessFactor":0.62}},{"doubleSided":true,"name":"Patinated copper","pbrMetallicRoughness":{"baseColorFactor":[0.065,0.36,0.32,1],"metallicFactor":0.65,"roughnessFactor":0.38}},{"doubleSided":true,"name":"Brushed brass","pbrMetallicRoughness":{"baseColorFactor":[0.75,0.4,0.085,1],"metallicFactor":0.75,"roughnessFactor":0.3}},{"doubleSided":true,"name":"Midnight ceramic","pbrMetallicRoughness":{"baseColorFactor":[0.055,0.095,0.16,1],"metallicFactor":0.05,"roughnessFactor":0.5}},{"doubleSided":true,"name":"Terracotta","pbrMetallicRoughness":{"baseColorFactor":[0.58,0.16,0.075,1],"metallicFactor":0,"roughnessFactor":0.76}}],"meshes":[{"name":"Original observatory masonry and instrument","primitives":[{"attributes":{"NORMAL":1,"POSITION":0},"indices":2,"material":0},{"attributes":{"NORMAL":4,"POSITION":3},"indices":5,"material":1},{"attributes":{"NORMAL":7,"POSITION":6},"indices":8,"material":4},{"attributes":{"NORMAL":10,"POSITION":9},"indices":11,"material":3},{"attributes":{"NORMAL":13,"POSITION":12},"indices":14,"material":2},{"attributes":{"NORMAL":16,"POSITION":15},"indices":17,"material":5}]}],"nodes":[{"mesh":0,"name":"Solstice Court"},{"extensions":{"KHR_lights_punctual":{"light":0}},"name":"Late afternoon sun","rotation":[-0.3600000000000273,-0.2400000000000182,-0.10000000000000758,0.895991071384068]}],"scene":0,"scenes":[{"nodes":[0,1]}]}