{"accessors":[{"bufferView":0,"componentType":5126,"count":3,"max":[0,0,0],"min":[0,0,0],"type":"VEC3"},{"bufferView":1,"componentType":5123,"count":3,"type":"SCALAR"}],"asset":{"generator":"web-geometry-compiler 0.8.0 (obj-ufbx-0.11.3-gltf-7)","version":"2.0"},"bufferViews":[{"buffer":0,"byteLength":36,"byteOffset":0},{"buffer":0,"byteLength":6,"byteOffset":36}],"buffers":[{"byteLength":44,"uri":"scene.bin"}],"images":[{"mimeType":"image/png","name":"lantaarn.pcx","uri":"../../../../source/lantaarn.png"}],"materials":[{"emissiveFactor":[0.0,0.0,0.0],"name":"road","pbrMetallicRoughness":{"baseColorFactor":[0.07,0.07,0.08,1.0],"metallicFactor":0.0,"roughnessFactor":0.6}},{"emissiveFactor":[0.0,0.0,0.0],"name":"pavement","pbrMetallicRoughness":{"baseColorFactor":[0.4,0.4,0.38,1.0],"metallicFactor":0.0,"roughnessFactor":0.6}},{"emissiveFactor":[0.0,0.0,0.0],"name":"kerb","pbrMetallicRoughness":{"baseColorFactor":[0.55,0.55,0.52,1.0],"metallicFactor":0.0,"roughnessFactor":0.6}},{"emissiveFactor":[0.0,0.0,0.0],"name":"wall","pbrMetallicRoughness":{"baseColorFactor":[0.5,0.44,0.38,1.0],"metallicFactor":0.0,"roughnessFactor":0.6}},{"emissiveFactor":[0.0,0.0,0.0],"name":"door","pbrMetallicRoughness":{"baseColorFactor":[0.2,0.12,0.08,1.0],"metallicFactor":0.0,"roughnessFactor":0.6}},{"emissiveFactor":[0.0,0.0,0.0],"name":"skin","pbrMetallicRoughness":{"baseColorFactor":[1.0,1.0,1.0,1.0],"baseColorTexture":{"index":0},"metallicFactor":0.0,"roughnessFactor":1.0}}],"meshes":[{"name":"","primitives":[{"attributes":{"POSITION":0},"indices":1,"material":0,"mode":4},{"attributes":{"POSITION":0},"indices":1,"material":1,"mode":4},{"attributes":{"POSITION":0},"indices":1,"material":2,"mode":4},{"attributes":{"POSITION":0},"indices":1,"material":3,"mode":4},{"attributes":{"POSITION":0},"indices":1,"material":4,"mode":4}]},{"name":"Group","primitives":[{"attributes":{"POSITION":0},"indices":1,"material":5,"mode":4}]}],"nodes":[{"matrix":[1.0,0.0,0.0,0.0,0.0,1.0,0.0,0.0,0.0,0.0,1.0,0.0,0.0,0.0,0.0,1.0],"mesh":0,"name":""},{"matrix":[1.0,0.0,0.0,0.0,0.0,1.0,0.0,0.0,0.0,0.0,1.0,0.0,0.0,0.0,0.0,1.0],"mesh":1,"name":"Group"}],"samplers":[{"magFilter":9729,"minFilter":9987,"wrapS":10497,"wrapT":10497}],"scene":0,"scenes":[{"nodes":[0,1]}],"textures":[{"sampler":0,"source":0}]}