{"accessors":[{"bufferView":0,"componentType":5126,"count":24,"max":[6.0,-0.15000000596046448,6.0],"min":[-6.0,-0.3499999940395355,-6.0],"type":"VEC3"},{"bufferView":1,"componentType":5126,"count":24,"type":"VEC3"},{"bufferView":2,"componentType":5123,"count":36,"type":"SCALAR"},{"bufferView":3,"componentType":5126,"count":44,"max":[5.5,0.0,5.5],"min":[-4.0,-0.20000000298023224,-3.0],"type":"VEC3"},{"bufferView":4,"componentType":5126,"count":44,"type":"VEC3"},{"bufferView":5,"componentType":5123,"count":72,"type":"SCALAR"},{"bufferView":6,"componentType":5126,"count":44,"max":[5.5,0.0,5.5],"min":[-2.3499999046325684,-0.20000000298023224,-1.350000023841858],"type":"VEC3"},{"bufferView":7,"componentType":5126,"count":44,"type":"VEC3"},{"bufferView":8,"componentType":5123,"count":72,"type":"SCALAR"},{"bufferView":9,"componentType":5126,"count":88,"max":[6.0,5.0,5.800000190734863],"min":[-6.0,-0.20000000298023224,-3.299999952316284],"type":"VEC3"},{"bufferView":10,"componentType":5126,"count":88,"type":"VEC3"},{"bufferView":11,"componentType":5123,"count":144,"type":"SCALAR"},{"bufferView":12,"componentType":5126,"count":24,"max":[-0.6499999761581421,2.200000047683716,-2.950000047683716],"min":[-1.75,0.0,-3.0999999046325684],"type":"VEC3"},{"bufferView":13,"componentType":5126,"count":24,"type":"VEC3"},{"bufferView":14,"componentType":5123,"count":36,"type":"SCALAR"},{"bufferView":15,"componentType":5126,"count":354,"max":[1.6670973300933838,4.054499626159668,-1.79484224319458],"min":[-0.6009708642959595,-0.03123994544148445,-2.020040512084961],"type":"VEC3"},{"bufferView":16,"componentType":5126,"count":354,"type":"VEC3"},{"bufferView":17,"componentType":5126,"count":354,"type":"VEC2"},{"bufferView":18,"componentType":5123,"count":792,"type":"SCALAR"}],"asset":{"generator":"web-geometry-compiler 0.8.0 (obj-ufbx-0.11.3-gltf-7)","version":"2.0"},"bufferViews":[{"buffer":0,"byteLength":288,"byteOffset":0,"target":34962},{"buffer":0,"byteLength":288,"byteOffset":288,"target":34962},{"buffer":0,"byteLength":72,"byteOffset":576,"target":34963},{"buffer":0,"byteLength":528,"byteOffset":648,"target":34962},{"buffer":0,"byteLength":528,"byteOffset":1176,"target":34962},{"buffer":0,"byteLength":144,"byteOffset":1704,"target":34963},{"buffer":0,"byteLength":528,"byteOffset":1848,"target":34962},{"buffer":0,"byteLength":528,"byteOffset":2376,"target":34962},{"buffer":0,"byteLength":144,"byteOffset":2904,"target":34963},{"buffer":0,"byteLength":1056,"byteOffset":3048,"target":34962},{"buffer":0,"byteLength":1056,"byteOffset":4104,"target":34962},{"buffer":0,"byteLength":288,"byteOffset":5160,"target":34963},{"buffer":0,"byteLength":288,"byteOffset":5448,"target":34962},{"buffer":0,"byteLength":288,"byteOffset":5736,"target":34962},{"buffer":0,"byteLength":72,"byteOffset":6024,"target":34963},{"buffer":0,"byteLength":4248,"byteOffset":6096,"target":34962},{"buffer":0,"byteLength":4248,"byteOffset":10344,"target":34962},{"buffer":0,"byteLength":2832,"byteOffset":14592,"target":34962},{"buffer":0,"byteLength":1584,"byteOffset":17424,"target":34963}],"buffers":[{"byteLength":19008,"uri":"source.bin"}],"images":[{"mimeType":"image/png","name":"lantaarn.pcx","uri":"../../../../source/lantaarn.png"}],"materials":[{"emissiveFactor":[0.0,0.0,0.0],"name":"road","pbrMetallicRoughness":{"baseColorFactor":[0.07,0.07,0.08,1.0],"metallicFactor":0.0,"roughnessFactor":0.6}},{"emissiveFactor":[0.0,0.0,0.0],"name":"pavement","pbrMetallicRoughness":{"baseColorFactor":[0.4,0.4,0.38,1.0],"metallicFactor":0.0,"roughnessFactor":0.6}},{"emissiveFactor":[0.0,0.0,0.0],"name":"kerb","pbrMetallicRoughness":{"baseColorFactor":[0.55,0.55,0.52,1.0],"metallicFactor":0.0,"roughnessFactor":0.6}},{"emissiveFactor":[0.0,0.0,0.0],"name":"wall","pbrMetallicRoughness":{"baseColorFactor":[0.5,0.44,0.38,1.0],"metallicFactor":0.0,"roughnessFactor":0.6}},{"emissiveFactor":[0.0,0.0,0.0],"name":"door","pbrMetallicRoughness":{"baseColorFactor":[0.2,0.12,0.08,1.0],"metallicFactor":0.0,"roughnessFactor":0.6}},{"emissiveFactor":[0.0,0.0,0.0],"name":"skin","pbrMetallicRoughness":{"baseColorFactor":[1.0,1.0,1.0,1.0],"baseColorTexture":{"index":0},"metallicFactor":0.0,"roughnessFactor":1.0}}],"meshes":[{"name":"","primitives":[{"attributes":{"NORMAL":1,"POSITION":0},"indices":2,"material":0,"mode":4},{"attributes":{"NORMAL":4,"POSITION":3},"indices":5,"material":1,"mode":4},{"attributes":{"NORMAL":7,"POSITION":6},"indices":8,"material":2,"mode":4},{"attributes":{"NORMAL":10,"POSITION":9},"indices":11,"material":3,"mode":4},{"attributes":{"NORMAL":13,"POSITION":12},"indices":14,"material":4,"mode":4}]},{"name":"Group","primitives":[{"attributes":{"NORMAL":16,"POSITION":15,"TEXCOORD_0":17},"indices":18,"material":5,"mode":4}]}],"nodes":[{"matrix":[1.0,0.0,0.0,0.0,0.0,1.0,0.0,0.0,0.0,0.0,1.0,0.0,0.0,0.0,0.0,1.0],"mesh":0,"name":""},{"matrix":[1.0,0.0,0.0,0.0,0.0,1.0,0.0,0.0,0.0,0.0,1.0,0.0,0.0,0.0,0.0,1.0],"mesh":1,"name":"Group"}],"samplers":[{"magFilter":9729,"minFilter":9987,"wrapS":10497,"wrapT":10497}],"scene":0,"scenes":[{"nodes":[0,1]}],"textures":[{"sampler":0,"source":0}]}