{"accessors":[{"bufferView":0,"componentType":5126,"count":3,"max":[0,0,0],"min":[0,0,0],"type":"VEC3"},{"bufferView":1,"componentType":5123,"count":3,"type":"SCALAR"}],"asset":{"copyright":"CC0 1.0","generator":"Web Geometry example writer","version":"2.0"},"bufferViews":[{"buffer":0,"byteLength":36,"byteOffset":0},{"buffer":0,"byteLength":6,"byteOffset":36}],"buffers":[{"byteLength":44,"uri":"scene.bin"}],"images":[{"uri":"../../../../source/textures/tiles.png"},{"uri":"../../../../source/textures/tiles-normal.png"},{"uri":"../../../../source/textures/bricks.png"},{"uri":"../../../../source/textures/bricks-normal.png"},{"uri":"../../../../source/textures/marble.png"}],"materials":[{"name":"glazed tiles","normalTexture":{"index":1,"scale":1},"pbrMetallicRoughness":{"baseColorFactor":[1,1,1,1],"baseColorTexture":{"index":0},"metallicFactor":0,"roughnessFactor":0.3}},{"name":"brick","normalTexture":{"index":3,"scale":1},"pbrMetallicRoughness":{"baseColorFactor":[1,1,1,1],"baseColorTexture":{"index":2},"metallicFactor":0,"roughnessFactor":0.85}},{"name":"marble","pbrMetallicRoughness":{"baseColorFactor":[1,1,1,1],"baseColorTexture":{"index":4},"metallicFactor":0,"roughnessFactor":0.25}},{"name":"water","pbrMetallicRoughness":{"baseColorFactor":[0.16,0.36,0.42,1],"metallicFactor":0.2,"roughnessFactor":0.05}}],"meshes":[{"name":"floor","primitives":[{"attributes":{"POSITION":0},"indices":1,"material":0,"mode":4}]},{"name":"walls","primitives":[{"attributes":{"POSITION":0},"indices":1,"material":1,"mode":4}]},{"name":"fountain","primitives":[{"attributes":{"POSITION":0},"indices":1,"material":2,"mode":4}]},{"name":"water","primitives":[{"attributes":{"POSITION":0},"indices":1,"material":3,"mode":4}]},{"name":"column","primitives":[{"attributes":{"POSITION":0},"indices":1,"material":2,"mode":4}]}],"nodes":[{"mesh":0},{"mesh":1},{"mesh":2},{"mesh":3},{"mesh":4,"translation":[-6.6,0,-6]},{"mesh":4,"translation":[-6.6,0,-2]},{"mesh":4,"translation":[-6.6,0,2]},{"mesh":4,"translation":[-6.6,0,6]},{"mesh":4,"translation":[6.6,0,-6]},{"mesh":4,"translation":[6.6,0,-2]},{"mesh":4,"translation":[6.6,0,2]},{"mesh":4,"translation":[6.6,0,6]},{"mesh":4,"translation":[-4,0,-6.6]},{"mesh":4,"translation":[0,0,-6.6]},{"mesh":4,"translation":[4,0,-6.6]},{"children":[0,1,2,3,4,5,6,7,8,9,10,11,12,13,14],"name":"courtyard","scale":[0.5,0.5,0.5]}],"samplers":[{"magFilter":9729,"minFilter":9987,"wrapS":10497,"wrapT":10497}],"scene":0,"scenes":[{"nodes":[15]}],"textures":[{"sampler":0,"source":0},{"sampler":0,"source":1},{"sampler":0,"source":2},{"sampler":0,"source":3},{"sampler":0,"source":4}]}