{"accessors":[{"bufferView":0,"componentType":5126,"count":8760,"max":[0.48816484212875366,1.899999976158142,0.48816484212875366],"min":[-0.48816484212875366,-0.00439453125,-0.48816484212875366],"type":"VEC3"},{"bufferView":1,"componentType":5126,"count":8760,"type":"VEC3"},{"bufferView":2,"componentType":5125,"count":51840,"type":"SCALAR"},{"bufferView":3,"componentType":5126,"count":24,"max":[0.44999998807907104,0.5,0.44999998807907104],"min":[-0.44999998807907104,0.0,-0.44999998807907104],"type":"VEC3"},{"bufferView":4,"componentType":5126,"count":24,"type":"VEC3"},{"bufferView":5,"componentType":5125,"count":36,"type":"SCALAR"},{"bufferView":6,"componentType":5126,"count":19200,"max":[2.608126640319824,4.206360340118408,2.4828131198883057],"min":[-2.1339802742004395,1.988256335258484,-2.4720606803894043],"type":"VEC3"},{"bufferView":7,"componentType":5126,"count":19200,"type":"VEC3"},{"bufferView":8,"componentType":5125,"count":115200,"type":"SCALAR"},{"bufferView":9,"componentType":5126,"count":1056,"max":[1.899999976158142,1.4199999570846558,1.899999976158142],"min":[-1.899999976158142,0.0,-1.899999976158142],"type":"VEC3"},{"bufferView":10,"componentType":5126,"count":1056,"type":"VEC3"},{"bufferView":11,"componentType":5125,"count":5760,"type":"SCALAR"},{"bufferView":12,"componentType":5126,"count":9409,"max":[80.0,5.408254146575928,80.0],"min":[-80.0,-0.530547022819519,-80.0],"type":"VEC3"},{"bufferView":13,"componentType":5126,"count":9409,"type":"VEC3"},{"bufferView":14,"componentType":5125,"count":55296,"type":"SCALAR"},{"bufferView":15,"componentType":5126,"count":24,"max":[6.0,0.05000000074505806,65.0],"min":[-6.0,-0.05000000074505806,-85.0],"type":"VEC3"},{"bufferView":16,"componentType":5126,"count":24,"type":"VEC3"},{"bufferView":17,"componentType":5125,"count":36,"type":"SCALAR"}],"asset":{"generator":"web-geometry example generator","version":"2.0"},"bufferViews":[{"buffer":0,"byteLength":105120,"byteOffset":0,"target":34962},{"buffer":0,"byteLength":105120,"byteOffset":105120,"target":34962},{"buffer":0,"byteLength":207360,"byteOffset":210240,"target":34963},{"buffer":0,"byteLength":288,"byteOffset":417600,"target":34962},{"buffer":0,"byteLength":288,"byteOffset":417888,"target":34962},{"buffer":0,"byteLength":144,"byteOffset":418176,"target":34963},{"buffer":0,"byteLength":230400,"byteOffset":418320,"target":34962},{"buffer":0,"byteLength":230400,"byteOffset":648720,"target":34962},{"buffer":0,"byteLength":460800,"byteOffset":879120,"target":34963},{"buffer":0,"byteLength":12672,"byteOffset":1339920,"target":34962},{"buffer":0,"byteLength":12672,"byteOffset":1352592,"target":34962},{"buffer":0,"byteLength":23040,"byteOffset":1365264,"target":34963},{"buffer":0,"byteLength":112908,"byteOffset":1388304,"target":34962},{"buffer":0,"byteLength":112908,"byteOffset":1501212,"target":34962},{"buffer":0,"byteLength":221184,"byteOffset":1614120,"target":34963},{"buffer":0,"byteLength":288,"byteOffset":1835304,"target":34962},{"buffer":0,"byteLength":288,"byteOffset":1835592,"target":34962},{"buffer":0,"byteLength":144,"byteOffset":1835880,"target":34963}],"buffers":[{"byteLength":1836024,"uri":"source.bin"}],"materials":[{"name":"marble","pbrMetallicRoughness":{"baseColorFactor":[0.9,0.87,0.82,1.0],"metallicFactor":0.0,"roughnessFactor":0.3}},{"name":"stone","pbrMetallicRoughness":{"baseColorFactor":[0.72,0.68,0.61,1.0],"metallicFactor":0.0,"roughnessFactor":0.75}},{"name":"bronze","pbrMetallicRoughness":{"baseColorFactor":[0.72,0.47,0.26,1.0],"metallicFactor":0.55,"roughnessFactor":0.32}},{"name":"grass","pbrMetallicRoughness":{"baseColorFactor":[0.36,0.5,0.22,1.0],"metallicFactor":0.0,"roughnessFactor":0.95}},{"name":"paving","pbrMetallicRoughness":{"baseColorFactor":[0.78,0.73,0.64,1.0],"metallicFactor":0.0,"roughnessFactor":0.85}}],"meshes":[{"name":"urn","primitives":[{"attributes":{"NORMAL":1,"POSITION":0},"indices":2,"material":0}]},{"name":"urn-pedestal","primitives":[{"attributes":{"NORMAL":4,"POSITION":3},"indices":5,"material":1}]},{"name":"knot","primitives":[{"attributes":{"NORMAL":7,"POSITION":6},"indices":8,"material":2},{"attributes":{"NORMAL":10,"POSITION":9},"indices":11,"material":1}]},{"name":"meadow","primitives":[{"attributes":{"NORMAL":13,"POSITION":12},"indices":14,"material":3}]},{"name":"avenue","primitives":[{"attributes":{"NORMAL":16,"POSITION":15},"indices":17,"material":4}]}],"nodes":[{"mesh":2,"name":"knot","translation":[0.0,0.0,-62.0]},{"mesh":3,"name":"meadow"},{"mesh":4,"name":"avenue"},{"mesh":1,"translation":[-4.8,0.0,40.0]},{"mesh":0,"rotation":[0.0,0.26583963631249463,0.0,0.9640172652837916],"translation":[-4.8,0.5,40.0]},{"mesh":1,"translation":[-4.8,0.0,35.4]},{"mesh":0,"rotation":[0.0,0.6772085328728752,0.0,0.7357911408845366],"translation":[-4.8,0.5,35.4]},{"mesh":1,"translation":[-4.8,0.0,30.8]},{"mesh":0,"rotation":[0.0,0.5845413664922637,0.0,-0.8113639077869788],"translation":[-4.8,0.5,30.8]},{"mesh":1,"translation":[-4.8,0.0,26.200000000000003]},{"mesh":0,"rotation":[0.0,0.966871671105412,0.0,-0.2552629460259123],"translation":[-4.8,0.5,26.200000000000003]},{"mesh":1,"translation":[-4.8,0.0,21.6]},{"mesh":0,"rotation":[0.0,0.29142279011043726,0.0,0.9565943536338944],"translation":[-4.8,0.5,21.6]},{"mesh":1,"translation":[-4.8,0.0,17.0]},{"mesh":0,"rotation":[0.0,0.978012584551952,0.0,0.20854588094232637],"translation":[-4.8,0.5,17.0]},{"mesh":1,"translation":[-4.8,0.0,12.400000000000002]},{"mesh":0,"rotation":[0.0,0.99783515292816,0.0,0.06576478982583044],"translation":[-4.8,0.5,12.400000000000002]},{"mesh":1,"translation":[-4.8,0.0,7.800000000000004]},{"mesh":0,"rotation":[0.0,0.48103474448229194,0.0,0.8767015310816196],"translation":[-4.8,0.5,7.800000000000004]},{"mesh":1,"translation":[-4.8,0.0,3.200000000000003]},{"mesh":0,"rotation":[0.0,0.7405244840592428,0.0,-0.6720293806886664],"translation":[-4.8,0.5,3.200000000000003]},{"mesh":1,"translation":[-4.8,0.0,-1.3999999999999986]},{"mesh":0,"rotation":[0.0,0.34956913219385033,0.0,0.9369105730096328],"translation":[-4.8,0.5,-1.3999999999999986]},{"mesh":1,"translation":[-4.8,0.0,-6.0]},{"mesh":0,"rotation":[0.0,0.9421807734252664,0.0,0.3351050435128764],"translation":[-4.8,0.5,-6.0]},{"mesh":1,"translation":[-4.8,0.0,-10.599999999999994]},{"mesh":0,"rotation":[0.0,0.9986174207555886,0.0,-0.05256659550946653],"translation":[-4.8,0.5,-10.599999999999994]},{"mesh":1,"translation":[-4.8,0.0,-15.199999999999996]},{"mesh":0,"rotation":[0.0,0.9763452553952632,0.0,0.21621734959794103],"translation":[-4.8,0.5,-15.199999999999996]},{"mesh":1,"translation":[-4.8,0.0,-19.799999999999997]},{"mesh":0,"rotation":[0.0,0.9630510461339356,0.0,-0.26931892347239944],"translation":[-4.8,0.5,-19.799999999999997]},{"mesh":1,"translation":[-4.8,0.0,-24.39999999999999]},{"mesh":0,"rotation":[0.0,0.7336017594872638,0.0,-0.6795796189389369],"translation":[-4.8,0.5,-24.39999999999999]},{"mesh":1,"translation":[-4.8,0.0,-29.0]},{"mesh":0,"rotation":[0.0,0.13695864502841149,0.0,-0.9905767661074945],"translation":[-4.8,0.5,-29.0]},{"mesh":1,"translation":[-4.8,0.0,-33.599999999999994]},{"mesh":0,"rotation":[0.0,0.7788588310538406,0.0,0.6271992676091427],"translation":[-4.8,0.5,-33.599999999999994]},{"mesh":1,"translation":[-4.8,0.0,-38.19999999999999]},{"mesh":0,"rotation":[0.0,0.8930692873737983,0.0,-0.449919157126762],"translation":[-4.8,0.5,-38.19999999999999]},{"mesh":1,"translation":[-4.8,0.0,-42.8]},{"mesh":0,"rotation":[0.0,0.8159471372396482,0.0,-0.5781265166297276],"translation":[-4.8,0.5,-42.8]},{"mesh":1,"translation":[-4.8,0.0,-47.39999999999999]},{"mesh":0,"rotation":[0.0,0.7953648985099103,0.0,0.6061309084829118],"translation":[-4.8,0.5,-47.39999999999999]},{"mesh":1,"translation":[-4.8,0.0,-52.0]},{"mesh":0,"rotation":[0.0,0.004681218307209015,0.0,0.9999890430375526],"translation":[-4.8,0.5,-52.0]},{"mesh":1,"translation":[-4.8,0.0,-56.599999999999994]},{"mesh":0,"rotation":[0.0,0.08328043705686293,0.0,-0.9965261505869366],"translation":[-4.8,0.5,-56.599999999999994]},{"mesh":1,"translation":[4.8,0.0,40.0]},{"mesh":0,"rotation":[0.0,0.806054529512675,0.0,0.5918412755562932],"translation":[4.8,0.5,40.0]},{"mesh":1,"translation":[4.8,0.0,35.4]},{"mesh":0,"rotation":[0.0,0.8340541736796718,0.0,0.5516825494498804],"translation":[4.8,0.5,35.4]},{"mesh":1,"translation":[4.8,0.0,30.8]},{"mesh":0,"rotation":[0.0,0.33367535883277344,0.0,-0.942688047504486],"translation":[4.8,0.5,30.8]},{"mesh":1,"translation":[4.8,0.0,26.200000000000003]},{"mesh":0,"rotation":[0.0,0.964422217913958,0.0,-0.2643667634062994],"translation":[4.8,0.5,26.200000000000003]},{"mesh":1,"translation":[4.8,0.0,21.6]},{"mesh":0,"rotation":[0.0,0.9959407392939824,0.0,0.09001135380915007],"translation":[4.8,0.5,21.6]},{"mesh":1,"translation":[4.8,0.0,17.0]},{"mesh":0,"rotation":[0.0,0.6535545410628931,0.0,-0.756879423591414],"translation":[4.8,0.5,17.0]},{"mesh":1,"translation":[4.8,0.0,12.400000000000002]},{"mesh":0,"rotation":[0.0,0.09519044842499848,0.0,0.9954590792838488],"translation":[4.8,0.5,12.400000000000002]},{"mesh":1,"translation":[4.8,0.0,7.800000000000004]},{"mesh":0,"rotation":[0.0,0.7959627307816882,0.0,-0.6053456295427908],"translation":[4.8,0.5,7.800000000000004]},{"mesh":1,"translation":[4.8,0.0,3.200000000000003]},{"mesh":0,"rotation":[0.0,0.9229678362882112,0.0,0.38487708840285295],"translation":[4.8,0.5,3.200000000000003]},{"mesh":1,"translation":[4.8,0.0,-1.3999999999999986]},{"mesh":0,"rotation":[0.0,0.2815626119780696,0.0,0.9595428575817168],"translation":[4.8,0.5,-1.3999999999999986]},{"mesh":1,"translation":[4.8,0.0,-6.0]},{"mesh":0,"rotation":[0.0,0.875548760011718,0.0,-0.4831297639785227],"translation":[4.8,0.5,-6.0]},{"mesh":1,"translation":[4.8,0.0,-10.599999999999994]},{"mesh":0,"rotation":[0.0,0.21365286997763175,0.0,-0.9769096432886316],"translation":[4.8,0.5,-10.599999999999994]},{"mesh":1,"translation":[4.8,0.0,-15.199999999999996]},{"mesh":0,"rotation":[0.0,0.6059107914172147,0.0,0.7955325969714657],"translation":[4.8,0.5,-15.199999999999996]},{"mesh":1,"translation":[4.8,0.0,-19.799999999999997]},{"mesh":0,"rotation":[0.0,0.9176420486498847,0.0,-0.397407939716411],"translation":[4.8,0.5,-19.799999999999997]},{"mesh":1,"translation":[4.8,0.0,-24.39999999999999]},{"mesh":0,"rotation":[0.0,0.8056115387298204,0.0,0.592444131260806],"translation":[4.8,0.5,-24.39999999999999]},{"mesh":1,"translation":[4.8,0.0,-29.0]},{"mesh":0,"rotation":[0.0,0.7251796853569721,0.0,-0.6885596734819452],"translation":[4.8,0.5,-29.0]},{"mesh":1,"translation":[4.8,0.0,-33.599999999999994]},{"mesh":0,"rotation":[0.0,0.7661603713203478,0.0,-0.6426494265291667],"translation":[4.8,0.5,-33.599999999999994]},{"mesh":1,"translation":[4.8,0.0,-38.19999999999999]},{"mesh":0,"rotation":[0.0,0.634309314541178,0.0,0.7730793578192998],"translation":[4.8,0.5,-38.19999999999999]},{"mesh":1,"translation":[4.8,0.0,-42.8]},{"mesh":0,"rotation":[0.0,0.5093472869651252,0.0,-0.8605610619016331],"translation":[4.8,0.5,-42.8]},{"mesh":1,"translation":[4.8,0.0,-47.39999999999999]},{"mesh":0,"rotation":[0.0,0.8798361286875291,0.0,-0.4752771682462156],"translation":[4.8,0.5,-47.39999999999999]},{"mesh":1,"translation":[4.8,0.0,-52.0]},{"mesh":0,"rotation":[0.0,0.8395838056172421,0.0,-0.543230184493893],"translation":[4.8,0.5,-52.0]},{"mesh":1,"translation":[4.8,0.0,-56.599999999999994]},{"mesh":0,"rotation":[0.0,0.5356258498744902,0.0,-0.8444554156059573],"translation":[4.8,0.5,-56.599999999999994]},{"children":[0,1,2,3,4,5,6,7,8,9,10,11,12,13,14,15,16,17,18,19,20,21,22,23,24,25,26,27,28,29,30,31,32,33,34,35,36,37,38,39,40,41,42,43,44,45,46,47,48,49,50,51,52,53,54,55,56,57,58,59,60,61,62,63,64,65,66,67,68,69,70,71,72,73,74,75,76,77,78,79,80,81,82,83,84,85,86,87,88,89,90],"name":"maquette","scale":[0.1,0.1,0.1]}],"scene":0,"scenes":[{"nodes":[91]}]}