{"accessors":[{"bufferView":0,"componentType":5126,"count":3,"max":[0,0,0],"min":[0,0,0],"type":"VEC3"},{"bufferView":1,"componentType":5123,"count":3,"type":"SCALAR"}],"asset":{"copyright":"Original Web Geometry contributors; repository license","generator":"Web Geometry examples recipe v1","version":"2.0"},"bufferViews":[{"buffer":0,"byteLength":36,"byteOffset":0},{"buffer":0,"byteLength":6,"byteOffset":36}],"buffers":[{"byteLength":44,"uri":"scene.bin"}],"materials":[{"doubleSided":true,"name":"Graphite","pbrMetallicRoughness":{"baseColorFactor":[0.08,0.08,0.09,1],"metallicFactor":0,"roughnessFactor":0.9}},{"doubleSided":true,"name":"Grey 0 0","pbrMetallicRoughness":{"baseColorFactor":[0,0,0,1],"metallicFactor":0,"roughnessFactor":0.9}},{"doubleSided":true,"name":"Grey 1 0","pbrMetallicRoughness":{"baseColorFactor":[0,0,0,1],"metallicFactor":0,"roughnessFactor":0.9}},{"doubleSided":true,"name":"Grey 0 1","pbrMetallicRoughness":{"baseColorFactor":[0.1,0.1,0.1,1],"metallicFactor":0,"roughnessFactor":0.9}},{"doubleSided":true,"name":"Grey 1 1","pbrMetallicRoughness":{"baseColorFactor":[0.01002282557486904,0.01002282557486904,0.01002282557486904,1],"metallicFactor":0,"roughnessFactor":0.9}},{"doubleSided":true,"name":"Grey 0 2","pbrMetallicRoughness":{"baseColorFactor":[0.2,0.2,0.2,1],"metallicFactor":0,"roughnessFactor":0.9}},{"doubleSided":true,"name":"Grey 1 2","pbrMetallicRoughness":{"baseColorFactor":[0.033104766570885055,0.033104766570885055,0.033104766570885055,1],"metallicFactor":0,"roughnessFactor":0.9}},{"doubleSided":true,"name":"Grey 0 3","pbrMetallicRoughness":{"baseColorFactor":[0.3,0.3,0.3,1],"metallicFactor":0,"roughnessFactor":0.9}},{"doubleSided":true,"name":"Grey 1 3","pbrMetallicRoughness":{"baseColorFactor":[0.07323895587840543,0.07323895587840543,0.07323895587840543,1],"metallicFactor":0,"roughnessFactor":0.9}},{"doubleSided":true,"name":"Grey 0 4","pbrMetallicRoughness":{"baseColorFactor":[0.4,0.4,0.4,1],"metallicFactor":0,"roughnessFactor":0.9}},{"doubleSided":true,"name":"Grey 1 4","pbrMetallicRoughness":{"baseColorFactor":[0.13286832155381798,0.13286832155381798,0.13286832155381798,1],"metallicFactor":0,"roughnessFactor":0.9}},{"doubleSided":true,"name":"Grey 0 5","pbrMetallicRoughness":{"baseColorFactor":[0.5,0.5,0.5,1],"metallicFactor":0,"roughnessFactor":0.9}},{"doubleSided":true,"name":"Grey 1 5","pbrMetallicRoughness":{"baseColorFactor":[0.21404114048223255,0.21404114048223255,0.21404114048223255,1],"metallicFactor":0,"roughnessFactor":0.9}},{"doubleSided":true,"name":"Grey 0 6","pbrMetallicRoughness":{"baseColorFactor":[0.6,0.6,0.6,1],"metallicFactor":0,"roughnessFactor":0.9}},{"doubleSided":true,"name":"Grey 1 6","pbrMetallicRoughness":{"baseColorFactor":[0.31854677812509186,0.31854677812509186,0.31854677812509186,1],"metallicFactor":0,"roughnessFactor":0.9}},{"doubleSided":true,"name":"Grey 0 7","pbrMetallicRoughness":{"baseColorFactor":[0.7,0.7,0.7,1],"metallicFactor":0,"roughnessFactor":0.9}},{"doubleSided":true,"name":"Grey 1 7","pbrMetallicRoughness":{"baseColorFactor":[0.44798841244188325,0.44798841244188325,0.44798841244188325,1],"metallicFactor":0,"roughnessFactor":0.9}},{"doubleSided":true,"name":"Grey 0 8","pbrMetallicRoughness":{"baseColorFactor":[0.8,0.8,0.8,1],"metallicFactor":0,"roughnessFactor":0.9}},{"doubleSided":true,"name":"Grey 1 8","pbrMetallicRoughness":{"baseColorFactor":[0.6038273388553378,0.6038273388553378,0.6038273388553378,1],"metallicFactor":0,"roughnessFactor":0.9}},{"doubleSided":true,"name":"Grey 0 9","pbrMetallicRoughness":{"baseColorFactor":[0.9,0.9,0.9,1],"metallicFactor":0,"roughnessFactor":0.9}},{"doubleSided":true,"name":"Grey 1 9","pbrMetallicRoughness":{"baseColorFactor":[0.7874122893956174,0.7874122893956174,0.7874122893956174,1],"metallicFactor":0,"roughnessFactor":0.9}},{"doubleSided":true,"name":"Grey 0 10","pbrMetallicRoughness":{"baseColorFactor":[1,1,1,1],"metallicFactor":0,"roughnessFactor":0.9}},{"doubleSided":true,"name":"Grey 1 10","pbrMetallicRoughness":{"baseColorFactor":[1,1,1,1],"metallicFactor":0,"roughnessFactor":0.9}}],"meshes":[{"name":"Colour ramp","primitives":[{"attributes":{"POSITION":0},"indices":1,"material":0,"mode":4},{"attributes":{"POSITION":0},"indices":1,"material":1,"mode":4},{"attributes":{"POSITION":0},"indices":1,"material":2,"mode":4},{"attributes":{"POSITION":0},"indices":1,"material":3,"mode":4},{"attributes":{"POSITION":0},"indices":1,"material":4,"mode":4},{"attributes":{"POSITION":0},"indices":1,"material":5,"mode":4},{"attributes":{"POSITION":0},"indices":1,"material":6,"mode":4},{"attributes":{"POSITION":0},"indices":1,"material":7,"mode":4},{"attributes":{"POSITION":0},"indices":1,"material":8,"mode":4},{"attributes":{"POSITION":0},"indices":1,"material":9,"mode":4},{"attributes":{"POSITION":0},"indices":1,"material":10,"mode":4},{"attributes":{"POSITION":0},"indices":1,"material":11,"mode":4},{"attributes":{"POSITION":0},"indices":1,"material":12,"mode":4},{"attributes":{"POSITION":0},"indices":1,"material":13,"mode":4},{"attributes":{"POSITION":0},"indices":1,"material":14,"mode":4},{"attributes":{"POSITION":0},"indices":1,"material":15,"mode":4},{"attributes":{"POSITION":0},"indices":1,"material":16,"mode":4},{"attributes":{"POSITION":0},"indices":1,"material":17,"mode":4},{"attributes":{"POSITION":0},"indices":1,"material":18,"mode":4},{"attributes":{"POSITION":0},"indices":1,"material":19,"mode":4},{"attributes":{"POSITION":0},"indices":1,"material":20,"mode":4},{"attributes":{"POSITION":0},"indices":1,"material":21,"mode":4},{"attributes":{"POSITION":0},"indices":1,"material":22,"mode":4}]}],"nodes":[{"mesh":0,"name":"Colour ramp"}],"scene":0,"scenes":[{"nodes":[0]}]}