{"accessors":[{"bufferView":0,"componentType":5126,"count":24,"max":[4,0,4],"min":[-4,-0.3,-4],"type":"VEC3"},{"bufferView":1,"componentType":5126,"count":24,"max":[1,1,1],"min":[-1,-1,-1],"type":"VEC3"},{"bufferView":2,"componentType":5125,"count":36,"type":"SCALAR"},{"bufferView":3,"componentType":5126,"count":24,"max":[-2.8200000000000003,0.3,-0.41999999999999993],"min":[-3.38,0,-0.98],"type":"VEC3"},{"bufferView":4,"componentType":5126,"count":24,"max":[1,1,1],"min":[-1,-1,-1],"type":"VEC3"},{"bufferView":5,"componentType":5125,"count":36,"type":"SCALAR"},{"bufferView":6,"componentType":5126,"count":24,"max":[-2.8200000000000003,0.3,0.98],"min":[-3.38,0,0.41999999999999993],"type":"VEC3"},{"bufferView":7,"componentType":5126,"count":24,"max":[1,1,1],"min":[-1,-1,-1],"type":"VEC3"},{"bufferView":8,"componentType":5125,"count":36,"type":"SCALAR"},{"bufferView":9,"componentType":5126,"count":24,"max":[-2.2,0.3,-0.41999999999999993],"min":[-2.76,0,-0.98],"type":"VEC3"},{"bufferView":10,"componentType":5126,"count":24,"max":[1,1,1],"min":[-1,-1,-1],"type":"VEC3"},{"bufferView":11,"componentType":5125,"count":36,"type":"SCALAR"},{"bufferView":12,"componentType":5126,"count":24,"max":[-2.2,0.3,0.98],"min":[-2.76,0,0.41999999999999993],"type":"VEC3"},{"bufferView":13,"componentType":5126,"count":24,"max":[1,1,1],"min":[-1,-1,-1],"type":"VEC3"},{"bufferView":14,"componentType":5125,"count":36,"type":"SCALAR"},{"bufferView":15,"componentType":5126,"count":24,"max":[-1.5799999999999998,0.3,-0.41999999999999993],"min":[-2.1399999999999997,0,-0.98],"type":"VEC3"},{"bufferView":16,"componentType":5126,"count":24,"max":[1,1,1],"min":[-1,-1,-1],"type":"VEC3"},{"bufferView":17,"componentType":5125,"count":36,"type":"SCALAR"},{"bufferView":18,"componentType":5126,"count":24,"max":[-1.5799999999999998,0.3,0.98],"min":[-2.1399999999999997,0,0.41999999999999993],"type":"VEC3"},{"bufferView":19,"componentType":5126,"count":24,"max":[1,1,1],"min":[-1,-1,-1],"type":"VEC3"},{"bufferView":20,"componentType":5125,"count":36,"type":"SCALAR"},{"bufferView":21,"componentType":5126,"count":24,"max":[-0.96,0.3,-0.41999999999999993],"min":[-1.52,0,-0.98],"type":"VEC3"},{"bufferView":22,"componentType":5126,"count":24,"max":[1,1,1],"min":[-1,-1,-1],"type":"VEC3"},{"bufferView":23,"componentType":5125,"count":36,"type":"SCALAR"},{"bufferView":24,"componentType":5126,"count":24,"max":[-0.96,0.3,0.98],"min":[-1.52,0,0.41999999999999993],"type":"VEC3"},{"bufferView":25,"componentType":5126,"count":24,"max":[1,1,1],"min":[-1,-1,-1],"type":"VEC3"},{"bufferView":26,"componentType":5125,"count":36,"type":"SCALAR"},{"bufferView":27,"componentType":5126,"count":24,"max":[-0.33999999999999997,0.3,-0.41999999999999993],"min":[-0.9,0,-0.98],"type":"VEC3"},{"bufferView":28,"componentType":5126,"count":24,"max":[1,1,1],"min":[-1,-1,-1],"type":"VEC3"},{"bufferView":29,"componentType":5125,"count":36,"type":"SCALAR"},{"bufferView":30,"componentType":5126,"count":24,"max":[-0.33999999999999997,0.3,0.98],"min":[-0.9,0,0.41999999999999993],"type":"VEC3"},{"bufferView":31,"componentType":5126,"count":24,"max":[1,1,1],"min":[-1,-1,-1],"type":"VEC3"},{"bufferView":32,"componentType":5125,"count":36,"type":"SCALAR"},{"bufferView":33,"componentType":5126,"count":24,"max":[0.28,0.3,-0.41999999999999993],"min":[-0.28,0,-0.98],"type":"VEC3"},{"bufferView":34,"componentType":5126,"count":24,"max":[1,1,1],"min":[-1,-1,-1],"type":"VEC3"},{"bufferView":35,"componentType":5125,"count":36,"type":"SCALAR"},{"bufferView":36,"componentType":5126,"count":24,"max":[0.28,0.3,0.98],"min":[-0.28,0,0.41999999999999993],"type":"VEC3"},{"bufferView":37,"componentType":5126,"count":24,"max":[1,1,1],"min":[-1,-1,-1],"type":"VEC3"},{"bufferView":38,"componentType":5125,"count":36,"type":"SCALAR"},{"bufferView":39,"componentType":5126,"count":24,"max":[0.9,0.3,-0.41999999999999993],"min":[0.33999999999999997,0,-0.98],"type":"VEC3"},{"bufferView":40,"componentType":5126,"count":24,"max":[1,1,1],"min":[-1,-1,-1],"type":"VEC3"},{"bufferView":41,"componentType":5125,"count":36,"type":"SCALAR"},{"bufferView":42,"componentType":5126,"count":24,"max":[0.9,0.3,0.98],"min":[0.33999999999999997,0,0.41999999999999993],"type":"VEC3"},{"bufferView":43,"componentType":5126,"count":24,"max":[1,1,1],"min":[-1,-1,-1],"type":"VEC3"},{"bufferView":44,"componentType":5125,"count":36,"type":"SCALAR"},{"bufferView":45,"componentType":5126,"count":24,"max":[1.52,0.3,-0.41999999999999993],"min":[0.96,0,-0.98],"type":"VEC3"},{"bufferView":46,"componentType":5126,"count":24,"max":[1,1,1],"min":[-1,-1,-1],"type":"VEC3"},{"bufferView":47,"componentType":5125,"count":36,"type":"SCALAR"},{"bufferView":48,"componentType":5126,"count":24,"max":[1.52,0.3,0.98],"min":[0.96,0,0.41999999999999993],"type":"VEC3"},{"bufferView":49,"componentType":5126,"count":24,"max":[1,1,1],"min":[-1,-1,-1],"type":"VEC3"},{"bufferView":50,"componentType":5125,"count":36,"type":"SCALAR"},{"bufferView":51,"componentType":5126,"count":24,"max":[2.1399999999999997,0.3,-0.41999999999999993],"min":[1.5799999999999998,0,-0.98],"type":"VEC3"},{"bufferView":52,"componentType":5126,"count":24,"max":[1,1,1],"min":[-1,-1,-1],"type":"VEC3"},{"bufferView":53,"componentType":5125,"count":36,"type":"SCALAR"},{"bufferView":54,"componentType":5126,"count":24,"max":[2.1399999999999997,0.3,0.98],"min":[1.5799999999999998,0,0.41999999999999993],"type":"VEC3"},{"bufferView":55,"componentType":5126,"count":24,"max":[1,1,1],"min":[-1,-1,-1],"type":"VEC3"},{"bufferView":56,"componentType":5125,"count":36,"type":"SCALAR"},{"bufferView":57,"componentType":5126,"count":24,"max":[2.76,0.3,-0.41999999999999993],"min":[2.2,0,-0.98],"type":"VEC3"},{"bufferView":58,"componentType":5126,"count":24,"max":[1,1,1],"min":[-1,-1,-1],"type":"VEC3"},{"bufferView":59,"componentType":5125,"count":36,"type":"SCALAR"},{"bufferView":60,"componentType":5126,"count":24,"max":[2.76,0.3,0.98],"min":[2.2,0,0.41999999999999993],"type":"VEC3"},{"bufferView":61,"componentType":5126,"count":24,"max":[1,1,1],"min":[-1,-1,-1],"type":"VEC3"},{"bufferView":62,"componentType":5125,"count":36,"type":"SCALAR"},{"bufferView":63,"componentType":5126,"count":24,"max":[3.38,0.3,-0.41999999999999993],"min":[2.8200000000000003,0,-0.98],"type":"VEC3"},{"bufferView":64,"componentType":5126,"count":24,"max":[1,1,1],"min":[-1,-1,-1],"type":"VEC3"},{"bufferView":65,"componentType":5125,"count":36,"type":"SCALAR"},{"bufferView":66,"componentType":5126,"count":24,"max":[3.38,0.3,0.98],"min":[2.8200000000000003,0,0.41999999999999993],"type":"VEC3"},{"bufferView":67,"componentType":5126,"count":24,"max":[1,1,1],"min":[-1,-1,-1],"type":"VEC3"},{"bufferView":68,"componentType":5125,"count":36,"type":"SCALAR"}],"asset":{"copyright":"Original Web Geometry contributors; repository license","generator":"Web Geometry examples recipe v1","version":"2.0"},"bufferViews":[{"buffer":0,"byteLength":288,"byteOffset":0,"target":34962},{"buffer":0,"byteLength":288,"byteOffset":288,"target":34962},{"buffer":0,"byteLength":144,"byteOffset":576,"target":34963},{"buffer":0,"byteLength":288,"byteOffset":720,"target":34962},{"buffer":0,"byteLength":288,"byteOffset":1008,"target":34962},{"buffer":0,"byteLength":144,"byteOffset":1296,"target":34963},{"buffer":0,"byteLength":288,"byteOffset":1440,"target":34962},{"buffer":0,"byteLength":288,"byteOffset":1728,"target":34962},{"buffer":0,"byteLength":144,"byteOffset":2016,"target":34963},{"buffer":0,"byteLength":288,"byteOffset":2160,"target":34962},{"buffer":0,"byteLength":288,"byteOffset":2448,"target":34962},{"buffer":0,"byteLength":144,"byteOffset":2736,"target":34963},{"buffer":0,"byteLength":288,"byteOffset":2880,"target":34962},{"buffer":0,"byteLength":288,"byteOffset":3168,"target":34962},{"buffer":0,"byteLength":144,"byteOffset":3456,"target":34963},{"buffer":0,"byteLength":288,"byteOffset":3600,"target":34962},{"buffer":0,"byteLength":288,"byteOffset":3888,"target":34962},{"buffer":0,"byteLength":144,"byteOffset":4176,"target":34963},{"buffer":0,"byteLength":288,"byteOffset":4320,"target":34962},{"buffer":0,"byteLength":288,"byteOffset":4608,"target":34962},{"buffer":0,"byteLength":144,"byteOffset":4896,"target":34963},{"buffer":0,"byteLength":288,"byteOffset":5040,"target":34962},{"buffer":0,"byteLength":288,"byteOffset":5328,"target":34962},{"buffer":0,"byteLength":144,"byteOffset":5616,"target":34963},{"buffer":0,"byteLength":288,"byteOffset":5760,"target":34962},{"buffer":0,"byteLength":288,"byteOffset":6048,"target":34962},{"buffer":0,"byteLength":144,"byteOffset":6336,"target":34963},{"buffer":0,"byteLength":288,"byteOffset":6480,"target":34962},{"buffer":0,"byteLength":288,"byteOffset":6768,"target":34962},{"buffer":0,"byteLength":144,"byteOffset":7056,"target":34963},{"buffer":0,"byteLength":288,"byteOffset":7200,"target":34962},{"buffer":0,"byteLength":288,"byteOffset":7488,"target":34962},{"buffer":0,"byteLength":144,"byteOffset":7776,"target":34963},{"buffer":0,"byteLength":288,"byteOffset":7920,"target":34962},{"buffer":0,"byteLength":288,"byteOffset":8208,"target":34962},{"buffer":0,"byteLength":144,"byteOffset":8496,"target":34963},{"buffer":0,"byteLength":288,"byteOffset":8640,"target":34962},{"buffer":0,"byteLength":288,"byteOffset":8928,"target":34962},{"buffer":0,"byteLength":144,"byteOffset":9216,"target":34963},{"buffer":0,"byteLength":288,"byteOffset":9360,"target":34962},{"buffer":0,"byteLength":288,"byteOffset":9648,"target":34962},{"buffer":0,"byteLength":144,"byteOffset":9936,"target":34963},{"buffer":0,"byteLength":288,"byteOffset":10080,"target":34962},{"buffer":0,"byteLength":288,"byteOffset":10368,"target":34962},{"buffer":0,"byteLength":144,"byteOffset":10656,"target":34963},{"buffer":0,"byteLength":288,"byteOffset":10800,"target":34962},{"buffer":0,"byteLength":288,"byteOffset":11088,"target":34962},{"buffer":0,"byteLength":144,"byteOffset":11376,"target":34963},{"buffer":0,"byteLength":288,"byteOffset":11520,"target":34962},{"buffer":0,"byteLength":288,"byteOffset":11808,"target":34962},{"buffer":0,"byteLength":144,"byteOffset":12096,"target":34963},{"buffer":0,"byteLength":288,"byteOffset":12240,"target":34962},{"buffer":0,"byteLength":288,"byteOffset":12528,"target":34962},{"buffer":0,"byteLength":144,"byteOffset":12816,"target":34963},{"buffer":0,"byteLength":288,"byteOffset":12960,"target":34962},{"buffer":0,"byteLength":288,"byteOffset":13248,"target":34962},{"buffer":0,"byteLength":144,"byteOffset":13536,"target":34963},{"buffer":0,"byteLength":288,"byteOffset":13680,"target":34962},{"buffer":0,"byteLength":288,"byteOffset":13968,"target":34962},{"buffer":0,"byteLength":144,"byteOffset":14256,"target":34963},{"buffer":0,"byteLength":288,"byteOffset":14400,"target":34962},{"buffer":0,"byteLength":288,"byteOffset":14688,"target":34962},{"buffer":0,"byteLength":144,"byteOffset":14976,"target":34963},{"buffer":0,"byteLength":288,"byteOffset":15120,"target":34962},{"buffer":0,"byteLength":288,"byteOffset":15408,"target":34962},{"buffer":0,"byteLength":144,"byteOffset":15696,"target":34963},{"buffer":0,"byteLength":288,"byteOffset":15840,"target":34962},{"buffer":0,"byteLength":288,"byteOffset":16128,"target":34962},{"buffer":0,"byteLength":144,"byteOffset":16416,"target":34963}],"buffers":[{"byteLength":16560,"uri":"source.bin"}],"materials":[{"doubleSided":true,"name":"Graphite","pbrMetallicRoughness":{"baseColorFactor":[0.08,0.08,0.09,1],"metallicFactor":0,"roughnessFactor":0.9}},{"doubleSided":true,"name":"Grey 0 0","pbrMetallicRoughness":{"baseColorFactor":[0,0,0,1],"metallicFactor":0,"roughnessFactor":0.9}},{"doubleSided":true,"name":"Grey 1 0","pbrMetallicRoughness":{"baseColorFactor":[0,0,0,1],"metallicFactor":0,"roughnessFactor":0.9}},{"doubleSided":true,"name":"Grey 0 1","pbrMetallicRoughness":{"baseColorFactor":[0.1,0.1,0.1,1],"metallicFactor":0,"roughnessFactor":0.9}},{"doubleSided":true,"name":"Grey 1 1","pbrMetallicRoughness":{"baseColorFactor":[0.01002282557486904,0.01002282557486904,0.01002282557486904,1],"metallicFactor":0,"roughnessFactor":0.9}},{"doubleSided":true,"name":"Grey 0 2","pbrMetallicRoughness":{"baseColorFactor":[0.2,0.2,0.2,1],"metallicFactor":0,"roughnessFactor":0.9}},{"doubleSided":true,"name":"Grey 1 2","pbrMetallicRoughness":{"baseColorFactor":[0.033104766570885055,0.033104766570885055,0.033104766570885055,1],"metallicFactor":0,"roughnessFactor":0.9}},{"doubleSided":true,"name":"Grey 0 3","pbrMetallicRoughness":{"baseColorFactor":[0.3,0.3,0.3,1],"metallicFactor":0,"roughnessFactor":0.9}},{"doubleSided":true,"name":"Grey 1 3","pbrMetallicRoughness":{"baseColorFactor":[0.07323895587840543,0.07323895587840543,0.07323895587840543,1],"metallicFactor":0,"roughnessFactor":0.9}},{"doubleSided":true,"name":"Grey 0 4","pbrMetallicRoughness":{"baseColorFactor":[0.4,0.4,0.4,1],"metallicFactor":0,"roughnessFactor":0.9}},{"doubleSided":true,"name":"Grey 1 4","pbrMetallicRoughness":{"baseColorFactor":[0.13286832155381798,0.13286832155381798,0.13286832155381798,1],"metallicFactor":0,"roughnessFactor":0.9}},{"doubleSided":true,"name":"Grey 0 5","pbrMetallicRoughness":{"baseColorFactor":[0.5,0.5,0.5,1],"metallicFactor":0,"roughnessFactor":0.9}},{"doubleSided":true,"name":"Grey 1 5","pbrMetallicRoughness":{"baseColorFactor":[0.21404114048223255,0.21404114048223255,0.21404114048223255,1],"metallicFactor":0,"roughnessFactor":0.9}},{"doubleSided":true,"name":"Grey 0 6","pbrMetallicRoughness":{"baseColorFactor":[0.6,0.6,0.6,1],"metallicFactor":0,"roughnessFactor":0.9}},{"doubleSided":true,"name":"Grey 1 6","pbrMetallicRoughness":{"baseColorFactor":[0.31854677812509186,0.31854677812509186,0.31854677812509186,1],"metallicFactor":0,"roughnessFactor":0.9}},{"doubleSided":true,"name":"Grey 0 7","pbrMetallicRoughness":{"baseColorFactor":[0.7,0.7,0.7,1],"metallicFactor":0,"roughnessFactor":0.9}},{"doubleSided":true,"name":"Grey 1 7","pbrMetallicRoughness":{"baseColorFactor":[0.44798841244188325,0.44798841244188325,0.44798841244188325,1],"metallicFactor":0,"roughnessFactor":0.9}},{"doubleSided":true,"name":"Grey 0 8","pbrMetallicRoughness":{"baseColorFactor":[0.8,0.8,0.8,1],"metallicFactor":0,"roughnessFactor":0.9}},{"doubleSided":true,"name":"Grey 1 8","pbrMetallicRoughness":{"baseColorFactor":[0.6038273388553378,0.6038273388553378,0.6038273388553378,1],"metallicFactor":0,"roughnessFactor":0.9}},{"doubleSided":true,"name":"Grey 0 9","pbrMetallicRoughness":{"baseColorFactor":[0.9,0.9,0.9,1],"metallicFactor":0,"roughnessFactor":0.9}},{"doubleSided":true,"name":"Grey 1 9","pbrMetallicRoughness":{"baseColorFactor":[0.7874122893956174,0.7874122893956174,0.7874122893956174,1],"metallicFactor":0,"roughnessFactor":0.9}},{"doubleSided":true,"name":"Grey 0 10","pbrMetallicRoughness":{"baseColorFactor":[1,1,1,1],"metallicFactor":0,"roughnessFactor":0.9}},{"doubleSided":true,"name":"Grey 1 10","pbrMetallicRoughness":{"baseColorFactor":[1,1,1,1],"metallicFactor":0,"roughnessFactor":0.9}}],"meshes":[{"name":"Colour ramp","primitives":[{"attributes":{"NORMAL":1,"POSITION":0},"indices":2,"material":0},{"attributes":{"NORMAL":4,"POSITION":3},"indices":5,"material":1},{"attributes":{"NORMAL":7,"POSITION":6},"indices":8,"material":2},{"attributes":{"NORMAL":10,"POSITION":9},"indices":11,"material":3},{"attributes":{"NORMAL":13,"POSITION":12},"indices":14,"material":4},{"attributes":{"NORMAL":16,"POSITION":15},"indices":17,"material":5},{"attributes":{"NORMAL":19,"POSITION":18},"indices":20,"material":6},{"attributes":{"NORMAL":22,"POSITION":21},"indices":23,"material":7},{"attributes":{"NORMAL":25,"POSITION":24},"indices":26,"material":8},{"attributes":{"NORMAL":28,"POSITION":27},"indices":29,"material":9},{"attributes":{"NORMAL":31,"POSITION":30},"indices":32,"material":10},{"attributes":{"NORMAL":34,"POSITION":33},"indices":35,"material":11},{"attributes":{"NORMAL":37,"POSITION":36},"indices":38,"material":12},{"attributes":{"NORMAL":40,"POSITION":39},"indices":41,"material":13},{"attributes":{"NORMAL":43,"POSITION":42},"indices":44,"material":14},{"attributes":{"NORMAL":46,"POSITION":45},"indices":47,"material":15},{"attributes":{"NORMAL":49,"POSITION":48},"indices":50,"material":16},{"attributes":{"NORMAL":52,"POSITION":51},"indices":53,"material":17},{"attributes":{"NORMAL":55,"POSITION":54},"indices":56,"material":18},{"attributes":{"NORMAL":58,"POSITION":57},"indices":59,"material":19},{"attributes":{"NORMAL":61,"POSITION":60},"indices":62,"material":20},{"attributes":{"NORMAL":64,"POSITION":63},"indices":65,"material":21},{"attributes":{"NORMAL":67,"POSITION":66},"indices":68,"material":22}]}],"nodes":[{"mesh":0,"name":"Colour ramp"}],"scene":0,"scenes":[{"nodes":[0]}]}