{"accessors":[{"bufferView":0,"componentType":5126,"count":1199,"max":[-0.2882292866706848,1.1425464153289795,0.9148240089416504],"min":[-1.5333393812179563,0.0003786300076171756,-0.31557998061180115],"type":"VEC3"},{"bufferView":1,"componentType":5126,"count":1199,"type":"VEC3"},{"bufferView":2,"componentType":5126,"count":1199,"type":"VEC2"},{"bufferView":3,"componentType":5123,"count":1764,"type":"SCALAR"},{"bufferView":4,"componentType":5126,"count":1199,"max":[1.3117706775665283,1.1425464153289795,0.11482401937246324],"min":[0.06666065007448196,0.0003786300076171756,-1.1155799627304075],"type":"VEC3"},{"bufferView":5,"componentType":5126,"count":1199,"type":"VEC3"},{"bufferView":6,"componentType":5126,"count":1199,"type":"VEC2"},{"bufferView":7,"componentType":5123,"count":1764,"type":"SCALAR"},{"bufferView":8,"componentType":5126,"count":1199,"max":[0.5117707252502441,2.292546510696411,0.5148240327835083],"min":[-0.7333393692970276,1.1503785848617554,-0.7155799865722656],"type":"VEC3"},{"bufferView":9,"componentType":5126,"count":1199,"type":"VEC3"},{"bufferView":10,"componentType":5126,"count":1199,"type":"VEC2"},{"bufferView":11,"componentType":5123,"count":1764,"type":"SCALAR"},{"bufferView":12,"componentType":5126,"count":24,"max":[4.0,0.0,4.0],"min":[-4.0,-0.20000000298023224,-4.0],"type":"VEC3"},{"bufferView":13,"componentType":5126,"count":24,"type":"VEC3"},{"bufferView":14,"componentType":5123,"count":36,"type":"SCALAR"}],"asset":{"generator":"web-geometry-compiler 0.8.0 (obj-ufbx-0.11.3-gltf-7)","version":"2.0"},"bufferViews":[{"buffer":0,"byteLength":14388,"byteOffset":0,"target":34962},{"buffer":0,"byteLength":14388,"byteOffset":14388,"target":34962},{"buffer":0,"byteLength":9592,"byteOffset":28776,"target":34962},{"buffer":0,"byteLength":3528,"byteOffset":38368,"target":34963},{"buffer":0,"byteLength":14388,"byteOffset":41896,"target":34962},{"buffer":0,"byteLength":14388,"byteOffset":56284,"target":34962},{"buffer":0,"byteLength":9592,"byteOffset":70672,"target":34962},{"buffer":0,"byteLength":3528,"byteOffset":80264,"target":34963},{"buffer":0,"byteLength":14388,"byteOffset":83792,"target":34962},{"buffer":0,"byteLength":14388,"byteOffset":98180,"target":34962},{"buffer":0,"byteLength":9592,"byteOffset":112568,"target":34962},{"buffer":0,"byteLength":3528,"byteOffset":122160,"target":34963},{"buffer":0,"byteLength":288,"byteOffset":125688,"target":34962},{"buffer":0,"byteLength":288,"byteOffset":125976,"target":34962},{"buffer":0,"byteLength":72,"byteOffset":126264,"target":34963}],"buffers":[{"byteLength":126336,"uri":"source.bin"}],"images":[{"mimeType":"image/png","name":"box1.pcx","uri":"../../../../source/box1.png"},{"mimeType":"image/png","name":"box1.pcx","uri":"../../../../source/box1.png"},{"mimeType":"image/png","name":"box1.pcx","uri":"../../../../source/box1.png"}],"materials":[{"emissiveFactor":[0.0,0.0,0.0],"name":"skin","pbrMetallicRoughness":{"baseColorFactor":[1.0,1.0,1.0,1.0],"baseColorTexture":{"index":0},"metallicFactor":0.0,"roughnessFactor":1.0}},{"emissiveFactor":[0.0,0.0,0.0],"name":"skin","pbrMetallicRoughness":{"baseColorFactor":[1.0,1.0,1.0,1.0],"baseColorTexture":{"index":1},"metallicFactor":0.0,"roughnessFactor":1.0}},{"emissiveFactor":[0.0,0.0,0.0],"name":"skin","pbrMetallicRoughness":{"baseColorFactor":[1.0,1.0,1.0,1.0],"baseColorTexture":{"index":2},"metallicFactor":0.0,"roughnessFactor":1.0}},{"emissiveFactor":[0.0,0.0,0.0],"name":"floor","pbrMetallicRoughness":{"baseColorFactor":[0.16,0.16,0.18,1.0],"metallicFactor":0.0,"roughnessFactor":0.6}}],"meshes":[{"name":"Group","primitives":[{"attributes":{"NORMAL":1,"POSITION":0,"TEXCOORD_0":2},"indices":3,"material":0,"mode":4}]},{"name":"Group","primitives":[{"attributes":{"NORMAL":5,"POSITION":4,"TEXCOORD_0":6},"indices":7,"material":1,"mode":4}]},{"name":"Group","primitives":[{"attributes":{"NORMAL":9,"POSITION":8,"TEXCOORD_0":10},"indices":11,"material":2,"mode":4}]},{"name":"","primitives":[{"attributes":{"NORMAL":13,"POSITION":12},"indices":14,"material":3,"mode":4}]}],"nodes":[{"matrix":[1.0,0.0,0.0,0.0,0.0,1.0,0.0,0.0,0.0,0.0,1.0,0.0,0.0,0.0,0.0,1.0],"mesh":0,"name":"Group"},{"matrix":[1.0,0.0,0.0,0.0,0.0,1.0,0.0,0.0,0.0,0.0,1.0,0.0,0.0,0.0,0.0,1.0],"mesh":1,"name":"Group"},{"matrix":[1.0,0.0,0.0,0.0,0.0,1.0,0.0,0.0,0.0,0.0,1.0,0.0,0.0,0.0,0.0,1.0],"mesh":2,"name":"Group"},{"matrix":[1.0,0.0,0.0,0.0,0.0,1.0,0.0,0.0,0.0,0.0,1.0,0.0,0.0,0.0,0.0,1.0],"mesh":3,"name":""}],"samplers":[{"magFilter":9729,"minFilter":9987,"wrapS":10497,"wrapT":10497}],"scene":0,"scenes":[{"nodes":[0,1,2,3]}],"textures":[{"sampler":0,"source":0},{"sampler":0,"source":1},{"sampler":0,"source":2}]}