{"accessors":[{"bufferView":0,"componentType":5126,"count":3,"max":[0,0,0],"min":[0,0,0],"type":"VEC3"},{"bufferView":1,"componentType":5123,"count":3,"type":"SCALAR"}],"asset":{"copyright":"Original Web Geometry contributors; repository license","generator":"Web Geometry examples recipe v1","version":"2.0"},"bufferViews":[{"buffer":0,"byteLength":36,"byteOffset":0},{"buffer":0,"byteLength":6,"byteOffset":36}],"buffers":[{"byteLength":44,"uri":"scene.bin"}],"images":[{"uri":"../../../../source/checker.png"},{"uri":"../../../../source/stripes.png"},{"uri":"../../../../source/tiles.png"}],"materials":[{"doubleSided":true,"name":"Slate slab","pbrMetallicRoughness":{"baseColorFactor":[0.22,0.24,0.27,1],"metallicFactor":0,"roughnessFactor":0.85}},{"doubleSided":true,"name":"Vermilion paint","pbrMetallicRoughness":{"baseColorFactor":[0.8,0.2,0.12,1],"metallicFactor":0,"roughnessFactor":0.35}},{"doubleSided":true,"name":"Cobalt paint","pbrMetallicRoughness":{"baseColorFactor":[0.1,0.25,0.7,1],"metallicFactor":0,"roughnessFactor":0.35}},{"doubleSided":true,"name":"Cream paint","pbrMetallicRoughness":{"baseColorFactor":[0.9,0.85,0.7,1],"metallicFactor":0,"roughnessFactor":0.35}},{"doubleSided":true,"name":"Checker cloth","pbrMetallicRoughness":{"baseColorTexture":{"index":0}}},{"doubleSided":true,"name":"Striped cloth","pbrMetallicRoughness":{"baseColorTexture":{"index":1}}},{"doubleSided":true,"name":"Tile cloth","pbrMetallicRoughness":{"baseColorTexture":{"index":2}}}],"meshes":[{"name":"scene","primitives":[{"attributes":{"POSITION":0},"indices":1,"material":0,"mode":4},{"attributes":{"POSITION":0},"indices":1,"material":1,"mode":4},{"attributes":{"POSITION":0},"indices":1,"material":2,"mode":4},{"attributes":{"POSITION":0},"indices":1,"material":3,"mode":4},{"attributes":{"POSITION":0},"indices":1,"material":4,"mode":4},{"attributes":{"POSITION":0},"indices":1,"material":5,"mode":4},{"attributes":{"POSITION":0},"indices":1,"material":6,"mode":4}]}],"nodes":[{"mesh":0,"name":"scene"}],"scene":0,"scenes":[{"name":"Painted and textured","nodes":[0]}],"textures":[{"source":0},{"source":1},{"source":2}]}