{"asset":{"version":"2.0","generator":"Web Geometry examples recipe v1","copyright":"Original Web Geometry contributors; repository license"},"scene":0,"scenes":[{"name":"Neon sign","nodes":[0]}],"nodes":[{"name":"scene","mesh":0}],"meshes":[{"name":"scene","primitives":[{"material":0,"attributes":{"POSITION":0,"NORMAL":1},"indices":2},{"material":1,"attributes":{"POSITION":3,"NORMAL":4},"indices":5}]}],"materials":[{"name":"Dark render","doubleSided":true,"pbrMetallicRoughness":{"baseColorFactor":[0.12,0.12,0.14,1],"metallicFactor":0,"roughnessFactor":0.9}},{"name":"Neon glass","doubleSided":true,"pbrMetallicRoughness":{"baseColorFactor":[1,0.4,0.7,1],"metallicFactor":0,"roughnessFactor":0.3},"emissiveFactor":[1,0.25,0.6],"extensions":{"KHR_materials_emissive_strength":{"emissiveStrength":6}}}],"buffers":[{"uri":"scene.bin","byteLength":31464}],"bufferViews":[{"buffer":0,"byteOffset":0,"byteLength":576,"target":34962},{"buffer":0,"byteOffset":576,"byteLength":576,"target":34962},{"buffer":0,"byteOffset":1152,"byteLength":288,"target":34963},{"buffer":0,"byteOffset":1440,"byteLength":7956,"target":34962},{"buffer":0,"byteOffset":9396,"byteLength":7956,"target":34962},{"buffer":0,"byteOffset":17352,"byteLength":14112,"target":34963}],"accessors":[{"bufferView":0,"componentType":5126,"type":"VEC3","count":48,"min":[-3,-0.2,-0.30000000000000004],"max":[3,3.2,3.2]},{"bufferView":1,"componentType":5126,"type":"VEC3","count":48,"min":[-1,-1,-1],"max":[1,1,1]},{"bufferView":2,"componentType":5125,"type":"SCALAR","count":72},{"bufferView":3,"componentType":5126,"type":"VEC3","count":663,"min":[-1.74,0.8600000000000001,-0.04],"max":[2.5,2.34,0.04]},{"bufferView":4,"componentType":5126,"type":"VEC3","count":663,"min":[-0.9999999990130395,-0.9999999995065199,-0.9999999995065199],"max":[0.9999999990130395,0.9999999995065199,0.9999999995065199]},{"bufferView":5,"componentType":5125,"type":"SCALAR","count":3528}],"extensionsUsed":["KHR_materials_emissive_strength"]}