{"accessors":[{"bufferView":0,"componentType":5126,"count":20309,"max":[7.290249347686768,0.9200000166893005,1.5527857542037964],"min":[-5.125,-1.1948639154434204,-1.5527857542037964],"type":"VEC3"},{"bufferView":1,"componentType":5126,"count":20309,"type":"VEC3"},{"bufferView":2,"componentType":5123,"count":26352,"type":"SCALAR"},{"bufferView":3,"componentType":5126,"count":1278,"max":[-4.423038482666016,0.6600000262260437,0.4360116422176361],"min":[-4.816961765289307,0.3400000035762787,-0.4360116422176361],"type":"VEC3"},{"bufferView":4,"componentType":5126,"count":1278,"type":"VEC3"},{"bufferView":5,"componentType":5123,"count":1512,"type":"SCALAR"},{"bufferView":6,"componentType":5126,"count":216,"max":[8.0,-0.7799999713897705,4.210000038146973],"min":[-8.0,-1.7899999618530273,-4.210000038146973],"type":"VEC3"},{"bufferView":7,"componentType":5126,"count":216,"type":"VEC3"},{"bufferView":8,"componentType":5123,"count":324,"type":"SCALAR"},{"bufferView":9,"componentType":5126,"count":192,"max":[7.579999923706055,-0.6000000238418579,3.7899999618530273],"min":[-7.579999923706055,-1.159999966621399,-3.7899999618530273],"type":"VEC3"},{"bufferView":10,"componentType":5126,"count":192,"type":"VEC3"},{"bufferView":11,"componentType":5123,"count":288,"type":"SCALAR"},{"bufferView":12,"componentType":5126,"count":96,"max":[5.460000038146973,0.03999999910593033,-2.559999942779541],"min":[-5.659999847412109,-1.1749999523162842,-2.740000009536743],"type":"VEC3"},{"bufferView":13,"componentType":5126,"count":96,"type":"VEC3"},{"bufferView":14,"componentType":5123,"count":144,"type":"SCALAR"},{"bufferView":15,"componentType":5126,"count":48,"max":[0.46000000834465027,0.03999999910593033,2.8399999141693115],"min":[-0.05999999865889549,-1.1749999523162842,2.759999990463257],"type":"VEC3"},{"bufferView":16,"componentType":5126,"count":48,"type":"VEC3"},{"bufferView":17,"componentType":5123,"count":72,"type":"SCALAR"},{"bufferView":18,"componentType":5126,"count":144,"max":[5.375,-0.05000000074505806,2.759999990463257],"min":[-5.574999809265137,-0.25,-2.759999990463257],"type":"VEC3"},{"bufferView":19,"componentType":5126,"count":144,"type":"VEC3"},{"bufferView":20,"componentType":5123,"count":216,"type":"SCALAR"},{"bufferView":21,"componentType":5126,"count":300,"max":[7.164999961853027,0.550000011920929,-3.1050000190734863],"min":[5.934999942779541,-1.2000000476837158,-3.194999933242798],"type":"VEC3"},{"bufferView":22,"componentType":5126,"count":300,"type":"VEC3"},{"bufferView":23,"componentType":5123,"count":444,"type":"SCALAR"}],"asset":{"generator":"web-geometry-compiler 0.7.0 (obj-ufbx-0.11.3-gltf-7)","version":"2.0"},"bufferViews":[{"buffer":0,"byteLength":243708,"byteOffset":0,"target":34962},{"buffer":0,"byteLength":243708,"byteOffset":243708,"target":34962},{"buffer":0,"byteLength":52704,"byteOffset":487416,"target":34963},{"buffer":0,"byteLength":15336,"byteOffset":540120,"target":34962},{"buffer":0,"byteLength":15336,"byteOffset":555456,"target":34962},{"buffer":0,"byteLength":3024,"byteOffset":570792,"target":34963},{"buffer":0,"byteLength":2592,"byteOffset":573816,"target":34962},{"buffer":0,"byteLength":2592,"byteOffset":576408,"target":34962},{"buffer":0,"byteLength":648,"byteOffset":579000,"target":34963},{"buffer":0,"byteLength":2304,"byteOffset":579648,"target":34962},{"buffer":0,"byteLength":2304,"byteOffset":581952,"target":34962},{"buffer":0,"byteLength":576,"byteOffset":584256,"target":34963},{"buffer":0,"byteLength":1152,"byteOffset":584832,"target":34962},{"buffer":0,"byteLength":1152,"byteOffset":585984,"target":34962},{"buffer":0,"byteLength":288,"byteOffset":587136,"target":34963},{"buffer":0,"byteLength":576,"byteOffset":587424,"target":34962},{"buffer":0,"byteLength":576,"byteOffset":588000,"target":34962},{"buffer":0,"byteLength":144,"byteOffset":588576,"target":34963},{"buffer":0,"byteLength":1728,"byteOffset":588720,"target":34962},{"buffer":0,"byteLength":1728,"byteOffset":590448,"target":34962},{"buffer":0,"byteLength":432,"byteOffset":592176,"target":34963},{"buffer":0,"byteLength":3600,"byteOffset":592608,"target":34962},{"buffer":0,"byteLength":3600,"byteOffset":596208,"target":34962},{"buffer":0,"byteLength":888,"byteOffset":599808,"target":34963}],"buffers":[{"byteLength":600696,"uri":"model.bin"}],"materials":[{"emissiveFactor":[0.0,0.0,0.0],"name":"bone","pbrMetallicRoughness":{"baseColorFactor":[0.82,0.72,0.51,1.0],"metallicFactor":0.0,"roughnessFactor":0.2788897454738617}},{"emissiveFactor":[0.0,0.0,0.0],"name":"shadow","pbrMetallicRoughness":{"baseColorFactor":[0.12,0.09,0.07,1.0],"metallicFactor":0.0,"roughnessFactor":0.6837722063064575}},{"emissiveFactor":[0.0,0.0,0.0],"name":"sandstone","pbrMetallicRoughness":{"baseColorFactor":[0.56,0.34,0.16,1.0],"metallicFactor":0.0,"roughnessFactor":0.6837722063064575}},{"emissiveFactor":[0.0,0.0,0.0],"name":"ochre","pbrMetallicRoughness":{"baseColorFactor":[0.72,0.43,0.18,1.0],"metallicFactor":0.0,"roughnessFactor":0.6837722063064575}},{"emissiveFactor":[0.0,0.0,0.0],"name":"markerRed","pbrMetallicRoughness":{"baseColorFactor":[0.72,0.08,0.05,1.0],"metallicFactor":0.0,"roughnessFactor":0.6837722063064575}},{"emissiveFactor":[0.0,0.0,0.0],"name":"markerBlue","pbrMetallicRoughness":{"baseColorFactor":[0.04,0.24,0.62,1.0],"metallicFactor":0.0,"roughnessFactor":0.6837722063064575}},{"emissiveFactor":[0.0,0.0,0.0],"name":"paper","pbrMetallicRoughness":{"baseColorFactor":[0.92,0.9,0.76,1.0],"metallicFactor":0.0,"roughnessFactor":0.6837722063064575}},{"emissiveFactor":[0.0,0.0,0.0],"name":"metal","pbrMetallicRoughness":{"baseColorFactor":[0.16,0.18,0.2,1.0],"metallicFactor":0.0,"roughnessFactor":0.6837722063064575}}],"meshes":[{"name":"bone","primitives":[{"attributes":{"NORMAL":1,"POSITION":0},"indices":2,"material":0,"mode":4}]},{"name":"shadow","primitives":[{"attributes":{"NORMAL":4,"POSITION":3},"indices":5,"material":1,"mode":4}]},{"name":"sandstone","primitives":[{"attributes":{"NORMAL":7,"POSITION":6},"indices":8,"material":2,"mode":4}]},{"name":"ochre","primitives":[{"attributes":{"NORMAL":10,"POSITION":9},"indices":11,"material":3,"mode":4}]},{"name":"markerRed","primitives":[{"attributes":{"NORMAL":13,"POSITION":12},"indices":14,"material":4,"mode":4}]},{"name":"markerBlue","primitives":[{"attributes":{"NORMAL":16,"POSITION":15},"indices":17,"material":5,"mode":4}]},{"name":"paper","primitives":[{"attributes":{"NORMAL":19,"POSITION":18},"indices":20,"material":6,"mode":4}]},{"name":"metal","primitives":[{"attributes":{"NORMAL":22,"POSITION":21},"indices":23,"material":7,"mode":4}]}],"nodes":[{"matrix":[1.0,0.0,0.0,0.0,0.0,1.0,0.0,0.0,0.0,0.0,1.0,0.0,0.0,0.0,0.0,1.0],"mesh":0,"name":"bone"},{"matrix":[1.0,0.0,0.0,0.0,0.0,1.0,0.0,0.0,0.0,0.0,1.0,0.0,0.0,0.0,0.0,1.0],"mesh":1,"name":"shadow"},{"matrix":[1.0,0.0,0.0,0.0,0.0,1.0,0.0,0.0,0.0,0.0,1.0,0.0,0.0,0.0,0.0,1.0],"mesh":2,"name":"sandstone"},{"matrix":[1.0,0.0,0.0,0.0,0.0,1.0,0.0,0.0,0.0,0.0,1.0,0.0,0.0,0.0,0.0,1.0],"mesh":3,"name":"ochre"},{"matrix":[1.0,0.0,0.0,0.0,0.0,1.0,0.0,0.0,0.0,0.0,1.0,0.0,0.0,0.0,0.0,1.0],"mesh":4,"name":"markerRed"},{"matrix":[1.0,0.0,0.0,0.0,0.0,1.0,0.0,0.0,0.0,0.0,1.0,0.0,0.0,0.0,0.0,1.0],"mesh":5,"name":"markerBlue"},{"matrix":[1.0,0.0,0.0,0.0,0.0,1.0,0.0,0.0,0.0,0.0,1.0,0.0,0.0,0.0,0.0,1.0],"mesh":6,"name":"paper"},{"matrix":[1.0,0.0,0.0,0.0,0.0,1.0,0.0,0.0,0.0,0.0,1.0,0.0,0.0,0.0,0.0,1.0],"mesh":7,"name":"metal"}],"scene":0,"scenes":[{"nodes":[0,1,2,3,4,5,6,7]}]}