{"asset":{"version":"2.0","generator":"Web Geometry examples recipe v1","copyright":"Original Web Geometry contributors; repository license"},"scene":0,"scenes":[{"name":"Spiral staircase","nodes":[0,1,2,3,4,5,6,7,8,9,10,11,12,13,14,15,16,17,18,19,20,21,22,23,24,25,26,27,28,29,30,31,32,33,34,35,36]}],"nodes":[{"name":"column","mesh":1},{"name":"step-0","mesh":0,"translation":[0,0.18,0],"rotation":[0,0,0,1]},{"name":"step-1","mesh":0,"translation":[0,0.36,0],"rotation":[0,0.1423,0,0.9898]},{"name":"step-2","mesh":0,"translation":[0,0.54,0],"rotation":[0,0.2817,0,0.9595]},{"name":"step-3","mesh":0,"translation":[0,0.72,0],"rotation":[0,0.4154,0,0.9096]},{"name":"step-4","mesh":0,"translation":[0,0.9,0],"rotation":[0,0.5406,0,0.8413]},{"name":"step-5","mesh":0,"translation":[0,1.08,0],"rotation":[0,0.6549,0,0.7557]},{"name":"step-6","mesh":0,"translation":[0,1.26,0],"rotation":[0,0.7557,0,0.6549]},{"name":"step-7","mesh":0,"translation":[0,1.44,0],"rotation":[0,0.8413,0,0.5406]},{"name":"step-8","mesh":0,"translation":[0,1.62,0],"rotation":[0,0.9096,0,0.4154]},{"name":"step-9","mesh":0,"translation":[0,1.8,0],"rotation":[0,0.9595,0,0.2817]},{"name":"step-10","mesh":0,"translation":[0,1.98,0],"rotation":[0,0.9898,0,0.1423]},{"name":"step-11","mesh":0,"translation":[0,2.16,0],"rotation":[0,1,0,0]},{"name":"step-12","mesh":0,"translation":[0,2.34,0],"rotation":[0,0.9898,0,-0.1423]},{"name":"step-13","mesh":0,"translation":[0,2.52,0],"rotation":[0,0.9595,0,-0.2817]},{"name":"step-14","mesh":0,"translation":[0,2.7,0],"rotation":[0,0.9096,0,-0.4154]},{"name":"step-15","mesh":0,"translation":[0,2.88,0],"rotation":[0,0.8413,0,-0.5406]},{"name":"step-16","mesh":0,"translation":[0,3.06,0],"rotation":[0,0.7557,0,-0.6549]},{"name":"step-17","mesh":0,"translation":[0,3.24,0],"rotation":[0,0.6549,0,-0.7557]},{"name":"step-18","mesh":0,"translation":[0,3.42,0],"rotation":[0,0.5406,0,-0.8413]},{"name":"step-19","mesh":0,"translation":[0,3.6,0],"rotation":[0,0.4154,0,-0.9096]},{"name":"step-20","mesh":0,"translation":[0,3.78,0],"rotation":[0,0.2817,0,-0.9595]},{"name":"step-21","mesh":0,"translation":[0,3.96,0],"rotation":[0,0.1423,0,-0.9898]},{"name":"step-22","mesh":0,"translation":[0,4.14,0],"rotation":[0,0,0,-1]},{"name":"step-23","mesh":0,"translation":[0,4.32,0],"rotation":[0,-0.1423,0,-0.9898]},{"name":"step-24","mesh":0,"translation":[0,4.5,0],"rotation":[0,-0.2817,0,-0.9595]},{"name":"step-25","mesh":0,"translation":[0,4.68,0],"rotation":[0,-0.4154,0,-0.9096]},{"name":"step-26","mesh":0,"translation":[0,4.86,0],"rotation":[0,-0.5406,0,-0.8413]},{"name":"step-27","mesh":0,"translation":[0,5.04,0],"rotation":[0,-0.6549,0,-0.7557]},{"name":"step-28","mesh":0,"translation":[0,5.22,0],"rotation":[0,-0.7557,0,-0.6549]},{"name":"step-29","mesh":0,"translation":[0,5.4,0],"rotation":[0,-0.8413,0,-0.5406]},{"name":"step-30","mesh":0,"translation":[0,5.58,0],"rotation":[0,-0.9096,0,-0.4154]},{"name":"step-31","mesh":0,"translation":[0,5.76,0],"rotation":[0,-0.9595,0,-0.2817]},{"name":"step-32","mesh":0,"translation":[0,5.94,0],"rotation":[0,-0.9898,0,-0.1423]},{"name":"step-33","mesh":0,"translation":[0,6.12,0],"rotation":[0,-1,0,0]},{"name":"step-34","mesh":0,"translation":[0,6.3,0],"rotation":[0,-0.9898,0,0.1423]},{"name":"step-35","mesh":0,"translation":[0,6.48,0],"rotation":[0,-0.9595,0,0.2817]}],"meshes":[{"name":"step","primitives":[{"material":0,"attributes":{"POSITION":0,"NORMAL":1},"indices":2}]},{"name":"column","primitives":[{"material":1,"attributes":{"POSITION":3,"NORMAL":4},"indices":5}]}],"materials":[{"name":"Oak step","doubleSided":true,"pbrMetallicRoughness":{"baseColorFactor":[0.6,0.42,0.24,1],"metallicFactor":0,"roughnessFactor":0.65}},{"name":"Plaster column","doubleSided":true,"pbrMetallicRoughness":{"baseColorFactor":[0.8,0.78,0.72,1],"metallicFactor":0,"roughnessFactor":0.85}}],"buffers":[{"uri":"step.bin","byteLength":3120},{"uri":"column.bin","byteLength":8880}],"bufferViews":[{"buffer":0,"byteOffset":0,"byteLength":1128,"target":34962},{"buffer":0,"byteOffset":1128,"byteLength":1128,"target":34962},{"buffer":0,"byteOffset":2256,"byteLength":864,"target":34963},{"buffer":1,"byteOffset":0,"byteLength":2640,"target":34962},{"buffer":1,"byteOffset":2640,"byteLength":2640,"target":34962},{"buffer":1,"byteOffset":5280,"byteLength":3600,"target":34963}],"accessors":[{"bufferView":0,"componentType":5126,"type":"VEC3","count":94,"min":[0.19796428837618654,-0.18,-0.20635651549626347],"max":[1.45,1,0.20635651549626347]},{"bufferView":1,"componentType":5126,"type":"VEC3","count":94,"min":[-1,-1,-1],"max":[1,1,1]},{"bufferView":2,"componentType":5125,"type":"SCALAR","count":216},{"bufferView":3,"componentType":5126,"type":"VEC3","count":220,"min":[-3,-0.3,-3],"max":[3,7.2,3]},{"bufferView":4,"componentType":5126,"type":"VEC3","count":220,"min":[-1,-1,-1],"max":[1,1,1]},{"bufferView":5,"componentType":5125,"type":"SCALAR","count":900}]}