{"accessors":[{"bufferView":0,"componentType":5126,"count":900,"max":[2.799999952316284,2.3399999141693115,2.799999952316284],"min":[-2.799999952316284,0,-2.799999952316284],"type":"VEC3"},{"bufferView":1,"componentType":5125,"count":900,"type":"SCALAR"}],"asset":{"generator":"Web Geometry original offline authoring","version":"2.0"},"bufferViews":[{"buffer":0,"byteLength":10800,"byteOffset":0,"target":34962},{"buffer":0,"byteLength":3600,"byteOffset":10800,"target":34963}],"buffers":[{"byteLength":14400,"uri":"source.bin"}],"extensions":{"KHR_lights_punctual":{"lights":[{"color":[1,0.95,0.88],"intensity":2400,"type":"directional"}]}},"extensionsUsed":["KHR_lights_punctual"],"materials":[{"doubleSided":true,"pbrMetallicRoughness":{"baseColorFactor":[0.12,0.65,0.52,1],"metallicFactor":0.1,"roughnessFactor":0.55}}],"meshes":[{"primitives":[{"attributes":{"POSITION":0},"indices":1,"material":0}]}],"nodes":[{"mesh":0,"name":"Authored-surface"},{"extensions":{"KHR_lights_punctual":{"light":0}},"name":"Authoring-light","rotation":[-0.3826834323650898,0,0,0.9238795325112868]}],"scene":0,"scenes":[{"nodes":[0,1]}]}