{"accessors":[{"bufferView":0,"componentType":5126,"count":1225,"max":[1.0003212690353394,0.999800145626068,1.3596982955932615],"min":[-1.2156769037246704,-0.999800145626068,-1.0000338554382324],"type":"VEC3"},{"bufferView":1,"componentType":5125,"count":6912,"type":"SCALAR"}],"asset":{"generator":"Web Geometry original offline authoring","version":"2.0"},"bufferViews":[{"buffer":0,"byteLength":14700,"byteOffset":0,"target":34962},{"buffer":0,"byteLength":27648,"byteOffset":14700,"target":34963}],"buffers":[{"byteLength":42348,"uri":"source.bin"}],"extensions":{"KHR_lights_punctual":{"lights":[{"color":[1,0.95,0.88],"intensity":2400,"type":"directional"}]}},"extensionsUsed":["KHR_lights_punctual"],"materials":[{"doubleSided":true,"pbrMetallicRoughness":{"baseColorFactor":[0.12,0.65,0.52,1],"metallicFactor":0.1,"roughnessFactor":0.55}}],"meshes":[{"primitives":[{"attributes":{"POSITION":0},"indices":1,"material":0}]}],"nodes":[{"mesh":0,"name":"Authored-surface"},{"extensions":{"KHR_lights_punctual":{"light":0}},"name":"Authoring-light","rotation":[-0.3826834323650898,0,0,0.9238795325112868]}],"scene":0,"scenes":[{"nodes":[0,1]}]}