{"accessors":[{"bufferView":0,"componentType":5126,"count":625,"max":[3,1.2000000476837158,3],"min":[-3,0,-3],"type":"VEC3"},{"bufferView":1,"componentType":5125,"count":3456,"type":"SCALAR"}],"asset":{"generator":"Web Geometry original offline authoring","version":"2.0"},"bufferViews":[{"buffer":0,"byteLength":7500,"byteOffset":0,"target":34962},{"buffer":0,"byteLength":13824,"byteOffset":7500,"target":34963}],"buffers":[{"byteLength":21324,"uri":"source.bin"}],"extensions":{"KHR_lights_punctual":{"lights":[{"color":[1,0.95,0.88],"intensity":2400,"type":"directional"}]}},"extensionsUsed":["KHR_lights_punctual"],"materials":[{"doubleSided":true,"pbrMetallicRoughness":{"baseColorFactor":[0.12,0.65,0.52,1],"metallicFactor":0.1,"roughnessFactor":0.55}}],"meshes":[{"primitives":[{"attributes":{"POSITION":0},"indices":1,"material":0}]}],"nodes":[{"mesh":0,"name":"Authored-surface"},{"extensions":{"KHR_lights_punctual":{"light":0}},"name":"Authoring-light","rotation":[-0.3826834323650898,0,0,0.9238795325112868]}],"scene":0,"scenes":[{"nodes":[0,1]}]}