{"accessors":[{"bufferView":0,"componentType":5126,"count":3,"max":[0,0,0],"min":[0,0,0],"type":"VEC3"},{"bufferView":1,"componentType":5123,"count":3,"type":"SCALAR"}],"asset":{"generator":"trillion3d-compiler 0.8.0 (obj-ufbx-0.11.3-gltf-7)","version":"2.0"},"bufferViews":[{"buffer":0,"byteLength":36,"byteOffset":0},{"buffer":0,"byteLength":6,"byteOffset":36}],"buffers":[{"byteLength":44,"uri":"scene.bin"}],"materials":[{"emissiveFactor":[0.0,0.0,0.0],"name":"oak","pbrMetallicRoughness":{"baseColorFactor":[0.42,0.27,0.15,1.0],"metallicFactor":0.0,"roughnessFactor":0.699999988079071}},{"emissiveFactor":[0.0,0.0,0.0],"name":"lightSquare","pbrMetallicRoughness":{"baseColorFactor":[0.86,0.72,0.52,1.0],"metallicFactor":0.0,"roughnessFactor":0.44999998807907104}},{"emissiveFactor":[0.0,0.0,0.0],"name":"darkSquare","pbrMetallicRoughness":{"baseColorFactor":[0.36,0.22,0.13,1.0],"metallicFactor":0.0,"roughnessFactor":0.44999998807907104}},{"emissiveFactor":[0.0,0.0,0.0],"name":"frame","pbrMetallicRoughness":{"baseColorFactor":[0.24,0.14,0.08,1.0],"metallicFactor":0.0,"roughnessFactor":0.4000000059604645}},{"emissiveFactor":[0.0,0.0,0.0],"name":"ivory","pbrMetallicRoughness":{"baseColorFactor":[0.93,0.88,0.78,1.0],"metallicFactor":0.0,"roughnessFactor":0.2800000011920929}},{"emissiveFactor":[0.0,0.0,0.0],"name":"ebony","pbrMetallicRoughness":{"baseColorFactor":[0.16,0.11,0.09,1.0],"metallicFactor":0.0,"roughnessFactor":0.30000001192092896}},{"emissiveFactor":[0.0,0.0,0.0],"name":"clockFace","pbrMetallicRoughness":{"baseColorFactor":[0.9,0.88,0.8,1.0],"metallicFactor":0.0,"roughnessFactor":0.4000000059604645}}],"meshes":[{"name":"table","primitives":[{"attributes":{"POSITION":0},"indices":1,"material":0,"mode":4}]},{"name":"board-light-squares","primitives":[{"attributes":{"POSITION":0},"indices":1,"material":1,"mode":4}]},{"name":"board-dark-squares","primitives":[{"attributes":{"POSITION":0},"indices":1,"material":2,"mode":4}]},{"name":"board-frame","primitives":[{"attributes":{"POSITION":0},"indices":1,"material":3,"mode":4}]},{"name":"white-rook-a1","primitives":[{"attributes":{"POSITION":0},"indices":1,"material":4,"mode":4}]},{"name":"white-pawn-a2","primitives":[{"attributes":{"POSITION":0},"indices":1,"material":4,"mode":4}]},{"name":"black-pawn-a6","primitives":[{"attributes":{"POSITION":0},"indices":1,"material":5,"mode":4}]},{"name":"black-rook-a8","primitives":[{"attributes":{"POSITION":0},"indices":1,"material":5,"mode":4}]},{"name":"white-knight-b1","primitives":[{"attributes":{"POSITION":0},"indices":1,"material":4,"mode":4}]},{"name":"white-pawn-b2","primitives":[{"attributes":{"POSITION":0},"indices":1,"material":4,"mode":4}]},{"name":"black-pawn-b7","primitives":[{"attributes":{"POSITION":0},"indices":1,"material":5,"mode":4}]},{"name":"white-bishop-c1","primitives":[{"attributes":{"POSITION":0},"indices":1,"material":4,"mode":4}]},{"name":"white-pawn-c2","primitives":[{"attributes":{"POSITION":0},"indices":1,"material":4,"mode":4}]},{"name":"black-pawn-c6","primitives":[{"attributes":{"POSITION":0},"indices":1,"material":5,"mode":4}]},{"name":"black-pawn-c7","primitives":[{"attributes":{"POSITION":0},"indices":1,"material":5,"mode":4}]},{"name":"black-bishop-c8","primitives":[{"attributes":{"POSITION":0},"indices":1,"material":5,"mode":4}]},{"name":"white-queen-d1","primitives":[{"attributes":{"POSITION":0},"indices":1,"material":4,"mode":4}]},{"name":"white-pawn-d2","primitives":[{"attributes":{"POSITION":0},"indices":1,"material":4,"mode":4}]},{"name":"black-queen-d8","primitives":[{"attributes":{"POSITION":0},"indices":1,"material":5,"mode":4}]},{"name":"white-king-e1","primitives":[{"attributes":{"POSITION":0},"indices":1,"material":4,"mode":4}]},{"name":"white-pawn-e4","primitives":[{"attributes":{"POSITION":0},"indices":1,"material":4,"mode":4}]},{"name":"black-pawn-e5","primitives":[{"attributes":{"POSITION":0},"indices":1,"material":5,"mode":4}]},{"name":"black-king-e8","primitives":[{"attributes":{"POSITION":0},"indices":1,"material":5,"mode":4}]},{"name":"white-pawn-f2","primitives":[{"attributes":{"POSITION":0},"indices":1,"material":4,"mode":4}]},{"name":"white-knight-f3","primitives":[{"attributes":{"POSITION":0},"indices":1,"material":4,"mode":4}]},{"name":"black-pawn-f7","primitives":[{"attributes":{"POSITION":0},"indices":1,"material":5,"mode":4}]},{"name":"black-bishop-f8","primitives":[{"attributes":{"POSITION":0},"indices":1,"material":5,"mode":4}]},{"name":"white-pawn-g2","primitives":[{"attributes":{"POSITION":0},"indices":1,"material":4,"mode":4}]},{"name":"black-pawn-g7","primitives":[{"attributes":{"POSITION":0},"indices":1,"material":5,"mode":4}]},{"name":"black-knight-g8","primitives":[{"attributes":{"POSITION":0},"indices":1,"material":5,"mode":4}]},{"name":"white-rook-h1","primitives":[{"attributes":{"POSITION":0},"indices":1,"material":4,"mode":4}]},{"name":"white-pawn-h2","primitives":[{"attributes":{"POSITION":0},"indices":1,"material":4,"mode":4}]},{"name":"black-pawn-h7","primitives":[{"attributes":{"POSITION":0},"indices":1,"material":5,"mode":4}]},{"name":"black-rook-h8","primitives":[{"attributes":{"POSITION":0},"indices":1,"material":5,"mode":4}]},{"name":"captured-black-knight","primitives":[{"attributes":{"POSITION":0},"indices":1,"material":5,"mode":4}]},{"name":"captured-white-bishop","primitives":[{"attributes":{"POSITION":0},"indices":1,"material":4,"mode":4}]},{"name":"clock-case","primitives":[{"attributes":{"POSITION":0},"indices":1,"material":3,"mode":4}]},{"name":"clock-dial-1","primitives":[{"attributes":{"POSITION":0},"indices":1,"material":6,"mode":4}]},{"name":"clock-button-1","primitives":[{"attributes":{"POSITION":0},"indices":1,"material":5,"mode":4}]},{"name":"clock-dial-2","primitives":[{"attributes":{"POSITION":0},"indices":1,"material":6,"mode":4}]},{"name":"clock-button-2","primitives":[{"attributes":{"POSITION":0},"indices":1,"material":5,"mode":4}]}],"nodes":[{"matrix":[1.0,0.0,0.0,0.0,0.0,1.0,0.0,0.0,0.0,0.0,1.0,0.0,0.0,0.0,0.0,1.0],"mesh":0,"name":"table"},{"matrix":[1.0,0.0,0.0,0.0,0.0,1.0,0.0,0.0,0.0,0.0,1.0,0.0,0.0,0.0,0.0,1.0],"mesh":1,"name":"board-light-squares"},{"matrix":[1.0,0.0,0.0,0.0,0.0,1.0,0.0,0.0,0.0,0.0,1.0,0.0,0.0,0.0,0.0,1.0],"mesh":2,"name":"board-dark-squares"},{"matrix":[1.0,0.0,0.0,0.0,0.0,1.0,0.0,0.0,0.0,0.0,1.0,0.0,0.0,0.0,0.0,1.0],"mesh":3,"name":"board-frame"},{"matrix":[1.0,0.0,0.0,0.0,0.0,1.0,0.0,0.0,0.0,0.0,1.0,0.0,0.0,0.0,0.0,1.0],"mesh":4,"name":"white-rook-a1"},{"matrix":[1.0,0.0,0.0,0.0,0.0,1.0,0.0,0.0,0.0,0.0,1.0,0.0,0.0,0.0,0.0,1.0],"mesh":5,"name":"white-pawn-a2"},{"matrix":[1.0,0.0,0.0,0.0,0.0,1.0,0.0,0.0,0.0,0.0,1.0,0.0,0.0,0.0,0.0,1.0],"mesh":6,"name":"black-pawn-a6"},{"matrix":[1.0,0.0,0.0,0.0,0.0,1.0,0.0,0.0,0.0,0.0,1.0,0.0,0.0,0.0,0.0,1.0],"mesh":7,"name":"black-rook-a8"},{"matrix":[1.0,0.0,0.0,0.0,0.0,1.0,0.0,0.0,0.0,0.0,1.0,0.0,0.0,0.0,0.0,1.0],"mesh":8,"name":"white-knight-b1"},{"matrix":[1.0,0.0,0.0,0.0,0.0,1.0,0.0,0.0,0.0,0.0,1.0,0.0,0.0,0.0,0.0,1.0],"mesh":9,"name":"white-pawn-b2"},{"matrix":[1.0,0.0,0.0,0.0,0.0,1.0,0.0,0.0,0.0,0.0,1.0,0.0,0.0,0.0,0.0,1.0],"mesh":10,"name":"black-pawn-b7"},{"matrix":[1.0,0.0,0.0,0.0,0.0,1.0,0.0,0.0,0.0,0.0,1.0,0.0,0.0,0.0,0.0,1.0],"mesh":11,"name":"white-bishop-c1"},{"matrix":[1.0,0.0,0.0,0.0,0.0,1.0,0.0,0.0,0.0,0.0,1.0,0.0,0.0,0.0,0.0,1.0],"mesh":12,"name":"white-pawn-c2"},{"matrix":[1.0,0.0,0.0,0.0,0.0,1.0,0.0,0.0,0.0,0.0,1.0,0.0,0.0,0.0,0.0,1.0],"mesh":13,"name":"black-pawn-c6"},{"matrix":[1.0,0.0,0.0,0.0,0.0,1.0,0.0,0.0,0.0,0.0,1.0,0.0,0.0,0.0,0.0,1.0],"mesh":14,"name":"black-pawn-c7"},{"matrix":[1.0,0.0,0.0,0.0,0.0,1.0,0.0,0.0,0.0,0.0,1.0,0.0,0.0,0.0,0.0,1.0],"mesh":15,"name":"black-bishop-c8"},{"matrix":[1.0,0.0,0.0,0.0,0.0,1.0,0.0,0.0,0.0,0.0,1.0,0.0,0.0,0.0,0.0,1.0],"mesh":16,"name":"white-queen-d1"},{"matrix":[1.0,0.0,0.0,0.0,0.0,1.0,0.0,0.0,0.0,0.0,1.0,0.0,0.0,0.0,0.0,1.0],"mesh":17,"name":"white-pawn-d2"},{"matrix":[1.0,0.0,0.0,0.0,0.0,1.0,0.0,0.0,0.0,0.0,1.0,0.0,0.0,0.0,0.0,1.0],"mesh":18,"name":"black-queen-d8"},{"matrix":[1.0,0.0,0.0,0.0,0.0,1.0,0.0,0.0,0.0,0.0,1.0,0.0,0.0,0.0,0.0,1.0],"mesh":19,"name":"white-king-e1"},{"matrix":[1.0,0.0,0.0,0.0,0.0,1.0,0.0,0.0,0.0,0.0,1.0,0.0,0.0,0.0,0.0,1.0],"mesh":20,"name":"white-pawn-e4"},{"matrix":[1.0,0.0,0.0,0.0,0.0,1.0,0.0,0.0,0.0,0.0,1.0,0.0,0.0,0.0,0.0,1.0],"mesh":21,"name":"black-pawn-e5"},{"matrix":[1.0,0.0,0.0,0.0,0.0,1.0,0.0,0.0,0.0,0.0,1.0,0.0,0.0,0.0,0.0,1.0],"mesh":22,"name":"black-king-e8"},{"matrix":[1.0,0.0,0.0,0.0,0.0,1.0,0.0,0.0,0.0,0.0,1.0,0.0,0.0,0.0,0.0,1.0],"mesh":23,"name":"white-pawn-f2"},{"matrix":[1.0,0.0,0.0,0.0,0.0,1.0,0.0,0.0,0.0,0.0,1.0,0.0,0.0,0.0,0.0,1.0],"mesh":24,"name":"white-knight-f3"},{"matrix":[1.0,0.0,0.0,0.0,0.0,1.0,0.0,0.0,0.0,0.0,1.0,0.0,0.0,0.0,0.0,1.0],"mesh":25,"name":"black-pawn-f7"},{"matrix":[1.0,0.0,0.0,0.0,0.0,1.0,0.0,0.0,0.0,0.0,1.0,0.0,0.0,0.0,0.0,1.0],"mesh":26,"name":"black-bishop-f8"},{"matrix":[1.0,0.0,0.0,0.0,0.0,1.0,0.0,0.0,0.0,0.0,1.0,0.0,0.0,0.0,0.0,1.0],"mesh":27,"name":"white-pawn-g2"},{"matrix":[1.0,0.0,0.0,0.0,0.0,1.0,0.0,0.0,0.0,0.0,1.0,0.0,0.0,0.0,0.0,1.0],"mesh":28,"name":"black-pawn-g7"},{"matrix":[1.0,0.0,0.0,0.0,0.0,1.0,0.0,0.0,0.0,0.0,1.0,0.0,0.0,0.0,0.0,1.0],"mesh":29,"name":"black-knight-g8"},{"matrix":[1.0,0.0,0.0,0.0,0.0,1.0,0.0,0.0,0.0,0.0,1.0,0.0,0.0,0.0,0.0,1.0],"mesh":30,"name":"white-rook-h1"},{"matrix":[1.0,0.0,0.0,0.0,0.0,1.0,0.0,0.0,0.0,0.0,1.0,0.0,0.0,0.0,0.0,1.0],"mesh":31,"name":"white-pawn-h2"},{"matrix":[1.0,0.0,0.0,0.0,0.0,1.0,0.0,0.0,0.0,0.0,1.0,0.0,0.0,0.0,0.0,1.0],"mesh":32,"name":"black-pawn-h7"},{"matrix":[1.0,0.0,0.0,0.0,0.0,1.0,0.0,0.0,0.0,0.0,1.0,0.0,0.0,0.0,0.0,1.0],"mesh":33,"name":"black-rook-h8"},{"matrix":[1.0,0.0,0.0,0.0,0.0,1.0,0.0,0.0,0.0,0.0,1.0,0.0,0.0,0.0,0.0,1.0],"mesh":34,"name":"captured-black-knight"},{"matrix":[1.0,0.0,0.0,0.0,0.0,1.0,0.0,0.0,0.0,0.0,1.0,0.0,0.0,0.0,0.0,1.0],"mesh":35,"name":"captured-white-bishop"},{"matrix":[1.0,0.0,0.0,0.0,0.0,1.0,0.0,0.0,0.0,0.0,1.0,0.0,0.0,0.0,0.0,1.0],"mesh":36,"name":"clock-case"},{"matrix":[1.0,0.0,0.0,0.0,0.0,1.0,0.0,0.0,0.0,0.0,1.0,0.0,0.0,0.0,0.0,1.0],"mesh":37,"name":"clock-dial-1"},{"matrix":[1.0,0.0,0.0,0.0,0.0,1.0,0.0,0.0,0.0,0.0,1.0,0.0,0.0,0.0,0.0,1.0],"mesh":38,"name":"clock-button-1"},{"matrix":[1.0,0.0,0.0,0.0,0.0,1.0,0.0,0.0,0.0,0.0,1.0,0.0,0.0,0.0,0.0,1.0],"mesh":39,"name":"clock-dial-2"},{"matrix":[1.0,0.0,0.0,0.0,0.0,1.0,0.0,0.0,0.0,0.0,1.0,0.0,0.0,0.0,0.0,1.0],"mesh":40,"name":"clock-button-2"}],"scene":0,"scenes":[{"nodes":[0,1,2,3,4,5,6,7,8,9,10,11,12,13,14,15,16,17,18,19,20,21,22,23,24,25,26,27,28,29,30,31,32,33,34,35,36,37,38,39,40]}]}