{"accessors":[{"bufferView":0,"componentType":5126,"count":24,"max":[0.800000011920929,0.0,0.550000011920929],"min":[-0.800000011920929,-0.05000000074505806,-0.550000011920929],"type":"VEC3"},{"bufferView":1,"componentType":5126,"count":24,"type":"VEC3"},{"bufferView":2,"componentType":5123,"count":36,"type":"SCALAR"},{"bufferView":3,"componentType":5126,"count":80,"max":[0.2720000147819519,0.02500000037252903,0.2720000147819519],"min":[-0.2720000147819519,0.0,-0.2720000147819519],"type":"VEC3"},{"bufferView":4,"componentType":5126,"count":80,"type":"VEC3"},{"bufferView":5,"componentType":5123,"count":144,"type":"SCALAR"},{"bufferView":6,"componentType":5126,"count":670,"max":[0.23999999463558197,0.02199999988079071,0.23999999463558197],"min":[-0.23999999463558197,0.0,-0.23999999463558197],"type":"VEC3"},{"bufferView":7,"componentType":5126,"count":670,"type":"VEC3"},{"bufferView":8,"componentType":5123,"count":1152,"type":"SCALAR"},{"bufferView":9,"componentType":5126,"count":670,"max":[0.23999999463558197,0.02199999988079071,0.23999999463558197],"min":[-0.23999999463558197,0.0,-0.23999999463558197],"type":"VEC3"},{"bufferView":10,"componentType":5126,"count":670,"type":"VEC3"},{"bufferView":11,"componentType":5123,"count":1152,"type":"SCALAR"},{"bufferView":12,"componentType":5126,"count":754,"max":[0.1728000044822693,0.11559999734163284,0.23280000686645508],"min":[0.12720000743865967,0.02199999988079071,0.1871999949216843],"type":"VEC3"},{"bufferView":13,"componentType":5126,"count":754,"type":"VEC3"},{"bufferView":14,"componentType":5123,"count":2568,"type":"SCALAR"},{"bufferView":15,"componentType":5126,"count":1153,"max":[0.052799999713897705,0.10419999808073044,0.1728000044822693],"min":[0.007199999876320362,0.02199999988079071,0.12720000743865967],"type":"VEC3"},{"bufferView":16,"componentType":5126,"count":1153,"type":"VEC3"},{"bufferView":17,"componentType":5123,"count":4224,"type":"SCALAR"},{"bufferView":18,"componentType":5126,"count":674,"max":[-0.1871999949216843,0.0820000022649765,0.23280000686645508],"min":[-0.23280000686645508,0.02199999988079071,0.1871999949216843],"type":"VEC3"},{"bufferView":19,"componentType":5126,"count":674,"type":"VEC3"},{"bufferView":20,"componentType":5123,"count":2304,"type":"SCALAR"},{"bufferView":21,"componentType":5126,"count":674,"max":[0.1128000020980835,0.0820000022649765,0.23280000686645508],"min":[0.06719999760389328,0.02199999988079071,0.1871999949216843],"type":"VEC3"},{"bufferView":22,"componentType":5126,"count":674,"type":"VEC3"},{"bufferView":23,"componentType":5123,"count":2304,"type":"SCALAR"},{"bufferView":24,"componentType":5126,"count":1281,"max":[-0.06719999760389328,0.09939999878406525,0.052799999713897705],"min":[-0.1128000020980835,0.02199999988079071,0.007199999876320362],"type":"VEC3"},{"bufferView":25,"componentType":5126,"count":1281,"type":"VEC3"},{"bufferView":26,"componentType":5123,"count":5376,"type":"SCALAR"},{"bufferView":27,"componentType":5126,"count":534,"max":[0.1128000020980835,0.09279999881982803,0.1128000020980835],"min":[0.06719999760389328,0.02199999988079071,0.06599999964237213],"type":"VEC3"},{"bufferView":28,"componentType":5126,"count":534,"type":"VEC3"},{"bufferView":29,"componentType":5123,"count":1692,"type":"SCALAR"},{"bufferView":30,"componentType":5126,"count":1025,"max":[-0.1871999949216843,0.07720000296831131,0.1728000044822693],"min":[-0.23280000686645508,0.02199999988079071,0.12720000743865967],"type":"VEC3"},{"bufferView":31,"componentType":5126,"count":1025,"type":"VEC3"},{"bufferView":32,"componentType":5123,"count":4032,"type":"SCALAR"},{"bufferView":33,"componentType":5126,"count":1025,"max":[-0.12720000743865967,0.07720000296831131,0.1728000044822693],"min":[-0.1728000044822693,0.02199999988079071,0.12720000743865967],"type":"VEC3"},{"bufferView":34,"componentType":5126,"count":1025,"type":"VEC3"},{"bufferView":35,"componentType":5123,"count":4032,"type":"SCALAR"},{"bufferView":36,"componentType":5126,"count":1025,"max":[-0.06719999760389328,0.07720000296831131,0.1128000020980835],"min":[-0.1128000020980835,0.02199999988079071,0.06719999760389328],"type":"VEC3"},{"bufferView":37,"componentType":5126,"count":1025,"type":"VEC3"},{"bufferView":38,"componentType":5123,"count":4032,"type":"SCALAR"},{"bufferView":39,"componentType":5126,"count":1025,"max":[-0.007199999876320362,0.07720000296831131,0.052799999713897705],"min":[-0.052799999713897705,0.02199999988079071,0.007199999876320362],"type":"VEC3"},{"bufferView":40,"componentType":5126,"count":1025,"type":"VEC3"},{"bufferView":41,"componentType":5123,"count":4032,"type":"SCALAR"},{"bufferView":42,"componentType":5126,"count":1025,"max":[0.1128000020980835,0.07720000296831131,0.1728000044822693],"min":[0.06719999760389328,0.02199999988079071,0.12720000743865967],"type":"VEC3"},{"bufferView":43,"componentType":5126,"count":1025,"type":"VEC3"},{"bufferView":44,"componentType":5123,"count":4032,"type":"SCALAR"},{"bufferView":45,"componentType":5126,"count":1025,"max":[0.1728000044822693,0.07720000296831131,0.1728000044822693],"min":[0.12720000743865967,0.02199999988079071,0.12720000743865967],"type":"VEC3"},{"bufferView":46,"componentType":5126,"count":1025,"type":"VEC3"},{"bufferView":47,"componentType":5123,"count":4032,"type":"SCALAR"},{"bufferView":48,"componentType":5126,"count":1025,"max":[0.23280000686645508,0.07720000296831131,0.1128000020980835],"min":[0.1871999949216843,0.02199999988079071,0.06719999760389328],"type":"VEC3"},{"bufferView":49,"componentType":5126,"count":1025,"type":"VEC3"},{"bufferView":50,"componentType":5123,"count":4032,"type":"SCALAR"},{"bufferView":51,"componentType":5126,"count":774,"max":[0.1728000044822693,0.11559999734163284,-0.1871999949216843],"min":[0.12720000743865967,0.02199999988079071,-0.23280000686645508],"type":"VEC3"},{"bufferView":52,"componentType":5126,"count":774,"type":"VEC3"},{"bufferView":53,"componentType":5123,"count":2568,"type":"SCALAR"},{"bufferView":54,"componentType":5126,"count":1183,"max":[-0.007199999876320362,0.10419999808073044,-0.1871999949216843],"min":[-0.052799999713897705,0.02199999988079071,-0.23280000686645508],"type":"VEC3"},{"bufferView":55,"componentType":5126,"count":1183,"type":"VEC3"},{"bufferView":56,"componentType":5123,"count":4224,"type":"SCALAR"},{"bufferView":57,"componentType":5126,"count":689,"max":[-0.1871999949216843,0.0820000022649765,-0.1871999949216843],"min":[-0.23280000686645508,0.02199999988079071,-0.23280000686645508],"type":"VEC3"},{"bufferView":58,"componentType":5126,"count":689,"type":"VEC3"},{"bufferView":59,"componentType":5123,"count":2304,"type":"SCALAR"},{"bufferView":60,"componentType":5126,"count":689,"max":[0.1128000020980835,0.0820000022649765,-0.1871999949216843],"min":[0.06719999760389328,0.02199999988079071,-0.23280000686645508],"type":"VEC3"},{"bufferView":61,"componentType":5126,"count":689,"type":"VEC3"},{"bufferView":62,"componentType":5123,"count":2304,"type":"SCALAR"},{"bufferView":63,"componentType":5126,"count":1317,"max":[0.052799999713897705,0.09939999878406525,-0.12720000743865967],"min":[0.007199999876320362,0.02199999988079071,-0.1728000044822693],"type":"VEC3"},{"bufferView":64,"componentType":5126,"count":1317,"type":"VEC3"},{"bufferView":65,"componentType":5123,"count":5376,"type":"SCALAR"},{"bufferView":66,"componentType":5126,"count":546,"max":[0.1128000020980835,0.09279999881982803,-0.06599999964237213],"min":[0.06719999760389328,0.02199999988079071,-0.1128000020980835],"type":"VEC3"},{"bufferView":67,"componentType":5126,"count":546,"type":"VEC3"},{"bufferView":68,"componentType":5123,"count":1692,"type":"SCALAR"},{"bufferView":69,"componentType":5126,"count":546,"max":[-0.06719999760389328,0.09279999881982803,-0.06599999964237213],"min":[-0.1128000020980835,0.02199999988079071,-0.1128000020980835],"type":"VEC3"},{"bufferView":70,"componentType":5126,"count":546,"type":"VEC3"},{"bufferView":71,"componentType":5123,"count":1692,"type":"SCALAR"},{"bufferView":72,"componentType":5126,"count":1053,"max":[-0.1871999949216843,0.07720000296831131,-0.06719999760389328],"min":[-0.23280000686645508,0.02199999988079071,-0.1128000020980835],"type":"VEC3"},{"bufferView":73,"componentType":5126,"count":1053,"type":"VEC3"},{"bufferView":74,"componentType":5123,"count":4032,"type":"SCALAR"},{"bufferView":75,"componentType":5126,"count":1053,"max":[-0.12720000743865967,0.07720000296831131,-0.12720000743865967],"min":[-0.1728000044822693,0.02199999988079071,-0.1728000044822693],"type":"VEC3"},{"bufferView":76,"componentType":5126,"count":1053,"type":"VEC3"},{"bufferView":77,"componentType":5123,"count":4032,"type":"SCALAR"},{"bufferView":78,"componentType":5126,"count":1053,"max":[-0.06719999760389328,0.07720000296831131,-0.12720000743865967],"min":[-0.1128000020980835,0.02199999988079071,-0.1728000044822693],"type":"VEC3"},{"bufferView":79,"componentType":5126,"count":1053,"type":"VEC3"},{"bufferView":80,"componentType":5123,"count":4032,"type":"SCALAR"},{"bufferView":81,"componentType":5126,"count":1053,"max":[-0.007199999876320362,0.07720000296831131,-0.007199999876320362],"min":[-0.052799999713897705,0.02199999988079071,-0.052799999713897705],"type":"VEC3"},{"bufferView":82,"componentType":5126,"count":1053,"type":"VEC3"},{"bufferView":83,"componentType":5123,"count":4032,"type":"SCALAR"},{"bufferView":84,"componentType":5126,"count":1053,"max":[0.1128000020980835,0.07720000296831131,-0.12720000743865967],"min":[0.06719999760389328,0.02199999988079071,-0.1728000044822693],"type":"VEC3"},{"bufferView":85,"componentType":5126,"count":1053,"type":"VEC3"},{"bufferView":86,"componentType":5123,"count":4032,"type":"SCALAR"},{"bufferView":87,"componentType":5126,"count":1053,"max":[0.1728000044822693,0.07720000296831131,-0.12720000743865967],"min":[0.12720000743865967,0.02199999988079071,-0.1728000044822693],"type":"VEC3"},{"bufferView":88,"componentType":5126,"count":1053,"type":"VEC3"},{"bufferView":89,"componentType":5123,"count":4032,"type":"SCALAR"},{"bufferView":90,"componentType":5126,"count":1053,"max":[0.23280000686645508,0.07720000296831131,-0.12720000743865967],"min":[0.1871999949216843,0.02199999988079071,-0.1728000044822693],"type":"VEC3"},{"bufferView":91,"componentType":5126,"count":1053,"type":"VEC3"},{"bufferView":92,"componentType":5123,"count":4032,"type":"SCALAR"},{"bufferView":93,"componentType":5126,"count":534,"max":[0.3828000128269195,0.07079999893903732,0.1456100046634674],"min":[0.33719998598098755,0.0,0.09719999879598618],"type":"VEC3"},{"bufferView":94,"componentType":5126,"count":534,"type":"VEC3"},{"bufferView":95,"componentType":5123,"count":1692,"type":"SCALAR"},{"bufferView":96,"componentType":5126,"count":1287,"max":[-0.30849000811576843,0.04560000076889992,-0.05039000138640404],"min":[-0.3841699957847595,0.0,-0.11785999685525894],"type":"VEC3"},{"bufferView":97,"componentType":5126,"count":1287,"type":"VEC3"},{"bufferView":98,"componentType":5123,"count":5376,"type":"SCALAR"},{"bufferView":99,"componentType":5126,"count":1053,"max":[-0.39719998836517334,0.0551999993622303,0.10279999673366548],"min":[-0.44279998540878296,0.0,0.05719999969005585],"type":"VEC3"},{"bufferView":100,"componentType":5126,"count":1053,"type":"VEC3"},{"bufferView":101,"componentType":5123,"count":4032,"type":"SCALAR"},{"bufferView":102,"componentType":5126,"count":24,"max":[0.5299999713897705,0.08500000089406967,-0.1899999976158142],"min":[0.33000001311302185,0.0,-0.25999999046325684],"type":"VEC3"},{"bufferView":103,"componentType":5126,"count":24,"type":"VEC3"},{"bufferView":104,"componentType":5123,"count":36,"type":"SCALAR"},{"bufferView":105,"componentType":5126,"count":216,"max":[0.5149999856948853,0.09700000286102296,-0.18799999356269836],"min":[0.3449999988079071,0.017999999225139618,-0.2370000034570694],"type":"VEC3"},{"bufferView":106,"componentType":5126,"count":216,"type":"VEC3"},{"bufferView":107,"componentType":5123,"count":552,"type":"SCALAR"}],"asset":{"generator":"web-geometry-compiler 0.8.0 (obj-ufbx-0.11.3-gltf-7)","version":"2.0"},"bufferViews":[{"buffer":0,"byteLength":288,"byteOffset":0,"target":34962},{"buffer":0,"byteLength":288,"byteOffset":288,"target":34962},{"buffer":0,"byteLength":72,"byteOffset":576,"target":34963},{"buffer":0,"byteLength":960,"byteOffset":648,"target":34962},{"buffer":0,"byteLength":960,"byteOffset":1608,"target":34962},{"buffer":0,"byteLength":288,"byteOffset":2568,"target":34963},{"buffer":0,"byteLength":8040,"byteOffset":2856,"target":34962},{"buffer":0,"byteLength":8040,"byteOffset":10896,"target":34962},{"buffer":0,"byteLength":2304,"byteOffset":18936,"target":34963},{"buffer":0,"byteLength":8040,"byteOffset":21240,"target":34962},{"buffer":0,"byteLength":8040,"byteOffset":29280,"target":34962},{"buffer":0,"byteLength":2304,"byteOffset":37320,"target":34963},{"buffer":0,"byteLength":9048,"byteOffset":39624,"target":34962},{"buffer":0,"byteLength":9048,"byteOffset":48672,"target":34962},{"buffer":0,"byteLength":5136,"byteOffset":57720,"target":34963},{"buffer":0,"byteLength":13836,"byteOffset":62856,"target":34962},{"buffer":0,"byteLength":13836,"byteOffset":76692,"target":34962},{"buffer":0,"byteLength":8448,"byteOffset":90528,"target":34963},{"buffer":0,"byteLength":8088,"byteOffset":98976,"target":34962},{"buffer":0,"byteLength":8088,"byteOffset":107064,"target":34962},{"buffer":0,"byteLength":4608,"byteOffset":115152,"target":34963},{"buffer":0,"byteLength":8088,"byteOffset":119760,"target":34962},{"buffer":0,"byteLength":8088,"byteOffset":127848,"target":34962},{"buffer":0,"byteLength":4608,"byteOffset":135936,"target":34963},{"buffer":0,"byteLength":15372,"byteOffset":140544,"target":34962},{"buffer":0,"byteLength":15372,"byteOffset":155916,"target":34962},{"buffer":0,"byteLength":10752,"byteOffset":171288,"target":34963},{"buffer":0,"byteLength":6408,"byteOffset":182040,"target":34962},{"buffer":0,"byteLength":6408,"byteOffset":188448,"target":34962},{"buffer":0,"byteLength":3384,"byteOffset":194856,"target":34963},{"buffer":0,"byteLength":12300,"byteOffset":198240,"target":34962},{"buffer":0,"byteLength":12300,"byteOffset":210540,"target":34962},{"buffer":0,"byteLength":8064,"byteOffset":222840,"target":34963},{"buffer":0,"byteLength":12300,"byteOffset":230904,"target":34962},{"buffer":0,"byteLength":12300,"byteOffset":243204,"target":34962},{"buffer":0,"byteLength":8064,"byteOffset":255504,"target":34963},{"buffer":0,"byteLength":12300,"byteOffset":263568,"target":34962},{"buffer":0,"byteLength":12300,"byteOffset":275868,"target":34962},{"buffer":0,"byteLength":8064,"byteOffset":288168,"target":34963},{"buffer":0,"byteLength":12300,"byteOffset":296232,"target":34962},{"buffer":0,"byteLength":12300,"byteOffset":308532,"target":34962},{"buffer":0,"byteLength":8064,"byteOffset":320832,"target":34963},{"buffer":0,"byteLength":12300,"byteOffset":328896,"target":34962},{"buffer":0,"byteLength":12300,"byteOffset":341196,"target":34962},{"buffer":0,"byteLength":8064,"byteOffset":353496,"target":34963},{"buffer":0,"byteLength":12300,"byteOffset":361560,"target":34962},{"buffer":0,"byteLength":12300,"byteOffset":373860,"target":34962},{"buffer":0,"byteLength":8064,"byteOffset":386160,"target":34963},{"buffer":0,"byteLength":12300,"byteOffset":394224,"target":34962},{"buffer":0,"byteLength":12300,"byteOffset":406524,"target":34962},{"buffer":0,"byteLength":8064,"byteOffset":418824,"target":34963},{"buffer":0,"byteLength":9288,"byteOffset":426888,"target":34962},{"buffer":0,"byteLength":9288,"byteOffset":436176,"target":34962},{"buffer":0,"byteLength":5136,"byteOffset":445464,"target":34963},{"buffer":0,"byteLength":14196,"byteOffset":450600,"target":34962},{"buffer":0,"byteLength":14196,"byteOffset":464796,"target":34962},{"buffer":0,"byteLength":8448,"byteOffset":478992,"target":34963},{"buffer":0,"byteLength":8268,"byteOffset":487440,"target":34962},{"buffer":0,"byteLength":8268,"byteOffset":495708,"target":34962},{"buffer":0,"byteLength":4608,"byteOffset":503976,"target":34963},{"buffer":0,"byteLength":8268,"byteOffset":508584,"target":34962},{"buffer":0,"byteLength":8268,"byteOffset":516852,"target":34962},{"buffer":0,"byteLength":4608,"byteOffset":525120,"target":34963},{"buffer":0,"byteLength":15804,"byteOffset":529728,"target":34962},{"buffer":0,"byteLength":15804,"byteOffset":545532,"target":34962},{"buffer":0,"byteLength":10752,"byteOffset":561336,"target":34963},{"buffer":0,"byteLength":6552,"byteOffset":572088,"target":34962},{"buffer":0,"byteLength":6552,"byteOffset":578640,"target":34962},{"buffer":0,"byteLength":3384,"byteOffset":585192,"target":34963},{"buffer":0,"byteLength":6552,"byteOffset":588576,"target":34962},{"buffer":0,"byteLength":6552,"byteOffset":595128,"target":34962},{"buffer":0,"byteLength":3384,"byteOffset":601680,"target":34963},{"buffer":0,"byteLength":12636,"byteOffset":605064,"target":34962},{"buffer":0,"byteLength":12636,"byteOffset":617700,"target":34962},{"buffer":0,"byteLength":8064,"byteOffset":630336,"target":34963},{"buffer":0,"byteLength":12636,"byteOffset":638400,"target":34962},{"buffer":0,"byteLength":12636,"byteOffset":651036,"target":34962},{"buffer":0,"byteLength":8064,"byteOffset":663672,"target":34963},{"buffer":0,"byteLength":12636,"byteOffset":671736,"target":34962},{"buffer":0,"byteLength":12636,"byteOffset":684372,"target":34962},{"buffer":0,"byteLength":8064,"byteOffset":697008,"target":34963},{"buffer":0,"byteLength":12636,"byteOffset":705072,"target":34962},{"buffer":0,"byteLength":12636,"byteOffset":717708,"target":34962},{"buffer":0,"byteLength":8064,"byteOffset":730344,"target":34963},{"buffer":0,"byteLength":12636,"byteOffset":738408,"target":34962},{"buffer":0,"byteLength":12636,"byteOffset":751044,"target":34962},{"buffer":0,"byteLength":8064,"byteOffset":763680,"target":34963},{"buffer":0,"byteLength":12636,"byteOffset":771744,"target":34962},{"buffer":0,"byteLength":12636,"byteOffset":784380,"target":34962},{"buffer":0,"byteLength":8064,"byteOffset":797016,"target":34963},{"buffer":0,"byteLength":12636,"byteOffset":805080,"target":34962},{"buffer":0,"byteLength":12636,"byteOffset":817716,"target":34962},{"buffer":0,"byteLength":8064,"byteOffset":830352,"target":34963},{"buffer":0,"byteLength":6408,"byteOffset":838416,"target":34962},{"buffer":0,"byteLength":6408,"byteOffset":844824,"target":34962},{"buffer":0,"byteLength":3384,"byteOffset":851232,"target":34963},{"buffer":0,"byteLength":15444,"byteOffset":854616,"target":34962},{"buffer":0,"byteLength":15444,"byteOffset":870060,"target":34962},{"buffer":0,"byteLength":10752,"byteOffset":885504,"target":34963},{"buffer":0,"byteLength":12636,"byteOffset":896256,"target":34962},{"buffer":0,"byteLength":12636,"byteOffset":908892,"target":34962},{"buffer":0,"byteLength":8064,"byteOffset":921528,"target":34963},{"buffer":0,"byteLength":288,"byteOffset":929592,"target":34962},{"buffer":0,"byteLength":288,"byteOffset":929880,"target":34962},{"buffer":0,"byteLength":72,"byteOffset":930168,"target":34963},{"buffer":0,"byteLength":2592,"byteOffset":930240,"target":34962},{"buffer":0,"byteLength":2592,"byteOffset":932832,"target":34962},{"buffer":0,"byteLength":1104,"byteOffset":935424,"target":34963}],"buffers":[{"byteLength":936528,"uri":"source.bin"}],"materials":[{"emissiveFactor":[0.0,0.0,0.0],"name":"oak","pbrMetallicRoughness":{"baseColorFactor":[0.42,0.27,0.15,1.0],"metallicFactor":0.0,"roughnessFactor":0.699999988079071}},{"emissiveFactor":[0.0,0.0,0.0],"name":"frame","pbrMetallicRoughness":{"baseColorFactor":[0.16,0.08,0.04,1.0],"metallicFactor":0.0,"roughnessFactor":0.44999998807907104}},{"emissiveFactor":[0.0,0.0,0.0],"name":"darkSquare","pbrMetallicRoughness":{"baseColorFactor":[0.3,0.16,0.08,1.0],"metallicFactor":0.0,"roughnessFactor":0.550000011920929}},{"emissiveFactor":[0.0,0.0,0.0],"name":"lightSquare","pbrMetallicRoughness":{"baseColorFactor":[0.78,0.62,0.42,1.0],"metallicFactor":0.0,"roughnessFactor":0.550000011920929}},{"emissiveFactor":[0.0,0.0,0.0],"name":"ivory","pbrMetallicRoughness":{"baseColorFactor":[0.86,0.8,0.68,1.0],"metallicFactor":0.0,"roughnessFactor":0.30000001192092896}},{"emissiveFactor":[0.0,0.0,0.0],"name":"ebony","pbrMetallicRoughness":{"baseColorFactor":[0.05,0.04,0.035,1.0],"metallicFactor":0.0,"roughnessFactor":0.25}},{"emissiveFactor":[0.0,0.0,0.0],"name":"clockFace","pbrMetallicRoughness":{"baseColorFactor":[0.9,0.88,0.8,1.0],"metallicFactor":0.0,"roughnessFactor":0.4000000059604645}}],"meshes":[{"name":"table","primitives":[{"attributes":{"NORMAL":1,"POSITION":0},"indices":2,"material":0,"mode":4}]},{"name":"board","primitives":[{"attributes":{"NORMAL":4,"POSITION":3},"indices":5,"material":1,"mode":4},{"attributes":{"NORMAL":7,"POSITION":6},"indices":8,"material":2,"mode":4},{"attributes":{"NORMAL":10,"POSITION":9},"indices":11,"material":3,"mode":4}]},{"name":"white-king-g1","primitives":[{"attributes":{"NORMAL":13,"POSITION":12},"indices":14,"material":4,"mode":4}]},{"name":"white-queen-e2","primitives":[{"attributes":{"NORMAL":16,"POSITION":15},"indices":17,"material":4,"mode":4}]},{"name":"white-rook-a1","primitives":[{"attributes":{"NORMAL":19,"POSITION":18},"indices":20,"material":4,"mode":4}]},{"name":"white-rook-f1","primitives":[{"attributes":{"NORMAL":22,"POSITION":21},"indices":23,"material":4,"mode":4}]},{"name":"white-bishop-c4","primitives":[{"attributes":{"NORMAL":25,"POSITION":24},"indices":26,"material":4,"mode":4}]},{"name":"white-knight-f3","primitives":[{"attributes":{"NORMAL":28,"POSITION":27},"indices":29,"material":4,"mode":4}]},{"name":"white-pawn-a2","primitives":[{"attributes":{"NORMAL":31,"POSITION":30},"indices":32,"material":4,"mode":4}]},{"name":"white-pawn-b2","primitives":[{"attributes":{"NORMAL":34,"POSITION":33},"indices":35,"material":4,"mode":4}]},{"name":"white-pawn-c3","primitives":[{"attributes":{"NORMAL":37,"POSITION":36},"indices":38,"material":4,"mode":4}]},{"name":"white-pawn-d4","primitives":[{"attributes":{"NORMAL":40,"POSITION":39},"indices":41,"material":4,"mode":4}]},{"name":"white-pawn-f2","primitives":[{"attributes":{"NORMAL":43,"POSITION":42},"indices":44,"material":4,"mode":4}]},{"name":"white-pawn-g2","primitives":[{"attributes":{"NORMAL":46,"POSITION":45},"indices":47,"material":4,"mode":4}]},{"name":"white-pawn-h3","primitives":[{"attributes":{"NORMAL":49,"POSITION":48},"indices":50,"material":4,"mode":4}]},{"name":"black-king-g8","primitives":[{"attributes":{"NORMAL":52,"POSITION":51},"indices":53,"material":5,"mode":4}]},{"name":"black-queen-d8","primitives":[{"attributes":{"NORMAL":55,"POSITION":54},"indices":56,"material":5,"mode":4}]},{"name":"black-rook-a8","primitives":[{"attributes":{"NORMAL":58,"POSITION":57},"indices":59,"material":5,"mode":4}]},{"name":"black-rook-f8","primitives":[{"attributes":{"NORMAL":61,"POSITION":60},"indices":62,"material":5,"mode":4}]},{"name":"black-bishop-e7","primitives":[{"attributes":{"NORMAL":64,"POSITION":63},"indices":65,"material":5,"mode":4}]},{"name":"black-knight-f6","primitives":[{"attributes":{"NORMAL":67,"POSITION":66},"indices":68,"material":5,"mode":4}]},{"name":"black-knight-c6","primitives":[{"attributes":{"NORMAL":70,"POSITION":69},"indices":71,"material":5,"mode":4}]},{"name":"black-pawn-a6","primitives":[{"attributes":{"NORMAL":73,"POSITION":72},"indices":74,"material":5,"mode":4}]},{"name":"black-pawn-b7","primitives":[{"attributes":{"NORMAL":76,"POSITION":75},"indices":77,"material":5,"mode":4}]},{"name":"black-pawn-c7","primitives":[{"attributes":{"NORMAL":79,"POSITION":78},"indices":80,"material":5,"mode":4}]},{"name":"black-pawn-d5","primitives":[{"attributes":{"NORMAL":82,"POSITION":81},"indices":83,"material":5,"mode":4}]},{"name":"black-pawn-f7","primitives":[{"attributes":{"NORMAL":85,"POSITION":84},"indices":86,"material":5,"mode":4}]},{"name":"black-pawn-g7","primitives":[{"attributes":{"NORMAL":88,"POSITION":87},"indices":89,"material":5,"mode":4}]},{"name":"black-pawn-h7","primitives":[{"attributes":{"NORMAL":91,"POSITION":90},"indices":92,"material":5,"mode":4}]},{"name":"captured-black-knight","primitives":[{"attributes":{"NORMAL":94,"POSITION":93},"indices":95,"material":5,"mode":4}]},{"name":"captured-white-bishop","primitives":[{"attributes":{"NORMAL":97,"POSITION":96},"indices":98,"material":4,"mode":4}]},{"name":"captured-white-pawn","primitives":[{"attributes":{"NORMAL":100,"POSITION":99},"indices":101,"material":4,"mode":4}]},{"name":"clock","primitives":[{"attributes":{"NORMAL":103,"POSITION":102},"indices":104,"material":1,"mode":4},{"attributes":{"NORMAL":106,"POSITION":105},"indices":107,"material":6,"mode":4}]}],"nodes":[{"matrix":[1.0,0.0,0.0,0.0,0.0,1.0,0.0,0.0,0.0,0.0,1.0,0.0,0.0,0.0,0.0,1.0],"mesh":0,"name":"table"},{"matrix":[1.0,0.0,0.0,0.0,0.0,1.0,0.0,0.0,0.0,0.0,1.0,0.0,0.0,0.0,0.0,1.0],"mesh":1,"name":"board"},{"matrix":[1.0,0.0,0.0,0.0,0.0,1.0,0.0,0.0,0.0,0.0,1.0,0.0,0.0,0.0,0.0,1.0],"mesh":2,"name":"white-king-g1"},{"matrix":[1.0,0.0,0.0,0.0,0.0,1.0,0.0,0.0,0.0,0.0,1.0,0.0,0.0,0.0,0.0,1.0],"mesh":3,"name":"white-queen-e2"},{"matrix":[1.0,0.0,0.0,0.0,0.0,1.0,0.0,0.0,0.0,0.0,1.0,0.0,0.0,0.0,0.0,1.0],"mesh":4,"name":"white-rook-a1"},{"matrix":[1.0,0.0,0.0,0.0,0.0,1.0,0.0,0.0,0.0,0.0,1.0,0.0,0.0,0.0,0.0,1.0],"mesh":5,"name":"white-rook-f1"},{"matrix":[1.0,0.0,0.0,0.0,0.0,1.0,0.0,0.0,0.0,0.0,1.0,0.0,0.0,0.0,0.0,1.0],"mesh":6,"name":"white-bishop-c4"},{"matrix":[1.0,0.0,0.0,0.0,0.0,1.0,0.0,0.0,0.0,0.0,1.0,0.0,0.0,0.0,0.0,1.0],"mesh":7,"name":"white-knight-f3"},{"matrix":[1.0,0.0,0.0,0.0,0.0,1.0,0.0,0.0,0.0,0.0,1.0,0.0,0.0,0.0,0.0,1.0],"mesh":8,"name":"white-pawn-a2"},{"matrix":[1.0,0.0,0.0,0.0,0.0,1.0,0.0,0.0,0.0,0.0,1.0,0.0,0.0,0.0,0.0,1.0],"mesh":9,"name":"white-pawn-b2"},{"matrix":[1.0,0.0,0.0,0.0,0.0,1.0,0.0,0.0,0.0,0.0,1.0,0.0,0.0,0.0,0.0,1.0],"mesh":10,"name":"white-pawn-c3"},{"matrix":[1.0,0.0,0.0,0.0,0.0,1.0,0.0,0.0,0.0,0.0,1.0,0.0,0.0,0.0,0.0,1.0],"mesh":11,"name":"white-pawn-d4"},{"matrix":[1.0,0.0,0.0,0.0,0.0,1.0,0.0,0.0,0.0,0.0,1.0,0.0,0.0,0.0,0.0,1.0],"mesh":12,"name":"white-pawn-f2"},{"matrix":[1.0,0.0,0.0,0.0,0.0,1.0,0.0,0.0,0.0,0.0,1.0,0.0,0.0,0.0,0.0,1.0],"mesh":13,"name":"white-pawn-g2"},{"matrix":[1.0,0.0,0.0,0.0,0.0,1.0,0.0,0.0,0.0,0.0,1.0,0.0,0.0,0.0,0.0,1.0],"mesh":14,"name":"white-pawn-h3"},{"matrix":[1.0,0.0,0.0,0.0,0.0,1.0,0.0,0.0,0.0,0.0,1.0,0.0,0.0,0.0,0.0,1.0],"mesh":15,"name":"black-king-g8"},{"matrix":[1.0,0.0,0.0,0.0,0.0,1.0,0.0,0.0,0.0,0.0,1.0,0.0,0.0,0.0,0.0,1.0],"mesh":16,"name":"black-queen-d8"},{"matrix":[1.0,0.0,0.0,0.0,0.0,1.0,0.0,0.0,0.0,0.0,1.0,0.0,0.0,0.0,0.0,1.0],"mesh":17,"name":"black-rook-a8"},{"matrix":[1.0,0.0,0.0,0.0,0.0,1.0,0.0,0.0,0.0,0.0,1.0,0.0,0.0,0.0,0.0,1.0],"mesh":18,"name":"black-rook-f8"},{"matrix":[1.0,0.0,0.0,0.0,0.0,1.0,0.0,0.0,0.0,0.0,1.0,0.0,0.0,0.0,0.0,1.0],"mesh":19,"name":"black-bishop-e7"},{"matrix":[1.0,0.0,0.0,0.0,0.0,1.0,0.0,0.0,0.0,0.0,1.0,0.0,0.0,0.0,0.0,1.0],"mesh":20,"name":"black-knight-f6"},{"matrix":[1.0,0.0,0.0,0.0,0.0,1.0,0.0,0.0,0.0,0.0,1.0,0.0,0.0,0.0,0.0,1.0],"mesh":21,"name":"black-knight-c6"},{"matrix":[1.0,0.0,0.0,0.0,0.0,1.0,0.0,0.0,0.0,0.0,1.0,0.0,0.0,0.0,0.0,1.0],"mesh":22,"name":"black-pawn-a6"},{"matrix":[1.0,0.0,0.0,0.0,0.0,1.0,0.0,0.0,0.0,0.0,1.0,0.0,0.0,0.0,0.0,1.0],"mesh":23,"name":"black-pawn-b7"},{"matrix":[1.0,0.0,0.0,0.0,0.0,1.0,0.0,0.0,0.0,0.0,1.0,0.0,0.0,0.0,0.0,1.0],"mesh":24,"name":"black-pawn-c7"},{"matrix":[1.0,0.0,0.0,0.0,0.0,1.0,0.0,0.0,0.0,0.0,1.0,0.0,0.0,0.0,0.0,1.0],"mesh":25,"name":"black-pawn-d5"},{"matrix":[1.0,0.0,0.0,0.0,0.0,1.0,0.0,0.0,0.0,0.0,1.0,0.0,0.0,0.0,0.0,1.0],"mesh":26,"name":"black-pawn-f7"},{"matrix":[1.0,0.0,0.0,0.0,0.0,1.0,0.0,0.0,0.0,0.0,1.0,0.0,0.0,0.0,0.0,1.0],"mesh":27,"name":"black-pawn-g7"},{"matrix":[1.0,0.0,0.0,0.0,0.0,1.0,0.0,0.0,0.0,0.0,1.0,0.0,0.0,0.0,0.0,1.0],"mesh":28,"name":"black-pawn-h7"},{"matrix":[1.0,0.0,0.0,0.0,0.0,1.0,0.0,0.0,0.0,0.0,1.0,0.0,0.0,0.0,0.0,1.0],"mesh":29,"name":"captured-black-knight"},{"matrix":[1.0,0.0,0.0,0.0,0.0,1.0,0.0,0.0,0.0,0.0,1.0,0.0,0.0,0.0,0.0,1.0],"mesh":30,"name":"captured-white-bishop"},{"matrix":[1.0,0.0,0.0,0.0,0.0,1.0,0.0,0.0,0.0,0.0,1.0,0.0,0.0,0.0,0.0,1.0],"mesh":31,"name":"captured-white-pawn"},{"matrix":[1.0,0.0,0.0,0.0,0.0,1.0,0.0,0.0,0.0,0.0,1.0,0.0,0.0,0.0,0.0,1.0],"mesh":32,"name":"clock"}],"scene":0,"scenes":[{"nodes":[0,1,2,3,4,5,6,7,8,9,10,11,12,13,14,15,16,17,18,19,20,21,22,23,24,25,26,27,28,29,30,31,32]}]}