{"asset":{"generator":"Khronos glTF Blender I/O v1.6.16","version":"2.0"},"scene":0,"scenes":[{"name":"Scene","nodes":[0,1]}],"nodes":[{"mesh":0,"name":"marble_bust_01","translation":[0,0.028335653245449066,0]},{"name":"Pedestal and niche","mesh":1}],"materials":[{"doubleSided":true,"name":"marble_bust_01","normalTexture":{"index":0},"pbrMetallicRoughness":{"baseColorTexture":{"index":1},"metallicFactor":0,"metallicRoughnessTexture":{"index":2}}},{"name":"Plaster niche","doubleSided":true,"pbrMetallicRoughness":{"baseColorFactor":[0.6,0.56,0.5,1],"metallicFactor":0,"roughnessFactor":0.85}},{"name":"Dark stone pedestal","doubleSided":true,"pbrMetallicRoughness":{"baseColorFactor":[0.16,0.15,0.15,1],"metallicFactor":0,"roughnessFactor":0.5}}],"meshes":[{"name":"marble_bust_01","primitives":[{"attributes":{"POSITION":0,"NORMAL":1,"TEXCOORD_0":2},"indices":3,"material":0}]},{"name":"Pedestal and niche","primitives":[{"material":1,"attributes":{"POSITION":4,"NORMAL":5},"indices":6},{"material":2,"attributes":{"POSITION":7,"NORMAL":8},"indices":9}]}],"textures":[{"sampler":0,"source":0},{"sampler":0,"source":1},{"sampler":0,"source":2}],"images":[{"mimeType":"image/jpeg","name":"marble_bust_01_nor_gl","uri":"textures/marble_bust_01_nor_gl_1k.jpg"},{"mimeType":"image/jpeg","name":"marble_bust_01_diff","uri":"textures/marble_bust_01_diff_1k.jpg"},{"mimeType":"image/jpeg","name":"marble_bust_01_arm","uri":"textures/marble_bust_01_rough_1k.jpg"}],"accessors":[{"bufferView":0,"componentType":5126,"count":9746,"max":[0.14886942505836487,0.48668384552001953,0.1551172435283661],"min":[-0.12288019061088562,-0.028259359300136566,-0.1445964276790619],"type":"VEC3"},{"bufferView":1,"componentType":5126,"count":9746,"type":"VEC3"},{"bufferView":2,"componentType":5126,"count":9746,"type":"VEC2"},{"bufferView":3,"componentType":5123,"count":52368,"type":"SCALAR"},{"bufferView":4,"componentType":5126,"type":"VEC3","count":48,"min":[-2,-1.3,-2],"max":[2,1.9000000000000001,2]},{"bufferView":5,"componentType":5126,"type":"VEC3","count":48,"min":[-1,-1,-1],"max":[1,1,1]},{"bufferView":6,"componentType":5125,"type":"SCALAR","count":72},{"bufferView":7,"componentType":5126,"type":"VEC3","count":48,"min":[-0.25,-1,-0.25],"max":[0.25,0,0.25]},{"bufferView":8,"componentType":5126,"type":"VEC3","count":48,"min":[-1,-1,-1],"max":[1,1,1]},{"bufferView":9,"componentType":5125,"type":"SCALAR","count":72}],"bufferViews":[{"buffer":0,"byteLength":116952,"byteOffset":0},{"buffer":0,"byteLength":116952,"byteOffset":116952},{"buffer":0,"byteLength":77968,"byteOffset":233904},{"buffer":0,"byteLength":104736,"byteOffset":311872},{"buffer":1,"byteOffset":0,"byteLength":576,"target":34962},{"buffer":1,"byteOffset":576,"byteLength":576,"target":34962},{"buffer":1,"byteOffset":1152,"byteLength":288,"target":34963},{"buffer":1,"byteOffset":1440,"byteLength":576,"target":34962},{"buffer":1,"byteOffset":2016,"byteLength":576,"target":34962},{"buffer":1,"byteOffset":2592,"byteLength":288,"target":34963}],"samplers":[{"magFilter":9729,"minFilter":9987}],"buffers":[{"byteLength":416608,"uri":"marble_bust_01.bin"},{"uri":"setting.bin","byteLength":2880}]}