{"accessors":[{"bufferView":0,"componentType":5126,"count":196,"max":[3.2,0,3.2],"min":[-3.2,-0.4,-3.2],"type":"VEC3"},{"bufferView":1,"componentType":5126,"count":196,"max":[0.99999999950652,0,0.99999999950652],"min":[-0.99999999950652,-1,-0.99999999950652],"type":"VEC3"},{"bufferView":2,"componentType":5125,"count":864,"type":"SCALAR"},{"bufferView":3,"componentType":5126,"count":312,"max":[2.88,1.4353910524340092,2.88],"min":[-2.88,-0.035391052434009404,-2.88],"type":"VEC3"},{"bufferView":4,"componentType":5126,"count":312,"max":[1,1,1],"min":[-1,-1,-1],"type":"VEC3"},{"bufferView":5,"componentType":5125,"count":468,"type":"SCALAR"}],"asset":{"copyright":"Original Web Geometry contributors; repository license","generator":"Web Geometry examples recipe v1","version":"2.0"},"bufferViews":[{"buffer":0,"byteLength":2352,"byteOffset":0,"target":34962},{"buffer":0,"byteLength":2352,"byteOffset":2352,"target":34962},{"buffer":0,"byteLength":3456,"byteOffset":4704,"target":34963},{"buffer":0,"byteLength":3744,"byteOffset":8160,"target":34962},{"buffer":0,"byteLength":3744,"byteOffset":11904,"target":34962},{"buffer":0,"byteLength":1872,"byteOffset":15648,"target":34963}],"buffers":[{"byteLength":17520,"uri":"source.bin"}],"materials":[{"doubleSided":true,"name":"Limestone dial","pbrMetallicRoughness":{"baseColorFactor":[0.82,0.78,0.68,1],"metallicFactor":0,"roughnessFactor":0.8}},{"doubleSided":true,"name":"Bronze gnomon","pbrMetallicRoughness":{"baseColorFactor":[0.55,0.38,0.2,1],"metallicFactor":0.9,"roughnessFactor":0.35}}],"meshes":[{"name":"Sundial","primitives":[{"attributes":{"NORMAL":1,"POSITION":0},"indices":2,"material":0},{"attributes":{"NORMAL":4,"POSITION":3},"indices":5,"material":1}]}],"nodes":[{"mesh":0,"name":"Sundial"}],"scene":0,"scenes":[{"nodes":[0]}]}