{"accessors":[{"bufferView":0,"componentType":5126,"count":3,"max":[0,0,0],"min":[0,0,0],"type":"VEC3"},{"bufferView":1,"componentType":5123,"count":3,"type":"SCALAR"}],"asset":{"copyright":"Original Web Geometry contributors; repository license","generator":"Web Geometry examples recipe v1","version":"2.0"},"bufferViews":[{"buffer":0,"byteLength":36,"byteOffset":0},{"buffer":0,"byteLength":6,"byteOffset":36}],"buffers":[{"byteLength":44,"uri":"scene.bin"}],"images":[{"uri":"../../../../source/leaf.png"}],"materials":[{"doubleSided":true,"name":"Bark","pbrMetallicRoughness":{"baseColorFactor":[0.3,0.2,0.12,1],"metallicFactor":0,"roughnessFactor":0.9}},{"alphaCutoff":0.5,"alphaMode":"MASK","doubleSided":true,"name":"Leaf","pbrMetallicRoughness":{"baseColorTexture":{"index":0}}},{"doubleSided":true,"name":"Moss","pbrMetallicRoughness":{"baseColorFactor":[0.25,0.3,0.15,1],"metallicFactor":0,"roughnessFactor":0.95}}],"meshes":[{"name":"branch","primitives":[{"attributes":{"POSITION":0},"indices":1,"material":0,"mode":4},{"attributes":{"POSITION":0},"indices":1,"material":2,"mode":4}]},{"name":"leaf","primitives":[{"attributes":{"POSITION":0},"indices":1,"material":1,"mode":4}]}],"nodes":[{"mesh":0,"name":"branch"},{"mesh":1,"name":"leaf-0","rotation":[-0.2272,0,0.6893,0.688],"translation":[-0.0475,1.5591,-0.0157]},{"mesh":1,"name":"leaf-1","rotation":[0.4839,0,0.5384,0.6899],"translation":[-0.0372,3.2925,0.0334]},{"mesh":1,"name":"leaf-2","rotation":[0.3425,0,0.4062,0.8472],"translation":[-0.0382,2.8379,0.0322]},{"mesh":1,"name":"leaf-3","rotation":[0.5933,0,-0.3876,0.7055],"translation":[0.0273,3.2133,0.0419]},{"mesh":1,"name":"leaf-4","rotation":[-0.6859,0,0.0407,0.7265],"translation":[-0.003,2.5421,-0.0499]},{"mesh":1,"name":"leaf-5","rotation":[0.5301,0,-0.3037,0.7917],"translation":[0.0249,3.7217,0.0434]},{"mesh":1,"name":"leaf-6","rotation":[0.627,0,0.2258,0.7456],"translation":[-0.0169,1.6953,0.047]},{"mesh":1,"name":"leaf-7","rotation":[0.3371,0,0.5387,0.7721],"translation":[-0.0424,1.5366,0.0265]},{"mesh":1,"name":"leaf-8","rotation":[-0.3818,0,0.5944,0.7078],"translation":[-0.0421,1.9668,-0.027]},{"mesh":1,"name":"leaf-9","rotation":[-0.5032,0,-0.554,0.6632],"translation":[0.037,3.7231,-0.0336]},{"mesh":1,"name":"leaf-10","rotation":[0.046,0,0.5859,0.8091],"translation":[-0.0498,1.1389,0.0039]},{"mesh":1,"name":"leaf-11","rotation":[0.5659,0,-0.252,0.785],"translation":[0.0203,1.4273,0.0457]},{"mesh":1,"name":"leaf-12","rotation":[-0.5215,0,0.4407,0.7306],"translation":[-0.0323,1.3737,-0.0382]},{"mesh":1,"name":"leaf-13","rotation":[0.3269,0,0.6197,0.7135],"translation":[-0.0442,0.8142,0.0233]},{"mesh":1,"name":"leaf-14","rotation":[0.0668,0,0.7269,0.6835],"translation":[-0.0498,1.6772,0.0046]},{"mesh":1,"name":"leaf-15","rotation":[0.6622,0,0.1532,0.7335],"translation":[-0.0113,1.3176,0.0487]},{"mesh":1,"name":"leaf-16","rotation":[-0.3335,0,0.6066,0.7217],"translation":[-0.0438,1.4011,-0.0241]},{"mesh":1,"name":"leaf-17","rotation":[0.2274,0,-0.6717,0.7051],"translation":[0.0474,3.1643,0.016]},{"mesh":1,"name":"leaf-18","rotation":[-0.4899,0,-0.3475,0.7995],"translation":[0.0289,2.1345,-0.0408]},{"mesh":1,"name":"leaf-19","rotation":[-0.1688,0,-0.6028,0.7798],"translation":[0.0481,1.3626,-0.0135]},{"mesh":1,"name":"leaf-20","rotation":[-0.0885,0,0.5526,0.8287],"translation":[-0.0494,1.1316,-0.0079]},{"mesh":1,"name":"leaf-21","rotation":[0.2034,0,0.5486,0.811],"translation":[-0.0469,3.7493,0.0174]},{"mesh":1,"name":"leaf-22","rotation":[0.0437,0,0.6529,0.7562],"translation":[-0.0499,2.2866,0.0033]},{"mesh":1,"name":"leaf-23","rotation":[-0.5893,0,-0.2112,0.7798],"translation":[0.0169,1.2653,-0.0471]},{"mesh":1,"name":"leaf-24","rotation":[0.5642,0,0.1674,0.8085],"translation":[-0.0142,2.0044,0.0479]},{"mesh":1,"name":"leaf-25","rotation":[0.5943,0,0.4102,0.6917],"translation":[-0.0284,2.7856,0.0411]},{"mesh":1,"name":"leaf-26","rotation":[0.3225,0,0.4616,0.8264],"translation":[-0.041,3.7375,0.0286]},{"mesh":1,"name":"leaf-27","rotation":[-0.5802,0,-0.1513,0.8003],"translation":[0.0126,3.1557,-0.0484]},{"mesh":1,"name":"leaf-28","rotation":[0.2128,0,0.6001,0.7711],"translation":[-0.0471,1.4431,0.0167]},{"mesh":1,"name":"leaf-29","rotation":[-0.0399,0,-0.6715,0.7399],"translation":[0.0499,3.3911,-0.003]},{"mesh":1,"name":"leaf-30","rotation":[0.1214,0,-0.6508,0.7495],"translation":[0.0492,0.986,0.0092]},{"mesh":1,"name":"leaf-31","rotation":[0.174,0,0.7131,0.6792],"translation":[-0.0486,0.8724,0.0119]},{"mesh":1,"name":"leaf-32","rotation":[-0.2616,0,-0.4917,0.8305],"translation":[0.0441,3.7495,-0.0235]},{"mesh":1,"name":"leaf-33","rotation":[-0.3346,0,0.4996,0.7991],"translation":[-0.0415,2.2253,-0.0278]},{"mesh":1,"name":"leaf-34","rotation":[-0.5646,0,-0.2555,0.7848],"translation":[0.0206,3.4337,-0.0456]},{"mesh":1,"name":"leaf-35","rotation":[-0.2526,0,-0.6421,0.7238],"translation":[0.0465,1.7979,-0.0183]},{"mesh":1,"name":"leaf-36","rotation":[-0.1671,0,0.6414,0.7488],"translation":[-0.0484,3.0126,-0.0126]},{"mesh":1,"name":"leaf-37","rotation":[-0.2955,0,0.5993,0.7439],"translation":[-0.0448,0.8568,-0.0221]},{"mesh":1,"name":"leaf-38","rotation":[-0.5468,0,-0.1072,0.8304],"translation":[0.0096,1.8829,-0.0491]},{"mesh":1,"name":"leaf-39","rotation":[0.3416,0,0.4065,0.8474],"translation":[-0.0383,3.396,0.0322]},{"mesh":1,"name":"leaf-40","rotation":[-0.6194,0,0.224,0.7524],"translation":[-0.017,2.3835,-0.047]},{"mesh":1,"name":"leaf-41","rotation":[0.4987,0,0.2497,0.83],"translation":[-0.0224,3.6094,0.0447]},{"mesh":1,"name":"leaf-42","rotation":[0.2884,0,-0.4466,0.847],"translation":[0.042,1.8756,0.0271]},{"mesh":1,"name":"leaf-43","rotation":[-0.2521,0,-0.6877,0.6808],"translation":[0.0469,1.004,-0.0172]},{"mesh":1,"name":"leaf-44","rotation":[-0.0878,0,-0.5391,0.8377],"translation":[0.0494,3.666,-0.008]},{"mesh":1,"name":"leaf-45","rotation":[-0.6566,0,0.3099,0.6876],"translation":[-0.0213,3.6359,-0.0452]},{"mesh":1,"name":"leaf-46","rotation":[0.0558,0,-0.6809,0.7303],"translation":[0.0498,3.823,0.0041]},{"mesh":1,"name":"leaf-47","rotation":[0.4985,0,0.3652,0.7862],"translation":[-0.0295,1.8262,0.0403]},{"mesh":1,"name":"leaf-48","rotation":[-0.4163,0,0.4974,0.7611],"translation":[-0.0383,1.1721,-0.0321]},{"mesh":1,"name":"leaf-49","rotation":[0.3552,0,0.5115,0.7825],"translation":[-0.0411,1.3705,0.0285]},{"mesh":1,"name":"leaf-50","rotation":[-0.6602,0,0.135,0.7389],"translation":[-0.01,2.6758,-0.049]},{"mesh":1,"name":"leaf-51","rotation":[-0.7146,0,-0.1266,0.688],"translation":[0.0087,1.6816,-0.0492]},{"mesh":1,"name":"leaf-52","rotation":[-0.2494,0,-0.4967,0.8313],"translation":[0.0447,1.7942,-0.0224]},{"mesh":1,"name":"leaf-53","rotation":[0.5018,0,0.2585,0.8255],"translation":[-0.0229,1.1087,0.0444]},{"mesh":1,"name":"leaf-54","rotation":[-0.6244,0,-0.1286,0.7705],"translation":[0.0101,3.8845,-0.049]},{"mesh":1,"name":"leaf-55","rotation":[-0.2534,0,0.6718,0.696],"translation":[-0.0468,3.4547,-0.0176]},{"mesh":1,"name":"leaf-56","rotation":[0.6656,0,-0.2134,0.7152],"translation":[0.0153,1.2424,0.0476]},{"mesh":1,"name":"leaf-57","rotation":[-0.0446,0,-0.6862,0.7261],"translation":[0.0499,2.6662,-0.0032]},{"mesh":1,"name":"leaf-58","rotation":[0.3618,0,0.5824,0.728],"translation":[-0.0425,2.0013,0.0264]},{"mesh":1,"name":"leaf-59","rotation":[-0.637,0,-0.3124,0.7048],"translation":[0.022,3.399,-0.0449]}],"scene":0,"scenes":[{"name":"Leaves cut by alpha","nodes":[0,1,2,3,4,5,6,7,8,9,10,11,12,13,14,15,16,17,18,19,20,21,22,23,24,25,26,27,28,29,30,31,32,33,34,35,36,37,38,39,40,41,42,43,44,45,46,47,48,49,50,51,52,53,54,55,56,57,58,59,60]}],"textures":[{"source":0}]}