{"asset":{"version":"2.0","generator":"Web Geometry original offline authoring"},"scene":0,"scenes":[{"nodes":[0,1]}],"extensionsUsed":["KHR_lights_punctual"],"extensions":{"KHR_lights_punctual":{"lights":[{"type":"directional","color":[1,0.95,0.88],"intensity":2400}]}},"nodes":[{"name":"Authored-surface","mesh":0},{"name":"Authoring-light","rotation":[-0.3826834323650898,0,0,0.9238795325112867],"extensions":{"KHR_lights_punctual":{"light":0}}}],"meshes":[{"primitives":[{"attributes":{"POSITION":0,"NORMAL":2,"TEXCOORD_0":3},"indices":1,"material":0}]}],"materials":[{"doubleSided":true,"pbrMetallicRoughness":{"baseColorFactor":[0.12,0.65,0.52,1],"metallicFactor":0.1,"roughnessFactor":0.55}}],"buffers":[{"uri":"geometry.bin","byteLength":13824}],"bufferViews":[{"buffer":0,"byteOffset":0,"byteLength":4608,"target":34962},{"buffer":0,"byteOffset":4608,"byteLength":1536,"target":34963},{"buffer":0,"byteOffset":6144,"byteLength":4608,"target":34962},{"buffer":0,"byteOffset":10752,"byteLength":3072,"target":34962}],"accessors":[{"bufferView":0,"componentType":5126,"type":"VEC3","count":384,"min":[-3,-0.08797770738601685,-3],"max":[3,0.0899801179766655,3]},{"bufferView":1,"componentType":5125,"type":"SCALAR","count":384},{"bufferView":2,"componentType":5126,"type":"VEC3","count":384},{"bufferView":3,"componentType":5126,"type":"VEC2","count":384}]}