{"asset":{"version":"2.0","generator":"Web Geometry examples recipe v1","copyright":"Original Web Geometry contributors; repository license"},"scene":0,"scenes":[{"nodes":[0]}],"nodes":[{"name":"Turned vase","mesh":0}],"meshes":[{"name":"Turned vase","primitives":[{"material":0,"attributes":{"POSITION":0,"NORMAL":1},"indices":2},{"material":1,"attributes":{"POSITION":3,"NORMAL":4},"indices":5}]}],"materials":[{"name":"Walnut table","doubleSided":true,"pbrMetallicRoughness":{"baseColorFactor":[0.3,0.18,0.1,1],"metallicFactor":0,"roughnessFactor":0.6}},{"name":"Celadon glaze","doubleSided":true,"pbrMetallicRoughness":{"baseColorFactor":[0.55,0.72,0.6,1],"metallicFactor":0,"roughnessFactor":0.25}}],"buffers":[{"uri":"geometry.bin","byteLength":169800}],"bufferViews":[{"buffer":0,"byteOffset":0,"byteLength":288,"target":34962},{"buffer":0,"byteOffset":288,"byteLength":288,"target":34962},{"buffer":0,"byteOffset":576,"byteLength":144,"target":34963},{"buffer":0,"byteOffset":720,"byteLength":43068,"target":34962},{"buffer":0,"byteOffset":43788,"byteLength":43068,"target":34962},{"buffer":0,"byteOffset":86856,"byteLength":82944,"target":34963}],"accessors":[{"bufferView":0,"componentType":5126,"type":"VEC3","count":24,"min":[-2.5,-0.3,-2.5],"max":[2.5,0,2.5]},{"bufferView":1,"componentType":5126,"type":"VEC3","count":24,"min":[-1,-1,-1],"max":[1,1,1]},{"bufferView":2,"componentType":5125,"type":"SCALAR","count":36},{"bufferView":3,"componentType":5126,"type":"VEC3","count":3589,"min":[-0.72,0,-0.72],"max":[0.72,1.95,0.72]},{"bufferView":4,"componentType":5126,"type":"VEC3","count":3589,"min":[-0.9998488050698355,-1,-0.9998488050698355],"max":[0.9998488050698356,0.976788088322632,0.9998488050698356]},{"bufferView":5,"componentType":5125,"type":"SCALAR","count":20736}]}