{"asset":{"version":"2.0","generator":"Web Geometry examples recipe v1","copyright":"Original Web Geometry contributors; repository license"},"scene":0,"scenes":[{"nodes":[0]}],"nodes":[{"name":"Letters in relief","mesh":0}],"meshes":[{"name":"Letters in relief","primitives":[{"material":0,"attributes":{"POSITION":0,"NORMAL":1},"indices":2},{"material":1,"attributes":{"POSITION":3,"NORMAL":4},"indices":5}]}],"materials":[{"name":"Limestone plaque","doubleSided":true,"pbrMetallicRoughness":{"baseColorFactor":[0.78,0.74,0.66,1],"metallicFactor":0,"roughnessFactor":0.85}},{"name":"Limestone letters","doubleSided":true,"pbrMetallicRoughness":{"baseColorFactor":[0.8,0.76,0.68,1],"metallicFactor":0,"roughnessFactor":0.8}}],"buffers":[{"uri":"geometry.bin","byteLength":12240}],"bufferViews":[{"buffer":0,"byteOffset":0,"byteLength":576,"target":34962},{"buffer":0,"byteOffset":576,"byteLength":576,"target":34962},{"buffer":0,"byteOffset":1152,"byteLength":288,"target":34963},{"buffer":0,"byteOffset":1440,"byteLength":4320,"target":34962},{"buffer":0,"byteOffset":5760,"byteLength":4320,"target":34962},{"buffer":0,"byteOffset":10080,"byteLength":2160,"target":34963}],"accessors":[{"bufferView":0,"componentType":5126,"type":"VEC3","count":48,"min":[-3,-0.3,-3],"max":[3,2.27,3]},{"bufferView":1,"componentType":5126,"type":"VEC3","count":48,"min":[-1,-1,-1],"max":[1,1,1]},{"bufferView":2,"componentType":5125,"type":"SCALAR","count":72},{"bufferView":3,"componentType":5126,"type":"VEC3","count":360,"min":[-1.98,0.33000000000000007,0],"max":[1.7600000000000002,1.87,0.2]},{"bufferView":4,"componentType":5126,"type":"VEC3","count":360,"min":[-1,-1,-1],"max":[1,1,1]},{"bufferView":5,"componentType":5125,"type":"SCALAR","count":540}]}