{"asset":{"version":"2.0","generator":"Trillion3D example writer","copyright":"CC0 1.0"},"scene":0,"scenes":[{"nodes":[0]}],"nodes":[{"name":"chalet","mesh":0}],"meshes":[{"name":"chalet","primitives":[{"material":0,"attributes":{"POSITION":0,"NORMAL":1},"indices":2},{"material":1,"attributes":{"POSITION":3,"NORMAL":4},"indices":5},{"material":2,"attributes":{"POSITION":6,"NORMAL":7},"indices":8}]}],"materials":[{"name":"whitewash","pbrMetallicRoughness":{"baseColorFactor":[0.9,0.88,0.82,1],"metallicFactor":0,"roughnessFactor":0.9}},{"name":"log wood","pbrMetallicRoughness":{"baseColorFactor":[0.42,0.27,0.15,1],"metallicFactor":0,"roughnessFactor":0.8}},{"name":"shingles","pbrMetallicRoughness":{"baseColorFactor":[0.3,0.22,0.17,1],"metallicFactor":0,"roughnessFactor":0.85}}],"buffers":[{"uri":"chalet.bin","byteLength":571680}],"bufferViews":[{"buffer":0,"byteOffset":0,"byteLength":288,"target":34962},{"buffer":0,"byteOffset":288,"byteLength":288,"target":34962},{"buffer":0,"byteOffset":576,"byteLength":144,"target":34963},{"buffer":0,"byteOffset":720,"byteLength":86976,"target":34962},{"buffer":0,"byteOffset":87696,"byteLength":86976,"target":34962},{"buffer":0,"byteOffset":174672,"byteLength":43488,"target":34963},{"buffer":0,"byteOffset":218160,"byteLength":141408,"target":34962},{"buffer":0,"byteOffset":359568,"byteLength":141408,"target":34962},{"buffer":0,"byteOffset":500976,"byteLength":70704,"target":34963}],"accessors":[{"bufferView":0,"componentType":5126,"type":"VEC3","count":24,"min":[-4,0,-3],"max":[4,2.8000001907348633,3]},{"bufferView":1,"componentType":5126,"type":"VEC3","count":24,"min":[-1,-1,-1],"max":[1,1,1]},{"bufferView":2,"componentType":5125,"type":"SCALAR","count":36},{"bufferView":3,"componentType":5126,"type":"VEC3","count":7248,"min":[-4.119999885559082,2.8000001907348633,-4.300000190734863],"max":[4.119999885559082,4.239999771118164,4.300000190734863]},{"bufferView":4,"componentType":5126,"type":"VEC3","count":7248,"min":[-1,-1,-1],"max":[1,1,1]},{"bufferView":5,"componentType":5125,"type":"SCALAR","count":10872},{"bufferView":6,"componentType":5126,"type":"VEC3","count":11784,"min":[-5.131999969482422,4.252423286437988,-4.008174896240234],"max":[5.131999969482422,6.939999580383301,4.008174896240234]},{"bufferView":7,"componentType":5126,"type":"VEC3","count":11784,"min":[-1,-1,-1],"max":[1,1,1]},{"bufferView":8,"componentType":5125,"type":"SCALAR","count":17676}]}