{"extensionsUsed":["KHR_lights_punctual"],"extensions":{"KHR_lights_punctual":{"lights":[{"name":"Garden-sun","type":"directional","color":[1,0.94,0.86],"intensity":2400}]}},"asset":{"version":"2.0","generator":"trillion3D original procedural garden v1","copyright":"trillion3D contributors; repository license"},"scene":0,"scenes":[{"nodes":[0,1,2,3,4,5,6,7,8,9,10]}],"nodes":[{"name":"Ring-1","mesh":0},{"name":"Ring-2","mesh":1},{"name":"Ring-3","mesh":2},{"name":"Ring-4","mesh":3},{"name":"Ring-5","mesh":4},{"name":"Ring-6","mesh":5},{"name":"Ring-7","mesh":6},{"name":"Ring-8","mesh":7},{"name":"Ring-9","mesh":8},{"name":"Wave-plinth","mesh":9},{"name":"Garden-sun","rotation":[-0.3826834323650898,0,0,0.9238795325112867],"extensions":{"KHR_lights_punctual":{"light":0}}}],"meshes":[{"name":"Ring-1","primitives":[{"attributes":{"POSITION":1,"NORMAL":2},"indices":0,"material":0}]},{"name":"Ring-2","primitives":[{"attributes":{"POSITION":4,"NORMAL":5},"indices":3,"material":1}]},{"name":"Ring-3","primitives":[{"attributes":{"POSITION":7,"NORMAL":8},"indices":6,"material":2}]},{"name":"Ring-4","primitives":[{"attributes":{"POSITION":10,"NORMAL":11},"indices":9,"material":0}]},{"name":"Ring-5","primitives":[{"attributes":{"POSITION":13,"NORMAL":14},"indices":12,"material":1}]},{"name":"Ring-6","primitives":[{"attributes":{"POSITION":16,"NORMAL":17},"indices":15,"material":2}]},{"name":"Ring-7","primitives":[{"attributes":{"POSITION":19,"NORMAL":20},"indices":18,"material":0}]},{"name":"Ring-8","primitives":[{"attributes":{"POSITION":22,"NORMAL":23},"indices":21,"material":1}]},{"name":"Ring-9","primitives":[{"attributes":{"POSITION":25,"NORMAL":26},"indices":24,"material":2}]},{"name":"Wave-plinth","primitives":[{"attributes":{"POSITION":28,"NORMAL":29},"indices":27,"material":3}]}],"materials":[{"name":"Jade","doubleSided":true,"pbrMetallicRoughness":{"baseColorFactor":[0.1,0.65,0.57,1],"metallicFactor":0.15,"roughnessFactor":0.4}},{"name":"Iris","doubleSided":true,"pbrMetallicRoughness":{"baseColorFactor":[0.36,0.34,0.85,1],"metallicFactor":0.15,"roughnessFactor":0.4}},{"name":"Amber","doubleSided":true,"pbrMetallicRoughness":{"baseColorFactor":[0.96,0.54,0.24,1],"metallicFactor":0.15,"roughnessFactor":0.4}},{"name":"Slate","doubleSided":true,"pbrMetallicRoughness":{"baseColorFactor":[0.12,0.17,0.24,1],"metallicFactor":0.15,"roughnessFactor":0.4}}],"buffers":[{"uri":"garden.bin","byteLength":3010560}],"bufferViews":[{"buffer":0,"byteOffset":0,"byteLength":36864,"target":34963},{"buffer":0,"byteOffset":36864,"byteLength":110592,"target":34962},{"buffer":0,"byteOffset":147456,"byteLength":110592,"target":34962},{"buffer":0,"byteOffset":258048,"byteLength":36864,"target":34963},{"buffer":0,"byteOffset":294912,"byteLength":110592,"target":34962},{"buffer":0,"byteOffset":405504,"byteLength":110592,"target":34962},{"buffer":0,"byteOffset":516096,"byteLength":36864,"target":34963},{"buffer":0,"byteOffset":552960,"byteLength":110592,"target":34962},{"buffer":0,"byteOffset":663552,"byteLength":110592,"target":34962},{"buffer":0,"byteOffset":774144,"byteLength":36864,"target":34963},{"buffer":0,"byteOffset":811008,"byteLength":110592,"target":34962},{"buffer":0,"byteOffset":921600,"byteLength":110592,"target":34962},{"buffer":0,"byteOffset":1032192,"byteLength":36864,"target":34963},{"buffer":0,"byteOffset":1069056,"byteLength":110592,"target":34962},{"buffer":0,"byteOffset":1179648,"byteLength":110592,"target":34962},{"buffer":0,"byteOffset":1290240,"byteLength":36864,"target":34963},{"buffer":0,"byteOffset":1327104,"byteLength":110592,"target":34962},{"buffer":0,"byteOffset":1437696,"byteLength":110592,"target":34962},{"buffer":0,"byteOffset":1548288,"byteLength":36864,"target":34963},{"buffer":0,"byteOffset":1585152,"byteLength":110592,"target":34962},{"buffer":0,"byteOffset":1695744,"byteLength":110592,"target":34962},{"buffer":0,"byteOffset":1806336,"byteLength":36864,"target":34963},{"buffer":0,"byteOffset":1843200,"byteLength":110592,"target":34962},{"buffer":0,"byteOffset":1953792,"byteLength":110592,"target":34962},{"buffer":0,"byteOffset":2064384,"byteLength":36864,"target":34963},{"buffer":0,"byteOffset":2101248,"byteLength":110592,"target":34962},{"buffer":0,"byteOffset":2211840,"byteLength":110592,"target":34962},{"buffer":0,"byteOffset":2322432,"byteLength":98304,"target":34963},{"buffer":0,"byteOffset":2420736,"byteLength":294912,"target":34962},{"buffer":0,"byteOffset":2715648,"byteLength":294912,"target":34962}],"accessors":[{"bufferView":0,"componentType":5125,"count":9216,"type":"SCALAR","min":[0],"max":[9215]},{"bufferView":1,"componentType":5126,"count":9216,"type":"VEC3","min":[-4.36,0.2899999999999998,-3.4400000000000004],"max":[-2.04,2.6100000000000003,-2.96]},{"bufferView":2,"componentType":5126,"count":9216,"type":"VEC3","min":[-0.9999999013039634,-0.9999999013039635,-0.999999950651973],"max":[0.9999999013039637,0.9999999013039637,0.999999950651973]},{"bufferView":3,"componentType":5125,"count":9216,"type":"SCALAR","min":[0],"max":[9215]},{"bufferView":4,"componentType":5126,"count":9216,"type":"VEC3","min":[-1.1600000000000001,0.2899999999999998,-3.4400000000000004],"max":[1.1600000000000001,2.6100000000000003,-2.96]},{"bufferView":5,"componentType":5126,"count":9216,"type":"VEC3","min":[-0.9999999013039641,-0.9999999013039635,-0.999999950651973],"max":[0.9999999013039641,0.9999999013039637,0.999999950651973]},{"bufferView":6,"componentType":5125,"count":9216,"type":"SCALAR","min":[0],"max":[9215]},{"bufferView":7,"componentType":5126,"count":9216,"type":"VEC3","min":[2.04,0.2899999999999998,-3.4400000000000004],"max":[4.36,2.6100000000000003,-2.96]},{"bufferView":8,"componentType":5126,"count":9216,"type":"VEC3","min":[-0.9999999013039637,-0.9999999013039635,-0.999999950651973],"max":[0.9999999013039634,0.9999999013039637,0.999999950651973]},{"bufferView":9,"componentType":5125,"count":9216,"type":"SCALAR","min":[0],"max":[9215]},{"bufferView":10,"componentType":5126,"count":9216,"type":"VEC3","min":[-4.36,0.2899999999999998,-0.24],"max":[-2.04,2.6100000000000003,0.24]},{"bufferView":11,"componentType":5126,"count":9216,"type":"VEC3","min":[-0.9999999013039634,-0.9999999013039635,-0.9999999506519734],"max":[0.9999999013039637,0.9999999013039637,0.9999999506519734]},{"bufferView":12,"componentType":5125,"count":9216,"type":"SCALAR","min":[0],"max":[9215]},{"bufferView":13,"componentType":5126,"count":9216,"type":"VEC3","min":[-1.1600000000000001,0.2899999999999998,-0.24],"max":[1.1600000000000001,2.6100000000000003,0.24]},{"bufferView":14,"componentType":5126,"count":9216,"type":"VEC3","min":[-0.9999999013039641,-0.9999999013039635,-0.9999999506519734],"max":[0.9999999013039641,0.9999999013039637,0.9999999506519734]},{"bufferView":15,"componentType":5125,"count":9216,"type":"SCALAR","min":[0],"max":[9215]},{"bufferView":16,"componentType":5126,"count":9216,"type":"VEC3","min":[2.04,0.2899999999999998,-0.24],"max":[4.36,2.6100000000000003,0.24]},{"bufferView":17,"componentType":5126,"count":9216,"type":"VEC3","min":[-0.9999999013039637,-0.9999999013039635,-0.9999999506519734],"max":[0.9999999013039634,0.9999999013039637,0.9999999506519734]},{"bufferView":18,"componentType":5125,"count":9216,"type":"SCALAR","min":[0],"max":[9215]},{"bufferView":19,"componentType":5126,"count":9216,"type":"VEC3","min":[-4.36,0.2899999999999998,2.96],"max":[-2.04,2.6100000000000003,3.4400000000000004]},{"bufferView":20,"componentType":5126,"count":9216,"type":"VEC3","min":[-0.9999999013039634,-0.9999999013039635,-0.999999950651973],"max":[0.9999999013039637,0.9999999013039637,0.999999950651973]},{"bufferView":21,"componentType":5125,"count":9216,"type":"SCALAR","min":[0],"max":[9215]},{"bufferView":22,"componentType":5126,"count":9216,"type":"VEC3","min":[-1.1600000000000001,0.2899999999999998,2.96],"max":[1.1600000000000001,2.6100000000000003,3.4400000000000004]},{"bufferView":23,"componentType":5126,"count":9216,"type":"VEC3","min":[-0.9999999013039641,-0.9999999013039635,-0.999999950651973],"max":[0.9999999013039641,0.9999999013039637,0.999999950651973]},{"bufferView":24,"componentType":5125,"count":9216,"type":"SCALAR","min":[0],"max":[9215]},{"bufferView":25,"componentType":5126,"count":9216,"type":"VEC3","min":[2.04,0.2899999999999998,2.96],"max":[4.36,2.6100000000000003,3.4400000000000004]},{"bufferView":26,"componentType":5126,"count":9216,"type":"VEC3","min":[-0.9999999013039637,-0.9999999013039635,-0.999999950651973],"max":[0.9999999013039634,0.9999999013039637,0.999999950651973]},{"bufferView":27,"componentType":5125,"count":24576,"type":"SCALAR","min":[0],"max":[24575]},{"bufferView":28,"componentType":5126,"count":24576,"type":"VEC3","min":[-6,-0.17997522282529788,-6],"max":[6,-0.020009256560176866,6]},{"bufferView":29,"componentType":5126,"count":24576,"type":"VEC3","min":[-0.1960426722677181,0.980580732262814,-0.19596424119173894],"max":[0.19606791311057273,0.9999953720336852,0.19611585227850245]}]}