{"accessors":[{"bufferView":0,"componentType":5126,"count":9746,"max":[0.14886942505836487,0.48668384552001953,0.1551172435283661],"min":[-0.12288019061088562,-0.02825935930013657,-0.1445964276790619],"type":"VEC3"},{"bufferView":1,"componentType":5126,"count":9746,"type":"VEC3"},{"bufferView":2,"componentType":5126,"count":9746,"type":"VEC2"},{"bufferView":3,"componentType":5123,"count":52368,"type":"SCALAR"},{"bufferView":4,"componentType":5126,"count":48,"max":[2,1.9,2],"min":[-2,-1.3,-2],"type":"VEC3"},{"bufferView":5,"componentType":5126,"count":48,"max":[1,1,1],"min":[-1,-1,-1],"type":"VEC3"},{"bufferView":6,"componentType":5125,"count":72,"type":"SCALAR"},{"bufferView":7,"componentType":5126,"count":48,"max":[0.25,0,0.25],"min":[-0.25,-1,-0.25],"type":"VEC3"},{"bufferView":8,"componentType":5126,"count":48,"max":[1,1,1],"min":[-1,-1,-1],"type":"VEC3"},{"bufferView":9,"componentType":5125,"count":72,"type":"SCALAR"}],"asset":{"generator":"Khronos glTF Blender I/O v1.6.16","version":"2.0"},"bufferViews":[{"buffer":0,"byteLength":116952,"byteOffset":0},{"buffer":0,"byteLength":116952,"byteOffset":116952},{"buffer":0,"byteLength":77968,"byteOffset":233904},{"buffer":0,"byteLength":104736,"byteOffset":311872},{"buffer":0,"byteLength":576,"byteOffset":416608,"target":34962},{"buffer":0,"byteLength":576,"byteOffset":417184,"target":34962},{"buffer":0,"byteLength":288,"byteOffset":417760,"target":34963},{"buffer":0,"byteLength":576,"byteOffset":418048,"target":34962},{"buffer":0,"byteLength":576,"byteOffset":418624,"target":34962},{"buffer":0,"byteLength":288,"byteOffset":419200,"target":34963}],"buffers":[{"byteLength":419488,"uri":"source.bin"}],"images":[{"mimeType":"image/jpeg","name":"marble_bust_01_nor_gl","uri":"../../../../source/textures/marble_bust_01_nor_gl_1k.jpg"},{"mimeType":"image/jpeg","name":"marble_bust_01_diff","uri":"../../../../source/textures/marble_bust_01_diff_1k.jpg"},{"mimeType":"image/jpeg","name":"marble_bust_01_arm","uri":"../../../../source/textures/marble_bust_01_rough_1k.jpg"}],"materials":[{"doubleSided":true,"name":"marble_bust_01","normalTexture":{"index":0},"pbrMetallicRoughness":{"baseColorTexture":{"index":1},"metallicFactor":0,"metallicRoughnessTexture":{"index":2}}},{"doubleSided":true,"name":"Plaster niche","pbrMetallicRoughness":{"baseColorFactor":[0.6,0.56,0.5,1],"metallicFactor":0,"roughnessFactor":0.85}},{"doubleSided":true,"name":"Dark stone pedestal","pbrMetallicRoughness":{"baseColorFactor":[0.16,0.15,0.15,1],"metallicFactor":0,"roughnessFactor":0.5}}],"meshes":[{"name":"marble_bust_01","primitives":[{"attributes":{"NORMAL":1,"POSITION":0,"TEXCOORD_0":2},"indices":3,"material":0}]},{"name":"Pedestal and niche","primitives":[{"attributes":{"NORMAL":5,"POSITION":4},"indices":6,"material":1},{"attributes":{"NORMAL":8,"POSITION":7},"indices":9,"material":2}]}],"nodes":[{"mesh":0,"name":"marble_bust_01","translation":[0,0.028335653245449063,0]},{"mesh":1,"name":"Pedestal and niche"}],"samplers":[{"magFilter":9729,"minFilter":9987}],"scene":0,"scenes":[{"name":"Scene","nodes":[0,1]}],"textures":[{"sampler":0,"source":0},{"sampler":0,"source":1},{"sampler":0,"source":2}]}