{"asset":{"version":"2.0","generator":"Web Geometry examples recipe v1","copyright":"Original Web Geometry contributors; repository license"},"scene":0,"scenes":[{"nodes":[0]}],"nodes":[{"name":"Still life of primitives","mesh":0}],"meshes":[{"name":"Still life of primitives","primitives":[{"material":0,"attributes":{"POSITION":0,"NORMAL":1},"indices":2},{"material":1,"attributes":{"POSITION":3,"NORMAL":4},"indices":5},{"material":2,"attributes":{"POSITION":6,"NORMAL":7},"indices":8},{"material":3,"attributes":{"POSITION":9,"NORMAL":10},"indices":11},{"material":4,"attributes":{"POSITION":12,"NORMAL":13},"indices":14},{"material":5,"attributes":{"POSITION":15,"NORMAL":16},"indices":17}]}],"materials":[{"name":"Slate slab","doubleSided":true,"pbrMetallicRoughness":{"baseColorFactor":[0.22,0.24,0.27,1],"metallicFactor":0,"roughnessFactor":0.85}},{"name":"Ivory sphere","doubleSided":true,"pbrMetallicRoughness":{"baseColorFactor":[0.9,0.86,0.76,1],"metallicFactor":0,"roughnessFactor":0.4}},{"name":"Teal cylinder","doubleSided":true,"pbrMetallicRoughness":{"baseColorFactor":[0.1,0.55,0.5,1],"metallicFactor":0.2,"roughnessFactor":0.5}},{"name":"Ochre cone","doubleSided":true,"pbrMetallicRoughness":{"baseColorFactor":[0.8,0.55,0.15,1],"metallicFactor":0,"roughnessFactor":0.6}},{"name":"Brass torus","doubleSided":true,"pbrMetallicRoughness":{"baseColorFactor":[0.8,0.6,0.25,1],"metallicFactor":0.9,"roughnessFactor":0.3}},{"name":"Plum box","doubleSided":true,"pbrMetallicRoughness":{"baseColorFactor":[0.4,0.15,0.35,1],"metallicFactor":0,"roughnessFactor":0.7}}],"buffers":[{"uri":"geometry.bin","byteLength":91248}],"bufferViews":[{"buffer":0,"byteOffset":0,"byteLength":288,"target":34962},{"buffer":0,"byteOffset":288,"byteLength":288,"target":34962},{"buffer":0,"byteOffset":576,"byteLength":144,"target":34963},{"buffer":0,"byteOffset":720,"byteLength":6732,"target":34962},{"buffer":0,"byteOffset":7452,"byteLength":6732,"target":34962},{"buffer":0,"byteOffset":14184,"byteLength":12288,"target":34963},{"buffer":0,"byteOffset":26472,"byteLength":2352,"target":34962},{"buffer":0,"byteOffset":28824,"byteLength":2352,"target":34962},{"buffer":0,"byteOffset":31176,"byteLength":3456,"target":34963},{"buffer":0,"byteOffset":34632,"byteLength":2352,"target":34962},{"buffer":0,"byteOffset":36984,"byteLength":2352,"target":34962},{"buffer":0,"byteOffset":39336,"byteLength":3456,"target":34963},{"buffer":0,"byteOffset":42792,"byteLength":12348,"target":34962},{"buffer":0,"byteOffset":55140,"byteLength":12348,"target":34962},{"buffer":0,"byteOffset":67488,"byteLength":23040,"target":34963},{"buffer":0,"byteOffset":90528,"byteLength":288,"target":34962},{"buffer":0,"byteOffset":90816,"byteLength":288,"target":34962},{"buffer":0,"byteOffset":91104,"byteLength":144,"target":34963}],"accessors":[{"bufferView":0,"componentType":5126,"type":"VEC3","count":24,"min":[-4,-0.3,-4],"max":[4,0,4]},{"bufferView":1,"componentType":5126,"type":"VEC3","count":24,"min":[-1,-1,-1],"max":[1,1,1]},{"bufferView":2,"componentType":5125,"type":"SCALAR","count":36},{"bufferView":3,"componentType":5126,"type":"VEC3","count":561,"min":[-3.1,0,-1.7000000000000002],"max":[-1.3000000000000003,1.8,0.09999999999999998]},{"bufferView":4,"componentType":5126,"type":"VEC3","count":561,"min":[-0.9999999993831499,-0.9807883447364294,-0.9999999993831497],"max":[0.9999999993831499,0.9807822157924774,0.9999999993831497]},{"bufferView":5,"componentType":5125,"type":"SCALAR","count":3072},{"bufferView":6,"componentType":5126,"type":"VEC3","count":196,"min":[-0.19999999999999996,0,-2.2],"max":[1,1.8,-1]},{"bufferView":7,"componentType":5126,"type":"VEC3","count":196,"min":[-0.9999999995065197,-1,-0.9999999995065197],"max":[0.9999999995065197,0,0.9999999995065197]},{"bufferView":8,"componentType":5125,"type":"SCALAR","count":864},{"bufferView":9,"componentType":5126,"type":"VEC3","count":196,"min":[1.4999999999999998,0,-0.6000000000000001],"max":[3.0999999999999996,2,1]},{"bufferView":10,"componentType":5126,"type":"VEC3","count":196,"min":[-0.9284766904912204,-0.3713906762015002,-0.9284766904900355],"max":[0.9284766904900355,0,0.9284766904900352]},{"bufferView":11,"componentType":5125,"type":"SCALAR","count":864},{"bufferView":12,"componentType":5126,"type":"VEC3","count":1029,"min":[-1.8199999999999998,0.02999999999999997,0.3800000000000001],"max":[0.62,0.6699999999999999,2.8200000000000003]},{"bufferView":13,"componentType":5126,"type":"VEC3","count":1029,"min":[-0.9999999990130399,-0.99999999950652,-0.9999999990130396],"max":[0.9999999990130402,0.99999999950652,0.9999999990130399]},{"bufferView":14,"componentType":5125,"type":"SCALAR","count":5760},{"bufferView":15,"componentType":5126,"type":"VEC3","count":24,"min":[1.3499999999999999,0,1.6500000000000001],"max":[2.45,1.1,2.75]},{"bufferView":16,"componentType":5126,"type":"VEC3","count":24,"min":[-1,-1,-1],"max":[1,1,1]},{"bufferView":17,"componentType":5125,"type":"SCALAR","count":36}]}